<svg width="1300" height="907" viewBox="0 0 1300 907" fill="none" xmlns="http://www.w3.org/2000/svg">
<path fill-rule="evenodd" clip-rule="evenodd" d="M1299.88 0.697998L1299.88 551.285L1039.35 551.285L1039.35 906.214L913.837 906.214L913.837 499.237L884.037 499.237L884.037 506.211L872.229 506.211L872.229 279.151L880.892 279.151L880.892 281.499L874.576 281.499L874.576 503.863L881.69 503.863L881.69 279.151L913.837 279.151L913.837 237.086L1037.01 237.086L1037.01 0.697987L1299.88 0.697998ZM1037.01 239.433L1008.01 239.433L1008.01 305.354C1012.43 305.881 1015.35 308.347 1017.15 311.252C1019.08 314.347 1019.77 317.953 1019.83 320.352L1019.85 321.553L1008.01 321.553L1008.01 343.141C1012.43 343.669 1015.35 346.134 1017.15 349.04C1019.08 352.135 1019.77 355.741 1019.83 358.14L1019.85 359.341L1008.01 359.341L1008.01 418.3C1012.43 418.828 1015.35 421.293 1017.15 424.198C1019.08 427.294 1019.77 430.9 1019.83 433.299L1019.85 434.5L1008.01 434.5L1008.01 469.832C1012.43 470.359 1015.35 472.825 1017.15 475.73C1019.08 478.825 1019.77 482.431 1019.83 484.83L1019.85 486.031L1008.01 486.031L1008.01 535.086C1012.43 535.613 1015.35 538.079 1017.15 540.984C1019.08 544.079 1019.77 547.685 1019.83 550.084L1019.85 551.285L1008.01 551.285L1008.01 585.693C1012.43 586.221 1015.35 588.686 1017.15 591.591C1019.08 594.687 1019.77 598.293 1019.83 600.692L1019.85 601.893L1008.01 601.893L1008.01 651.09C1012.43 651.618 1015.35 654.083 1017.15 656.988C1019.08 660.083 1019.77 663.69 1019.83 666.089L1019.85 667.29L1008.01 667.29L1008.01 701.311C1012.43 701.839 1015.35 704.304 1017.15 707.209C1019.08 710.304 1019.77 713.911 1019.83 716.31L1019.85 717.511L1008.01 717.511L1008.01 765.552C1012.43 766.08 1015.35 768.545 1017.15 771.451C1019.08 774.546 1019.77 778.152 1019.83 780.551L1019.85 781.752L1008.01 781.752L1008.01 903.866L1037.01 903.866L1037.01 239.433ZM1005.66 903.866L1005.66 842.632L916.185 842.632L916.185 903.866L1005.66 903.866ZM916.185 840.284L1005.66 840.284L1005.66 789.945L916.185 789.945L916.185 840.284ZM916.185 787.597L990.327 787.597L990.327 779.56L1005.66 779.56L1005.66 725.703L916.185 725.703L916.185 787.597ZM916.185 723.356L990.327 723.356L990.327 715.318L1005.66 715.318L1005.66 675.327L916.185 675.327L916.185 723.356ZM916.185 672.979L990.327 672.979L990.327 664.942L1005.66 664.942L1005.66 609.93L916.185 609.93L916.185 672.979ZM916.185 607.583L990.327 607.583L990.327 599.545L1005.66 599.545L1005.66 559.323L916.185 559.323L916.185 607.583ZM916.185 556.975L990.327 556.975L990.327 548.938L1005.66 548.938L1005.66 494.069L916.185 494.069L916.185 556.975ZM916.185 491.721L990.327 491.721L990.327 483.684L1005.66 483.684L1005.66 442.537L916.185 442.537L916.185 491.721ZM916.185 440.189L990.327 440.189L990.327 432.152L1005.66 432.152L1005.66 367.666L916.185 367.666L916.185 440.189ZM916.185 365.318L990.327 365.318L990.327 357.281L1005.66 357.281L1005.66 329.591L916.185 329.591L916.185 365.318ZM916.185 327.243L990.327 327.243L990.327 319.206L1005.66 319.206L1005.66 287.411L916.185 287.411L916.185 327.243ZM916.185 285.064L1005.66 285.064L1005.66 239.433L916.185 239.433L916.185 285.064ZM1008.01 319.206L1017.4 319.206C1017.18 317.214 1016.52 314.68 1015.16 312.493C1013.7 310.151 1011.46 308.219 1008.01 307.722L1008.01 319.206ZM1005.66 321.553L992.675 321.553L992.675 327.243L1005.66 327.243L1005.66 321.553ZM1005.66 359.628L992.675 359.628L992.675 365.318L1005.66 365.318L1005.66 359.628ZM1008.01 432.152L1017.4 432.152C1017.18 430.16 1016.52 427.626 1015.16 425.439C1013.7 423.098 1011.46 421.166 1008.01 420.668L1008.01 432.152ZM1005.66 434.5L992.675 434.5L992.675 440.189L1005.66 440.189L1005.66 434.5ZM1008.01 483.684L1017.4 483.684C1017.18 481.692 1016.52 479.158 1015.16 476.971C1013.7 474.629 1011.46 472.697 1008.01 472.2L1008.01 483.684ZM1005.66 486.031L992.675 486.031L992.675 491.721L1005.66 491.721L1005.66 486.031ZM1008.01 548.938L1017.4 548.938C1017.18 546.946 1016.52 544.412 1015.16 542.225C1013.7 539.883 1011.46 537.952 1008.01 537.454L1008.01 548.938ZM1005.66 551.285L992.675 551.285L992.675 556.975L1005.66 556.975L1005.66 551.285ZM1008.01 599.545L1017.4 599.545C1017.18 597.554 1016.52 595.019 1015.16 592.832C1013.7 590.491 1011.46 588.559 1008.01 588.061L1008.01 599.545ZM1005.66 601.893L992.675 601.893L992.675 607.583L1005.66 607.583L1005.66 601.893ZM1008.01 664.942L1017.4 664.942C1017.18 662.95 1016.52 660.416 1015.16 658.229C1013.7 655.888 1011.46 653.956 1008.01 653.458L1008.01 664.942ZM1005.66 667.29L992.675 667.29L992.675 672.979L1005.66 672.979L1005.66 667.29ZM1005.66 717.666L992.675 717.666L992.675 723.356L1005.66 723.356L1005.66 717.666ZM1005.66 781.907L992.675 781.907L992.675 787.597L1005.66 787.597L1005.66 781.907ZM1008.01 767.92L1008.01 779.404L1017.4 779.404C1017.18 777.413 1016.52 774.878 1015.16 772.691C1013.7 770.35 1011.46 768.418 1008.01 767.92ZM1008.01 703.679L1008.01 715.163L1017.4 715.163C1017.18 713.171 1016.52 710.637 1015.16 708.45C1013.7 706.109 1011.46 704.177 1008.01 703.679ZM1008.01 345.509L1008.01 356.993L1017.4 356.993C1017.18 355.002 1016.52 352.467 1015.16 350.28C1013.7 347.939 1011.46 346.007 1008.01 345.509ZM913.837 281.499L884.037 281.499L884.037 496.889L913.837 496.889L913.837 281.499ZM1039.35 548.938L1297.54 548.938L1297.54 284.354L1238.62 284.354L1238.62 282.006L1297.54 282.006L1297.54 3.0457L1039.35 3.04569L1039.35 282.195L1120.81 282.195L1120.81 284.543L1039.35 284.543L1039.35 548.938ZM1243.82 414.597L1243.82 435.865L1236.53 435.865L1236.53 447.84L1243.82 447.84L1243.82 469.107L1236.53 469.107L1236.53 481.547L1243.82 481.547L1243.82 502.815L1236.53 502.815L1236.53 510.243L1229.28 510.243L1229.28 519.821L1206.77 519.821L1206.77 510.243L1179.2 510.243L1179.2 519.821L1156.69 519.821L1156.69 510.243L1132.68 510.243L1132.68 519.821L1110.16 519.821L1110.16 510.243L1101.04 510.243L1101.04 502.815L1092.97 502.815L1092.97 481.547L1101.04 481.547L1101.04 469.25L1094.15 469.25L1094.15 467.933L1092.97 467.933L1092.97 447.84L1101.04 447.84L1101.04 435.865L1092.97 435.865L1092.97 414.597L1101.04 414.597L1101.04 363.73L1113.2 363.73L1113.2 499.172L1223.43 499.172L1223.43 363.73L1236.53 363.73L1236.53 414.597L1243.82 414.597ZM1236.53 416.945L1236.53 433.517L1241.47 433.517L1241.47 416.945L1236.53 416.945ZM1100.26 416.945L1095.32 416.945L1095.32 433.517L1100.26 433.517L1100.26 416.945ZM1100.26 450.187L1095.32 450.187L1095.32 466.902L1100.26 466.902L1100.26 450.187ZM1100.26 483.895L1095.32 483.895L1095.32 500.467L1100.26 500.467L1100.26 483.895ZM1112.51 510.243L1112.51 517.474L1130.33 517.474L1130.33 510.243L1112.51 510.243ZM1159.04 510.243L1159.04 517.474L1176.85 517.474L1176.85 510.243L1159.04 510.243ZM1209.12 510.243L1209.12 517.474L1226.94 517.474L1226.94 510.243L1209.12 510.243ZM1234.18 366.078L1225.78 366.078L1225.78 501.519L1110.85 501.519L1110.85 366.078L1103.39 366.078L1103.39 507.895L1234.18 507.895L1234.18 366.078ZM1236.53 500.467L1241.47 500.467L1241.47 483.895L1236.53 483.895L1236.53 500.467ZM1236.53 466.76L1241.47 466.76L1241.47 450.187L1236.53 450.187L1236.53 466.76ZM1197.51 433.517L1197.51 351.13L1199.85 351.13L1199.85 435.865L1137.48 435.865L1137.48 351.13L1139.83 351.13L1139.83 433.517L1197.51 433.517ZM1028.92 894.657L1028.92 842.592L1031.27 842.592L1031.27 897.004L1013.12 897.004L1013.12 862.422L1015.47 862.422L1015.47 894.657L1028.92 894.657Z" fill="#48494B"/>
<path d="M1102.65 82.9992C1102.65 95.0006 1098.09 99.9026 1087.1 99.9026H1081.53V126.103H1100.96V203.014H1138.15V76.2378H1102.65V82.9992Z" fill="#48494B"/>
<path d="M1185.79 189.207C1186.21 185.657 1188.75 184.262 1191.83 184.262C1194.96 184.262 1197.41 186.164 1198 189.714H1188.92V192.925H1198C1197.45 196.517 1195 198.461 1191.83 198.461C1188.7 198.461 1186.13 196.898 1185.66 193.052H1181.31C1181.61 198.63 1186.04 202.349 1191.83 202.349C1197.83 202.349 1202.35 197.827 1202.35 191.362C1202.35 184.896 1197.83 180.375 1191.83 180.375C1186.21 180.375 1181.9 183.924 1181.35 189.207H1185.79Z" fill="#48494B"/>
<path d="M1214.98 201.926V184.685H1221.82V180.797H1203.91V184.685H1210.75V201.926H1214.98Z" fill="#48494B"/>
<path d="M1231.59 202.349C1234.63 202.349 1237.34 201.166 1238.73 198.377V201.926H1242.87V187.136C1242.87 182.234 1238.65 180.375 1234.08 180.375C1229.43 180.375 1225.04 182.445 1225.04 187.897H1229.43C1229.43 185.15 1231.33 183.755 1234.08 183.755C1236.66 183.755 1238.65 184.896 1238.65 186.967C1238.65 191.784 1224.4 187.22 1224.4 196.348C1224.4 200.532 1227.83 202.349 1231.59 202.349ZM1228.71 196.095C1228.71 192.545 1235.14 193.432 1238.73 191.7V193.221C1238.73 196.898 1235.69 198.799 1232.43 198.799C1230.28 198.799 1228.71 197.912 1228.71 196.095Z" fill="#48494B"/>
<path d="M1264.84 180.797H1260.61V190.094L1252.5 180.797H1246.88L1255.96 190.432L1246.12 201.926H1251.44L1260.61 190.897V201.926H1264.84V190.812L1274.01 201.926H1279.21L1269.53 190.432L1278.4 180.797H1272.99L1264.84 190.136V180.797Z" fill="#48494B"/>
<path fill-rule="evenodd" clip-rule="evenodd" d="M640.452 2.99703H2.33028V887.968H640.452V2.99703ZM0.03125 0.697998V890.267H642.751V0.697998H0.03125Z" fill="#FF6262"/>
<path fill-rule="evenodd" clip-rule="evenodd" d="M585.217 86.5168H57.5677V516.263H585.217V86.5168ZM55.2687 84.2178V518.562H587.516V84.2178H55.2687Z" fill="#FF6262"/>
<path d="M79.1304 592.122H103.172V727.976H79.1304V592.122Z" fill="#FF6262"/>
<path d="M163.674 592.122H222.449V727.976H163.674V592.122Z" fill="#FF6262"/>
<path d="M235.98 592.122H246.495V727.976H235.98V592.122Z" fill="#FF6262"/>
<path d="M274.233 592.122H321.05V727.976H274.233V592.122Z" fill="#FF6262"/>
<path d="M449.085 592.122H527.329V727.976H449.085V592.122Z" fill="#FF6262"/>
<path d="M380.567 592.122H389.571V727.976H380.567V592.122Z" fill="#FF6262"/>
<path d="M557.175 592.122H562.519V727.976H557.175V592.122Z" fill="#FF6262"/>
<path d="M363.078 592.122H367.623V727.976H363.078V592.122Z" fill="#FF6262"/>
<path d="M354.872 592.123H359.417V727.977H354.872V592.123Z" fill="#FF6262"/>
<path d="M438.478 592.122H443.023V727.976H438.478V592.122Z" fill="#FF6262"/>
<path d="M331.269 592.122H340.273V727.976H331.269V592.122Z" fill="#FF6262"/>
<path d="M144.767 592.122H150.15V727.976H144.767V592.122Z" fill="#FF6262"/>
<path d="M113.673 592.123H124.362V727.977H113.673V592.123Z" fill="#FF6262"/>
<path d="M107.087 803.882C123.272 803.882 135.043 791.007 135.043 775.558C135.043 759.888 123.272 747.234 107.087 747.234C90.9014 747.234 79.1304 759.888 79.1304 775.558C79.1304 791.007 90.9014 803.882 107.087 803.882ZM107.087 748.411C122.536 748.411 133.719 760.697 133.719 775.558C133.719 790.493 122.536 802.705 107.087 802.705C91.6371 802.705 80.4546 790.493 80.4546 775.558C80.4546 760.697 91.6371 748.411 107.087 748.411ZM97.7433 775.484C97.7433 766.215 101.569 762.168 107.087 762.168C111.869 762.168 114.885 765.185 114.885 769.525H116.283C116.283 764.302 112.457 760.844 107.087 760.844C101.128 760.844 96.272 765.111 96.272 775.484C96.272 786.52 101.128 790.345 107.087 790.345C112.384 790.345 116.724 786.446 116.724 781.002C116.724 775.411 112.457 771.585 107.307 771.585C103.04 771.585 98.7733 774.307 98.0376 779.604C97.8169 778.501 97.7433 777.103 97.7433 775.484ZM107.087 789.021C102.525 789.021 98.9205 785.637 98.9205 781.002C98.9205 776.22 102.525 772.909 107.087 772.909C111.648 772.909 115.253 776.22 115.253 781.002C115.253 785.637 111.648 789.021 107.087 789.021Z" fill="#FF6262"/>
<path d="M168.155 803.882C184.34 803.882 196.111 791.007 196.111 775.558C196.111 759.888 184.34 747.234 168.155 747.234C151.97 747.234 140.198 759.888 140.198 775.558C140.198 791.007 151.97 803.882 168.155 803.882ZM168.155 748.411C183.604 748.411 194.787 760.697 194.787 775.558C194.787 790.493 183.604 802.705 168.155 802.705C152.705 802.705 141.523 790.493 141.523 775.558C141.523 760.697 152.705 748.411 168.155 748.411ZM167.934 771.438C173.231 771.438 176.615 775.117 176.615 780.266C176.615 785.343 173.231 789.021 167.934 789.021C162.784 789.021 159.547 785.784 159.547 781.149H158.076C158.076 786.593 162.048 790.345 167.934 790.345C173.967 790.345 178.013 786.226 178.013 780.266C178.013 774.307 173.967 770.187 168.081 770.187C164.476 770.187 161.386 771.88 159.989 774.381V762.61H176.615V761.286H158.517V776.735H159.989C160.504 774.013 163.373 771.438 167.934 771.438Z" fill="#FF6262"/>
<path d="M229.223 803.882C245.408 803.882 257.179 791.007 257.179 775.558C257.179 759.888 245.408 747.234 229.223 747.234C213.038 747.234 201.267 759.888 201.267 775.558C201.267 791.007 213.038 803.882 229.223 803.882ZM229.223 748.411C244.672 748.411 255.855 760.697 255.855 775.558C255.855 790.493 244.672 802.705 229.223 802.705C213.773 802.705 202.591 790.493 202.591 775.558C202.591 760.697 213.773 748.411 229.223 748.411ZM219.88 775.484C219.88 766.215 223.705 762.168 229.223 762.168C234.005 762.168 237.021 765.185 237.021 769.525H238.419C238.419 764.302 234.593 760.844 229.223 760.844C223.264 760.844 218.408 765.111 218.408 775.484C218.408 786.52 223.264 790.345 229.223 790.345C234.52 790.345 238.86 786.446 238.86 781.002C238.86 775.411 234.593 771.585 229.443 771.585C225.176 771.585 220.909 774.307 220.174 779.604C219.953 778.501 219.88 777.103 219.88 775.484ZM229.223 789.021C224.661 789.021 221.057 785.637 221.057 781.002C221.057 776.22 224.661 772.909 229.223 772.909C233.784 772.909 237.389 776.22 237.389 781.002C237.389 785.637 233.784 789.021 229.223 789.021Z" fill="#FF6262"/>
<path d="M290.291 803.882C306.476 803.882 318.247 791.007 318.247 775.558C318.247 759.888 306.476 747.234 290.291 747.234C274.106 747.234 262.335 759.888 262.335 775.558C262.335 791.007 274.106 803.882 290.291 803.882ZM290.291 748.411C305.74 748.411 316.923 760.697 316.923 775.558C316.923 790.493 305.74 802.705 290.291 802.705C274.841 802.705 263.659 790.493 263.659 775.558C263.659 760.697 274.841 748.411 290.291 748.411ZM289.555 788.727C289.555 777.471 294.558 768.863 300.517 762.831V761.286H281.168V762.61H299.119C293.307 768.716 288.157 777.324 288.157 788.653V789.904H289.555V788.727Z" fill="#FF6262"/>
<path d="M351.359 803.882C367.544 803.882 379.315 791.007 379.315 775.558C379.315 759.888 367.544 747.234 351.359 747.234C335.174 747.234 323.403 759.888 323.403 775.558C323.403 791.007 335.174 803.882 351.359 803.882ZM351.359 748.411C366.808 748.411 377.991 760.697 377.991 775.558C377.991 790.493 366.808 802.705 351.359 802.705C335.909 802.705 324.727 790.493 324.727 775.558C324.727 760.697 335.909 748.411 351.359 748.411ZM350.918 763.419C350.918 765.332 350.182 766.068 348.269 766.068H346.062V767.318H350.918V789.904H352.389V761.286H350.918V763.419Z" fill="#FF6262"/>
<path d="M412.427 803.882C428.612 803.882 440.383 791.007 440.383 775.558C440.383 759.888 428.612 747.234 412.427 747.234C396.242 747.234 384.471 759.888 384.471 775.558C384.471 791.007 396.242 803.882 412.427 803.882ZM412.427 748.411C427.877 748.411 439.059 760.697 439.059 775.558C439.059 790.493 427.877 802.705 412.427 802.705C396.978 802.705 385.795 790.493 385.795 775.558C385.795 760.697 396.978 748.411 412.427 748.411ZM403.452 782.106H401.98C401.98 786.961 406.1 790.345 412.133 790.345C418.165 790.345 422.212 787.035 422.212 782.106C422.212 778.501 419.637 775.779 415.591 774.749C419.048 773.792 421.108 771.291 421.108 768.201C421.108 763.861 417.356 760.844 411.838 760.844C406.394 760.844 402.716 764.008 402.716 768.642H404.114C404.114 764.89 407.056 762.168 411.838 762.168C416.62 762.168 419.637 764.67 419.637 768.201C419.637 771.659 416.768 774.087 412.059 774.087H410.367V775.411H412.059C417.503 775.411 420.814 778.133 420.814 782.106C420.814 786.152 417.43 789.021 412.133 789.021C406.836 789.021 403.452 786.152 403.452 782.106Z" fill="#FF6262"/>
<path d="M473.495 803.882C489.68 803.882 501.451 791.007 501.451 775.558C501.451 759.888 489.68 747.234 473.495 747.234C457.31 747.234 445.539 759.888 445.539 775.558C445.539 791.007 457.31 803.882 473.495 803.882ZM473.495 748.411C488.945 748.411 500.127 760.697 500.127 775.558C500.127 790.493 488.945 802.705 473.495 802.705C458.046 802.705 446.863 790.493 446.863 775.558C446.863 760.697 458.046 748.411 473.495 748.411ZM482.25 769.157C482.25 763.861 478.204 760.844 473.201 760.844C468.125 760.844 463.931 764.081 463.931 769.746V770.482H465.403V769.893C465.403 764.596 469.007 762.168 473.201 762.168C477.394 762.168 480.778 764.743 480.778 769.157C480.778 777.765 463.71 777.177 463.71 788.874V789.904H482.765V788.58H465.329C465.476 777.912 482.25 778.721 482.25 769.157Z" fill="#FF6262"/>
<path d="M534.563 803.882C550.748 803.882 562.519 791.007 562.519 775.558C562.519 759.888 550.748 747.234 534.563 747.234C518.378 747.234 506.607 759.888 506.607 775.558C506.607 791.007 518.378 803.882 534.563 803.882ZM534.563 748.411C550.013 748.411 561.195 760.697 561.195 775.558C561.195 790.493 550.013 802.705 534.563 802.705C519.114 802.705 507.931 790.493 507.931 775.558C507.931 760.697 519.114 748.411 534.563 748.411ZM543.906 775.705C543.906 784.975 540.081 789.021 534.563 789.021C529.855 789.021 526.838 786.005 526.838 781.664H525.367C525.367 786.888 529.193 790.345 534.563 790.345C540.522 790.345 545.378 786.078 545.378 775.705C545.378 764.67 540.522 760.844 534.563 760.844C529.266 760.844 524.926 764.67 524.926 770.187C524.926 775.705 529.119 779.604 534.343 779.604C538.61 779.604 542.877 776.882 543.612 771.585C543.833 772.689 543.906 774.087 543.906 775.705ZM534.563 762.168C539.124 762.168 542.729 765.553 542.729 770.187C542.729 774.969 539.124 778.28 534.563 778.28C530.002 778.28 526.397 774.969 526.397 770.187C526.397 765.553 530.002 762.168 534.563 762.168Z" fill="#FF6262"/>
</svg>
