<svg width="1440" height="685" viewBox="0 0 1440 685" fill="none" xmlns="http://www.w3.org/2000/svg">
<path d="M2323.22 595.98V615.571H2283.68M2202.77 615.571H2160.48V594.473H2202.77V615.571ZM2202.77 615.571H2240.16M2240.16 594.473V615.571M2240.16 615.571H2283.68M2283.68 594.473V615.571M2128.91 594.473V615.571H2093.35M2011.22 615.571H1967.39V594.473H2011.22V615.571ZM2011.22 615.571H2051.37M2051.37 594.473V615.571M2051.37 615.571H2093.35M2093.35 594.473V615.571M1939.19 594.473V615.571H1901.49M1817.21 615.571H1777.37V594.473H1817.21V615.571ZM1817.21 615.571H1860.12M1860.12 615.571V594.473H1901.49V615.571M1860.12 615.571H1901.49M1748.56 594.473V615.571M1748.56 615.571H1666.42M1748.56 615.571L1708.71 614.063V594.473H1666.42V615.571M1624.12 615.571H1583.97V594.473H1624.12V615.571ZM1624.12 615.571H1666.42M1556.08 594.473V615.571H1518.07M1436.55 615.571H1394.87V594.473H1436.55V615.571ZM1436.55 615.571H1477.01M1477.01 615.571V594.473H1518.07V615.571M1477.01 615.571H1518.07M1364.52 594.473V615.571H1326.52M1243.16 615.571H1201.17V594.473H1243.16V615.571ZM1243.16 615.571H1286.98M1286.98 594.473V615.571M1286.98 615.571H1326.52M1326.52 594.473V615.571M2283.92 299.127H2324.6V357.969H2283.92M2283.92 299.127V357.969M2283.92 299.127H2242.46M2283.92 357.969H2242.46M2242.46 299.127V357.969M2242.46 299.127H2201.78M2242.46 357.969H2201.78M2201.78 299.127H2161.1V357.969H2201.78M2201.78 299.127V357.969" stroke="#48494B" stroke-width="2"/>
<path d="M1513.2 299.127H1553.87V357.969H1513.2M1513.2 299.127V357.969M1513.2 299.127H1471.73M1513.2 357.969H1471.73M1471.73 299.127V357.969M1471.73 299.127H1431.05M1471.73 357.969H1431.05M1431.05 299.127H1390.37V357.969H1431.05M1431.05 299.127V357.969" stroke="#48494B" stroke-width="2"/>
<path d="M1323.99 299.127H1364.67V357.969H1323.99M1323.99 299.127V357.969M1323.99 299.127H1282.52M1323.99 357.969H1282.52M1282.52 299.127V357.969M1282.52 299.127H1241.84M1282.52 357.969H1241.84M1241.84 299.127H1201.17V357.969H1241.84M1241.84 299.127V357.969" stroke="#48494B" stroke-width="2"/>
<path d="M1131.33 299.127H1172.01V357.969H1131.33M1131.33 299.127V357.969M1131.33 299.127H1089.86M1131.33 357.969H1089.86M1089.86 299.127V357.969M1089.86 299.127H1049.19M1089.86 357.969H1049.19M1049.19 299.127H1008.51V357.969H1049.19M1049.19 299.127V357.969" stroke="#48494B" stroke-width="2"/>
<path d="M944.155 299.127H984.834V357.969H944.155M944.155 299.127V357.969M944.155 299.127H902.69M944.155 357.969H902.69M902.69 299.127V357.969M902.69 299.127H862.011M902.69 357.969H862.011M862.011 299.127H821.333V357.969H862.011M862.011 299.127V357.969" stroke="#48494B" stroke-width="2"/>
<path d="M2628.84 626.542H1205.79L801.712 602.148" stroke="#48494B" stroke-width="2"/>
<path d="M2421.95 626.745V619.698H2354.53L2354.22 578.438M2353.8 522.92H2431.89V515.586H2353.8V522.92ZM2353.8 522.92L2354.22 578.438M2354.22 578.438L2331.43 578.488M2331.43 578.488V594.58H1010.2L1010.2 581.179L2324.81 578.502M2331.43 578.488L2324.81 578.502M2324.81 578.502V415.093M2324.81 415.093V411.114H2329.7V396.882H1010.05V415.093H2324.81Z" stroke="#48494B" stroke-width="2"/>
<path d="M1101.57 415.134V580.399H1190.21V415.134H1286.75V580.399H1382.85V415.134H1476.31V580.399H1572.85V415.134H1667.19V580.399H1764.16V415.134H1859.38V580.399H1957.23V415.134H2052.45V580.399H2148.55V415.134H2236.75V580.399" stroke="#48494B" stroke-width="2"/>
<path d="M-629.788 599.553H-570.092M8.83189 599.553H128.517V502.164H8.83189V599.553ZM8.83189 599.553H-17.17M-17.17 599.553V502.164H-136.473V599.553M-17.17 599.553H-136.473M-136.473 599.553H-161.71M-161.71 599.553V502.164H-281.777V599.553M-161.71 599.553H-281.777M-281.777 599.553H-307.397M-307.397 599.553V502.164H-423.64V599.553M-307.397 599.553H-423.64M-423.64 599.553H-453.084M-453.084 599.553V502.164H-570.092V599.553M-453.084 599.553H-570.092M-573.931 86.1982V19.6463M-573.931 19.6463H-587.136V9.90771H-442.537V19.6463M-573.931 19.6463H-499.65M-499.65 19.6463V86.1982H-442.537V19.6463M-499.65 19.6463H-442.537M144.136 216.332H2355.24V210.814H2361.7V203.704H1184.06M-629.788 565.068H-718.998V555.9H-629.788V565.068Z" stroke="#48494B" stroke-width="2"/>
<path d="M-952.087 683.113L-630.172 671.806V94.0883H-640.333V85.6609H284.938V8.99926H277.623V1.90479H1192.73V7.93912H1183.53V208.945H139.769V216.081H144.171V608.017" stroke="#48494B" stroke-width="2"/>
<path d="M128.619 581.539H287.21V397.047H1009.87V614.778" stroke="#48494B" stroke-width="2"/>
<path d="M287.459 581.42H307.302M627.387 592.259V581.42H575.363M627.387 592.259H615.483V596.595M627.387 592.259H792.72L801.538 602.231H792.72H615.483V596.595M256.158 581.42V596.595H615.483M307.302 581.42H355.8M307.302 581.42V566.246M575.363 581.42V482.57M575.363 581.42H564.781M355.8 581.42V476.067H372.553M355.8 581.42H372.553M575.363 476.067V424.04H508.568M575.363 476.067H508.568M575.363 476.067V482.57M372.553 424.04H307.302V482.57M372.553 424.04V476.067M372.553 424.04H441.773M372.553 476.067H441.773M441.773 424.04V476.067M441.773 424.04H508.568M441.773 476.067H508.568M508.568 424.04V476.067M307.302 482.57H369.908M307.302 482.57V566.246M575.363 482.57H564.781M512.315 581.42V482.57M512.315 581.42H502.175M512.315 581.42H564.781M512.315 482.57H502.175M512.315 482.57H564.781M502.175 581.42V482.57M502.175 581.42H444.418M502.175 482.57H444.418M444.418 581.42V482.57M444.418 581.42H436.042M444.418 482.57H436.042M436.042 581.42V482.57M436.042 581.42H379.608M436.042 482.57H379.608M379.608 482.57V581.42M379.608 482.57H369.908M379.608 581.42H372.553M369.908 482.57L372.553 581.42M564.781 482.57V566.246M564.781 581.42V566.246M307.302 566.246H564.781" stroke="#48494B" stroke-width="2"/>
<path d="M752.979 301.863H792.71V360.776H752.979M752.979 301.863V360.776M752.979 301.863H715.457M752.979 360.776H715.457M715.457 301.863V360.776M715.457 301.863H678.565M715.457 360.776H678.565M678.565 301.863V360.776M678.565 301.863H638.364M678.565 360.776H638.364M638.364 301.863H598.162V360.776H638.364M638.364 301.863V360.776M494.109 301.863H456.586V360.776H494.109M494.109 301.863V360.776M494.109 301.863H533.523M494.109 360.776H533.523M533.523 301.863H572.936V360.776H533.523M533.523 301.863V360.776" stroke="#48494B" stroke-width="2"/>
<path d="M348.114 301.863H310.591V360.776H348.114M348.114 301.863V360.776M348.114 301.863H387.528M348.114 360.776H387.528M387.528 301.863H426.941V360.776H387.528M387.528 301.863V360.776" stroke="#48494B" stroke-width="2"/>
<path d="M-629.82 672.116C-439.797 657.221 3.61006 621.269 257.052 596.628" stroke="#48494B" stroke-width="2"/>
</svg>
