<svg width="295" height="734" viewBox="0 0 295 734" fill="none" xmlns="http://www.w3.org/2000/svg">
<path d="M83.8484 17.527C83.5124 17.599 83.0084 17.719 81.8084 17.719C80.0084 17.719 79.0484 17.047 79.0484 15.103V12.343H76.1684V15.103C76.1684 18.799 77.8244 20.359 81.5684 20.359C82.3364 20.359 83.2244 20.287 83.8484 20.143V24.343H86.7284V12.343H83.8484V17.527ZM101.244 24.343V12.343H97.5477L92.8437 21.319V12.343H90.0837V24.343H93.7797L98.4837 15.391V24.343H101.244ZM109.775 24.343V14.983H113.375V12.343H103.295V14.983H106.895V24.343H109.775ZM118.852 24.583C120.508 24.583 121.9 23.983 122.668 22.567V24.343H125.5V15.991C125.5 13.183 123.052 12.103 120.412 12.103C117.724 12.103 115.18 13.303 115.18 16.423H118.18C118.18 15.079 119.092 14.383 120.412 14.383C121.66 14.383 122.62 14.935 122.62 15.871C122.62 18.271 114.82 15.967 114.82 21.127C114.82 23.551 116.788 24.583 118.852 24.583ZM117.772 20.935C117.772 19.399 120.748 19.639 122.668 18.847V19.399C122.668 21.223 121.132 22.183 119.452 22.183C118.492 22.183 117.772 21.775 117.772 20.935ZM138.503 24.343V12.343H129.359C129.359 18.007 129.191 19.903 128.927 20.695C128.711 21.343 128.279 21.703 127.679 21.703H127.535V24.343H127.967C130.103 24.343 131.183 23.503 131.687 20.335C131.879 19.159 131.975 17.479 131.999 14.983H135.623V24.343H138.503ZM151.769 20.191C151.769 17.815 150.041 16.111 146.993 16.111H144.737V12.343H141.857V24.343H147.017C150.209 24.343 151.769 22.567 151.769 20.191ZM144.737 18.511H146.777C148.265 18.511 148.889 19.087 148.889 20.167C148.889 21.223 148.265 21.943 146.777 21.943H144.737V18.511ZM157.042 24.343V19.639H162.082V24.343H164.962V12.343H162.082V16.999H157.042V12.343H154.162V24.343H157.042ZM178.23 20.191C178.23 17.815 176.502 16.111 173.454 16.111H171.198V12.343H168.318V24.343H173.478C176.67 24.343 178.23 22.567 178.23 20.191ZM182.694 24.343V12.343H179.814V24.343H182.694ZM171.198 18.511H173.238C174.726 18.511 175.35 19.087 175.35 20.167C175.35 21.223 174.726 21.943 173.238 21.943H171.198V18.511ZM193.068 6.34302C193.068 7.44702 192.42 7.90302 191.58 7.90302C190.812 7.90302 190.116 7.44702 190.116 6.34302H187.836C187.836 8.59902 189.348 9.94302 191.58 9.94302C193.836 9.94302 195.348 8.59902 195.348 6.34302H193.068ZM197.22 24.343V12.343H193.524L188.82 21.319V12.343H186.06V24.343H189.756L194.46 15.391V24.343H197.22ZM209.315 17.167V19.327H211.235C212.411 19.327 212.939 19.903 212.939 20.791C212.939 21.607 212.411 22.327 210.707 22.327C208.907 22.327 208.163 21.391 208.163 19.903H205.283C205.283 22.879 207.203 24.583 210.683 24.583C214.091 24.583 215.819 23.143 215.819 20.887C215.819 19.663 215.195 18.751 213.947 18.247C215.027 17.719 215.531 16.639 215.531 15.607C215.531 13.783 214.067 12.103 210.683 12.103C207.131 12.103 205.427 14.215 205.427 16.663H208.307C208.307 15.151 209.099 14.383 210.683 14.383C212.171 14.383 212.771 15.007 212.771 15.847C212.771 16.663 212.339 17.167 211.235 17.167H209.315ZM221.649 24.583C223.305 24.583 224.697 23.983 225.465 22.567V24.343H228.297V15.991C228.297 13.183 225.849 12.103 223.209 12.103C220.521 12.103 217.977 13.303 217.977 16.423H220.977C220.977 15.079 221.889 14.383 223.209 14.383C224.457 14.383 225.417 14.935 225.417 15.871C225.417 18.271 217.617 15.967 217.617 21.127C217.617 23.551 219.585 24.583 221.649 24.583ZM220.569 20.935C220.569 19.399 223.545 19.639 225.465 18.847V19.399C225.465 21.223 223.929 22.183 222.249 22.183C221.289 22.183 220.569 21.775 220.569 20.935ZM241.3 24.343V12.343H232.156C232.156 18.007 231.988 19.903 231.724 20.695C231.508 21.343 231.076 21.703 230.476 21.703H230.332V24.343H230.764C232.9 24.343 233.98 23.503 234.484 20.335C234.676 19.159 234.772 17.479 234.796 14.983H238.42V24.343H241.3ZM78.1364 54.343V36.343H77.2964V54.343H78.1364ZM83.032 48.487V42.343H82.192V48.703C82.192 52.879 84.256 54.583 86.968 54.583C88.912 54.583 90.496 53.671 91.216 51.559V54.343H92.056V42.343H91.216V48.487C91.216 52.183 89.68 53.839 87.112 53.839C84.592 53.839 83.032 52.183 83.032 48.487ZM97.0739 36.343H96.2339V54.343H97.0739V50.359L99.5219 47.863L104.85 54.343H105.954L100.194 47.311L105.114 42.343H104.01L97.0739 49.351V36.343ZM108.696 48.487V42.343H107.856V48.703C107.856 52.879 109.92 54.583 112.632 54.583C114.576 54.583 116.16 53.671 116.88 51.559V54.343H117.72V42.343H116.88V48.487C116.88 52.183 115.344 53.839 112.776 53.839C110.256 53.839 108.696 52.183 108.696 48.487ZM131.042 47.983V54.343H131.882V47.767C131.882 43.735 129.842 42.103 127.034 42.103C125.042 42.103 123.458 42.991 122.738 45.007V36.343H121.898V54.343H122.738V47.983C122.738 44.431 124.346 42.847 126.89 42.847C129.434 42.847 131.042 44.431 131.042 47.983ZM136.657 48.487V42.343H135.817V48.703C135.817 52.879 137.881 54.583 140.593 54.583C142.537 54.583 144.121 53.671 144.841 51.559V54.343H145.681V42.343H144.841V48.487C144.841 52.183 143.305 53.839 140.737 53.839C138.217 53.839 136.657 52.183 136.657 48.487ZM154.731 54.583C158.115 54.583 160.635 52.015 160.635 48.343C160.635 44.671 158.115 42.103 154.731 42.103C151.347 42.103 148.827 44.671 148.827 48.343C148.827 52.015 151.347 54.583 154.731 54.583ZM154.731 53.815C151.851 53.815 149.643 51.631 149.643 48.343C149.643 45.055 151.851 42.871 154.731 42.871C157.611 42.871 159.819 45.055 159.819 48.343C159.819 51.631 157.611 53.815 154.731 53.815ZM164.621 42.343H163.781V54.343H164.621V47.983C164.621 44.431 166.229 42.847 168.773 42.847C171.317 42.847 172.925 44.431 172.925 47.983V54.343H173.765V47.767C173.765 43.735 171.725 42.103 168.917 42.103C166.925 42.103 165.341 42.991 164.621 45.007V42.343ZM188.26 48.679V48.343C188.26 44.671 185.836 42.103 182.524 42.103C179.212 42.103 176.788 44.671 176.788 48.343C176.788 52.015 179.212 54.583 182.524 54.583C185.092 54.583 187.156 53.095 187.948 50.743H187.036C186.34 52.639 184.636 53.839 182.548 53.839C179.764 53.839 177.748 51.799 177.604 48.679H188.26ZM182.524 42.847C185.284 42.847 187.3 44.887 187.444 48.007H177.604C177.748 44.887 179.764 42.847 182.524 42.847ZM78.1364 84.343V66.343H77.2964V84.343H78.1364ZM92.752 78.679V78.343C92.752 74.671 90.328 72.103 87.016 72.103C83.704 72.103 81.28 74.671 81.28 78.343C81.28 82.015 83.704 84.583 87.016 84.583C89.584 84.583 91.648 83.095 92.44 80.743H91.528C90.832 82.639 89.128 83.839 87.04 83.839C84.256 83.839 82.24 81.799 82.096 78.679H92.752ZM87.016 72.847C89.776 72.847 91.792 74.887 91.936 78.007H82.096C82.24 74.887 84.256 72.847 87.016 72.847ZM106.346 78.679V78.343C106.346 74.671 103.922 72.103 100.61 72.103C97.2978 72.103 94.8738 74.671 94.8738 78.343C94.8738 82.015 97.2978 84.583 100.61 84.583C103.178 84.583 105.242 83.095 106.034 80.743H105.122C104.426 82.639 102.722 83.839 100.634 83.839C97.8498 83.839 95.8338 81.799 95.6898 78.679H106.346ZM100.61 72.847C103.37 72.847 105.386 74.887 105.53 78.007H95.6898C95.8338 74.887 97.8498 72.847 100.61 72.847ZM118.14 81.199C118.14 76.423 109.932 79.111 109.932 75.271C109.932 73.711 111.276 72.823 113.292 72.823C115.404 72.823 116.964 73.975 116.964 75.559H117.828C117.828 73.567 115.908 72.103 113.292 72.103C110.892 72.103 109.092 73.279 109.092 75.271C109.092 79.951 117.3 77.167 117.3 81.223C117.3 82.975 115.932 83.887 113.652 83.887C111.372 83.887 109.644 82.855 109.644 80.791H108.78C108.78 83.239 110.868 84.583 113.652 84.583C116.34 84.583 118.14 83.407 118.14 81.199ZM122.433 66.343H121.593V84.343H122.433V80.359L124.881 77.863L130.209 84.343H131.313L125.553 77.311L130.473 72.343H129.369L122.433 79.351V66.343ZM136.887 84.583C138.807 84.583 140.823 83.647 141.663 81.607V84.343H142.503V75.799C142.503 73.111 140.247 72.103 137.823 72.103C135.327 72.103 132.999 73.231 132.999 76.231H133.815C133.815 73.951 135.519 72.823 137.823 72.823C140.031 72.823 141.663 73.783 141.663 75.775C141.663 79.591 132.639 76.039 132.639 81.319C132.639 83.527 134.511 84.583 136.887 84.583ZM133.479 81.295C133.479 77.503 139.743 79.423 141.663 77.431V79.399C141.663 82.303 139.359 83.863 136.983 83.863C134.895 83.863 133.479 83.023 133.479 81.295ZM154.571 77.335V84.343H155.435V77.335C155.435 74.239 156.827 72.847 159.131 72.847C161.315 72.847 162.635 74.239 162.635 77.335V84.343H163.475V77.143C163.475 73.567 161.651 72.103 159.275 72.103C157.355 72.103 155.771 73.039 155.195 75.151C154.619 73.015 153.035 72.103 151.115 72.103C149.435 72.103 148.043 72.871 147.371 74.599V72.343H146.531V84.343H147.371V77.335C147.371 74.239 148.715 72.847 150.971 72.847C153.227 72.847 154.571 74.239 154.571 77.335ZM177.971 78.679V78.343C177.971 74.671 175.547 72.103 172.235 72.103C168.923 72.103 166.499 74.671 166.499 78.343C166.499 82.015 168.923 84.583 172.235 84.583C174.803 84.583 176.867 83.095 177.659 80.743H176.747C176.051 82.639 174.347 83.839 172.259 83.839C169.475 83.839 167.459 81.799 167.315 78.679H177.971ZM172.235 72.847C174.995 72.847 177.011 74.887 177.155 78.007H167.315C167.459 74.887 169.475 72.847 172.235 72.847ZM181.965 72.343H181.125V84.343H181.965V78.679C181.965 74.695 183.645 72.919 186.453 72.919C186.957 72.919 187.413 72.991 187.821 73.159V72.295C187.437 72.175 186.981 72.103 186.549 72.103C184.437 72.103 182.733 73.111 181.965 75.391V72.343ZM85.9124 114.343V102.343H85.0724V108.295C84.2564 108.655 82.8164 108.943 81.7364 108.943C79.2404 108.943 77.7284 107.719 77.7284 104.887V102.343H76.8884V105.031C76.8884 108.367 78.8564 109.711 81.6884 109.711C82.7444 109.711 84.2324 109.423 85.0724 109.063V114.343H85.9124ZM99.8395 114.343V102.343H98.8795L90.8155 113.383V102.343H89.9995V114.343H90.9595L98.9995 103.327V114.343H99.8395ZM108.263 114.343V103.111H113.087V102.343H102.599V103.111H107.423V114.343H108.263ZM118.864 114.583C120.784 114.583 122.8 113.647 123.64 111.607V114.343H124.48V105.799C124.48 103.111 122.224 102.103 119.8 102.103C117.304 102.103 114.976 103.231 114.976 106.231H115.792C115.792 103.951 117.496 102.823 119.8 102.823C122.008 102.823 123.64 103.783 123.64 105.775C123.64 109.591 114.616 106.039 114.616 111.319C114.616 113.527 116.488 114.583 118.864 114.583ZM115.456 111.295C115.456 107.503 121.72 109.423 123.64 107.431V109.399C123.64 112.303 121.336 113.863 118.96 113.863C116.872 113.863 115.456 113.023 115.456 111.295ZM137.939 114.343V102.343H129.923C129.875 106.855 129.659 109.519 129.299 111.319C128.963 113.119 128.171 113.575 127.379 113.575H127.019V114.343H127.403C128.699 114.343 129.683 113.719 130.115 111.295C130.403 109.519 130.595 106.927 130.667 103.111H137.099V114.343H137.939ZM142.965 114.343V108.535H151.077V114.343H151.893V102.343H151.077V107.767H142.965V102.343H142.125V114.343H142.965ZM155.47 105.727C155.47 108.007 157.15 109.231 159.406 109.255H159.886L154.894 114.343H155.998L160.942 109.255H163.51V114.343H164.35V102.343H159.502C157.174 102.343 155.47 103.447 155.47 105.727ZM159.694 108.583C157.606 108.583 156.31 107.695 156.31 105.727C156.31 103.855 157.606 103.039 159.694 103.039H163.51V108.583H159.694ZM82.1684 144.583C85.5524 144.583 88.0724 142.015 88.0724 138.343C88.0724 134.671 85.5524 132.103 82.1684 132.103C78.7844 132.103 76.2644 134.671 76.2644 138.343C76.2644 142.015 78.7844 144.583 82.1684 144.583ZM82.1684 143.815C79.2884 143.815 77.0804 141.631 77.0804 138.343C77.0804 135.055 79.2884 132.871 82.1684 132.871C85.0484 132.871 87.2564 135.055 87.2564 138.343C87.2564 141.631 85.0484 143.815 82.1684 143.815ZM92.0583 144.343V126.343H91.2183V144.343H92.0583ZM100.65 144.343L105.906 132.343H105.018L100.146 143.719L95.2739 132.343H94.3859L99.6419 144.343H100.65ZM111.669 144.583C113.589 144.583 115.605 143.647 116.445 141.607V144.343H117.285V135.799C117.285 133.111 115.029 132.103 112.605 132.103C110.109 132.103 107.781 133.231 107.781 136.231H108.597C108.597 133.951 110.301 132.823 112.605 132.823C114.813 132.823 116.445 133.783 116.445 135.775C116.445 139.591 107.421 136.039 107.421 141.319C107.421 143.527 109.293 144.583 111.669 144.583ZM108.261 141.295C108.261 137.503 114.525 139.423 116.445 137.431V139.399C116.445 142.303 114.141 143.863 111.765 143.863C109.677 143.863 108.261 143.023 108.261 141.295ZM129.952 141.199C129.952 136.423 121.744 139.111 121.744 135.271C121.744 133.711 123.088 132.823 125.104 132.823C127.216 132.823 128.776 133.975 128.776 135.559H129.64C129.64 133.567 127.72 132.103 125.104 132.103C122.704 132.103 120.904 133.279 120.904 135.271C120.904 139.951 129.112 137.167 129.112 141.223C129.112 142.975 127.744 143.887 125.464 143.887C123.184 143.887 121.456 142.855 121.456 140.791H120.592C120.592 143.239 122.68 144.583 125.464 144.583C128.152 144.583 129.952 143.407 129.952 141.199ZM138.638 129.943L141.014 126.343H139.814L137.99 129.943H138.638ZM138.278 144.583C141.662 144.583 144.182 142.015 144.182 138.343C144.182 134.671 141.662 132.103 138.278 132.103C134.894 132.103 132.374 134.671 132.374 138.343C132.374 142.015 134.894 144.583 138.278 144.583ZM138.278 143.815C135.398 143.815 133.19 141.631 133.19 138.343C133.19 135.055 135.398 132.871 138.278 132.871C141.158 132.871 143.366 135.055 143.366 138.343C143.366 141.631 141.158 143.815 138.278 143.815ZM155.968 141.199C155.968 136.423 147.76 139.111 147.76 135.271C147.76 133.711 149.104 132.823 151.12 132.823C153.232 132.823 154.792 133.975 154.792 135.559H155.656C155.656 133.567 153.736 132.103 151.12 132.103C148.72 132.103 146.92 133.279 146.92 135.271C146.92 139.951 155.128 137.167 155.128 141.223C155.128 142.975 153.76 143.887 151.48 143.887C149.2 143.887 147.472 142.855 147.472 140.791H146.608C146.608 143.239 148.696 144.583 151.48 144.583C154.168 144.583 155.968 143.407 155.968 141.199ZM167.605 144.343V143.599H159.277L167.125 133.447V132.343H158.701V133.087H166.429L158.581 143.239V144.343H167.605ZM175.567 144.583C178.951 144.583 181.471 142.015 181.471 138.343C181.471 134.671 178.951 132.103 175.567 132.103C172.183 132.103 169.663 134.671 169.663 138.343C169.663 142.015 172.183 144.583 175.567 144.583ZM175.567 143.815C172.687 143.815 170.479 141.631 170.479 138.343C170.479 135.055 172.687 132.871 175.567 132.871C178.447 132.871 180.655 135.055 180.655 138.343C180.655 141.631 178.447 143.815 175.567 143.815ZM190.497 132.103C188.217 132.103 186.345 133.399 185.457 135.439V126.343H184.617V144.343H185.457V141.247C186.345 143.287 188.217 144.583 190.497 144.583C193.785 144.583 196.257 142.015 196.257 138.343C196.257 134.671 193.785 132.103 190.497 132.103ZM190.425 132.871C193.257 132.871 195.393 135.055 195.393 138.343C195.393 141.631 193.257 143.815 190.425 143.815C187.593 143.815 185.457 141.631 185.457 138.343C185.457 135.055 187.593 132.871 190.425 132.871ZM202.934 144.583C204.854 144.583 206.87 143.647 207.71 141.607V144.343H208.55V135.799C208.55 133.111 206.294 132.103 203.87 132.103C201.374 132.103 199.046 133.231 199.046 136.231H199.862C199.862 133.951 201.566 132.823 203.87 132.823C206.078 132.823 207.71 133.783 207.71 135.775C207.71 139.591 198.686 136.039 198.686 141.319C198.686 143.527 200.558 144.583 202.934 144.583ZM199.526 141.295C199.526 137.503 205.79 139.423 207.71 137.431V139.399C207.71 142.303 205.406 143.863 203.03 143.863C200.942 143.863 199.526 143.023 199.526 141.295ZM85.9364 171.199C85.9364 166.423 77.7284 169.111 77.7284 165.271C77.7284 163.711 79.0724 162.823 81.0884 162.823C83.2004 162.823 84.7604 163.975 84.7604 165.559H85.6244C85.6244 163.567 83.7044 162.103 81.0884 162.103C78.6884 162.103 76.8884 163.279 76.8884 165.271C76.8884 169.951 85.0964 167.167 85.0964 171.223C85.0964 172.975 83.7284 173.887 81.4484 173.887C79.1684 173.887 77.4404 172.855 77.4404 170.791H76.5764C76.5764 173.239 78.6644 174.583 81.4484 174.583C84.1364 174.583 85.9364 173.407 85.9364 171.199ZM92.9421 174.583C94.8621 174.583 96.8781 173.647 97.7181 171.607V174.343H98.5581V165.799C98.5581 163.111 96.3021 162.103 93.8781 162.103C91.3821 162.103 89.0541 163.231 89.0541 166.231H89.8701C89.8701 163.951 91.5741 162.823 93.8781 162.823C96.0861 162.823 97.7181 163.783 97.7181 165.775C97.7181 169.591 88.6941 166.039 88.6941 171.319C88.6941 173.527 90.5661 174.583 92.9421 174.583ZM89.5341 171.295C89.5341 167.503 95.7981 169.423 97.7181 167.431V169.399C97.7181 172.303 95.4141 173.863 93.0381 173.863C90.9501 173.863 89.5341 173.023 89.5341 171.295ZM103.425 174.343V156.343H102.585V174.343H103.425ZM111.153 174.583C113.073 174.583 115.089 173.647 115.929 171.607V174.343H116.769V165.799C116.769 163.111 114.513 162.103 112.089 162.103C109.593 162.103 107.265 163.231 107.265 166.231H108.081C108.081 163.951 109.785 162.823 112.089 162.823C114.297 162.823 115.929 163.783 115.929 165.775C115.929 169.591 106.905 166.039 106.905 171.319C106.905 173.527 108.777 174.583 111.153 174.583ZM107.745 171.295C107.745 167.503 114.009 169.423 115.929 167.431V169.399C115.929 172.303 113.625 173.863 111.249 173.863C109.161 173.863 107.745 173.023 107.745 171.295ZM131.032 162.103C127.744 162.103 125.296 164.671 125.296 168.343C125.296 172.015 127.744 174.583 131.032 174.583C133.312 174.583 135.184 173.287 136.072 171.247V174.343H136.912V156.343H136.072V165.439C135.184 163.399 133.312 162.103 131.032 162.103ZM131.104 162.871C133.936 162.871 136.072 165.055 136.072 168.343C136.072 171.631 133.936 173.815 131.104 173.815C128.272 173.815 126.112 171.631 126.112 168.343C126.112 165.055 128.272 162.871 131.104 162.871ZM151.533 168.679V168.343C151.533 164.671 149.109 162.103 145.797 162.103C142.485 162.103 140.061 164.671 140.061 168.343C140.061 172.015 142.485 174.583 145.797 174.583C148.365 174.583 150.429 173.095 151.221 170.743H150.309C149.613 172.639 147.909 173.839 145.821 173.839C143.037 173.839 141.021 171.799 140.877 168.679H151.533ZM145.797 162.847C148.557 162.847 150.573 164.887 150.717 168.007H140.877C141.021 164.887 143.037 162.847 145.797 162.847ZM161.058 174.343V156.343H160.218V174.343H161.058ZM175.674 168.679V168.343C175.674 164.671 173.25 162.103 169.938 162.103C166.626 162.103 164.202 164.671 164.202 168.343C164.202 172.015 166.626 174.583 169.938 174.583C172.506 174.583 174.57 173.095 175.362 170.743H174.45C173.754 172.639 172.05 173.839 169.962 173.839C167.178 173.839 165.162 171.799 165.018 168.679H175.674ZM169.938 162.847C172.698 162.847 174.714 164.887 174.858 168.007H165.018C165.162 164.887 167.178 162.847 169.938 162.847ZM188.476 167.119H189.34C188.98 164.119 186.58 162.103 183.604 162.103C180.268 162.103 177.796 164.671 177.796 168.343C177.796 172.015 180.268 174.583 183.604 174.583C186.652 174.583 189.124 172.447 189.388 169.303H188.5C188.26 172.087 186.148 173.815 183.604 173.815C180.772 173.815 178.612 171.631 178.612 168.343C178.612 165.055 180.772 162.871 183.604 162.871C186.076 162.871 188.116 164.503 188.476 167.119ZM193.93 170.239V163.087H198.466V162.343H193.93V158.935H193.066V162.343H190.954V163.087H193.066V170.263C193.066 173.623 194.578 174.583 196.69 174.583C197.338 174.583 198.058 174.439 198.466 174.319V173.551C198.082 173.671 197.65 173.815 196.786 173.815C194.89 173.815 193.93 172.687 193.93 170.239ZM202.634 168.487V162.343H201.794V168.703C201.794 172.879 203.858 174.583 206.57 174.583C208.514 174.583 210.098 173.671 210.818 171.559V174.343H211.658V162.343H210.818V168.487C210.818 172.183 209.282 173.839 206.714 173.839C204.194 173.839 202.634 172.183 202.634 168.487ZM216.675 162.343H215.835V174.343H216.675V168.679C216.675 164.695 218.355 162.919 221.163 162.919C221.667 162.919 222.123 162.991 222.531 163.159V162.295C222.147 162.175 221.691 162.103 221.259 162.103C219.147 162.103 217.443 163.111 216.675 165.391V162.343ZM228.528 174.583C230.448 174.583 232.464 173.647 233.304 171.607V174.343H234.144V165.799C234.144 163.111 231.888 162.103 229.464 162.103C226.968 162.103 224.64 163.231 224.64 166.231H225.456C225.456 163.951 227.16 162.823 229.464 162.823C231.672 162.823 233.304 163.783 233.304 165.775C233.304 169.591 224.28 166.039 224.28 171.319C224.28 173.527 226.152 174.583 228.528 174.583ZM225.12 171.295C225.12 167.503 231.384 169.423 233.304 167.431V169.399C233.304 172.303 231 173.863 228.624 173.863C226.536 173.863 225.12 173.023 225.12 171.295ZM78.1364 204.343V186.343H77.2964V204.343H78.1364ZM85.912 204.583C88.12 204.583 90.448 203.431 91.096 200.887C91.936 203.143 93.928 204.583 96.4 204.583C98.968 204.583 101.032 203.095 101.824 200.743H100.912C100.216 202.639 98.512 203.839 96.424 203.839C93.64 203.839 91.624 201.799 91.48 198.679H102.136C102.136 198.535 102.16 198.463 102.16 198.343C102.16 194.671 99.712 192.103 96.4 192.103C94.168 192.103 92.32 193.279 91.36 195.151C91.024 192.943 88.984 192.103 86.752 192.103C84.304 192.103 81.976 193.231 81.976 196.231H82.792C82.792 193.951 84.496 192.823 86.8 192.823C89.008 192.823 90.64 193.783 90.64 195.775C90.64 199.591 81.616 196.039 81.616 201.319C81.616 203.527 83.512 204.583 85.912 204.583ZM96.4 192.847C99.16 192.847 101.176 194.887 101.32 198.007H91.48C91.624 194.887 93.64 192.847 96.4 192.847ZM82.456 201.295C82.456 197.503 88.72 199.423 90.64 197.431V199.399C90.64 202.303 88.336 203.863 85.96 203.863C83.872 203.863 82.456 203.023 82.456 201.295ZM113.921 201.199C113.921 196.423 105.713 199.111 105.713 195.271C105.713 193.711 107.057 192.823 109.073 192.823C111.185 192.823 112.745 193.975 112.745 195.559H113.609C113.609 193.567 111.689 192.103 109.073 192.103C106.673 192.103 104.873 193.279 104.873 195.271C104.873 199.951 113.081 197.167 113.081 201.223C113.081 202.975 111.713 203.887 109.433 203.887C107.153 203.887 105.425 202.855 105.425 200.791H104.561C104.561 203.239 106.649 204.583 109.433 204.583C112.121 204.583 113.921 203.407 113.921 201.199ZM127.815 198.679V198.343C127.815 194.671 125.391 192.103 122.079 192.103C118.767 192.103 116.343 194.671 116.343 198.343C116.343 202.015 118.767 204.583 122.079 204.583C124.647 204.583 126.711 203.095 127.503 200.743H126.591C125.895 202.639 124.191 203.839 122.103 203.839C119.319 203.839 117.303 201.799 117.159 198.679H127.815ZM122.079 192.847C124.839 192.847 126.855 194.887 126.999 198.007H117.159C117.303 194.887 119.319 192.847 122.079 192.847ZM139.608 201.199C139.608 196.423 131.4 199.111 131.4 195.271C131.4 193.711 132.744 192.823 134.76 192.823C136.872 192.823 138.432 193.975 138.432 195.559H139.296C139.296 193.567 137.376 192.103 134.76 192.103C132.36 192.103 130.56 193.279 130.56 195.271C130.56 199.951 138.768 197.167 138.768 201.223C138.768 202.975 137.4 203.887 135.12 203.887C132.84 203.887 131.112 202.855 131.112 200.791H130.248C130.248 203.239 132.336 204.583 135.12 204.583C137.808 204.583 139.608 203.407 139.608 201.199ZM146.614 204.583C148.534 204.583 150.55 203.647 151.39 201.607V204.343H152.23V195.799C152.23 193.111 149.974 192.103 147.55 192.103C145.054 192.103 142.726 193.231 142.726 196.231H143.542C143.542 193.951 145.246 192.823 147.55 192.823C149.758 192.823 151.39 193.783 151.39 195.775C151.39 199.591 142.366 196.039 142.366 201.319C142.366 203.527 144.238 204.583 146.614 204.583ZM143.206 201.295C143.206 197.503 149.47 199.423 151.39 197.431V199.399C151.39 202.303 149.086 203.863 146.71 203.863C144.622 203.863 143.206 203.023 143.206 201.295ZM157.097 204.343V186.343H156.257V204.343H157.097ZM78.1364 234.343V216.343H77.2964V234.343H78.1364ZM92.752 228.679V228.343C92.752 224.671 90.328 222.103 87.016 222.103C83.704 222.103 81.28 224.671 81.28 228.343C81.28 232.015 83.704 234.583 87.016 234.583C89.584 234.583 91.648 233.095 92.44 230.743H91.528C90.832 232.639 89.128 233.839 87.04 233.839C84.256 233.839 82.24 231.799 82.096 228.679H92.752ZM87.016 222.847C89.776 222.847 91.792 224.887 91.936 228.007H82.096C82.24 224.887 84.256 222.847 87.016 222.847ZM104.546 231.199C104.546 226.423 96.3378 229.111 96.3378 225.271C96.3378 223.711 97.6818 222.823 99.6978 222.823C101.81 222.823 103.37 223.975 103.37 225.559H104.234C104.234 223.567 102.314 222.103 99.6978 222.103C97.2978 222.103 95.4978 223.279 95.4978 225.271C95.4978 229.951 103.706 227.167 103.706 231.223C103.706 232.975 102.338 233.887 100.058 233.887C97.7778 233.887 96.0498 232.855 96.0498 230.791H95.1858C95.1858 233.239 97.2738 234.583 100.058 234.583C102.746 234.583 104.546 233.407 104.546 231.199ZM116.64 231.199C116.64 226.423 108.432 229.111 108.432 225.271C108.432 223.711 109.776 222.823 111.792 222.823C113.904 222.823 115.464 223.975 115.464 225.559H116.328C116.328 223.567 114.408 222.103 111.792 222.103C109.392 222.103 107.592 223.279 107.592 225.271C107.592 229.951 115.8 227.167 115.8 231.223C115.8 232.975 114.432 233.887 112.152 233.887C109.872 233.887 108.144 232.855 108.144 230.791H107.28C107.28 233.239 109.368 234.583 112.152 234.583C114.84 234.583 116.64 233.407 116.64 231.199ZM121.461 230.239V223.087H125.997V222.343H121.461V218.935H120.597V222.343H118.485V223.087H120.597V230.263C120.597 233.623 122.109 234.583 124.221 234.583C124.869 234.583 125.589 234.439 125.997 234.319V233.551C125.613 233.671 125.181 233.815 124.317 233.815C122.421 233.815 121.461 232.687 121.461 230.239ZM134.2 234.583C137.584 234.583 140.104 232.015 140.104 228.343C140.104 224.671 137.584 222.103 134.2 222.103C130.816 222.103 128.296 224.671 128.296 228.343C128.296 232.015 130.816 234.583 134.2 234.583ZM134.2 233.815C131.32 233.815 129.112 231.631 129.112 228.343C129.112 225.055 131.32 222.871 134.2 222.871C137.08 222.871 139.288 225.055 139.288 228.343C139.288 231.631 137.08 233.815 134.2 233.815ZM145.002 220.327C145.002 217.903 146.082 216.871 147.954 216.871C148.626 216.871 149.226 216.967 149.802 217.231V216.415C149.178 216.175 148.626 216.103 147.882 216.103C145.578 216.103 144.186 217.399 144.186 220.255V222.343H141.642V223.087H144.186V234.343H145.002V223.087H149.562V222.343H145.002V220.327ZM155.567 234.583C157.487 234.583 159.503 233.647 160.343 231.607V234.343H161.183V225.799C161.183 223.111 158.927 222.103 156.503 222.103C154.007 222.103 151.679 223.231 151.679 226.231H152.495C152.495 223.951 154.199 222.823 156.503 222.823C158.711 222.823 160.343 223.783 160.343 225.775C160.343 229.591 151.319 226.039 151.319 231.319C151.319 233.527 153.191 234.583 155.567 234.583ZM152.159 231.295C152.159 227.503 158.423 229.423 160.343 227.431V229.399C160.343 232.303 158.039 233.863 155.663 233.863C153.575 233.863 152.159 233.023 152.159 231.295ZM82.1684 264.583C85.5524 264.583 88.0724 262.015 88.0724 258.343C88.0724 254.671 85.5524 252.103 82.1684 252.103C78.7844 252.103 76.2644 254.671 76.2644 258.343C76.2644 262.015 78.7844 264.583 82.1684 264.583ZM82.1684 263.815C79.2884 263.815 77.0804 261.631 77.0804 258.343C77.0804 255.055 79.2884 252.871 82.1684 252.871C85.0484 252.871 87.2564 255.055 87.2564 258.343C87.2564 261.631 85.0484 263.815 82.1684 263.815ZM92.0583 252.343H91.2183V264.343H92.0583V258.103L99.6663 264.343H100.626V267.583H101.442V263.575H99.9543L93.0903 258.007L100.05 252.343H98.8263L92.0583 257.911V252.343ZM107.685 265.855C106.701 268.399 106.005 269.623 103.917 269.623C103.365 269.623 102.813 269.551 102.381 269.383V270.127C102.789 270.271 103.389 270.391 104.013 270.391C106.605 270.391 107.445 268.591 108.429 266.047L113.805 252.343H112.941L108.117 264.775L103.077 252.343H102.213L107.685 265.855ZM123.403 257.863V258.511H125.299C127.267 258.511 129.139 259.255 129.139 261.175C129.139 262.927 127.699 263.887 125.227 263.887C122.755 263.887 120.955 262.807 120.955 260.719H120.139C120.139 263.215 122.227 264.583 125.227 264.583C128.131 264.583 129.955 263.407 129.955 261.199C129.955 259.423 128.779 258.535 127.123 258.175C128.635 257.839 129.619 256.975 129.619 255.271C129.619 253.303 127.819 252.103 125.203 252.103C122.371 252.103 120.427 253.615 120.427 255.655H121.267C121.267 253.999 122.899 252.823 125.203 252.823C127.411 252.823 128.827 253.735 128.827 255.295C128.827 257.143 127.315 257.863 125.275 257.863H123.403ZM136.911 264.583C138.831 264.583 140.847 263.647 141.687 261.607V264.343H142.527V255.799C142.527 253.111 140.271 252.103 137.847 252.103C135.351 252.103 133.023 253.231 133.023 256.231H133.839C133.839 253.951 135.543 252.823 137.847 252.823C140.055 252.823 141.687 253.783 141.687 255.775C141.687 259.591 132.663 256.039 132.663 261.319C132.663 263.527 134.535 264.583 136.911 264.583ZM133.503 261.295C133.503 257.503 139.767 259.423 141.687 257.431V259.399C141.687 262.303 139.383 263.863 137.007 263.863C134.919 263.863 133.503 263.023 133.503 261.295ZM155.986 264.343V252.343H147.97C147.922 256.855 147.706 259.519 147.346 261.319C147.01 263.119 146.218 263.575 145.426 263.575H145.066V264.343H145.45C146.746 264.343 147.73 263.719 148.162 261.295C148.45 259.519 148.642 256.927 148.714 253.111H155.146V264.343H155.986ZM169.075 260.695C169.075 258.295 167.419 256.927 164.995 256.927H161.011V252.343H160.171V264.343H164.995C167.443 264.343 169.075 263.047 169.075 260.695ZM172.507 264.343V252.343H171.667V264.343H172.507ZM164.851 257.647C166.939 257.647 168.211 258.607 168.211 260.695C168.211 262.711 166.939 263.623 164.851 263.623H161.011V257.647H164.851ZM82.1684 294.583C85.5524 294.583 88.0724 292.015 88.0724 288.343C88.0724 284.671 85.5524 282.103 82.1684 282.103C78.7844 282.103 76.2644 284.671 76.2644 288.343C76.2644 292.015 78.7844 294.583 82.1684 294.583ZM82.1684 293.815C79.2884 293.815 77.0804 291.631 77.0804 288.343C77.0804 285.055 79.2884 282.871 82.1684 282.871C85.0484 282.871 87.2564 285.055 87.2564 288.343C87.2564 291.631 85.0484 293.815 82.1684 293.815ZM95.9223 282.103C92.6343 282.103 90.1863 284.671 90.1863 288.343C90.1863 292.015 92.6343 294.583 95.9223 294.583C98.2023 294.583 100.074 293.287 100.962 291.247V294.343H101.802V276.343H100.962V285.439C100.074 283.399 98.2023 282.103 95.9223 282.103ZM95.9943 282.871C98.8263 282.871 100.962 285.055 100.962 288.343C100.962 291.631 98.8263 293.815 95.9943 293.815C93.1623 293.815 91.0023 291.631 91.0023 288.343C91.0023 285.055 93.1623 282.871 95.9943 282.871ZM116.424 288.679V288.343C116.424 284.671 114 282.103 110.688 282.103C107.376 282.103 104.952 284.671 104.952 288.343C104.952 292.015 107.376 294.583 110.688 294.583C113.256 294.583 115.32 293.095 116.112 290.743H115.2C114.504 292.639 112.8 293.839 110.712 293.839C107.928 293.839 105.912 291.799 105.768 288.679H116.424ZM110.688 282.847C113.448 282.847 115.464 284.887 115.608 288.007H105.768C105.912 284.887 107.928 282.847 110.688 282.847ZM123.178 295.855C122.194 298.399 121.498 299.623 119.41 299.623C118.858 299.623 118.306 299.551 117.874 299.383V300.127C118.282 300.271 118.882 300.391 119.506 300.391C122.098 300.391 122.938 298.591 123.922 296.047L129.298 282.343H128.434L123.61 294.775L118.57 282.343H117.706L123.178 295.855ZM135.036 294.583C136.956 294.583 138.972 293.647 139.812 291.607V294.343H140.652V285.799C140.652 283.111 138.396 282.103 135.972 282.103C133.476 282.103 131.148 283.231 131.148 286.231H131.964C131.964 283.951 133.668 282.823 135.972 282.823C138.18 282.823 139.812 283.783 139.812 285.775C139.812 289.591 130.788 286.039 130.788 291.319C130.788 293.527 132.66 294.583 135.036 294.583ZM131.628 291.295C131.628 287.503 137.892 289.423 139.812 287.431V289.399C139.812 292.303 137.508 293.863 135.132 293.863C133.044 293.863 131.628 293.023 131.628 291.295ZM149.094 294.343L153.822 288.727L158.718 294.343H159.726L154.422 288.151L159.462 282.343H158.43L153.894 287.599L149.334 282.343H148.326L153.342 288.175L148.062 294.343H149.094ZM165.426 294.343L169.29 283.135L173.154 294.343H174.114L178.122 282.343H177.282L173.634 293.599L169.77 282.343H168.81L164.946 293.551L161.322 282.343H160.482L164.466 294.343H165.426ZM191.002 288.679V288.343C191.002 284.671 188.578 282.103 185.266 282.103C181.954 282.103 179.53 284.671 179.53 288.343C179.53 292.015 181.954 294.583 185.266 294.583C187.834 294.583 189.898 293.095 190.69 290.743H189.778C189.082 292.639 187.378 293.839 185.29 293.839C182.506 293.839 180.49 291.799 180.346 288.679H191.002ZM185.266 282.847C188.026 282.847 190.042 284.887 190.186 288.007H180.346C180.49 284.887 182.506 282.847 185.266 282.847ZM194.996 282.343H194.156V294.343H194.996V287.983C194.996 284.431 196.604 282.847 199.148 282.847C201.692 282.847 203.3 284.431 203.3 287.983V294.343H204.14V287.767C204.14 283.735 202.1 282.103 199.292 282.103C197.3 282.103 195.716 282.991 194.996 285.007V282.343ZM212.899 282.103C209.611 282.103 207.163 284.671 207.163 288.343C207.163 292.015 209.611 294.583 212.899 294.583C215.179 294.583 217.051 293.287 217.939 291.247V294.343H218.779V276.343H217.939V285.439C217.051 283.399 215.179 282.103 212.899 282.103ZM212.971 282.871C215.803 282.871 217.939 285.055 217.939 288.343C217.939 291.631 215.803 293.815 212.971 293.815C210.139 293.815 207.979 291.631 207.979 288.343C207.979 285.055 210.139 282.871 212.971 282.871ZM223.368 279.007C223.92 279.007 224.304 278.599 224.304 278.071C224.304 277.567 223.92 277.159 223.368 277.159C222.864 277.159 222.456 277.567 222.456 278.071C222.456 278.599 222.864 279.007 223.368 279.007ZM223.8 294.343V282.343H222.96V294.343H223.8ZM228.816 282.343H227.976V294.343H228.816V287.983C228.816 284.431 230.424 282.847 232.968 282.847C235.512 282.847 237.12 284.431 237.12 287.983V294.343H237.96V287.767C237.96 283.735 235.92 282.103 233.112 282.103C231.12 282.103 229.536 282.991 228.816 285.007V282.343ZM244.079 279.943L246.719 276.991L249.359 279.943H250.031L247.295 276.343H246.143L243.407 279.943H244.079ZM252.455 288.679V288.343C252.455 284.671 250.031 282.103 246.719 282.103C243.407 282.103 240.983 284.671 240.983 288.343C240.983 292.015 243.407 294.583 246.719 294.583C249.287 294.583 251.351 293.095 252.143 290.743H251.231C250.535 292.639 248.831 293.839 246.743 293.839C243.959 293.839 241.943 291.799 241.799 288.679H252.455ZM246.719 282.847C249.479 282.847 251.495 284.887 251.639 288.007H241.799C241.943 284.887 243.959 282.847 246.719 282.847ZM78.1364 324.343V306.343H77.2964V324.343H78.1364ZM85.864 324.583C87.784 324.583 89.8 323.647 90.64 321.607V324.343H91.48V315.799C91.48 313.111 89.224 312.103 86.8 312.103C84.304 312.103 81.976 313.231 81.976 316.231H82.792C82.792 313.951 84.496 312.823 86.8 312.823C89.008 312.823 90.64 313.783 90.64 315.775C90.64 319.591 81.616 316.039 81.616 321.319C81.616 323.527 83.488 324.583 85.864 324.583ZM82.456 321.295C82.456 317.503 88.72 319.423 90.64 317.431V319.399C90.64 322.303 88.336 323.863 85.96 323.863C83.872 323.863 82.456 323.023 82.456 321.295ZM104.147 321.199C104.147 316.423 95.9393 319.111 95.9393 315.271C95.9393 313.711 97.2833 312.823 99.2993 312.823C101.411 312.823 102.971 313.975 102.971 315.559H103.835C103.835 313.567 101.915 312.103 99.2993 312.103C96.8993 312.103 95.0993 313.279 95.0993 315.271C95.0993 319.951 103.307 317.167 103.307 321.223C103.307 322.975 101.939 323.887 99.6593 323.887C97.3793 323.887 95.6513 322.855 95.6513 320.791H94.7873C94.7873 323.239 96.8753 324.583 99.6593 324.583C102.347 324.583 104.147 323.407 104.147 321.199ZM111.177 308.479H104.865V309.127H111.177V308.479ZM108.441 324.343V312.343H107.601V324.343H108.441ZM113.985 320.239V313.087H118.521V312.343H113.985V308.935H113.121V312.343H111.009V313.087H113.121V320.263C113.121 323.623 114.633 324.583 116.745 324.583C117.393 324.583 118.113 324.439 118.521 324.319V323.551C118.137 323.671 117.705 323.815 116.841 323.815C114.945 323.815 113.985 322.687 113.985 320.239ZM125.52 324.583C127.44 324.583 129.456 323.647 130.296 321.607V324.343H131.136V315.799C131.136 313.111 128.88 312.103 126.456 312.103C123.96 312.103 121.632 313.231 121.632 316.231H122.448C122.448 313.951 124.152 312.823 126.456 312.823C128.664 312.823 130.296 313.783 130.296 315.775C130.296 319.591 121.272 316.039 121.272 321.319C121.272 323.527 123.144 324.583 125.52 324.583ZM122.112 321.295C122.112 317.503 128.376 319.423 130.296 317.431V319.399C130.296 322.303 127.992 323.863 125.616 323.863C123.528 323.863 122.112 323.023 122.112 321.295ZM139.58 324.343L144.836 312.343H143.948L139.076 323.719L134.204 312.343H133.316L138.572 324.343H139.58ZM150.598 324.583C152.518 324.583 154.534 323.647 155.374 321.607V324.343H156.214V315.799C156.214 313.111 153.958 312.103 151.534 312.103C149.038 312.103 146.71 313.231 146.71 316.231H147.526C147.526 313.951 149.23 312.823 151.534 312.823C153.742 312.823 155.374 313.783 155.374 315.775C155.374 319.591 146.35 316.039 146.35 321.319C146.35 323.527 148.222 324.583 150.598 324.583ZM147.19 321.295C147.19 317.503 153.454 319.423 155.374 317.431V319.399C155.374 322.303 153.07 323.863 150.694 323.863C148.606 323.863 147.19 323.023 147.19 321.295ZM80.8964 355.855C79.9124 358.399 79.2164 359.623 77.1284 359.623C76.5764 359.623 76.0244 359.551 75.5924 359.383V360.127C76.0004 360.271 76.6004 360.391 77.2244 360.391C79.8164 360.391 80.6564 358.591 81.6404 356.047L87.0164 342.343H86.1524L81.3284 354.775L76.2884 342.343H75.4244L80.8964 355.855ZM90.1598 354.343V348.535H98.2718V354.343H99.0878V342.343H98.2718V347.767H90.1598V342.343H89.3198V354.343H90.1598ZM104.177 342.343H103.289V354.343H118.817V342.343H118.001V353.575H111.473V342.343H110.633V353.575H104.177V342.343ZM132.455 354.343V342.343H124.439C124.391 346.855 124.175 349.519 123.815 351.319C123.479 353.119 122.687 353.575 121.895 353.575H121.535V354.343H121.919C123.215 354.343 124.199 353.719 124.631 351.295C124.919 349.519 125.111 346.927 125.183 343.111H131.615V354.343H132.455ZM140.192 354.583C142.112 354.583 144.128 353.647 144.968 351.607V354.343H145.808V345.799C145.808 343.111 143.552 342.103 141.128 342.103C138.632 342.103 136.304 343.231 136.304 346.231H137.12C137.12 343.951 138.824 342.823 141.128 342.823C143.336 342.823 144.968 343.783 144.968 345.775C144.968 349.591 135.944 346.039 135.944 351.319C135.944 353.527 137.816 354.583 140.192 354.583ZM136.784 351.295C136.784 347.503 143.048 349.423 144.968 347.431V349.399C144.968 352.303 142.664 353.863 140.288 353.863C138.2 353.863 136.784 353.023 136.784 351.295ZM150.675 354.343V343.111H157.179V342.343H149.835V354.343H150.675ZM169.052 350.695C169.052 348.295 167.396 346.927 164.972 346.927H160.988V342.343H160.148V354.343H164.972C167.42 354.343 169.052 353.047 169.052 350.695ZM172.484 354.343V342.343H171.644V354.343H172.484ZM164.828 347.647C166.916 347.647 168.188 348.607 168.188 350.695C168.188 352.711 166.916 353.623 164.828 353.623H160.988V347.647H164.828ZM177.511 354.343V348.535H185.623V354.343H186.439V342.343H185.623V347.767H177.511V342.343H176.671V354.343H177.511ZM200.419 354.343V343.111H205.243V342.343H194.755V343.111H199.579V354.343H200.419ZM211.02 354.583C212.94 354.583 214.956 353.647 215.796 351.607V354.343H216.636V345.799C216.636 343.111 214.38 342.103 211.956 342.103C209.46 342.103 207.132 343.231 207.132 346.231H207.948C207.948 343.951 209.652 342.823 211.956 342.823C214.164 342.823 215.796 343.783 215.796 345.775C215.796 349.591 206.772 346.039 206.772 351.319C206.772 353.527 208.644 354.583 211.02 354.583ZM207.612 351.295C207.612 347.503 213.876 349.423 215.796 347.431V349.399C215.796 352.303 213.492 353.863 211.116 353.863C209.028 353.863 207.612 353.023 207.612 351.295ZM221.504 354.343V348.535H229.616V354.343H230.432V342.343H229.616V347.767H221.504V342.343H220.664V354.343H221.504ZM233.984 354.343L238.712 348.727L243.608 354.343H244.616L239.312 348.151L244.352 342.343H243.32L238.784 347.599L234.224 342.343H233.216L238.232 348.175L232.952 354.343H233.984ZM256.941 354.343V342.343H255.981L247.917 353.383V342.343H247.101V354.343H248.061L256.101 343.327V354.343H256.941ZM267.717 354.343L272.661 342.943V354.343H273.501V342.343H272.109L267.261 353.695L262.509 342.343H261.117V354.343H261.909V342.919L266.733 354.343H267.717ZM78.1364 384.343V366.343H77.2964V384.343H78.1364ZM92.752 378.679V378.343C92.752 374.671 90.328 372.103 87.016 372.103C83.704 372.103 81.28 374.671 81.28 378.343C81.28 382.015 83.704 384.583 87.016 384.583C89.584 384.583 91.648 383.095 92.44 380.743H91.528C90.832 382.639 89.128 383.839 87.04 383.839C84.256 383.839 82.24 381.799 82.096 378.679H92.752ZM87.016 372.847C89.776 372.847 91.792 374.887 91.936 378.007H82.096C82.24 374.887 84.256 372.847 87.016 372.847ZM104.546 381.199C104.546 376.423 96.3378 379.111 96.3378 375.271C96.3378 373.711 97.6818 372.823 99.6978 372.823C101.81 372.823 103.37 373.975 103.37 375.559H104.234C104.234 373.567 102.314 372.103 99.6978 372.103C97.2978 372.103 95.4978 373.279 95.4978 375.271C95.4978 379.951 103.706 377.167 103.706 381.223C103.706 382.975 102.338 383.887 100.058 383.887C97.7778 383.887 96.0498 382.855 96.0498 380.791H95.1858C95.1858 383.239 97.2738 384.583 100.058 384.583C102.746 384.583 104.546 383.407 104.546 381.199ZM118.44 378.679V378.343C118.44 374.671 116.016 372.103 112.704 372.103C109.392 372.103 106.968 374.671 106.968 378.343C106.968 382.015 109.392 384.583 112.704 384.583C115.272 384.583 117.336 383.095 118.128 380.743H117.216C116.52 382.639 114.816 383.839 112.728 383.839C109.944 383.839 107.928 381.799 107.784 378.679H118.44ZM112.704 372.847C115.464 372.847 117.48 374.887 117.624 378.007H107.784C107.928 374.887 109.944 372.847 112.704 372.847ZM130.233 381.199C130.233 376.423 122.025 379.111 122.025 375.271C122.025 373.711 123.369 372.823 125.385 372.823C127.497 372.823 129.057 373.975 129.057 375.559H129.921C129.921 373.567 128.001 372.103 125.385 372.103C122.985 372.103 121.185 373.279 121.185 375.271C121.185 379.951 129.393 377.167 129.393 381.223C129.393 382.975 128.025 383.887 125.745 383.887C123.465 383.887 121.737 382.855 121.737 380.791H120.873C120.873 383.239 122.961 384.583 125.745 384.583C128.433 384.583 130.233 383.407 130.233 381.199ZM137.239 384.583C139.159 384.583 141.175 383.647 142.015 381.607V384.343H142.855V375.799C142.855 373.111 140.599 372.103 138.175 372.103C135.679 372.103 133.351 373.231 133.351 376.231H134.167C134.167 373.951 135.871 372.823 138.175 372.823C140.383 372.823 142.015 373.783 142.015 375.775C142.015 379.591 132.991 376.039 132.991 381.319C132.991 383.527 134.863 384.583 137.239 384.583ZM133.831 381.295C133.831 377.503 140.095 379.423 142.015 377.431V379.399C142.015 382.303 139.711 383.863 137.335 383.863C135.247 383.863 133.831 383.023 133.831 381.295ZM150.434 384.583C152.354 384.583 154.37 383.647 155.21 381.607V384.343H156.05V375.799C156.05 373.111 153.794 372.103 151.37 372.103C148.874 372.103 146.546 373.231 146.546 376.231H147.362C147.362 373.951 149.066 372.823 151.37 372.823C153.578 372.823 155.21 373.783 155.21 375.775C155.21 379.591 146.186 376.039 146.186 381.319C146.186 383.527 148.058 384.583 150.434 384.583ZM147.026 381.295C147.026 377.503 153.29 379.423 155.21 377.431V379.399C155.21 382.303 152.906 383.863 150.53 383.863C148.442 383.863 147.026 383.023 147.026 381.295ZM160.918 384.343V366.343H160.078V384.343H160.918ZM78.1364 414.343V396.343H77.2964V414.343H78.1364ZM92.752 408.679V408.343C92.752 404.671 90.328 402.103 87.016 402.103C83.704 402.103 81.28 404.671 81.28 408.343C81.28 412.015 83.704 414.583 87.016 414.583C89.584 414.583 91.648 413.095 92.44 410.743H91.528C90.832 412.639 89.128 413.839 87.04 413.839C84.256 413.839 82.24 411.799 82.096 408.679H92.752ZM87.016 402.847C89.776 402.847 91.792 404.887 91.936 408.007H82.096C82.24 404.887 84.256 402.847 87.016 402.847ZM104.546 411.199C104.546 406.423 96.3378 409.111 96.3378 405.271C96.3378 403.711 97.6818 402.823 99.6978 402.823C101.81 402.823 103.37 403.975 103.37 405.559H104.234C104.234 403.567 102.314 402.103 99.6978 402.103C97.2978 402.103 95.4978 403.279 95.4978 405.271C95.4978 409.951 103.706 407.167 103.706 411.223C103.706 412.975 102.338 413.887 100.058 413.887C97.7778 413.887 96.0498 412.855 96.0498 410.791H95.1858C95.1858 413.239 97.2738 414.583 100.058 414.583C102.746 414.583 104.546 413.407 104.546 411.199ZM118.44 408.679V408.343C118.44 404.671 116.016 402.103 112.704 402.103C109.392 402.103 106.968 404.671 106.968 408.343C106.968 412.015 109.392 414.583 112.704 414.583C115.272 414.583 117.336 413.095 118.128 410.743H117.216C116.52 412.639 114.816 413.839 112.728 413.839C109.944 413.839 107.928 411.799 107.784 408.679H118.44ZM112.704 402.847C115.464 402.847 117.48 404.887 117.624 408.007H107.784C107.928 404.887 109.944 402.847 112.704 402.847ZM122.433 402.343H121.593V414.343H122.433V408.679C122.433 404.695 124.113 402.919 126.921 402.919C127.425 402.919 127.881 402.991 128.289 403.159V402.295C127.905 402.175 127.449 402.103 127.017 402.103C124.905 402.103 123.201 403.111 122.433 405.391V402.343ZM135.489 414.583C138.873 414.583 141.393 412.015 141.393 408.343C141.393 404.671 138.873 402.103 135.489 402.103C132.105 402.103 129.585 404.671 129.585 408.343C129.585 412.015 132.105 414.583 135.489 414.583ZM135.489 413.815C132.609 413.815 130.401 411.631 130.401 408.343C130.401 405.055 132.609 402.871 135.489 402.871C138.369 402.871 140.577 405.055 140.577 408.343C140.577 411.631 138.369 413.815 135.489 413.815ZM152.579 407.335V414.343H153.443V407.335C153.443 404.239 154.835 402.847 157.139 402.847C159.323 402.847 160.643 404.239 160.643 407.335V414.343H161.483V407.143C161.483 403.567 159.659 402.103 157.283 402.103C155.363 402.103 153.779 403.039 153.203 405.151C152.627 403.015 151.043 402.103 149.123 402.103C147.443 402.103 146.051 402.871 145.379 404.599V402.343H144.539V414.343H145.379V407.335C145.379 404.239 146.723 402.847 148.979 402.847C151.235 402.847 152.579 404.239 152.579 407.335ZM86.9444 437.119H87.8084C87.4484 434.119 85.0484 432.103 82.0724 432.103C78.7364 432.103 76.2644 434.671 76.2644 438.343C76.2644 442.015 78.7364 444.583 82.0724 444.583C85.1204 444.583 87.5924 442.447 87.8564 439.303H86.9684C86.7284 442.087 84.6164 443.815 82.0724 443.815C79.2404 443.815 77.0804 441.631 77.0804 438.343C77.0804 435.055 79.2404 432.871 82.0724 432.871C84.5444 432.871 86.5844 434.503 86.9444 437.119ZM99.2148 444.343V443.599H90.8868L98.7348 433.447V432.343H90.3108V433.087H98.0388L90.1908 443.239V444.343H99.2148ZM105.904 445.855C104.92 448.399 104.224 449.623 102.136 449.623C101.584 449.623 101.032 449.551 100.6 449.383V450.127C101.008 450.271 101.608 450.391 102.232 450.391C104.824 450.391 105.664 448.591 106.648 446.047L112.024 432.343H111.16L106.336 444.775L101.296 432.343H100.432L105.904 445.855ZM115.696 440.239V433.087H120.232V432.343H115.696V428.935H114.832V432.343H112.72V433.087H114.832V440.263C114.832 443.623 116.344 444.583 118.456 444.583C119.104 444.583 119.824 444.439 120.232 444.319V443.551C119.848 443.671 119.416 443.815 118.552 443.815C116.656 443.815 115.696 442.687 115.696 440.239ZM134.002 438.679V438.343C134.002 434.671 131.578 432.103 128.266 432.103C124.954 432.103 122.53 434.671 122.53 438.343C122.53 442.015 124.954 444.583 128.266 444.583C130.834 444.583 132.898 443.095 133.69 440.743H132.778C132.082 442.639 130.378 443.839 128.29 443.839C125.506 443.839 123.49 441.799 123.346 438.679H134.002ZM128.266 432.847C131.026 432.847 133.042 434.887 133.186 438.007H123.346C123.49 434.887 125.506 432.847 128.266 432.847ZM137.996 444.343V426.343H137.156V444.343H137.996ZM143.011 432.343H142.171V444.343H143.011V437.983C143.011 434.431 144.619 432.847 147.163 432.847C149.707 432.847 151.315 434.431 151.315 437.983V444.343H152.155V437.767C152.155 433.735 150.115 432.103 147.307 432.103C145.315 432.103 143.731 432.991 143.011 435.007V432.343ZM156.618 429.007C157.17 429.007 157.554 428.599 157.554 428.071C157.554 427.567 157.17 427.159 156.618 427.159C156.114 427.159 155.706 427.567 155.706 428.071C155.706 428.599 156.114 429.007 156.618 429.007ZM157.05 444.343V432.343H156.21V444.343H157.05ZM164.778 444.583C166.698 444.583 168.714 443.647 169.554 441.607V444.343H170.394V435.799C170.394 433.111 168.138 432.103 165.714 432.103C163.218 432.103 160.89 433.231 160.89 436.231H161.706C161.706 433.951 163.41 432.823 165.714 432.823C167.922 432.823 169.554 433.783 169.554 435.775C169.554 439.591 160.53 436.039 160.53 441.319C160.53 443.527 162.402 444.583 164.778 444.583ZM161.37 441.295C161.37 437.503 167.634 439.423 169.554 437.431V439.399C169.554 442.303 167.25 443.863 164.874 443.863C162.786 443.863 161.37 443.023 161.37 441.295ZM85.9124 474.343V462.343H85.0724V468.295C84.2564 468.655 82.8164 468.943 81.7364 468.943C79.2404 468.943 77.7284 467.719 77.7284 464.887V462.343H76.8884V465.031C76.8884 468.367 78.8564 469.711 81.6884 469.711C82.7444 469.711 84.2324 469.423 85.0724 469.063V474.343H85.9124ZM99.8395 474.343V462.343H98.8795L90.8155 473.383V462.343H89.9995V474.343H90.9595L98.9995 463.327V474.343H99.8395ZM108.263 474.343V463.111H113.087V462.343H102.599V463.111H107.423V474.343H108.263ZM118.864 474.583C120.784 474.583 122.8 473.647 123.64 471.607V474.343H124.48V465.799C124.48 463.111 122.224 462.103 119.8 462.103C117.304 462.103 114.976 463.231 114.976 466.231H115.792C115.792 463.951 117.496 462.823 119.8 462.823C122.008 462.823 123.64 463.783 123.64 465.775C123.64 469.591 114.616 466.039 114.616 471.319C114.616 473.527 116.488 474.583 118.864 474.583ZM115.456 471.295C115.456 467.503 121.72 469.423 123.64 467.431V469.399C123.64 472.303 121.336 473.863 118.96 473.863C116.872 473.863 115.456 473.023 115.456 471.295ZM133.379 474.583C136.763 474.583 139.283 472.015 139.283 468.343C139.283 464.671 136.763 462.103 133.379 462.103C129.995 462.103 127.475 464.671 127.475 468.343C127.475 472.015 129.995 474.583 133.379 474.583ZM133.379 473.815C130.499 473.815 128.291 471.631 128.291 468.343C128.291 465.055 130.499 462.871 133.379 462.871C136.259 462.871 138.467 465.055 138.467 468.343C138.467 471.631 136.259 473.815 133.379 473.815ZM143.269 474.343V468.535H151.381V474.343H152.197V462.343H151.381V467.767H143.269V462.343H142.429V474.343H143.269ZM166.238 474.343V462.343H165.278L157.214 473.383V462.343H156.398V474.343H157.358L165.398 463.327V474.343H166.238ZM171.254 462.343H170.414V474.343H180.806V477.583H181.622V473.575H179.942V462.343H179.102V473.575H171.254V462.343ZM188.286 474.583C190.206 474.583 192.222 473.647 193.062 471.607V474.343H193.902V465.799C193.902 463.111 191.646 462.103 189.222 462.103C186.726 462.103 184.398 463.231 184.398 466.231H185.214C185.214 463.951 186.918 462.823 189.222 462.823C191.43 462.823 193.062 463.783 193.062 465.775C193.062 469.591 184.038 466.039 184.038 471.319C184.038 473.527 185.91 474.583 188.286 474.583ZM184.878 471.295C184.878 467.503 191.142 469.423 193.062 467.431V469.399C193.062 472.303 190.758 473.863 188.382 473.863C186.294 473.863 184.878 473.023 184.878 471.295ZM79.4324 486.343H78.7604L81.4964 489.943H82.6484L85.3844 486.343H84.7124L82.0724 489.295L79.4324 486.343ZM86.9444 497.119H87.8084C87.4484 494.119 85.0484 492.103 82.0724 492.103C78.7364 492.103 76.2644 494.671 76.2644 498.343C76.2644 502.015 78.7364 504.583 82.0724 504.583C85.1204 504.583 87.5924 502.447 87.8564 499.303H86.9684C86.7284 502.087 84.6164 503.815 82.0724 503.815C79.2404 503.815 77.0804 501.631 77.0804 498.343C77.0804 495.055 79.2404 492.871 82.0724 492.871C84.5444 492.871 86.5844 494.503 86.9444 497.119ZM91.4388 489.007C91.9908 489.007 92.3748 488.599 92.3748 488.071C92.3748 487.567 91.9908 487.159 91.4388 487.159C90.9348 487.159 90.5268 487.567 90.5268 488.071C90.5268 488.599 90.9348 489.007 91.4388 489.007ZM91.8708 504.343V492.343H91.0308V504.343H91.8708ZM97.4144 500.239V493.087H101.95V492.343H97.4144V488.935H96.5504V492.343H94.4384V493.087H96.5504V500.263C96.5504 503.623 98.0624 504.583 100.174 504.583C100.822 504.583 101.542 504.439 101.95 504.319V503.551C101.566 503.671 101.134 503.815 100.27 503.815C98.3744 503.815 97.4144 502.687 97.4144 500.239ZM108.95 504.583C110.87 504.583 112.886 503.647 113.726 501.607V504.343H114.566V495.799C114.566 493.111 112.31 492.103 109.886 492.103C107.39 492.103 105.062 493.231 105.062 496.231H105.878C105.878 493.951 107.582 492.823 109.886 492.823C112.094 492.823 113.726 493.783 113.726 495.775C113.726 499.591 104.702 496.039 104.702 501.319C104.702 503.527 106.574 504.583 108.95 504.583ZM105.542 501.295C105.542 497.503 111.806 499.423 113.726 497.431V499.399C113.726 502.303 111.422 503.863 109.046 503.863C106.958 503.863 105.542 503.023 105.542 501.295ZM119.433 504.343V486.343H118.593V504.343H119.433ZM124.449 492.343H123.609V504.343H124.449V497.983C124.449 494.431 126.057 492.847 128.601 492.847C131.145 492.847 132.753 494.431 132.753 497.983V504.343H133.593V497.767C133.593 493.735 131.553 492.103 128.745 492.103C126.753 492.103 125.169 492.991 124.449 495.007V492.343ZM138.056 489.007C138.608 489.007 138.992 488.599 138.992 488.071C138.992 487.567 138.608 487.159 138.056 487.159C137.552 487.159 137.144 487.567 137.144 488.071C137.144 488.599 137.552 489.007 138.056 489.007ZM138.488 504.343V492.343H137.648V504.343H138.488ZM152.312 497.119H153.176C152.816 494.119 150.416 492.103 147.44 492.103C144.104 492.103 141.632 494.671 141.632 498.343C141.632 502.015 144.104 504.583 147.44 504.583C150.488 504.583 152.96 502.447 153.224 499.303H152.336C152.096 502.087 149.984 503.815 147.44 503.815C144.608 503.815 142.448 501.631 142.448 498.343C142.448 495.055 144.608 492.871 147.44 492.871C149.912 492.871 151.952 494.503 152.312 497.119ZM159.95 504.583C161.87 504.583 163.886 503.647 164.726 501.607V504.343H165.566V495.799C165.566 493.111 163.31 492.103 160.886 492.103C158.39 492.103 156.062 493.231 156.062 496.231H156.878C156.878 493.951 158.582 492.823 160.886 492.823C163.094 492.823 164.726 493.783 164.726 495.775C164.726 499.591 155.702 496.039 155.702 501.319C155.702 503.527 157.574 504.583 159.95 504.583ZM156.542 501.295C156.542 497.503 162.806 499.423 164.726 497.431V499.399C164.726 502.303 162.422 503.863 160.046 503.863C157.958 503.863 156.542 503.023 156.542 501.295ZM82.1684 534.583C85.5524 534.583 88.0724 532.015 88.0724 528.343C88.0724 524.671 85.5524 522.103 82.1684 522.103C78.7844 522.103 76.2644 524.671 76.2644 528.343C76.2644 532.015 78.7844 534.583 82.1684 534.583ZM82.1684 533.815C79.2884 533.815 77.0804 531.631 77.0804 528.343C77.0804 525.055 79.2884 522.871 82.1684 522.871C85.0484 522.871 87.2564 525.055 87.2564 528.343C87.2564 531.631 85.0484 533.815 82.1684 533.815ZM92.0583 516.343H91.2183V534.343H92.0583V530.359L94.5063 527.863L99.8343 534.343H100.938L95.1783 527.311L100.098 522.343H98.9943L92.0583 529.351V516.343ZM103.68 528.487V522.343H102.84V528.703C102.84 532.879 104.904 534.583 107.616 534.583C109.56 534.583 111.144 533.671 111.864 531.559V534.343H112.704V522.343H111.864V528.487C111.864 532.183 110.328 533.839 107.76 533.839C105.24 533.839 103.68 532.183 103.68 528.487ZM124.922 527.335V534.343H125.786V527.335C125.786 524.239 127.178 522.847 129.482 522.847C131.666 522.847 132.986 524.239 132.986 527.335V534.343H133.826V527.143C133.826 523.567 132.002 522.103 129.626 522.103C127.706 522.103 126.122 523.039 125.546 525.151C124.97 523.015 123.386 522.103 121.466 522.103C119.786 522.103 118.394 522.871 117.722 524.599V522.343H116.882V534.343H117.722V527.335C117.722 524.239 119.066 522.847 121.322 522.847C123.578 522.847 124.922 524.239 124.922 527.335ZM141.434 534.583C143.354 534.583 145.37 533.647 146.21 531.607V534.343H147.05V525.799C147.05 523.111 144.794 522.103 142.37 522.103C139.874 522.103 137.546 523.231 137.546 526.231H138.362C138.362 523.951 140.066 522.823 142.37 522.823C144.578 522.823 146.21 523.783 146.21 525.775C146.21 529.591 137.186 526.039 137.186 531.319C137.186 533.527 139.058 534.583 141.434 534.583ZM138.026 531.295C138.026 527.503 144.29 529.423 146.21 527.431V529.399C146.21 532.303 143.906 533.863 141.53 533.863C139.442 533.863 138.026 533.023 138.026 531.295ZM161.481 534.583C164.865 534.583 167.385 532.015 167.385 528.343C167.385 524.671 164.865 522.103 161.481 522.103C158.097 522.103 155.577 524.671 155.577 528.343C155.577 532.015 158.097 534.583 161.481 534.583ZM161.481 533.815C158.601 533.815 156.393 531.631 156.393 528.343C156.393 525.055 158.601 522.871 161.481 522.871C164.361 522.871 166.569 525.055 166.569 528.343C166.569 531.631 164.361 533.815 161.481 533.815ZM175.235 522.103C171.947 522.103 169.499 524.671 169.499 528.343C169.499 532.015 171.947 534.583 175.235 534.583C177.515 534.583 179.387 533.287 180.275 531.247V534.343H181.115V516.343H180.275V525.439C179.387 523.399 177.515 522.103 175.235 522.103ZM175.307 522.871C178.139 522.871 180.275 525.055 180.275 528.343C180.275 531.631 178.139 533.815 175.307 533.815C172.475 533.815 170.315 531.631 170.315 528.343C170.315 525.055 172.475 522.871 175.307 522.871ZM188.848 534.583C190.768 534.583 192.784 533.647 193.624 531.607V534.343H194.464V525.799C194.464 523.111 192.208 522.103 189.784 522.103C187.288 522.103 184.96 523.231 184.96 526.231H185.776C185.776 523.951 187.48 522.823 189.784 522.823C191.992 522.823 193.624 523.783 193.624 525.775C193.624 529.591 184.6 526.039 184.6 531.319C184.6 533.527 186.472 534.583 188.848 534.583ZM185.44 531.295C185.44 527.503 191.704 529.423 193.624 527.431V529.399C193.624 532.303 191.32 533.863 188.944 533.863C186.856 533.863 185.44 533.023 185.44 531.295ZM207.132 531.199C207.132 526.423 198.924 529.111 198.924 525.271C198.924 523.711 200.268 522.823 202.284 522.823C204.396 522.823 205.956 523.975 205.956 525.559H206.82C206.82 523.567 204.9 522.103 202.284 522.103C199.884 522.103 198.084 523.279 198.084 525.271C198.084 529.951 206.292 527.167 206.292 531.223C206.292 532.975 204.924 533.887 202.644 533.887C200.364 533.887 198.636 532.855 198.636 530.791H197.772C197.772 533.239 199.86 534.583 202.644 534.583C205.332 534.583 207.132 533.407 207.132 531.199ZM211.425 534.343V522.343H210.585V534.343H211.425ZM82.1684 564.583C85.5524 564.583 88.0724 562.015 88.0724 558.343C88.0724 554.671 85.5524 552.103 82.1684 552.103C78.7844 552.103 76.2644 554.671 76.2644 558.343C76.2644 562.015 78.7844 564.583 82.1684 564.583ZM82.1684 563.815C79.2884 563.815 77.0804 561.631 77.0804 558.343C77.0804 555.055 79.2884 552.871 82.1684 552.871C85.0484 552.871 87.2564 555.055 87.2564 558.343C87.2564 561.631 85.0484 563.815 82.1684 563.815ZM92.0583 546.343H91.2183V564.343H92.0583V560.359L94.5063 557.863L99.8343 564.343H100.938L95.1783 557.311L100.098 552.343H98.9943L92.0583 559.351V546.343ZM106.512 564.583C108.432 564.583 110.448 563.647 111.288 561.607V564.343H112.128V555.799C112.128 553.111 109.872 552.103 107.448 552.103C104.952 552.103 102.624 553.231 102.624 556.231H103.44C103.44 553.951 105.144 552.823 107.448 552.823C109.656 552.823 111.288 553.783 111.288 555.775C111.288 559.591 102.264 556.039 102.264 561.319C102.264 563.527 104.136 564.583 106.512 564.583ZM103.104 561.295C103.104 557.503 109.368 559.423 111.288 557.431V559.399C111.288 562.303 108.984 563.863 106.608 563.863C104.52 563.863 103.104 563.023 103.104 561.295ZM116.996 564.343V546.343H116.156V564.343H116.996ZM125.491 549.943L127.867 546.343H126.667L124.843 549.943H125.491ZM124.771 565.855C123.787 568.399 123.091 569.623 121.003 569.623C120.451 569.623 119.899 569.551 119.467 569.383V570.127C119.875 570.271 120.475 570.391 121.099 570.391C123.691 570.391 124.531 568.591 125.515 566.047L130.891 552.343H130.027L125.203 564.775L120.163 552.343H119.299L124.771 565.855ZM136.63 564.583C138.55 564.583 140.566 563.647 141.406 561.607V564.343H142.246V555.799C142.246 553.111 139.99 552.103 137.566 552.103C135.07 552.103 132.742 553.231 132.742 556.231H133.558C133.558 553.951 135.262 552.823 137.566 552.823C139.774 552.823 141.406 553.783 141.406 555.775C141.406 559.591 132.382 556.039 132.382 561.319C132.382 563.527 134.254 564.583 136.63 564.583ZM133.222 561.295C133.222 557.503 139.486 559.423 141.406 557.431V559.399C141.406 562.303 139.102 563.863 136.726 563.863C134.638 563.863 133.222 563.023 133.222 561.295ZM147.113 552.343H146.273V564.343H147.113V557.983C147.113 554.431 148.721 552.847 151.265 552.847C153.809 552.847 155.417 554.431 155.417 557.983V564.343H156.257V557.767C156.257 553.735 154.217 552.103 151.409 552.103C149.417 552.103 147.833 552.991 147.113 555.007V552.343ZM170.715 564.583C174.099 564.583 176.619 562.015 176.619 558.343C176.619 554.671 174.099 552.103 170.715 552.103C167.331 552.103 164.811 554.671 164.811 558.343C164.811 562.015 167.331 564.583 170.715 564.583ZM170.715 563.815C167.835 563.815 165.627 561.631 165.627 558.343C165.627 555.055 167.835 552.871 170.715 552.871C173.595 552.871 175.803 555.055 175.803 558.343C175.803 561.631 173.595 563.815 170.715 563.815ZM181.133 560.239V553.087H185.669V552.343H181.133V548.935H180.269V552.343H178.157V553.087H180.269V560.263C180.269 563.623 181.781 564.583 183.893 564.583C184.541 564.583 185.261 564.439 185.669 564.319V563.551C185.285 563.671 184.853 563.815 183.989 563.815C182.093 563.815 181.133 562.687 181.133 560.239ZM192.669 564.583C194.589 564.583 196.605 563.647 197.445 561.607V564.343H198.285V555.799C198.285 553.111 196.029 552.103 193.605 552.103C191.109 552.103 188.781 553.231 188.781 556.231H189.597C189.597 553.951 191.301 552.823 193.605 552.823C195.813 552.823 197.445 553.783 197.445 555.775C197.445 559.591 188.421 556.039 188.421 561.319C188.421 563.527 190.293 564.583 192.669 564.583ZM189.261 561.295C189.261 557.503 195.525 559.423 197.445 557.431V559.399C197.445 562.303 195.141 563.863 192.765 563.863C190.677 563.863 189.261 563.023 189.261 561.295ZM207.016 564.583C209.296 564.583 211.168 563.287 212.056 561.247V564.751C212.056 567.703 210.304 569.767 207.304 569.767C204.76 569.767 203.008 568.183 202.576 565.711H201.712C202.096 568.615 204.328 570.583 207.304 570.583C210.496 570.583 212.896 568.351 212.896 564.751V552.343H212.056V555.439C211.168 553.399 209.296 552.103 207.016 552.103C203.728 552.103 201.28 554.671 201.28 558.343C201.28 562.015 203.728 564.583 207.016 564.583ZM207.088 563.815C204.256 563.815 202.096 561.631 202.096 558.343C202.096 555.055 204.256 552.871 207.088 552.871C209.92 552.871 212.056 555.055 212.056 558.343C212.056 561.631 209.92 563.815 207.088 563.815ZM82.0004 594.583C84.2804 594.583 86.1524 593.287 87.0404 591.247V600.343H87.8804V582.343H87.0404V585.439C86.1524 583.399 84.2804 582.103 82.0004 582.103C78.7124 582.103 76.2644 584.671 76.2644 588.343C76.2644 592.015 78.7124 594.583 82.0004 594.583ZM82.0724 593.815C79.2404 593.815 77.0804 591.631 77.0804 588.343C77.0804 585.055 79.2404 582.871 82.0724 582.871C84.9044 582.871 87.0404 585.055 87.0404 588.343C87.0404 591.631 84.9044 593.815 82.0724 593.815ZM92.47 579.007C93.022 579.007 93.406 578.599 93.406 578.071C93.406 577.567 93.022 577.159 92.47 577.159C91.966 577.159 91.558 577.567 91.558 578.071C91.558 578.599 91.966 579.007 92.47 579.007ZM92.902 594.343V582.343H92.062V594.343H92.902ZM97.9176 582.343H97.0776V594.343H97.9176V588.679C97.9176 584.695 99.5976 582.919 102.406 582.919C102.91 582.919 103.366 582.991 103.774 583.159V582.295C103.39 582.175 102.934 582.103 102.502 582.103C100.39 582.103 98.6856 583.111 97.9176 585.391V582.343ZM110.973 594.583C114.357 594.583 116.877 592.015 116.877 588.343C116.877 584.671 114.357 582.103 110.973 582.103C107.589 582.103 105.069 584.671 105.069 588.343C105.069 592.015 107.589 594.583 110.973 594.583ZM110.973 593.815C108.093 593.815 105.885 591.631 105.885 588.343C105.885 585.055 108.093 582.871 110.973 582.871C113.853 582.871 116.061 585.055 116.061 588.343C116.061 591.631 113.853 593.815 110.973 593.815ZM123.575 594.583C125.495 594.583 127.511 593.647 128.351 591.607V594.343H129.191V585.799C129.191 583.111 126.935 582.103 124.511 582.103C122.015 582.103 119.687 583.231 119.687 586.231H120.503C120.503 583.951 122.207 582.823 124.511 582.823C126.719 582.823 128.351 583.783 128.351 585.775C128.351 589.591 119.327 586.039 119.327 591.319C119.327 593.527 121.199 594.583 123.575 594.583ZM120.167 591.295C120.167 587.503 126.431 589.423 128.351 587.431V589.399C128.351 592.303 126.047 593.863 123.671 593.863C121.583 593.863 120.167 593.023 120.167 591.295ZM134.586 590.239V583.087H139.122V582.343H134.586V578.935H133.722V582.343H131.61V583.087H133.722V590.263C133.722 593.623 135.234 594.583 137.346 594.583C137.994 594.583 138.714 594.439 139.122 594.319V593.551C138.738 593.671 138.306 593.815 137.442 593.815C135.546 593.815 134.586 592.687 134.586 590.239ZM141.922 594.343L146.65 588.727L151.546 594.343H152.554L147.25 588.151L152.29 582.343H151.258L146.722 587.599L142.162 582.343H141.154L146.17 588.175L140.89 594.343H141.922ZM159.676 594.583C163.06 594.583 165.58 592.015 165.58 588.343C165.58 584.671 163.06 582.103 159.676 582.103C156.292 582.103 153.772 584.671 153.772 588.343C153.772 592.015 156.292 594.583 159.676 594.583ZM159.676 593.815C156.796 593.815 154.588 591.631 154.588 588.343C154.588 585.055 156.796 582.871 159.676 582.871C162.556 582.871 164.764 585.055 164.764 588.343C164.764 591.631 162.556 593.815 159.676 593.815ZM169.566 582.343H168.726V594.343H169.566V587.983C169.566 584.431 171.174 582.847 173.718 582.847C176.262 582.847 177.87 584.431 177.87 587.983V594.343H178.71V587.767C178.71 583.735 176.67 582.103 173.862 582.103C171.87 582.103 170.286 582.991 169.566 585.007V582.343ZM186.317 594.583C188.237 594.583 190.253 593.647 191.093 591.607V594.343H191.933V585.799C191.933 583.111 189.677 582.103 187.253 582.103C184.757 582.103 182.429 583.231 182.429 586.231H183.245C183.245 583.951 184.949 582.823 187.253 582.823C189.461 582.823 191.093 583.783 191.093 585.775C191.093 589.591 182.069 586.039 182.069 591.319C182.069 593.527 183.941 594.583 186.317 594.583ZM182.909 591.295C182.909 587.503 189.173 589.423 191.093 587.431V589.399C191.093 592.303 188.789 593.863 186.413 593.863C184.325 593.863 182.909 593.023 182.909 591.295ZM79.4324 606.343H78.7604L81.4964 609.943H82.6484L85.3844 606.343H84.7124L82.0724 609.295L79.4324 606.343ZM86.9444 617.119H87.8084C87.4484 614.119 85.0484 612.103 82.0724 612.103C78.7364 612.103 76.2644 614.671 76.2644 618.343C76.2644 622.015 78.7364 624.583 82.0724 624.583C85.1204 624.583 87.5924 622.447 87.8564 619.303H86.9684C86.7284 622.087 84.6164 623.815 82.0724 623.815C79.2404 623.815 77.0804 621.631 77.0804 618.343C77.0804 615.055 79.2404 612.871 82.0724 612.871C84.5444 612.871 86.5844 614.503 86.9444 617.119ZM91.7988 609.943L94.1748 606.343H92.9748L91.1508 609.943H91.7988ZM91.8708 624.343V612.343H91.0308V624.343H91.8708ZM97.4144 620.239V613.087H101.95V612.343H97.4144V608.935H96.5504V612.343H94.4384V613.087H96.5504V620.263C96.5504 623.623 98.0624 624.583 100.174 624.583C100.822 624.583 101.542 624.439 101.95 624.319V623.551C101.566 623.671 101.134 623.815 100.27 623.815C98.3744 623.815 97.4144 622.687 97.4144 620.239ZM110.246 609.943L112.622 606.343H111.422L109.598 609.943H110.246ZM108.95 624.583C110.87 624.583 112.886 623.647 113.726 621.607V624.343H114.566V615.799C114.566 613.111 112.31 612.103 109.886 612.103C107.39 612.103 105.062 613.231 105.062 616.231H105.878C105.878 613.951 107.582 612.823 109.886 612.823C112.094 612.823 113.726 613.783 113.726 615.775C113.726 619.591 104.702 616.039 104.702 621.319C104.702 623.527 106.574 624.583 108.95 624.583ZM105.542 621.295C105.542 617.503 111.806 619.423 113.726 617.431V619.399C113.726 622.303 111.422 623.863 109.046 623.863C106.958 623.863 105.542 623.023 105.542 621.295ZM119.433 612.343H118.593V624.343H119.433V618.679C119.433 614.695 121.113 612.919 123.921 612.919C124.425 612.919 124.881 612.991 125.289 613.159V612.295C124.905 612.175 124.449 612.103 124.017 612.103C121.905 612.103 120.201 613.111 119.433 615.391V612.343ZM129.113 612.343H128.273V624.343H129.113V617.983C129.113 614.431 130.721 612.847 133.265 612.847C135.809 612.847 137.417 614.431 137.417 617.983V624.343H138.257V617.767C138.257 613.735 136.217 612.103 133.409 612.103C131.417 612.103 129.833 612.991 129.113 615.007V612.343ZM145.864 624.583C147.784 624.583 149.8 623.647 150.64 621.607V624.343H151.48V615.799C151.48 613.111 149.224 612.103 146.8 612.103C144.304 612.103 141.976 613.231 141.976 616.231H142.792C142.792 613.951 144.496 612.823 146.8 612.823C149.008 612.823 150.64 613.783 150.64 615.775C150.64 619.591 141.616 616.039 141.616 621.319C141.616 623.527 143.488 624.583 145.864 624.583ZM142.456 621.295C142.456 617.503 148.72 619.423 150.64 617.431V619.399C150.64 622.303 148.336 623.863 145.96 623.863C143.872 623.863 142.456 623.023 142.456 621.295ZM78.1364 654.343V636.343H77.2964V654.343H78.1364ZM84.4 639.031C84.928 639.031 85.288 638.647 85.288 638.143C85.288 637.639 84.928 637.255 84.4 637.255C83.896 637.255 83.512 637.639 83.512 638.143C83.512 638.647 83.896 639.031 84.4 639.031ZM89.2 639.031C89.728 639.031 90.088 638.647 90.088 638.143C90.088 637.639 89.728 637.255 89.2 637.255C88.696 637.255 88.312 637.639 88.312 638.143C88.312 638.647 88.696 639.031 89.2 639.031ZM85.864 654.583C87.784 654.583 89.8 653.647 90.64 651.607V654.343H91.48V645.799C91.48 643.111 89.224 642.103 86.8 642.103C84.304 642.103 81.976 643.231 81.976 646.231H82.792C82.792 643.951 84.496 642.823 86.8 642.823C89.008 642.823 90.64 643.783 90.64 645.775C90.64 649.591 81.616 646.039 81.616 651.319C81.616 653.527 83.488 654.583 85.864 654.583ZM82.456 651.295C82.456 647.503 88.72 649.423 90.64 647.431V649.399C90.64 652.303 88.336 653.863 85.96 653.863C83.872 653.863 82.456 653.023 82.456 651.295ZM104.147 651.199C104.147 646.423 95.9393 649.111 95.9393 645.271C95.9393 643.711 97.2833 642.823 99.2993 642.823C101.411 642.823 102.971 643.975 102.971 645.559H103.835C103.835 643.567 101.915 642.103 99.2993 642.103C96.8993 642.103 95.0993 643.279 95.0993 645.271C95.0993 649.951 103.307 647.167 103.307 651.223C103.307 652.975 101.939 653.887 99.6593 653.887C97.3793 653.887 95.6513 652.855 95.6513 650.791H94.7873C94.7873 653.239 96.8753 654.583 99.6593 654.583C102.347 654.583 104.147 653.407 104.147 651.199ZM108.441 642.343H107.601V654.343H108.441V648.679C108.441 644.695 110.121 642.919 112.929 642.919C113.433 642.919 113.889 642.991 114.297 643.159V642.295C113.913 642.175 113.457 642.103 113.025 642.103C110.913 642.103 109.209 643.111 108.441 645.391V642.343ZM118.001 648.487V642.343H117.161V648.703C117.161 652.879 119.225 654.583 121.937 654.583C123.881 654.583 125.465 653.671 126.185 651.559V654.343H127.025V642.343H126.185V648.487C126.185 652.183 124.649 653.839 122.081 653.839C119.561 653.839 118.001 652.183 118.001 648.487ZM139.243 647.335V654.343H140.107V647.335C140.107 644.239 141.499 642.847 143.803 642.847C145.987 642.847 147.307 644.239 147.307 647.335V654.343H148.147V647.143C148.147 643.567 146.323 642.103 143.947 642.103C142.027 642.103 140.443 643.039 139.867 645.151C139.291 643.015 137.707 642.103 135.787 642.103C134.107 642.103 132.715 642.871 132.043 644.599V642.343H131.203V654.343H132.043V647.335C132.043 644.239 133.387 642.847 135.643 642.847C137.899 642.847 139.243 644.239 139.243 647.335ZM78.1364 684.343V666.343H77.2964V684.343H78.1364ZM92.752 678.679V678.343C92.752 674.671 90.328 672.103 87.016 672.103C83.704 672.103 81.28 674.671 81.28 678.343C81.28 682.015 83.704 684.583 87.016 684.583C89.584 684.583 91.648 683.095 92.44 680.743H91.528C90.832 682.639 89.128 683.839 87.04 683.839C84.256 683.839 82.24 681.799 82.096 678.679H92.752ZM87.016 672.847C89.776 672.847 91.792 674.887 91.936 678.007H82.096C82.24 674.887 84.256 672.847 87.016 672.847ZM100.61 684.583C102.89 684.583 104.762 683.287 105.65 681.247V684.751C105.65 687.703 103.898 689.767 100.898 689.767C98.3538 689.767 96.6018 688.183 96.1698 685.711H95.3058C95.6898 688.615 97.9218 690.583 100.898 690.583C104.09 690.583 106.49 688.351 106.49 684.751V672.343H105.65V675.439C104.762 673.399 102.89 672.103 100.61 672.103C97.3218 672.103 94.8738 674.671 94.8738 678.343C94.8738 682.015 97.3218 684.583 100.61 684.583ZM100.682 683.815C97.8498 683.815 95.6898 681.631 95.6898 678.343C95.6898 675.055 97.8498 672.871 100.682 672.871C103.514 672.871 105.65 675.055 105.65 678.343C105.65 681.631 103.514 683.815 100.682 683.815ZM121.111 678.679V678.343C121.111 674.671 118.687 672.103 115.375 672.103C112.063 672.103 109.639 674.671 109.639 678.343C109.639 682.015 112.063 684.583 115.375 684.583C117.943 684.583 120.007 683.095 120.799 680.743H119.887C119.191 682.639 117.487 683.839 115.399 683.839C112.615 683.839 110.599 681.799 110.455 678.679H121.111ZM115.375 672.847C118.135 672.847 120.151 674.887 120.295 678.007H110.455C110.599 674.887 112.615 672.847 115.375 672.847ZM124.673 669.007C125.225 669.007 125.609 668.599 125.609 668.071C125.609 667.567 125.225 667.159 124.673 667.159C124.169 667.159 123.761 667.567 123.761 668.071C123.761 668.599 124.169 669.007 124.673 669.007ZM124.265 687.583C124.265 689.167 123.545 689.575 122.561 689.575C122.249 689.575 121.937 689.527 121.625 689.479V690.223C121.865 690.295 122.225 690.343 122.633 690.343C124.049 690.343 125.105 689.647 125.105 687.607V672.343H124.265V687.583ZM134.153 684.583C137.537 684.583 140.057 682.015 140.057 678.343C140.057 674.671 137.537 672.103 134.153 672.103C130.769 672.103 128.249 674.671 128.249 678.343C128.249 682.015 130.769 684.583 134.153 684.583ZM134.153 683.815C131.273 683.815 129.065 681.631 129.065 678.343C129.065 675.055 131.273 672.871 134.153 672.871C137.033 672.871 139.241 675.055 139.241 678.343C139.241 681.631 137.033 683.815 134.153 683.815Z" fill="#48494B"/>
<path d="M13.5281 715.757C14.3091 716.538 15.5754 716.538 16.3565 715.757L29.0844 703.029C29.8655 702.248 29.8655 700.982 29.0844 700.201C28.3034 699.42 27.037 699.42 26.256 700.201L14.9423 711.514L3.62857 700.201C2.84752 699.42 1.58119 699.42 0.80014 700.201C0.0190907 700.982 0.0190906 702.248 0.800139 703.029L13.5281 715.757ZM12.9423 12.1543L12.9423 714.343L16.9423 714.343L16.9423 12.1543L12.9423 12.1543Z" fill="#48494B"/>
<path d="M80.8244 715.063C82.5524 715.063 83.7044 713.839 83.7044 712.327C83.7044 710.743 82.5524 709.519 80.8244 709.519C79.3124 709.519 78.0884 710.743 78.0884 712.327C78.0884 713.839 79.3124 715.063 80.8244 715.063ZM92.215 715.063C93.943 715.063 95.095 713.839 95.095 712.327C95.095 710.743 93.943 709.519 92.215 709.519C90.703 709.519 89.479 710.743 89.479 712.327C89.479 713.839 90.703 715.063 92.215 715.063ZM103.606 715.063C105.334 715.063 106.486 713.839 106.486 712.327C106.486 710.743 105.334 709.519 103.606 709.519C102.094 709.519 100.87 710.743 100.87 712.327C100.87 713.839 102.094 715.063 103.606 715.063Z" fill="#48494B"/>
</svg>
