<svg width="1022" height="677" viewBox="0 0 1022 677" fill="none" xmlns="http://www.w3.org/2000/svg">
<path d="M548.135 133.649C556.418 133.649 563.781 130.428 567.577 122.835V132.499H578.851V92.2337C578.851 78.8887 567.347 73.8268 554.923 73.8268C542.268 73.8268 530.303 79.464 530.303 94.3045H542.268C542.268 86.8267 547.445 83.0303 554.923 83.0303C561.94 83.0303 567.347 86.1365 567.347 91.7736C567.347 104.888 528.578 92.4638 528.578 117.313C528.578 128.702 537.896 133.649 548.135 133.649ZM540.312 116.623C540.312 106.959 557.799 109.375 567.577 104.658V108.8C567.577 118.809 559.294 123.986 550.436 123.986C544.569 123.986 540.312 121.57 540.312 116.623Z" fill="#48494B"/>
<path d="M662.174 97.8708H674.139C672.758 83.4905 660.909 73.8268 645.723 73.8268C629.272 73.8268 617.077 86.1365 617.077 103.738C617.077 121.34 629.272 133.649 645.723 133.649C661.369 133.649 673.448 123.525 674.369 108.34H662.404C661.254 117.888 654.121 123.065 645.723 123.065C635.944 123.065 628.582 115.357 628.582 103.738C628.582 92.1187 635.944 84.4108 645.723 84.4108C654.006 84.4108 661.024 89.1276 662.174 97.8708Z" fill="#48494B"/>
<path d="M765.797 107.65C765.912 106.384 766.027 105.119 766.027 103.738C766.027 86.1365 754.063 73.8268 737.727 73.8268C721.391 73.8268 709.426 86.1365 709.426 103.738C709.426 121.34 721.391 133.649 737.727 133.649C750.957 133.649 760.966 127.092 764.532 115.242H752.107C749.806 120.419 745.205 123.525 738.187 123.525C728.523 123.525 722.081 117.658 720.7 107.65H765.797ZM737.727 83.9506C746.93 83.9506 753.258 89.7028 754.638 99.3664H720.815C722.196 89.7028 728.408 83.9506 737.727 83.9506Z" fill="#48494B"/>
<path d="M828.712 133.649C836.419 133.649 843.092 129.968 847.579 123.871V132.959C847.579 144.003 841.366 151.826 830.782 151.826C821.809 151.826 815.597 146.189 814.101 137.561H802.482C804.552 152.401 815.712 162.41 830.782 162.41C846.543 162.41 859.083 150.446 859.083 132.959V74.9773H847.579V83.6055C843.092 77.5082 836.419 73.8268 828.712 73.8268C812.951 73.8268 801.101 86.1365 801.101 103.738C801.101 121.34 812.951 133.649 828.712 133.649ZM830.092 123.065C820.083 123.065 812.606 115.357 812.606 103.738C812.606 92.1187 820.083 84.4108 830.092 84.4108C840.101 84.4108 847.579 92.1187 847.579 103.738C847.579 115.357 840.101 123.065 830.092 123.065Z" fill="#48494B"/>
<path d="M947.057 116.278C947.057 92.809 911.969 103.048 911.969 90.278C911.969 85.6763 916.11 83.0303 922.322 83.0303C928.995 83.0303 933.942 87.0568 933.942 92.5789H945.906C945.906 81.9949 935.782 73.8268 922.322 73.8268C909.898 73.8268 900.349 80.2693 900.349 90.7382C900.349 113.862 935.207 102.818 935.207 116.738C935.207 121.915 931.066 124.561 924.048 124.561C916.685 124.561 911.163 120.995 911.163 113.977H899.199C899.199 126.517 909.898 133.649 924.048 133.649C937.393 133.649 947.057 127.092 947.057 116.278Z" fill="#48494B"/>
<rect x="520.565" y="94.0527" width="44.2379" height="4.82677" fill="#FF6262"/>
<rect x="540.716" y="132.338" width="44.2379" height="4.82677" fill="#FF6262"/>
<rect x="644.256" y="103.526" width="44.2379" height="4.82677" fill="#FF6262"/>
<rect x="737.817" y="110.172" width="44.2379" height="4.82677" fill="#FF6262"/>
<rect x="787.437" y="133.337" width="44.2379" height="4.82677" fill="#FF6262"/>
<rect x="828.423" y="70.155" width="44.2379" height="4.82677" fill="#FF6262"/>
<rect x="880.698" y="109.594" width="44.2379" height="4.82677" fill="#FF6262"/>
<rect x="924.937" y="92.6294" width="44.2379" height="4.82677" fill="#FF6262"/>
<path d="M505.15 1.74585V224.653M505.15 1.74585H942.544H975.614M505.15 1.74585H57.3257M505.15 224.653H454.71H57.3257M505.15 224.653H557.492H942.544H975.614M975.614 1.74585H981.621M975.614 1.74585V224.653M975.614 224.653H981.621M57.3257 1.74585H50.1891M57.3257 1.74585V224.653M57.3257 224.653H50.1891M43.0526 1.74585H34.7345V224.653H43.0526M43.0526 1.74585V224.653M43.0526 1.74585H50.1891M43.0526 224.653H50.1891M50.1891 1.74585V224.653M981.621 1.74585H987.628V224.653H981.621M981.621 1.74585V224.653" stroke="#48494B" stroke-width="2"/>
<path d="M504.727 266.239V675.436M504.727 266.239H972.718H988.691H1005.37M504.727 266.239H37.006H19.2062M504.727 675.436H454.515H37.006H19.2062M504.727 675.436H564.487H972.718H988.691H1005.37M19.2062 266.239H10.3063M19.2062 266.239V675.436M19.2062 675.436H10.3063M10.3063 266.239H1.40637V675.436H10.3063M10.3063 266.239V675.436M1013.28 266.239H1020.96V675.436H1013.28M1013.28 266.239V675.436M1013.28 266.239H1005.37M1013.28 675.436H1005.37M1005.37 266.239V675.436" stroke="#48494B" stroke-width="2"/>
<path d="M591.955 408.976C608.812 408.976 621.397 396.622 621.397 378.956C621.397 361.291 608.812 348.937 591.955 348.937C575.098 348.937 562.513 361.291 562.513 378.956C562.513 396.622 575.098 408.976 591.955 408.976ZM591.955 396.275C583.065 396.275 576.368 389.348 576.368 378.956C576.368 368.565 583.065 361.637 591.955 361.637C600.845 361.637 607.542 368.565 607.542 378.956C607.542 389.348 600.845 396.275 591.955 396.275Z" fill="#48494B"/>
<path d="M683.809 348.937C667.991 348.937 656.098 361.291 656.098 378.956C656.098 396.622 667.991 408.976 683.809 408.976C690.736 408.976 696.856 405.858 701.128 400.547V407.821H714.983V321.226H701.128V357.365C696.856 352.054 690.736 348.937 683.809 348.937ZM685.541 361.637C694.431 361.637 701.128 368.565 701.128 378.956C701.128 389.348 694.431 396.275 685.541 396.275C676.65 396.275 669.954 389.348 669.954 378.956C669.954 368.565 676.65 361.637 685.541 361.637Z" fill="#48494B"/>
<path d="M813.313 348.937C806.386 348.937 800.382 352.054 795.994 357.365V321.226H782.139V407.821H795.994V400.547C800.382 405.858 806.386 408.976 813.313 408.976C829.131 408.976 841.023 396.622 841.023 378.956C841.023 361.291 829.131 348.937 813.313 348.937ZM811.581 361.637C820.472 361.637 827.168 368.565 827.168 378.956C827.168 389.348 820.472 396.275 811.581 396.275C802.691 396.275 795.994 389.348 795.994 378.956C795.994 368.565 802.691 361.637 811.581 361.637Z" fill="#48494B"/>
<path d="M916.866 436.686V400.547C921.254 405.858 927.258 408.976 934.185 408.976C950.003 408.976 961.896 396.622 961.896 378.956C961.896 361.291 950.003 348.937 934.185 348.937C927.258 348.937 921.254 352.054 916.866 357.365V350.091H903.011V436.686H916.866ZM932.453 396.275C923.563 396.275 916.866 389.348 916.866 378.956C916.866 368.565 923.563 361.637 932.453 361.637C941.344 361.637 948.04 368.565 948.04 378.956C948.04 389.348 941.344 396.275 932.453 396.275Z" fill="#48494B"/>
<path d="M592.122 405.805C606.471 405.805 617.282 394.993 617.282 379.534C617.282 364.074 606.471 353.262 592.122 353.262C577.774 353.262 566.962 364.074 566.962 379.534C566.962 394.993 577.774 405.805 592.122 405.805ZM592.122 400.248C581.209 400.248 573.025 391.962 573.025 379.534C573.025 367.105 581.209 358.819 592.122 358.819C603.035 358.819 611.22 367.105 611.22 379.534C611.22 391.962 603.035 400.248 592.122 400.248Z" fill="#FF6262"/>
<path d="M684.739 405.805C699.088 405.805 709.899 394.993 709.899 379.534C709.899 364.074 699.088 353.262 684.739 353.262C670.391 353.262 659.579 364.074 659.579 379.534C659.579 394.993 670.391 405.805 684.739 405.805ZM684.739 400.248C673.826 400.248 665.642 391.962 665.642 379.534C665.642 367.105 673.826 358.819 684.739 358.819C695.652 358.819 703.837 367.105 703.837 379.534C703.837 391.962 695.652 400.248 684.739 400.248Z" fill="#FF6262"/>
<path d="M812.09 405.47C826.438 405.47 837.25 394.658 837.25 379.198C837.25 363.738 826.438 352.926 812.09 352.926C797.741 352.926 786.929 363.738 786.929 379.198C786.929 394.658 797.741 405.47 812.09 405.47ZM812.09 399.912C801.177 399.912 792.992 391.626 792.992 379.198C792.992 366.769 801.177 358.484 812.09 358.484C823.002 358.484 831.187 366.769 831.187 379.198C831.187 391.626 823.002 399.912 812.09 399.912Z" fill="#FF6262"/>
<path d="M932.551 405.805C946.899 405.805 957.711 394.993 957.711 379.534C957.711 364.074 946.899 353.262 932.551 353.262C918.203 353.262 907.391 364.074 907.391 379.534C907.391 394.993 918.203 405.805 932.551 405.805ZM932.551 400.248C921.638 400.248 913.454 391.962 913.454 379.534C913.454 367.105 921.638 358.819 932.551 358.819C943.464 358.819 951.648 367.105 951.648 379.534C951.648 391.962 943.464 400.248 932.551 400.248Z" fill="#FF6262"/>
<path d="M590.223 529.184C597.151 529.184 603.27 526.067 607.542 520.756V556.895H621.397V470.3H607.542V477.574C603.27 472.263 597.151 469.145 590.223 469.145C574.405 469.145 562.513 481.499 562.513 499.165C562.513 516.83 574.405 529.184 590.223 529.184ZM591.955 516.484C583.065 516.484 576.368 509.556 576.368 499.165C576.368 488.773 583.065 481.846 591.955 481.846C600.845 481.846 607.542 488.773 607.542 499.165C607.542 509.556 600.845 516.484 591.955 516.484Z" fill="#48494B"/>
<path d="M700.81 493.276H715.358C713.972 478.844 702.08 469.145 686.493 469.145C669.866 469.145 657.512 481.499 657.512 499.165C657.512 516.83 669.866 529.184 686.493 529.184C702.542 529.184 714.78 519.024 715.473 503.783H701.156C700.002 512.212 693.767 516.484 686.493 516.484C677.833 516.484 671.367 509.556 671.367 499.165C671.367 488.773 677.833 481.846 686.493 481.846C693.767 481.846 699.886 485.656 700.81 493.276Z" fill="#48494B"/>
<path d="M791.134 529.184C798.061 529.184 804.18 526.067 808.452 520.756V528.03C808.452 538.19 802.91 545.349 793.443 545.349C785.476 545.349 779.818 540.269 778.548 532.648H764.578C766.656 547.773 778.087 558.049 793.443 558.049C809.376 558.049 822.308 545.695 822.308 528.03V470.3H808.452V477.574C804.18 472.263 798.061 469.145 791.134 469.145C775.316 469.145 763.423 481.499 763.423 499.165C763.423 516.83 775.316 529.184 791.134 529.184ZM792.865 516.484C783.975 516.484 777.278 509.556 777.278 499.165C777.278 488.773 783.975 481.846 792.865 481.846C801.756 481.846 808.452 488.773 808.452 499.165C808.452 509.556 801.756 516.484 792.865 516.484Z" fill="#48494B"/>
<path d="M591.927 525.396C606.275 525.396 617.087 514.584 617.087 499.124C617.087 483.665 606.275 472.853 591.927 472.853C577.578 472.853 566.767 483.665 566.767 499.124C566.767 514.584 577.578 525.396 591.927 525.396ZM591.927 519.838C581.014 519.838 572.829 511.553 572.829 499.124C572.829 486.696 581.014 478.41 591.927 478.41C602.84 478.41 611.024 486.696 611.024 499.124C611.024 511.553 602.84 519.838 591.927 519.838Z" fill="#FF6262"/>
<path d="M687.205 525.396C701.553 525.396 712.365 514.584 712.365 499.124C712.365 483.665 701.553 472.853 687.205 472.853C672.857 472.853 662.045 483.665 662.045 499.124C662.045 514.584 672.857 525.396 687.205 525.396ZM687.205 519.838C676.292 519.838 668.108 511.553 668.108 499.124C668.108 486.696 676.292 478.41 687.205 478.41C698.118 478.41 706.302 486.696 706.302 499.124C706.302 511.553 698.118 519.838 687.205 519.838Z" fill="#FF6262"/>
<path d="M792.514 525.396C806.862 525.396 817.674 514.584 817.674 499.124C817.674 483.665 806.862 472.853 792.514 472.853C778.165 472.853 767.354 483.665 767.354 499.124C767.354 514.584 778.165 525.396 792.514 525.396ZM792.514 519.838C781.601 519.838 773.416 511.553 773.416 499.124C773.416 486.696 781.601 478.41 792.514 478.41C803.426 478.41 811.611 486.696 811.611 499.124C811.611 511.553 803.426 519.838 792.514 519.838Z" fill="#FF6262"/>
<path d="M270.782 623.785L270.894 624.252C271.294 625.933 270.71 626.899 269.461 627.196C268.189 627.499 267.255 626.895 266.855 625.214L266.065 621.899C265.664 620.218 266.249 619.252 267.498 618.955C268.77 618.652 269.703 619.256 270.104 620.937L270.19 621.299L270.599 621.201L270.512 620.839C270.059 618.937 268.926 618.22 267.409 618.581C265.891 618.943 265.203 620.094 265.656 621.996L266.446 625.312C266.9 627.214 268.033 627.931 269.55 627.57C271.068 627.208 271.756 626.057 271.302 624.155L271.191 623.688L270.782 623.785ZM276.207 625.984C277.725 625.622 278.413 624.471 277.96 622.568L277.17 619.253C276.716 617.351 275.583 616.634 274.066 616.995C272.548 617.357 271.86 618.508 272.314 620.41L273.104 623.725C273.557 625.628 274.69 626.345 276.207 625.984ZM276.118 625.61C274.846 625.913 273.913 625.309 273.512 623.628L272.722 620.313C272.322 618.632 272.906 617.666 274.155 617.369C275.427 617.066 276.361 617.67 276.761 619.351L277.551 622.666C277.952 624.347 277.368 625.312 276.118 625.61ZM280.526 624.831L282.86 624.275C284.18 623.961 284.973 623.044 284.644 621.667L284.466 620.92C284.13 619.507 282.995 618.988 281.676 619.302L279.75 619.761L278.937 616.353L282.486 615.507L282.397 615.134L278.44 616.076L280.526 624.831ZM281.636 619.706C282.885 619.409 283.757 619.806 284.074 621.136L284.196 621.65C284.502 622.934 283.892 623.635 282.655 623.929L280.845 624.36L279.839 620.135L281.636 619.706ZM290.287 619.138L290.399 619.605C290.799 621.286 290.215 622.251 288.966 622.549C287.694 622.852 286.76 622.248 286.36 620.567L285.57 617.252C285.169 615.571 285.753 614.605 287.002 614.308C288.275 614.005 289.208 614.609 289.609 616.29L289.695 616.652L290.103 616.554L290.017 616.192C289.564 614.29 288.431 613.573 286.913 613.934C285.396 614.296 284.708 615.447 285.161 617.349L285.951 620.664C286.404 622.567 287.537 623.284 289.055 622.923C290.572 622.561 291.26 621.41 290.807 619.508L290.696 619.041L290.287 619.138ZM295.032 621.375L293.035 612.994L295.253 612.465L295.164 612.092L290.331 613.243L290.42 613.617L292.638 613.088L294.635 621.47L295.032 621.375ZM298.378 620.578L300.701 620.025C302.136 619.682 302.928 618.655 302.583 617.208L302.527 616.974C302.241 615.772 301.379 615.262 300.299 615.285C301.131 614.84 301.587 614.065 301.329 612.979L301.301 612.862C300.973 611.485 299.817 610.983 298.381 611.325L296.292 611.823L298.378 620.578ZM298.354 611.727C299.708 611.404 300.617 611.804 300.895 612.971L300.923 613.088C301.229 614.372 300.508 615.074 299.317 615.358L297.66 615.753L296.789 612.099L298.354 611.727ZM299.546 615.698C300.796 615.401 301.799 615.729 302.13 617.118L302.158 617.235C302.466 618.531 301.849 619.356 300.495 619.679L298.697 620.107L297.749 616.127L299.546 615.698ZM308.325 617.813L305.115 618.578L304.167 614.597L307.144 613.888L307.055 613.515L304.078 614.224L303.207 610.57L306.417 609.805L306.328 609.432L302.71 610.294L304.796 619.049L308.414 618.187L308.325 617.813ZM310.505 617.689L309.468 613.334L313.507 612.372L314.544 616.726L314.953 616.629L312.867 607.874L312.458 607.971L313.418 611.999L309.379 612.961L308.419 608.934L308.011 609.031L310.096 617.786L310.505 617.689ZM317.39 616.048L316.353 611.694L320.392 610.732L321.429 615.086L321.838 614.988L319.752 606.234L319.343 606.331L320.303 610.358L316.264 611.32L315.305 607.293L314.896 607.391L316.982 616.145L317.39 616.048ZM326.206 614.071C327.724 613.709 328.412 612.559 327.959 610.656L327.169 607.341C326.715 605.438 325.582 604.721 324.065 605.083C322.547 605.444 321.859 606.595 322.313 608.498L323.103 611.813C323.556 613.716 324.689 614.433 326.206 614.071ZM326.117 613.698C324.845 614.001 323.912 613.397 323.511 611.716L322.721 608.4C322.321 606.719 322.905 605.754 324.154 605.456C325.426 605.153 326.36 605.757 326.76 607.438L327.55 610.753C327.951 612.434 327.366 613.4 326.117 613.698ZM334.096 608.7L334.207 609.167C334.608 610.848 334.024 611.814 332.775 612.111C331.502 612.414 330.569 611.81 330.168 610.129L329.379 606.814C328.978 605.133 329.562 604.168 330.811 603.87C332.084 603.567 333.017 604.171 333.418 605.852L333.504 606.214L333.912 606.116L333.826 605.755C333.373 603.852 332.24 603.135 330.722 603.496C329.205 603.858 328.517 605.009 328.97 606.912L329.76 610.227C330.213 612.13 331.346 612.846 332.864 612.485C334.381 612.123 335.069 610.973 334.616 609.07L334.505 608.603L334.096 608.7ZM338.841 610.937L336.844 602.556L339.062 602.028L338.973 601.654L334.14 602.805L334.229 603.179L336.447 602.651L338.444 611.032L338.841 610.937ZM340.509 601.288L340.101 601.385L342.187 610.14L344.51 609.587C345.875 609.261 346.62 608.245 346.286 606.844L346.108 606.097C345.761 604.638 344.629 604.032 343.264 604.357L341.349 604.813L340.509 601.288ZM343.224 604.761C344.497 604.458 345.394 604.911 345.728 606.311L345.85 606.825C346.175 608.191 345.564 608.941 344.292 609.244L342.506 609.669L341.438 605.187L343.224 604.761ZM350.941 608.054L353.276 607.498C354.595 607.184 355.388 606.267 355.06 604.89L354.882 604.143C354.546 602.73 353.41 602.211 352.091 602.525L350.165 602.984L349.353 599.576L352.902 598.73L352.813 598.357L348.856 599.299L350.941 608.054ZM352.052 602.93C353.301 602.632 354.173 603.029 354.49 604.359L354.612 604.873C354.918 606.157 354.308 606.858 353.07 607.152L351.261 607.584L350.254 603.358L352.052 602.93ZM359.493 596.765L357.397 605.986L355.431 597.733L355.046 597.825L357.131 606.58L357.645 606.457L359.735 597.263L361.696 605.492L362.093 605.398L360.007 596.643L359.493 596.765ZM364.108 604.917L366.443 604.361C367.762 604.047 368.555 603.13 368.227 601.753L368.049 601.006C367.712 599.593 366.577 599.074 365.258 599.388L363.332 599.847L362.52 596.439L366.068 595.593L365.979 595.22L362.022 596.162L364.108 604.917ZM365.219 599.792C366.468 599.495 367.339 599.892 367.656 601.222L367.779 601.736C368.085 603.02 367.474 603.721 366.237 604.015L364.428 604.447L363.421 600.221L365.219 599.792ZM375.037 602.313L372.952 593.558L368.796 594.549C369.803 598.774 370.223 601.006 370.182 602.076C370.151 602.824 369.9 603.118 369.456 603.224L369.293 603.263L369.388 603.66L369.574 603.615C370.251 603.454 370.576 603.056 370.573 602.057C370.581 600.797 370.168 598.65 369.258 594.833L372.632 594.029L374.629 602.411L375.037 602.313ZM379.431 592.015L377.335 601.236L375.369 592.983L374.984 593.074L377.07 601.829L377.583 601.707L379.673 592.512L381.634 600.742L382.031 600.647L379.945 591.892L379.431 592.015ZM386.385 599.733C387.903 599.372 388.591 598.221 388.137 596.318L387.348 593.003C386.894 591.1 385.761 590.383 384.244 590.745C382.726 591.106 382.038 592.257 382.491 594.16L383.281 597.475C383.735 599.378 384.868 600.095 386.385 599.733ZM386.296 599.36C385.024 599.663 384.09 599.059 383.69 597.378L382.9 594.062C382.5 592.382 383.084 591.416 384.333 591.118C385.605 590.815 386.538 591.419 386.939 593.1L387.729 596.415C388.129 598.096 387.545 599.062 386.296 599.36ZM392.362 598.186L390.366 589.804L392.583 589.276L392.494 588.902L387.662 590.054L387.751 590.427L389.969 589.899L391.966 598.28L392.362 598.186ZM399.238 596.153L396.028 596.918L395.079 592.937L398.056 592.228L397.967 591.854L394.99 592.564L394.12 588.91L397.33 588.145L397.241 587.771L393.622 588.634L395.708 597.389L399.327 596.526L399.238 596.153ZM399.331 587.273L398.923 587.371L401.009 596.126L401.417 596.028L400.644 592.783L401.36 591.181L405.375 595.085L405.865 594.969L401.574 590.785L403.557 586.267L403.09 586.378L400.502 592.188L399.331 587.273ZM409.424 584.869L407.328 594.09L405.361 585.837L404.976 585.928L407.062 594.683L407.576 594.561L409.665 585.366L411.626 593.596L412.023 593.501L409.937 584.746L409.424 584.869ZM416.175 583.26L415.809 592.599L416.23 592.499L416.325 589.639L419.547 588.871L420.922 591.381L421.343 591.281L416.805 583.11L416.175 583.26ZM416.344 589.252L416.551 583.442L419.356 588.535L416.344 589.252ZM422.126 581.842L421.76 591.181L422.18 591.081L422.276 588.221L425.498 587.454L426.873 589.963L427.293 589.863L422.756 581.692L422.126 581.842ZM422.295 587.834L422.502 582.024L425.307 587.117L422.295 587.834ZM433.472 588.391L431.386 579.636L427.231 580.626C428.237 584.852 428.658 587.083 428.617 588.154C428.585 588.902 428.335 589.196 427.891 589.301L427.728 589.34L427.822 589.737L428.009 589.693C428.686 589.531 429.011 589.133 429.007 588.135C429.015 586.875 428.603 584.728 427.693 580.911L431.067 580.107L433.064 588.488L433.472 588.391ZM437.22 587.498L435.223 579.117L437.441 578.588L437.352 578.215L432.519 579.366L432.608 579.74L434.826 579.211L436.823 587.593L437.22 587.498ZM442.848 586.281C444.365 585.919 445.053 584.768 444.6 582.865L443.81 579.55C443.357 577.648 442.224 576.931 440.706 577.292C439.189 577.654 438.501 578.805 438.954 580.707L439.744 584.022C440.197 585.925 441.33 586.642 442.848 586.281ZM442.759 585.907C441.486 586.21 440.553 585.606 440.152 583.925L439.363 580.61C438.962 578.929 439.546 577.963 440.795 577.666C442.068 577.363 443.001 577.967 443.401 579.648L444.191 582.963C444.592 584.644 444.008 585.609 442.759 585.907Z" fill="#48494B"/>
<rect x="231.054" y="607.636" width="246.553" height="44.4016" transform="rotate(-13.4012 231.054 607.636)" stroke="#48494B"/>
</svg>
