<svg width="1267" height="689" viewBox="0 0 1267 689" fill="none" xmlns="http://www.w3.org/2000/svg">
<path d="M328.463 1.54785H328.46M337.093 1.54785H886.491V680.735H337.093M337.093 1.54785H328.46M337.093 1.54785V680.735M337.093 680.735H328.46V1.54785M360.716 156.749H858.839V630.84H360.716V156.749Z" stroke="#48494B" stroke-width="2"/>
<path d="M523.549 602.192C578.494 602.192 623.254 582.12 646.681 534.601V593.384V594.384H647.681H808.507H809.507V593.384V335.751C809.507 284.653 786.879 249.209 751.666 226.586C716.508 203.999 668.867 194.223 618.795 194.223C568.715 194.223 518.35 204.588 480.469 228.337C442.54 252.117 417.153 289.309 417.153 342.777V343.777H418.153H570.391H571.391V342.777C571.391 331.123 573.149 321.652 578.302 315.094C583.41 308.593 592.035 304.742 606.304 304.742C615.881 304.742 623.406 307.421 628.537 312.458C633.664 317.491 636.532 325.012 636.532 334.97C636.532 343.322 633.083 349.559 626.978 354.443C620.824 359.367 611.959 362.919 601.17 365.756C590.395 368.589 577.805 370.684 564.263 372.75C561.544 373.165 558.787 373.579 555.999 373.997C544.92 375.659 533.36 377.394 521.803 379.561C492.888 384.983 463.805 393.14 441.944 409.818C420.017 426.548 405.443 451.783 405.443 491.112C405.443 528.112 420.807 555.912 443.28 574.443C465.731 592.955 495.24 602.192 523.549 602.192ZM570.611 472.375C570.611 464.64 573.235 459.294 577.543 455.231C581.899 451.123 588.028 448.275 595.13 445.697C598.223 444.574 601.474 443.511 604.822 442.417C605.309 442.257 605.798 442.098 606.289 441.937C610.148 440.672 614.114 439.351 618.054 437.848C625.304 435.081 632.507 431.681 638.874 426.82V454.418C638.874 469.939 635.958 481.378 629.92 488.926C623.919 496.426 614.689 500.261 601.62 500.261C594.395 500.261 586.617 497.976 580.666 493.348C574.744 488.741 570.611 481.802 570.611 472.375Z" fill="#EFE3CF" stroke="#FF6262" stroke-width="2"/>
<path d="M533.698 602.187C587.928 602.187 632.696 582.824 656.83 535.975V593.38V594.38H657.83H801.48H802.48V593.38V332.624C802.48 282.699 780.439 248.037 746.302 225.901C712.218 203.801 666.137 194.219 618.014 194.219C569.493 194.219 521.074 204.389 484.751 227.852C448.378 251.347 424.179 288.151 424.179 341.212V342.212H425.179H563.365H564.365V341.212C564.365 326.903 567.654 315.676 574.735 308.028C581.804 300.394 592.814 296.15 608.646 296.15C620.983 296.15 631.073 299.235 638.061 305.09C645.024 310.923 649.023 319.603 649.023 331.062C649.023 339.711 645.486 346.168 639.231 351.217C632.927 356.305 623.85 359.969 612.806 362.885C601.776 365.798 588.888 367.938 575.026 370.036C572.066 370.484 569.061 370.931 566.021 371.382C554.847 373.041 543.204 374.77 531.564 376.922C501.968 382.392 472.2 390.621 449.827 407.555C427.386 424.54 412.469 450.216 412.469 490.327C412.469 528.107 428.028 556.107 450.998 574.641C473.942 593.154 504.231 602.187 533.698 602.187ZM560.461 474.713C560.461 465.857 563.923 459.695 569.668 455.019C575.471 450.296 583.628 447.071 593.026 444.247C597.649 442.858 602.54 441.574 607.569 440.254L607.785 440.197C612.883 438.859 618.117 437.483 623.314 435.928C633.109 432.997 642.827 429.418 651.365 424.212V448.949C651.365 467.888 645.958 482.048 636.532 491.474C627.105 500.901 613.529 505.722 596.935 505.722C587.73 505.722 578.587 503.226 571.772 498.115C564.988 493.027 560.461 485.317 560.461 474.713Z" fill="#EFE3CF" stroke="#FF6262" stroke-width="2"/>
<path d="M543.468 602.187C597.749 602.187 642.539 582.789 667.381 535.863V593.38V594.38H668.381H794.856H795.856V593.38V328.72C795.856 280.355 774.399 246.67 741.239 225.121C708.132 203.607 663.418 194.219 616.854 194.219C569.893 194.219 523.227 204.195 488.267 227.272C453.258 250.382 430.046 286.602 430.046 338.87V339.87H431.046H555.959H556.959V338.87C556.959 322.267 561.589 309.484 570.512 300.845C579.441 292.202 592.817 287.562 610.609 287.562C625.289 287.562 637.943 291.233 646.9 297.904C655.83 304.554 661.136 314.215 661.136 326.378C661.136 335.324 657.509 342.027 651.102 347.284C644.648 352.579 635.357 356.416 624.058 359.484C612.772 362.548 599.585 364.819 585.404 367.041C582.203 367.542 578.951 368.041 575.66 368.546C564.39 370.276 552.663 372.075 540.94 374.287C510.661 380.001 480.213 388.5 457.328 405.835C434.376 423.222 419.116 449.434 419.116 490.327C419.116 528.501 434.873 556.505 458.338 574.942C481.775 593.356 512.843 602.187 543.468 602.187ZM550.714 477.836C550.714 467.834 554.885 460.797 561.874 455.44C568.921 450.038 578.838 446.346 590.284 443.18C596.727 441.398 603.555 439.806 610.581 438.167C616.084 436.885 621.708 435.573 627.362 434.121C639.604 430.976 651.828 427.201 662.697 421.704V443.484C662.697 465.888 655.173 482.778 642.726 494.076C630.266 505.386 612.765 511.187 592.653 511.187C581.08 511.187 570.572 508.484 562.987 502.984C555.441 497.514 550.714 489.228 550.714 477.836Z" fill="#EFE3CF" stroke="#FF6262" stroke-width="2"/>
<path d="M554.777 602.187C607.577 602.187 652.352 583.504 677.91 537.985V593.38V594.38H678.91H788.209H789.209V593.38V324.817C789.209 277.627 768.537 244.917 736.545 224.049C704.608 203.216 661.453 194.219 616.453 194.219C571.047 194.219 526.327 204.197 492.926 227.086C459.478 250.009 437.452 285.838 437.452 337.308V338.308H438.452H550.093H551.093V337.308C551.093 318.389 556.878 303.848 567.461 294.029C578.054 284.199 593.59 278.974 613.33 278.974C630.756 278.974 645.962 283.042 656.78 290.414C667.569 297.766 674.006 308.403 674.006 321.694C674.006 330.935 670.279 337.883 663.7 343.347C657.074 348.849 647.539 352.856 635.948 356.07C624.369 359.28 610.842 361.672 596.295 364.004C592.777 364.568 589.2 365.128 585.577 365.695C574.239 367.471 562.46 369.315 550.687 371.555C519.629 377.464 488.401 386.157 464.932 403.784C441.395 421.461 425.741 448.063 425.741 489.546C425.741 528.5 441.694 556.706 465.853 575.145C489.978 593.559 522.218 602.187 554.777 602.187ZM540.944 480.178C540.944 469.236 545.911 461.468 554.294 455.536C562.734 449.562 574.607 445.474 588.3 442.014C596.58 439.922 605.445 438.077 614.563 436.179C620.536 434.936 626.618 433.671 632.714 432.298C647.535 428.961 662.357 425.009 675.568 419.257V438.019C675.568 463.889 665.541 483.512 649.773 496.683C633.983 509.874 612.365 516.652 589.128 516.652C575.601 516.652 563.526 513.557 554.864 507.465C546.241 501.4 540.944 492.332 540.944 480.178Z" fill="#EFE3CF" stroke="#FF6262" stroke-width="2"/>
<path d="M564.925 602.187C617.725 602.187 662.498 583.505 688.058 539.434V593.38V594.38H689.058H781.181H782.181V593.38V321.694C782.181 275.678 762.097 243.749 731.181 223.368C700.317 203.022 658.723 194.219 615.671 194.219C571.824 194.219 529.049 204.003 497.205 226.608C465.315 249.246 444.477 284.686 444.477 335.747V336.747H445.477H543.065H544.065V335.747C544.065 314.128 551.391 297.832 563.923 286.926C576.475 276.003 594.367 270.386 615.671 270.386C635.839 270.386 653.591 274.849 666.266 283.011C678.913 291.155 686.496 302.964 686.496 317.79C686.496 327.226 682.685 334.32 675.956 339.897C669.181 345.512 659.432 349.599 647.585 352.873C635.75 356.144 621.924 358.58 607.057 360.951C603.441 361.528 599.764 362.101 596.04 362.681C584.472 364.483 572.456 366.355 560.445 368.627C528.705 374.634 496.794 383.473 472.812 401.416C448.762 419.41 432.766 446.501 432.766 488.765C432.766 528.5 448.914 556.905 473.569 575.347C498.186 593.76 531.206 602.187 564.925 602.187ZM530.793 482.52C530.793 470.433 536.613 461.837 546.45 455.283C556.343 448.692 570.245 444.21 586.233 440.457C596.153 438.128 606.8 436.095 617.731 434.008C624.423 432.73 631.222 431.432 638.025 430.033C655.376 426.466 672.693 422.255 688.058 416.085V432.555C688.058 461.908 675.713 484.262 656.625 499.3C637.512 514.359 611.59 522.117 584.443 522.117C568.95 522.117 555.511 518.822 545.975 512.242C536.485 505.693 530.793 495.85 530.793 482.52Z" fill="#EFE3CF" stroke="#FF6262" stroke-width="2"/>
<path d="M569.614 602.187C624.743 602.187 674.069 581.24 700.554 531.904V593.38V594.38H701.554H778.063H779.063V593.38V320.133C779.063 274.511 759.373 242.972 729.041 222.881C698.761 202.826 657.947 194.219 615.676 194.219C572.61 194.219 530.614 203.808 499.355 226.122C468.049 248.469 447.605 283.519 447.605 334.185V335.185H448.605H529.798H530.798V334.185C530.798 309.061 539.484 290.231 554.353 277.665C569.246 265.078 590.46 258.676 615.676 258.676C639.358 258.676 660.225 263.919 675.14 273.83C690.019 283.718 698.993 298.254 698.993 317.01C698.993 327.848 695.005 335.998 688.015 342.353C680.985 348.746 670.877 353.358 658.602 356.964C646.337 360.567 632.005 363.139 616.595 365.508C610.965 366.373 605.188 367.212 599.319 368.064C589.15 369.54 578.706 371.056 568.277 372.82C535.376 378.385 502.294 386.462 477.431 403.8C452.49 421.192 435.894 447.852 435.894 490.327C435.894 529.284 451.85 557.3 476.605 575.546C501.321 593.763 534.73 602.187 569.614 602.187ZM517.526 485.643C517.526 469.626 524.737 458.647 536.663 450.621C548.656 442.55 565.4 437.481 584.364 433.435C595.052 431.154 606.343 429.216 617.835 427.244C626.777 425.709 635.841 424.153 644.839 422.399C664.732 418.52 684.142 413.693 700.554 406.03V432.555C700.554 466.208 686.642 491.686 665.309 508.771C643.951 525.877 615.103 534.608 585.229 534.608C565.437 534.608 548.483 530.53 536.509 522.387C524.581 514.277 517.526 502.093 517.526 485.643Z" fill="#EFE3CF" stroke="#FF6262" stroke-width="2"/>
<path d="M574.3 602.187C631.763 602.187 684.898 578.97 712.266 525.816V593.38V594.38H713.266H774.942H775.942V593.38V318.571C775.942 273.732 756.644 242.585 726.899 222.689C697.205 202.827 657.17 194.219 615.677 194.219C573.389 194.219 532.172 203.809 501.5 225.929C470.781 248.082 450.729 282.74 450.729 332.624V333.624H451.729H515.747H516.747V332.624C516.747 304.003 527.177 282.44 544.684 268.011C562.216 253.561 586.95 246.185 615.677 246.185C643.259 246.185 667.241 252.403 684.297 264.255C701.316 276.082 711.485 293.543 711.485 316.229C711.485 328.461 707.33 337.655 700.077 344.774C692.791 351.926 682.322 357.038 669.618 360.945C650.922 366.695 627.663 369.763 603.088 373.006C594.214 374.177 585.168 375.37 576.104 376.721C542.043 381.796 507.788 389.087 482.045 405.856C456.212 422.683 439.018 449.009 439.018 491.888C439.018 529.68 454.784 557.306 479.635 575.451C504.448 593.568 538.246 602.187 574.3 602.187ZM505.036 487.985C505.036 467.851 513.679 454.49 527.733 445.097C541.861 435.653 561.473 430.216 583.364 426.121C594.297 424.075 605.763 422.37 617.362 420.662L618.78 420.453C629.909 418.815 641.144 417.161 652.096 415.192C674.26 411.208 695.372 405.917 712.266 396.775V432.555C712.266 470.12 696.981 498.92 673.592 518.346C650.182 537.79 618.604 547.88 586.011 547.88C561.928 547.88 541.663 542.827 527.447 532.838C513.277 522.881 505.036 507.965 505.036 487.985Z" fill="#EFE3CF" stroke="#FF6262" stroke-width="2"/>
<path d="M579.771 602.187C638.805 602.187 696.484 576.694 724.763 518.26V593.38V594.38H725.763H771.825H772.825V593.38V317.01C772.825 272.566 753.921 241.808 724.759 222.202C695.65 202.632 656.395 194.219 615.683 194.219C574.176 194.219 533.738 203.614 503.65 225.443C473.516 247.305 453.857 281.574 453.857 331.062V332.062H454.857H502.48H503.48V331.062C503.48 298.932 515.274 274.833 535.119 258.745C554.993 242.634 583.046 234.474 615.683 234.474C646.784 234.474 673.885 241.28 693.18 254.787C712.434 268.264 723.982 288.454 723.982 315.448C723.982 329.069 719.664 339.319 712.147 347.224C704.603 355.158 693.771 360.797 680.638 365.035C660.019 371.689 634.015 374.812 606.726 378.09C599.198 378.994 591.572 379.91 583.934 380.915C548.711 385.549 513.286 392.079 486.664 408.242C473.333 416.336 462.189 426.855 454.385 440.77C446.58 454.685 442.147 471.937 442.147 493.45C442.147 530.465 457.721 557.702 482.771 575.651C507.78 593.571 542.162 602.187 579.771 602.187ZM491.77 491.108C491.77 466.474 502.031 450.633 518.483 439.881C535.018 429.075 557.841 423.39 582.957 419.294C594.354 417.434 606.191 415.907 618.095 414.371C619.293 414.216 620.491 414.062 621.69 413.907C634.794 412.211 647.933 410.464 660.566 408.215C685.042 403.857 707.752 397.596 724.763 386.063V432.555C724.763 474.417 707.913 506.342 682.376 527.816C656.817 549.308 622.509 560.371 587.578 560.371C559.192 560.371 535.215 554.73 518.364 543.271C501.565 531.848 491.77 514.594 491.77 491.108Z" fill="#EFE3CF" stroke="#FF6262" stroke-width="2"/>
<path d="M589.132 602.187C651.985 602.187 720.214 571.467 748.958 504.02V593.38V594.38H749.958H765.572H766.572V593.38V313.887C766.572 270.621 748.455 240.644 720.464 221.523C692.525 202.438 654.828 194.219 615.676 194.219C575.727 194.219 536.848 203.42 507.93 224.765C478.967 246.142 460.096 279.629 460.096 327.94V328.94H461.096H475.148H476.148V327.94C476.148 288.796 491.055 259.428 515.877 239.821C540.73 220.19 575.62 210.272 615.676 210.272C654.191 210.272 687.53 218.834 711.213 236.04C734.854 253.216 748.958 279.064 748.958 313.887C748.958 330.272 744.326 342.622 736.28 352.085C728.218 361.569 716.658 368.235 702.664 373.106C678.365 381.563 647.025 384.517 614.586 387.574C609.601 388.043 604.589 388.516 599.573 389.011C562.026 392.717 524.26 397.702 495.882 412.689C481.669 420.196 469.778 430.227 461.447 443.885C453.115 457.543 448.385 474.76 448.385 496.573C448.385 532.035 463.576 558.494 488.825 576.05C514.031 593.576 549.191 602.187 589.132 602.187ZM465.999 496.573C465.999 479.245 469.568 465.38 475.873 454.201C482.178 443.024 491.252 434.474 502.353 427.825C524.596 414.503 554.898 408.858 587.102 405.052C596.995 403.883 607.071 402.887 617.135 401.893C639.739 399.659 662.285 397.432 682.579 393.254C710.667 387.473 734.765 377.904 748.958 359.153V432.555C748.958 482.623 729.174 520.991 699.337 546.856C669.482 572.736 629.517 586.135 589.132 586.135C552.159 586.135 521.354 578.737 499.821 563.866C478.338 549.031 465.999 526.703 465.999 496.573Z" fill="#EFE3CF" stroke="#FF6262" stroke-width="2"/>
<path d="M585.225 602.187C646.555 602.187 711.009 572.958 739.586 509.237V593.38V594.38H740.586H767.911H768.911V593.38V315.448C768.911 271.4 750.402 241.031 721.922 221.716C693.495 202.437 655.214 194.219 615.673 194.219C574.946 194.219 535.482 203.419 506.172 224.959C476.816 246.532 457.75 280.411 457.75 329.501V330.501H458.75H485.294H486.294V329.501C486.294 292.693 500.035 265.278 523 247.041C545.997 228.779 578.347 219.641 615.673 219.641C651.46 219.641 682.459 227.423 704.482 243.168C726.462 258.882 739.586 282.582 739.586 314.668C739.586 329.968 735.071 341.495 727.224 350.348C719.357 359.225 708.07 365.491 694.399 370.114C671.454 377.874 642.089 380.924 611.538 384.096C605.625 384.71 599.667 385.328 593.703 385.987C557.028 390.035 520.141 395.584 492.421 410.955C478.538 418.653 466.927 428.828 458.793 442.53C450.659 456.232 446.04 473.396 446.04 495.011C446.04 531.25 461.422 558.098 486.572 575.851C511.679 593.574 546.451 602.187 585.225 602.187ZM475.364 494.23C475.364 478.953 478.518 466.61 484.116 456.558C489.713 446.507 497.786 438.691 507.707 432.513C527.588 420.132 554.82 414.368 584.187 410.417C595.08 408.951 606.277 407.735 617.481 406.517C636.382 404.463 655.303 402.407 672.823 399.15C699.755 394.143 723.704 386.253 739.586 370.95V432.555C739.586 479.499 720.974 515.524 692.798 539.828C664.602 564.147 626.783 576.766 588.348 576.766C554.499 576.766 526.231 569.954 506.455 556.255C486.728 542.591 475.364 522.02 475.364 494.23Z" fill="#EFE3CF" stroke="#FF6262" stroke-width="2"/>
<path d="M151.403 671.482L230.377 79.2283M151.403 671.482L232.554 682.303M151.403 671.482L141.133 670.113L220.107 77.8589L230.377 79.2283M230.377 79.2283L311.529 90.0495M311.529 90.0495L232.554 682.303M311.529 90.0495L322.381 91.4967L243.407 683.751L232.554 682.303" stroke="#48494B" stroke-width="2"/>
<path d="M1235.81 680.734V4.02295M1235.81 680.734H1261.72M1235.81 680.734H1232.53V4.02295H1235.81M1235.81 4.02295H1261.72M1261.72 4.02295V680.734M1261.72 4.02295H1265.18V680.734H1261.72" stroke="#48494B" stroke-width="2"/>
<path d="M1141.29 685.225L963.038 37.5777M1141.29 685.225L1196.94 669.907M1141.29 685.225L1134.24 687.163L955.995 39.5161L963.038 37.5777M963.038 37.5777L1018.69 22.2602M1018.69 22.2602L1196.94 669.907M1018.69 22.2602L1026.14 20.2117L1204.38 667.859L1196.94 669.907" stroke="#48494B" stroke-width="2"/>
<path d="M990.773 678.97L903.388 12.9494M990.773 678.97L1025.88 674.364M990.773 678.97L986.33 679.553L898.946 13.5322L903.388 12.9494M903.388 12.9494L938.491 8.34381M938.491 8.34381L1025.88 674.364M938.491 8.34381L943.185 7.72789L1030.57 673.748L1025.88 674.364" stroke="#48494B" stroke-width="2"/>
<path d="M9.73766 666.44L121.291 174.403M9.73766 666.44L77.0853 681.709M9.73766 666.44L1.2147 664.508L112.768 172.47L121.291 174.403M121.291 174.403L188.639 189.671M188.639 189.671L77.0853 681.709M188.639 189.671L197.646 191.713L86.0919 683.751L77.0853 681.709" stroke="#48494B" stroke-width="2"/>
</svg>
