<svg width="1267" height="689" viewBox="0 0 1267 689" fill="none" xmlns="http://www.w3.org/2000/svg">
<path d="M328.453 1.70825H328.449M337.083 1.70825H886.48V680.895H337.083M337.083 1.70825H328.449M337.083 1.70825V680.895M337.083 680.895H328.449V1.70825M360.705 156.91H858.829V631H360.705V156.91Z" stroke="#48494B" stroke-width="2"/>
<path d="M439.323 74.1838V55.3038H445.083V74.1838H459.163V26.1838H445.083V43.7838H439.323V26.1838H425.243V74.1838H439.323ZM471.313 74.8238C475.921 74.8238 479.633 73.0958 481.489 68.9998V74.1838H494.673V53.0638C494.673 44.7438 487.313 41.5438 479.121 41.5438C470.929 41.5438 462.673 44.9358 462.673 53.6398H475.153C475.153 51.7198 475.729 50.4398 478.097 50.4398C479.697 50.4398 480.657 51.3358 480.657 52.9998C480.657 58.6958 461.713 52.9998 461.713 65.7998C461.713 71.8158 466.705 74.8238 471.313 74.8238ZM475.089 64.2638C475.089 61.6398 478.673 62.1518 480.849 60.3598V62.7918C480.849 65.3518 479.889 66.6318 477.713 66.6318C476.497 66.6318 475.089 65.8638 475.089 64.2638ZM516.741 54.0238C516.165 54.1518 515.269 54.2798 514.565 54.2798C512.389 54.2798 511.621 53.3198 511.621 51.0158V42.1838H497.541V51.3358C497.541 60.0398 500.997 63.7518 510.917 63.7518C512.965 63.7518 515.077 63.4958 516.741 63.2398V74.1838H530.821V42.1838H516.741V54.0238ZM567.897 60.7438C567.961 59.9118 568.025 59.0798 568.025 58.1838C568.025 48.3918 560.985 41.5438 550.873 41.5438C540.761 41.5438 533.721 48.3918 533.721 58.1838C533.721 67.9758 540.761 74.8238 550.873 74.8238C559.641 74.8238 565.209 70.7278 567.449 62.6638H554.841C554.201 64.3278 552.601 64.6478 551.001 64.6478C548.377 64.6478 547.033 63.5598 546.585 60.7438H567.897ZM550.873 51.7838C552.985 51.7838 554.521 52.6798 555.097 55.3038H546.649C547.225 52.8078 548.633 51.7838 550.873 51.7838ZM585.011 90.1838V70.7918C587.187 73.3518 590.195 74.8238 593.971 74.8238C602.291 74.8238 607.411 68.6158 607.411 58.1838C607.411 47.7518 602.291 41.5438 593.971 41.5438C589.811 41.5438 586.547 43.3358 584.371 46.4078V42.1838H570.931V90.1838H585.011ZM589.491 62.9198C586.803 62.9198 585.011 60.9998 585.011 58.1838C585.011 55.3678 586.803 53.4478 589.491 53.4478C592.243 53.4478 593.971 55.3678 593.971 58.1838C593.971 60.9998 592.243 62.9198 589.491 62.9198ZM631.121 74.1838V51.6558H639.441V42.1838H608.721V51.6558H617.041V74.1838H631.121ZM650.626 74.8238C655.234 74.8238 658.946 73.0958 660.802 68.9998V74.1838H673.986V53.0638C673.986 44.7438 666.626 41.5438 658.434 41.5438C650.242 41.5438 641.986 44.9358 641.986 53.6398H654.466C654.466 51.7198 655.042 50.4398 657.41 50.4398C659.01 50.4398 659.97 51.3358 659.97 52.9998C659.97 58.6958 641.026 52.9998 641.026 65.7998C641.026 71.8158 646.018 74.8238 650.626 74.8238ZM654.402 64.2638C654.402 61.6398 657.986 62.1518 660.162 60.3598V62.7918C660.162 65.3518 659.202 66.6318 657.026 66.6318C655.81 66.6318 654.402 65.8638 654.402 64.2638ZM691.573 74.1838V62.9838H697.333V74.1838H711.413V42.1838H697.333V53.5118H691.573V42.1838H677.493V74.1838H691.573ZM750.123 74.1838V42.1838H734.187L728.043 60.4238V42.1838H715.243V74.1838H731.179L737.323 55.9438V74.1838H750.123ZM754.313 53.5118C754.313 57.4158 756.041 60.1038 758.857 61.7678L752.713 74.1838H767.177L772.809 60.9998V74.1838H786.249V42.1838H766.601C759.049 42.1838 754.313 46.0878 754.313 53.5118ZM771.849 56.9038C769.161 56.9038 767.753 55.8798 767.753 53.5758C767.753 51.1438 769.033 50.0558 771.849 50.0558H772.809V56.9038H771.849Z" fill="#FF6262"/>
<path d="M488.804 137.333V129.173C489.764 130.661 491.276 131.573 493.076 131.573C496.364 131.573 498.836 129.005 498.836 125.333C498.836 121.661 496.364 119.093 493.076 119.093C491.276 119.093 489.764 120.005 488.804 121.493V119.333H486.884V137.333H488.804ZM492.86 129.821C490.556 129.821 488.804 128.021 488.804 125.333C488.804 122.645 490.556 120.845 492.86 120.845C495.164 120.845 496.916 122.645 496.916 125.333C496.916 128.021 495.164 129.821 492.86 129.821ZM505.129 131.573C506.929 131.573 508.585 130.829 509.401 129.125V131.333H511.297V122.885C511.297 120.149 508.945 119.093 506.401 119.093C503.809 119.093 501.361 120.269 501.361 123.317H503.329C503.329 121.541 504.625 120.629 506.401 120.629C508.105 120.629 509.377 121.397 509.377 122.813C509.377 125.885 501.001 122.981 501.001 128.213C501.001 130.517 502.921 131.573 505.129 131.573ZM502.969 128.093C502.969 125.573 507.313 126.413 509.401 125.237V126.389C509.401 128.717 507.505 129.965 505.489 129.965C504.001 129.965 502.969 129.341 502.969 128.093ZM517.581 124.493V125.933H519.501C521.037 125.933 522.189 126.581 522.189 127.973C522.189 129.221 521.253 130.037 519.189 130.037C517.077 130.037 515.829 129.053 515.829 127.277H513.909C513.909 130.037 515.925 131.573 519.165 131.573C522.333 131.573 524.109 130.253 524.109 128.021C524.109 126.557 523.269 125.645 521.805 125.213C523.077 124.757 523.797 123.773 523.797 122.429C523.797 120.557 522.189 119.093 519.165 119.093C515.949 119.093 514.125 120.917 514.125 123.173H516.045C516.045 121.589 517.245 120.629 519.165 120.629C520.989 120.629 521.973 121.397 521.973 122.573C521.973 123.893 521.037 124.493 519.477 124.493H517.581ZM528.976 131.333V126.101H535.456V131.333H537.376V119.333H535.456V124.349H528.976V119.333H527.056V131.333H528.976ZM551.654 131.333V119.333H549.254L542.966 129.437V119.333H541.118V131.333H543.518L549.806 121.253V131.333H551.654ZM557.312 119.333H555.392V131.333H565.304V134.573H567.08V129.581H565.4V119.333H563.48V129.581H557.312V119.333ZM573.286 131.573C575.086 131.573 576.742 130.829 577.558 129.125V131.333H579.454V122.885C579.454 120.149 577.102 119.093 574.558 119.093C571.966 119.093 569.518 120.269 569.518 123.317H571.486C571.486 121.541 572.782 120.629 574.558 120.629C576.262 120.629 577.534 121.397 577.534 122.813C577.534 125.885 569.158 122.981 569.158 128.213C569.158 130.517 571.078 131.573 573.286 131.573ZM571.126 128.093C571.126 125.573 575.47 126.413 577.558 125.237V126.389C577.558 128.717 575.662 129.965 573.646 129.965C572.158 129.965 571.126 129.341 571.126 128.093ZM588.532 131.333H594.484C596.932 131.333 598.492 130.205 598.492 127.973C598.492 126.413 597.58 125.405 596.188 124.997C597.244 124.565 597.94 123.725 597.94 122.429C597.94 120.365 596.38 119.333 594.148 119.333H588.532V131.333ZM593.596 120.797C595.276 120.797 596.092 121.373 596.092 122.621C596.092 123.845 595.276 124.469 593.596 124.469H590.38V120.797H593.596ZM594.148 125.933C595.708 125.933 596.572 126.605 596.572 127.925C596.572 129.221 595.708 129.869 594.148 129.869H590.38V125.933H594.148ZM611.987 131.333V121.085H616.163V119.333H605.891V121.085H610.067V131.333H611.987ZM623.292 131.573C626.748 131.573 629.316 129.005 629.316 125.333C629.316 121.661 626.748 119.093 623.292 119.093C619.836 119.093 617.268 121.661 617.268 125.333C617.268 129.005 619.836 131.573 623.292 131.573ZM623.292 129.821C620.964 129.821 619.188 128.021 619.188 125.333C619.188 122.645 620.964 120.845 623.292 120.845C625.62 120.845 627.396 122.645 627.396 125.333C627.396 128.021 625.62 129.821 623.292 129.821ZM641.845 131.333V119.333H633.229C633.205 124.469 633.013 126.701 632.725 127.973C632.437 129.173 631.837 129.581 631.141 129.581H630.901V131.333H631.309C633.037 131.333 634.093 130.589 634.549 127.781C634.789 126.341 634.933 124.229 634.981 121.085H639.925V131.333H641.845ZM647.643 119.333H645.579V131.333H661.563V134.573H663.339V129.581H661.659V119.333H659.739V129.581H654.579V119.333H652.659V129.581H647.643V119.333ZM676.529 131.333V119.333H674.129L667.841 129.437V119.333H665.993V131.333H668.393L674.681 121.253V131.333H676.529ZM682.187 131.333V126.101H688.667V131.333H690.587V119.333H688.667V124.349H682.187V119.333H680.267V131.333H682.187ZM697.809 131.573C699.609 131.573 701.265 130.829 702.081 129.125V131.333H703.977V122.885C703.977 120.149 701.625 119.093 699.081 119.093C696.489 119.093 694.041 120.269 694.041 123.317H696.009C696.009 121.541 697.305 120.629 699.081 120.629C700.785 120.629 702.057 121.397 702.057 122.813C702.057 125.885 693.681 122.981 693.681 128.213C693.681 130.517 695.601 131.573 697.809 131.573ZM695.649 128.093C695.649 125.573 699.993 126.413 702.081 125.237V126.389C702.081 128.717 700.185 129.965 698.169 129.965C696.681 129.965 695.649 129.341 695.649 128.093ZM708.1 131.333L711.796 126.509L715.684 131.333H717.94L713.068 125.189L717.7 119.333H715.42L711.94 123.773L708.34 119.333H706.084L710.716 125.141L705.844 131.333H708.1Z" fill="#FF6262"/>
<path d="M523.538 602.352C578.484 602.352 623.243 582.28 646.671 534.762V593.545V594.545H647.671H808.497H809.497V593.545V335.911C809.497 284.813 786.868 249.369 751.655 226.747C716.498 204.16 668.856 194.384 618.785 194.384C568.704 194.384 518.339 204.748 480.459 228.497C442.529 252.277 417.143 289.47 417.143 342.938V343.938H418.143H570.381H571.381V342.938C571.381 331.283 573.139 321.812 578.291 315.255C583.4 308.753 592.024 304.902 606.293 304.902C615.87 304.902 623.396 307.581 628.526 312.618C633.653 317.652 636.522 325.173 636.522 335.13C636.522 343.483 633.073 349.72 626.967 354.604C620.813 359.527 611.949 363.079 601.16 365.916C590.384 368.75 577.795 370.844 564.253 372.911C561.534 373.325 558.776 373.739 555.989 374.157C544.91 375.82 533.35 377.555 521.793 379.721C492.878 385.143 463.794 393.3 441.933 409.979C420.006 426.708 405.432 451.944 405.432 491.272C405.432 528.273 420.796 556.072 443.27 574.604C465.72 593.115 495.23 602.352 523.538 602.352ZM570.6 472.535C570.6 464.8 573.225 459.455 577.532 455.392C581.888 451.283 588.017 448.436 595.119 445.858C598.212 444.735 601.463 443.672 604.811 442.577C605.298 442.418 605.787 442.258 606.278 442.097C610.137 440.833 614.103 439.512 618.043 438.008C625.293 435.241 632.497 431.841 638.864 426.981V454.579C638.864 470.1 635.948 481.538 629.91 489.086C623.909 496.587 614.678 500.421 601.609 500.421C594.385 500.421 586.606 498.136 580.656 493.508C574.733 488.901 570.6 481.963 570.6 472.535Z" fill="#EFE3CF" stroke="#FF6262" stroke-width="2"/>
<path d="M533.687 602.348C587.918 602.348 632.685 582.985 656.82 536.136V593.541V594.541H657.82H801.47H802.47V593.541V332.784C802.47 282.859 780.429 248.197 746.291 226.062C712.207 203.961 666.126 194.38 618.004 194.38C569.483 194.38 521.064 204.55 484.741 228.012C448.368 251.508 424.169 288.312 424.169 341.372V342.372H425.169H563.354H564.354V341.372C564.354 327.063 567.643 315.837 574.725 308.188C581.793 300.554 592.804 296.31 608.635 296.31C620.973 296.31 631.062 299.395 638.05 305.25C645.013 311.084 649.013 319.764 649.013 331.223C649.013 339.872 645.475 346.329 639.22 351.377C632.917 356.465 623.84 360.13 612.796 363.046C601.765 365.958 588.877 368.098 575.016 370.197C572.055 370.645 569.05 371.091 566.011 371.542C554.837 373.202 543.193 374.931 531.554 377.082C501.957 382.552 472.19 390.781 449.816 407.716C427.375 424.701 412.458 450.376 412.458 490.487C412.458 528.268 428.017 556.267 450.987 574.801C473.931 593.314 504.221 602.348 533.687 602.348ZM560.451 474.873C560.451 466.018 563.912 459.856 569.658 455.179C575.461 450.456 583.618 447.232 593.016 444.407C597.638 443.018 602.53 441.734 607.558 440.415L607.774 440.358C612.873 439.02 618.107 437.643 623.304 436.088C633.099 433.158 642.817 429.579 651.355 424.373V449.11C651.355 468.048 645.948 482.208 636.522 491.634C627.094 501.062 613.519 505.882 596.925 505.882C587.72 505.882 578.577 503.387 571.761 498.275C564.978 493.188 560.451 485.478 560.451 474.873Z" fill="#EFE3CF" stroke="#FF6262" stroke-width="2"/>
<path d="M543.457 602.348C597.739 602.348 642.528 582.949 667.371 536.023V593.541V594.541H668.371H794.845H795.845V593.541V328.881C795.845 280.516 774.389 246.831 741.229 225.282C708.122 203.767 663.407 194.38 616.844 194.38C569.883 194.38 523.216 204.355 488.257 227.432C453.248 250.543 430.036 286.762 430.036 339.03V340.03H431.036H555.949H556.949V339.03C556.949 322.427 561.579 309.644 570.502 301.006C579.43 292.362 592.807 287.723 610.598 287.723C625.278 287.723 637.932 291.394 646.89 298.064C655.819 304.714 661.125 314.375 661.125 326.539C661.125 335.484 657.498 342.187 651.091 347.444C644.638 352.739 635.347 356.576 624.048 359.644C612.761 362.708 599.575 364.979 585.394 367.201C582.192 367.703 578.94 368.202 575.649 368.707C564.38 370.436 552.653 372.236 540.93 374.448C510.651 380.162 480.202 388.66 457.317 405.996C434.365 423.383 419.106 449.594 419.106 490.487C419.106 528.661 434.863 556.665 458.328 575.102C481.764 593.516 512.833 602.348 543.457 602.348ZM550.703 477.996C550.703 467.994 554.875 460.957 561.864 455.6C568.911 450.198 578.827 446.506 590.274 443.34C596.716 441.558 603.545 439.966 610.571 438.328C616.074 437.045 621.698 435.734 627.352 434.281C639.593 431.136 651.818 427.361 662.686 421.865V443.645C662.686 466.049 655.162 482.938 642.716 494.236C630.255 505.546 612.755 511.347 592.642 511.347C581.069 511.347 570.562 508.644 562.977 503.145C555.431 497.674 550.703 489.388 550.703 477.996Z" fill="#EFE3CF" stroke="#FF6262" stroke-width="2"/>
<path d="M554.767 602.348C607.567 602.348 652.341 583.664 677.899 538.145V593.541V594.541H678.899H788.198H789.198V593.541V324.977C789.198 277.788 768.527 245.077 736.535 224.209C704.598 203.376 661.443 194.38 616.443 194.38C571.037 194.38 526.316 204.358 492.916 227.247C459.467 250.169 437.441 285.998 437.441 337.468V338.468H438.441H550.082H551.082V337.468C551.082 318.55 556.868 304.009 567.45 294.189C578.044 284.359 593.58 279.135 613.32 279.135C630.745 279.135 645.951 283.203 656.769 290.574C667.559 297.926 673.996 308.563 673.996 321.854C673.996 331.096 670.269 338.044 663.689 343.508C657.064 349.01 647.528 353.016 635.937 356.23C624.359 359.44 610.831 361.833 596.285 364.164C592.766 364.728 589.188 365.288 585.565 365.856C574.228 367.631 562.45 369.476 550.676 371.716C519.618 377.624 488.391 386.318 464.922 403.944C441.384 421.622 425.731 448.224 425.731 489.707C425.731 528.661 441.683 556.866 465.842 575.306C489.968 593.72 522.207 602.348 554.767 602.348ZM540.933 480.338C540.933 469.396 545.901 461.629 554.283 455.696C562.723 449.722 574.597 445.634 588.289 442.175C596.57 440.082 605.435 438.237 614.553 436.34C620.526 435.097 626.607 433.831 632.703 432.458C647.524 429.122 662.347 425.17 675.557 419.417V438.18C675.557 464.05 665.53 483.672 649.762 496.844C633.973 510.034 612.355 516.812 589.118 516.812C575.59 516.812 563.516 513.718 554.854 507.626C546.231 501.561 540.933 492.493 540.933 480.338Z" fill="#EFE3CF" stroke="#FF6262" stroke-width="2"/>
<path d="M564.915 602.348C617.714 602.348 662.488 583.666 688.047 539.595V593.541V594.541H689.047H781.171H782.171V593.541V321.854C782.171 275.838 762.087 243.91 731.17 223.529C700.307 203.182 658.713 194.38 615.661 194.38C571.814 194.38 529.038 204.164 497.195 226.768C465.305 249.407 444.466 284.846 444.466 335.907V336.907H445.466H543.055H544.055V335.907C544.055 314.288 551.38 297.992 563.912 287.086C576.464 276.163 594.357 270.547 615.661 270.547C635.828 270.547 653.58 275.009 666.256 283.172C678.903 291.316 686.486 303.124 686.486 317.951C686.486 327.387 682.674 334.481 675.945 340.058C669.17 345.673 659.421 349.759 647.574 353.034C635.74 356.305 621.913 358.74 607.047 361.111C603.431 361.688 599.753 362.261 596.029 362.841C584.461 364.643 572.446 366.515 560.435 368.788C528.694 374.794 496.783 383.633 472.802 401.576C448.752 419.571 432.756 446.661 432.756 488.926C432.756 528.66 448.904 557.065 473.558 575.507C498.175 593.92 531.195 602.348 564.915 602.348ZM530.783 482.68C530.783 470.593 536.602 461.998 546.439 455.444C556.332 448.852 570.235 444.37 586.222 440.617C596.143 438.288 606.79 436.255 617.721 434.168C624.413 432.89 631.211 431.592 638.015 430.193C655.366 426.626 672.682 422.415 688.047 416.245V432.715C688.047 462.068 675.702 484.422 656.615 499.461C637.502 514.519 611.579 522.277 584.432 522.277C568.94 522.277 555.501 518.982 545.965 512.402C536.474 505.854 530.783 496.011 530.783 482.68Z" fill="#EFE3CF" stroke="#FF6262" stroke-width="2"/>
<path d="M569.604 602.348C624.733 602.348 674.059 581.401 700.544 532.064V593.541V594.541H701.544H778.053H779.053V593.541V320.293C779.053 274.672 759.363 243.132 729.03 223.042C698.751 202.987 657.936 194.38 615.666 194.38C572.6 194.38 530.604 203.968 499.345 226.282C468.039 248.629 447.594 283.679 447.594 334.346V335.346H448.594H529.788H530.788V334.346C530.788 309.221 539.474 290.391 554.343 277.825C569.236 265.238 590.449 258.836 615.666 258.836C639.347 258.836 660.215 264.08 675.129 273.991C690.009 283.878 698.982 298.415 698.982 317.17C698.982 328.008 694.994 336.158 688.004 342.514C680.974 348.906 670.866 353.519 658.591 357.125C646.327 360.728 631.994 363.3 616.584 365.668C610.955 366.534 605.178 367.372 599.308 368.224C589.14 369.7 578.695 371.217 568.266 372.981C535.365 378.545 502.283 386.623 477.421 403.96C452.479 421.352 435.884 448.012 435.884 490.487C435.884 529.444 451.839 557.461 476.594 575.706C501.31 593.923 534.72 602.348 569.604 602.348ZM517.516 485.803C517.516 469.786 524.727 458.807 536.653 450.781C548.645 442.71 565.39 437.641 584.353 433.595C595.042 431.315 606.332 429.377 617.824 427.404C626.766 425.869 635.831 424.314 644.829 422.559C664.722 418.68 684.131 413.854 700.544 406.191V432.715C700.544 466.368 686.632 491.846 665.299 508.932C643.941 526.037 615.093 534.768 585.218 534.768C565.427 534.768 548.473 530.69 536.498 522.548C524.571 514.437 517.516 502.254 517.516 485.803Z" fill="#EFE3CF" stroke="#FF6262" stroke-width="2"/>
<path d="M574.29 602.348C631.753 602.348 684.887 579.13 712.256 525.977V593.541V594.541H713.256H774.931H775.931V593.541V318.731C775.931 273.893 756.634 242.745 726.888 222.849C697.195 202.988 657.16 194.38 615.667 194.38C573.379 194.38 532.162 203.97 501.489 226.09C470.771 248.242 450.718 282.901 450.718 332.784V333.784H451.718H515.736H516.736V332.784C516.736 304.164 527.167 282.6 544.673 268.172C562.206 253.722 586.939 246.345 615.667 246.345C643.249 246.345 667.231 252.563 684.287 264.415C701.306 276.242 711.475 293.704 711.475 316.389C711.475 328.621 707.319 337.815 700.067 344.934C692.78 352.086 682.311 357.198 669.608 361.105C650.912 366.855 627.652 369.924 603.078 373.166C594.204 374.337 585.158 375.531 576.094 376.881C542.032 381.956 507.778 389.247 482.035 406.016C456.202 422.843 439.008 449.169 439.008 492.049C439.008 529.841 454.773 557.466 479.625 575.611C504.437 593.729 538.235 602.348 574.29 602.348ZM505.026 488.145C505.026 468.012 513.668 454.65 527.722 445.257C541.851 435.814 561.463 430.377 583.354 426.281C594.286 424.236 605.753 422.531 617.351 420.823L618.771 420.614C629.9 418.975 641.134 417.321 652.086 415.352C674.25 411.368 695.362 406.077 712.256 396.935V432.715C712.256 470.28 696.97 499.08 673.581 518.507C650.171 537.951 618.594 548.04 586 548.04C561.918 548.04 541.652 542.988 527.436 532.998C513.266 523.041 505.026 508.126 505.026 488.145Z" fill="#EFE3CF" stroke="#FF6262" stroke-width="2"/>
<path d="M579.76 602.348C638.794 602.348 696.474 576.855 724.752 518.42V593.541V594.541H725.752H771.814H772.814V593.541V317.17C772.814 272.726 753.911 241.968 724.749 222.362C695.64 202.792 656.384 194.38 615.673 194.38C574.165 194.38 533.728 203.774 503.639 225.603C473.505 247.465 453.847 281.734 453.847 331.223V332.223H454.847H502.47H503.47V331.223C503.47 299.092 515.264 274.994 535.109 258.906C554.982 242.795 583.036 234.634 615.673 234.634C646.774 234.634 673.875 241.44 693.17 254.947C712.423 268.425 723.972 288.614 723.972 315.609C723.972 329.229 719.654 339.48 712.137 347.385C704.592 355.319 693.761 360.958 680.628 365.196C660.008 371.85 634.005 374.973 606.715 378.25C599.187 379.154 591.561 380.07 583.923 381.075C548.701 385.71 513.276 392.24 486.654 408.402C473.322 416.496 462.179 427.016 454.374 440.931C446.57 454.845 442.136 472.098 442.136 493.61C442.136 530.626 457.71 557.863 482.76 575.812C507.769 593.732 542.152 602.348 579.76 602.348ZM491.759 491.268C491.759 466.635 502.021 450.793 518.473 440.042C535.007 429.235 557.831 423.55 582.946 419.454C594.344 417.595 606.18 416.067 618.084 414.531C619.282 414.377 620.48 414.222 621.679 414.067C634.784 412.371 647.922 410.624 660.556 408.375C685.032 404.018 707.742 397.756 724.752 386.224V432.715C724.752 474.578 707.903 506.502 682.365 527.977C656.807 549.469 622.498 560.532 587.567 560.532C559.181 560.532 535.204 554.89 518.354 543.432C501.554 532.008 491.759 514.755 491.759 491.268Z" fill="#EFE3CF" stroke="#FF6262" stroke-width="2"/>
<path d="M589.121 602.348C651.974 602.348 720.203 571.627 748.947 504.18V593.541V594.541H749.947H765.561H766.561V593.541V314.047C766.561 270.781 748.445 240.804 720.454 221.684C692.515 202.598 654.818 194.38 615.665 194.38C575.716 194.38 536.838 203.581 507.919 224.925C478.957 246.302 460.085 279.789 460.085 328.1V329.1H461.085H475.138H476.138V328.1C476.138 288.956 491.045 259.588 515.867 239.982C540.72 220.351 575.609 210.432 615.665 210.432C654.181 210.432 687.52 218.994 711.202 236.2C734.843 253.376 748.947 279.224 748.947 314.047C748.947 330.433 744.315 342.783 736.27 352.246C728.208 361.729 716.647 368.396 702.654 373.266C678.354 381.724 647.014 384.677 614.576 387.734C609.59 388.204 604.579 388.676 599.563 389.171C562.016 392.877 524.25 397.862 495.872 412.85C481.658 420.356 469.767 430.387 461.436 444.045C453.105 457.703 448.375 474.92 448.375 496.733C448.375 532.195 463.566 558.654 488.815 576.21C514.021 593.736 549.181 602.348 589.121 602.348ZM465.989 496.733C465.989 479.405 469.557 465.54 475.863 454.362C482.167 443.184 491.241 434.634 502.342 427.986C524.586 414.664 554.887 409.018 587.092 405.212C596.985 404.043 607.06 403.047 617.124 402.053C639.728 399.82 662.274 397.592 682.569 393.415C710.657 387.633 734.755 378.065 748.947 359.314V432.715C748.947 482.783 729.163 521.151 699.327 547.016C669.472 572.897 629.506 586.295 589.121 586.295C552.149 586.295 521.343 578.897 499.811 564.027C478.328 549.191 465.989 526.864 465.989 496.733Z" fill="#EFE3CF" stroke="#FF6262" stroke-width="2"/>
<path d="M585.214 602.348C646.544 602.348 710.999 573.118 739.575 509.397V593.541V594.541H740.575H767.9H768.9V593.541V315.609C768.9 271.56 750.391 241.192 721.912 221.877C693.485 202.597 655.203 194.38 615.662 194.38C574.936 194.38 535.471 203.579 506.161 225.119C476.806 246.692 457.74 280.572 457.74 329.661V330.661H458.74H485.284H486.284V329.661C486.284 292.853 500.024 265.439 522.989 247.202C545.986 228.939 578.336 219.801 615.662 219.801C651.449 219.801 682.448 227.584 704.472 243.328C726.452 259.042 739.575 282.742 739.575 314.828C739.575 330.128 735.06 341.656 727.214 350.509C719.346 359.385 708.059 365.651 694.388 370.275C671.443 378.035 642.078 381.084 611.527 384.256C605.614 384.87 599.657 385.489 593.693 386.147C557.018 390.195 520.13 395.744 492.411 411.115C478.528 418.813 466.917 428.989 458.783 442.691C450.648 456.392 446.029 473.556 446.029 495.172C446.029 531.41 461.412 558.258 486.561 576.011C511.669 593.734 546.44 602.348 585.214 602.348ZM475.354 494.391C475.354 479.113 478.507 466.77 484.105 456.719C489.703 446.667 497.775 438.852 507.697 432.673C527.578 420.293 554.809 414.529 584.177 410.577C595.07 409.112 606.266 407.895 617.471 406.678C636.371 404.624 655.293 402.567 672.812 399.31C699.745 394.303 723.693 386.413 739.575 371.11V432.715C739.575 479.659 720.964 515.685 692.787 539.988C664.592 564.308 626.773 576.927 588.337 576.927C554.489 576.927 526.221 570.115 506.444 556.416C486.718 542.752 475.354 522.18 475.354 494.391Z" fill="#EFE3CF" stroke="#FF6262" stroke-width="2"/>
<path d="M151.392 671.643L230.367 79.389M151.392 671.643L232.544 682.464M151.392 671.643L141.122 670.273L220.097 78.0195L230.367 79.389M230.367 79.389L311.518 90.2101M311.518 90.2101L232.544 682.464M311.518 90.2101L322.371 91.6573L243.397 683.911L232.544 682.464" stroke="#48494B" stroke-width="2"/>
<path d="M215.235 541.426L192.397 538.381L193.439 530.566L189.514 530.043L187.901 542.139L214.664 545.708L215.235 541.426ZM218.069 520.169L200.227 517.789L198.414 531.385C206.836 532.508 209.621 533.134 210.747 533.683C211.667 534.133 212.117 534.847 211.998 535.739L211.969 535.953L215.895 536.476L215.98 535.834C216.404 532.658 215.369 530.886 210.759 529.508C209.048 528.99 206.569 528.514 202.863 527.983L203.581 522.595L217.498 524.451L218.069 520.169ZM220.947 498.588L203.105 496.209L202.372 501.705L214.785 510.478L201.439 508.699L200.892 512.802L218.734 515.182L219.467 509.686L207.089 500.917L220.4 502.692L220.947 498.588ZM219.094 485.25C218.549 487.973 216.31 489.781 213.099 489.353C209.887 488.925 208.2 486.594 208.388 483.822L219.094 485.25ZM208.959 479.54C209.504 476.816 211.743 475.008 214.954 475.436C218.166 475.865 219.853 478.196 219.665 480.967L208.959 479.54ZM232.154 482.633L223.59 481.491C224.106 476.257 220.985 471.882 215.525 471.154C210.066 470.426 205.907 473.83 205.034 479.017L196.47 477.875L195.899 482.157L204.463 483.299C203.947 488.532 207.068 492.907 212.528 493.635C217.987 494.363 222.146 490.959 223.019 485.773L231.583 486.915L232.154 482.633ZM220.739 453.029C217.206 452.558 214.33 454.79 213.726 459.321L213.278 462.676L207.676 461.929L207.105 466.211L224.947 468.59L225.97 460.918C226.603 456.172 224.272 453.5 220.739 453.029ZM227.797 447.215L209.955 444.836L209.384 449.118L227.226 451.497L227.797 447.215ZM216.847 463.152L217.251 460.118C217.546 457.906 218.526 457.092 220.132 457.307C221.702 457.516 222.649 458.586 222.354 460.799L221.95 463.832L216.847 463.152ZM231.774 417.393L213.932 415.014L213.199 420.509L225.612 429.283L212.266 427.503L211.719 431.607L229.561 433.986L230.294 428.491L217.916 419.722L231.227 421.497L231.774 417.393ZM224.416 390.592L225.015 386.095C220.498 385.929 217.01 389.205 216.368 394.022C215.683 399.16 218.992 403.488 224.451 404.216C229.911 404.944 234.238 401.635 234.924 396.496C235.585 391.536 232.949 387.335 228.267 386.493L227.677 390.918C230.235 391.622 231.298 393.725 230.998 395.973C230.641 398.649 228.234 400.362 225.022 399.934C221.811 399.505 219.936 397.222 220.293 394.545C220.593 392.297 222.023 390.563 224.416 390.592ZM238.475 367.142L220.632 364.763L219.9 370.259L232.313 379.032L218.967 377.253L218.42 381.356L236.262 383.736L236.995 378.24L224.617 369.471L237.927 371.246L238.475 367.142ZM240.875 349.141L226.673 342.889L241.446 344.859L242.017 340.577L224.175 338.198L223.223 345.334L236.379 350.721L222.267 352.507L221.301 359.751L239.143 362.13L239.666 358.205L225 356.249L240.237 353.923L240.875 349.141ZM242.684 335.576L243.94 326.155C244.444 322.373 242.996 319.892 239.463 319.42C237.322 319.135 235.742 320.087 234.862 321.785C234.37 320.303 233.311 319.254 231.491 319.011C228.351 318.592 226.521 320.6 226.088 323.848L224.842 333.197L242.684 335.576ZM228.6 329.521L229.133 325.525C229.395 323.562 230.123 323.005 231.443 323.182C232.621 323.339 233.285 324.081 233.023 326.043L232.49 330.04L228.6 329.521ZM235.702 330.468L236.32 325.829C236.544 324.152 237.429 323.507 238.749 323.684C240.141 323.869 240.862 324.728 240.638 326.405L240.019 331.044L235.702 330.468ZM246.741 307.875C247.435 302.665 244.136 298.266 238.676 297.538C233.217 296.81 228.88 300.191 228.185 305.401C227.49 310.61 230.79 315.009 236.249 315.737C241.709 316.465 246.046 313.085 246.741 307.875ZM242.815 307.352C242.449 310.099 240.032 311.883 236.82 311.455C233.609 311.027 231.744 308.672 232.11 305.924C232.477 303.176 234.894 301.392 238.105 301.82C241.317 302.249 243.182 304.604 242.815 307.352ZM250.104 279.928L232.262 277.549L230.449 291.144C238.871 292.267 241.656 292.893 242.782 293.443C243.702 293.892 244.152 294.606 244.033 295.498L244.004 295.712L247.93 296.236L248.015 295.593C248.439 292.417 247.404 290.645 242.794 289.268C241.083 288.749 238.604 288.273 234.898 287.743L235.616 282.354L249.533 284.21L250.104 279.928ZM246.561 259.38C243.028 258.909 240.152 261.14 239.548 265.672L239.101 269.027L233.498 268.28L232.927 272.562L250.769 274.941L251.792 267.269C252.425 262.523 250.094 259.851 246.561 259.38ZM253.619 253.566L235.777 251.187L235.206 255.469L253.048 257.848L253.619 253.566ZM242.669 269.502L243.073 266.469C243.368 264.257 244.349 263.443 245.954 263.657C247.524 263.867 248.471 264.937 248.176 267.15L247.772 270.183L242.669 269.502Z" fill="#FF6262"/>
<path d="M1235.8 680.895V4.18359M1235.8 680.895H1261.71M1235.8 680.895H1232.52V4.18359H1235.8M1235.8 4.18359H1261.71M1261.71 4.18359V680.895M1261.71 4.18359H1265.17V680.895H1261.71" stroke="#48494B" stroke-width="2"/>
<path d="M1141.28 685.385L963.028 37.7383M1141.28 685.385L1196.93 670.068M1141.28 685.385L1134.23 687.324L955.984 39.6768L963.028 37.7383M963.028 37.7383L1018.68 22.4209M1018.68 22.4209L1196.93 670.068M1018.68 22.4209L1026.12 20.3724L1204.37 668.019L1196.93 670.068" stroke="#48494B" stroke-width="2"/>
<path d="M990.762 679.13L903.378 13.11M990.762 679.13L1025.86 674.525M990.762 679.13L986.32 679.713L898.936 13.6929L903.378 13.11M903.378 13.11L938.48 8.50445M938.48 8.50445L1025.86 674.525M938.48 8.50445L943.175 7.88853L1030.56 673.909L1025.86 674.525" stroke="#48494B" stroke-width="2"/>
<path d="M9.72716 666.601L121.281 174.563M9.72716 666.601L77.0748 681.869M9.72716 666.601L1.2042 664.668L112.758 172.631L121.281 174.563M121.281 174.563L188.628 189.832M188.628 189.832L77.0748 681.869M188.628 189.832L197.635 191.874L86.0814 683.911L77.0748 681.869" stroke="#48494B" stroke-width="2"/>
<path d="M78.6537 569.707L80.381 562.089C81.36 557.77 79.5008 554.248 74.8664 553.197L74.1642 553.038C70.8991 552.298 68.4297 553.584 66.9278 555.975C66.5867 553.572 65.1576 551.734 62.3137 551.09L61.9627 551.01C57.7496 550.055 54.8691 552.502 53.89 556.821L52.3219 563.737L78.6537 569.707ZM56.3734 557.753C57.0738 554.663 58.7629 553.238 61.5365 553.866L61.8876 553.946C64.9421 554.638 65.757 556.743 65.1123 559.587L64.2287 563.484L55.5217 561.51L56.3734 557.753ZM67.8026 559.606C68.4632 556.692 70.1921 555.09 73.5977 555.863L73.9488 555.942C77.2841 556.698 78.4389 558.769 77.7384 561.859L76.7275 566.317L66.7917 564.065L67.8026 559.606ZM78.8018 532.908C78.4508 532.829 78.1778 532.73 77.8268 532.65C72.4551 531.432 67.8786 534.197 66.7562 539.147C65.6339 544.098 68.5707 548.566 73.9424 549.783C79.314 551.001 83.8906 548.237 85.0129 543.286C85.9124 539.319 84.5255 535.83 81.2342 533.903L80.5417 536.957C82.3327 538.175 83.1284 540.201 82.5791 542.624C81.8389 545.889 79.1447 547.678 75.5463 547.268L78.8018 532.908ZM69.2138 539.704C69.9382 536.509 72.5462 534.775 76.1095 535.177L73.4828 546.763C70.0946 545.589 68.4895 542.899 69.2138 539.704ZM96.9526 529.699L85.0155 526.993C87.5107 526.082 89.3463 524.173 89.9433 521.54C91.0338 516.73 88.097 512.262 82.7253 511.044C77.3536 509.826 72.7771 512.591 71.6866 517.4C71.0896 520.034 71.9223 522.548 73.7806 524.446L70.6208 523.729L69.984 526.538L96.3158 532.508L96.9526 529.699ZM87.3087 521.275C86.5445 524.645 83.3303 526.611 79.3981 525.719C75.4659 524.828 73.4138 521.668 74.1779 518.298C74.942 514.927 78.1563 512.961 82.0885 513.853C86.0207 514.744 88.0728 517.904 87.3087 521.275ZM92.549 508.418L86.7179 501.411L95.0643 497.324L95.8125 494.023L85.2088 499.113L78.1784 490.395L77.4223 493.73L82.7632 500.293L75.0741 504.087L74.3259 507.387L84.3585 502.538L91.8008 511.718L92.549 508.418ZM97.1301 488.212L89.4764 486.477L91.6255 476.997L99.2793 478.732L99.9161 475.924L82.3616 471.944L81.7248 474.752L89.0626 476.416L86.9134 485.895L79.5756 484.232L78.9388 487.041L96.4933 491.021L97.1301 488.212ZM104.652 455.036L87.0972 451.056L86.3012 454.567L98.9966 467.117L84.2157 463.766L83.6028 466.469L101.157 470.449L101.953 466.938L89.293 454.396L104.039 457.739L104.652 455.036ZM81.9395 433.101C84.2216 433.619 84.9181 435.105 84.5599 436.685C84.2256 438.16 82.94 439.271 80.6579 438.754L80.1485 441.001C83.4488 441.749 85.8765 440.158 86.5611 437.139C87.2536 434.084 85.7491 431.602 82.4489 430.854L81.9395 433.101ZM109.386 434.156L91.8311 430.176L91.0351 433.687L103.731 446.236L88.9496 442.885L88.3367 445.589L105.891 449.569L106.687 446.058L94.0269 433.516L108.773 436.859L109.386 434.156ZM121.874 419.778L109.937 417.072C112.432 416.161 114.267 414.251 114.864 411.618C115.955 406.808 113.018 402.34 107.646 401.123C102.275 399.905 97.6982 402.669 96.6077 407.479C96.0107 410.112 96.8434 412.627 98.7017 414.525L95.5419 413.808L94.9051 416.617L121.237 422.587L121.874 419.778ZM112.23 411.353C111.466 414.724 108.251 416.69 104.319 415.798C100.387 414.907 98.3349 411.747 99.099 408.376C99.8632 405.006 103.077 403.04 107.01 403.931C110.942 404.823 112.994 407.983 112.23 411.353ZM113.129 381.501C112.778 381.421 112.505 381.322 112.154 381.243C106.782 380.025 102.205 382.789 101.083 387.74C99.9606 392.69 102.897 397.158 108.269 398.376C113.641 399.594 118.217 396.829 119.34 391.879C120.239 387.912 118.852 384.423 115.561 382.495L114.868 385.55C116.659 386.768 117.455 388.794 116.906 391.216C116.166 394.481 113.471 396.27 109.873 395.86L113.129 381.501ZM103.541 388.297C104.265 385.102 106.873 383.368 110.436 383.77L107.81 395.356C104.421 394.181 102.816 391.492 103.541 388.297ZM122.502 376.302L107.511 372.903L109.437 364.407L106.874 363.826L104.311 375.131L121.865 379.111L122.502 376.302ZM128.764 348.68L111.21 344.701L110.414 348.211L123.109 360.761L108.328 357.41L107.715 360.113L125.27 364.093L126.066 360.582L113.406 348.041L128.151 351.384L128.764 348.68ZM122.373 327.862L123.042 324.913C118.542 324.409 114.789 327.287 113.754 331.851C112.624 336.836 115.545 341.374 120.916 342.592C126.288 343.81 130.88 340.975 132.011 335.99C133.069 331.32 130.815 326.934 126.245 325.602L125.584 328.516C128.77 329.607 130.108 332.495 129.448 335.409C128.692 338.744 125.485 340.675 121.553 339.784C117.621 338.892 115.561 335.767 116.317 332.432C116.97 329.553 119.266 327.564 122.373 327.862ZM135.941 317.028L120.949 313.629L122.334 307.52L119.771 306.939L116.364 321.966L118.927 322.547L120.312 316.438L135.304 319.837L135.941 317.028ZM147.525 306.634L135.588 303.928C138.084 303.017 139.919 301.107 140.516 298.474C141.607 293.664 138.67 289.196 133.298 287.978C127.927 286.761 123.35 289.525 122.259 294.335C121.663 296.968 122.495 299.483 124.354 301.38L121.194 300.664L120.557 303.473L146.889 309.443L147.525 306.634ZM137.882 298.209C137.117 301.579 133.903 303.545 129.971 302.654C126.039 301.762 123.987 298.603 124.751 295.232C125.515 291.862 128.729 289.896 132.661 290.787C136.594 291.679 138.646 294.839 137.882 298.209Z" fill="#FF6262"/>
<path d="M1131.35 503.962L1107.45 506.149L1130.2 499.834L1128.9 495.151L1102.89 502.37L1105.17 510.592L1125.9 508.312L1106.99 517.148L1109.24 525.265L1135.26 518.046L1134.02 513.605L1111.27 519.92L1132.88 509.477L1131.35 503.962ZM1125.86 481.227L1106.19 480.633L1107.56 485.558L1122.14 485.472L1109.57 492.808L1110.94 497.734L1129.34 485.828C1131.05 486.326 1132.09 487.382 1132.54 489.012C1132.78 489.88 1132.84 490.76 1132.83 491.547L1136.86 490.43C1136.9 489.634 1136.77 488.511 1136.46 487.366C1135.13 482.579 1131.33 481.279 1125.86 481.227ZM1118.8 458.745L1101.45 463.558L1105.34 477.573C1113.01 475.445 1115.78 474.937 1117.02 474.966C1118.11 474.965 1118.72 475.429 1118.95 476.262L1119.03 476.539L1123.4 475.327L1123.17 474.494C1122.21 471.025 1120.53 469.697 1115.76 470.274C1114.06 470.483 1111.7 470.99 1108.25 471.873L1107 467.398L1120.19 463.74L1118.8 458.745ZM1107.4 441.225C1103.9 442.197 1102.29 445.444 1103.49 449.746L1104.38 452.972L1098.94 454.483L1100.3 459.409L1117.65 454.596L1115.38 446.409C1114.12 441.899 1111.04 440.214 1107.4 441.225ZM1107.39 449.523C1106.86 447.615 1107.34 446.546 1108.84 446.132C1110.26 445.737 1111.4 446.354 1111.93 448.262L1112.6 450.69L1108.06 451.951L1107.39 449.523ZM1110.79 429.87L1097.6 433.528L1096.21 428.498L1092.05 429.653L1096.23 444.743L1100.4 443.588L1099 438.558L1112.18 434.9L1110.79 429.87ZM1104 405.42L1086.66 410.233L1088.37 416.407L1102.4 418.903L1090.02 422.339L1091.33 427.057L1108.67 422.244L1106.96 416.069L1092.96 413.564L1105.31 410.137L1104 405.42ZM1101.45 396.211L1088.26 399.869L1086.66 394.076L1099.84 390.418L1098.43 385.353L1081.09 390.166L1085.5 406.054L1102.84 401.241L1101.45 396.211ZM1093.06 365.992L1075.72 370.805L1079.61 384.82C1087.27 382.692 1090.04 382.184 1091.29 382.214C1092.37 382.212 1092.98 382.677 1093.21 383.509L1093.29 383.787L1097.66 382.574L1097.43 381.741C1096.47 378.272 1094.79 376.944 1090.02 377.521C1088.32 377.731 1085.96 378.237 1082.51 379.12L1081.26 374.645L1094.45 370.988L1093.06 365.992ZM1080.06 347.422C1079.6 347.512 1079.14 347.603 1078.65 347.737C1073.35 349.21 1070.66 353.917 1072.07 359.017C1073.49 364.116 1078.22 366.763 1083.53 365.29C1088.83 363.817 1091.52 359.11 1090.11 354.011C1088.93 349.744 1086.08 347.285 1081.96 347.268L1083.38 352.367C1084.66 352.535 1085.53 353.412 1085.98 355.008C1086.61 357.298 1085.76 359.066 1083.58 360.083L1080.06 347.422ZM1076.2 357.871C1075.61 355.755 1076.37 354.05 1078.44 353.027L1080.62 360.867C1078.32 361.057 1076.8 360.022 1076.2 357.871ZM1067.72 341.978L1069.11 347.008L1086.46 342.195L1085.06 337.165L1075.97 339.687L1083.32 330.886L1081.66 324.92L1074.12 334.634L1064.43 330.149L1066.13 336.254L1075.21 339.899L1067.72 341.978ZM1067.83 314.928L1066.41 309.794C1062.09 311.478 1060.08 315.809 1061.44 320.7C1062.85 325.799 1067.61 328.551 1072.92 327.078C1078.23 325.605 1080.89 320.794 1079.48 315.695C1078.08 310.665 1073.96 307.923 1069.21 308.98L1070.61 314.045C1072.92 313.741 1074.47 315.028 1075 316.936C1075.65 319.261 1074.33 321.382 1071.56 322.152C1068.85 322.903 1066.55 321.748 1065.91 319.458C1065.38 317.55 1065.92 315.72 1067.83 314.928ZM1071.13 286.955L1053.78 291.768L1055.5 297.943L1069.53 300.438L1057.14 303.875L1058.45 308.592L1075.8 303.779L1074.08 297.605L1060.09 295.1L1072.44 291.673L1071.13 286.955ZM1077.24 275.34L1066.49 278.324C1067.66 276.617 1068.07 274.597 1067.5 272.55C1066.2 267.833 1061.65 265.469 1056.24 266.971C1050.83 268.472 1048.16 272.838 1049.47 277.556C1050.05 279.672 1051.49 281.216 1053.48 282.047L1051.26 282.663L1052.62 287.589L1078.64 280.369L1077.24 275.34ZM1063.3 274.764C1063.95 277.122 1062.64 279.392 1059.9 280.153C1057.16 280.913 1054.87 279.644 1054.21 277.286C1053.56 274.927 1054.88 272.692 1057.62 271.931C1060.36 271.171 1062.64 272.405 1063.3 274.764ZM1062.18 253.359C1060.74 248.191 1056 245.36 1050.66 246.843C1045.31 248.325 1042.71 253.196 1044.14 258.365C1045.57 263.534 1050.32 266.364 1055.66 264.881C1061 263.399 1063.61 258.528 1062.18 253.359ZM1057.7 254.601C1058.36 256.96 1057.01 259.239 1054.31 259.99C1051.6 260.741 1049.27 259.482 1048.62 257.123C1047.96 254.764 1049.31 252.485 1052.01 251.734C1054.72 250.983 1057.05 252.242 1057.7 254.601ZM1058.46 241.312L1055.75 231.529C1054.73 227.852 1052.43 226.173 1049 227.126C1046.92 227.704 1045.84 229.199 1045.68 231.072C1044.65 229.902 1043.26 229.352 1041.49 229.843C1038.44 230.69 1037.56 233.29 1038.42 236.412L1041.12 246.125L1058.46 241.312ZM1042.25 237.143C1041.8 235.513 1042.13 234.709 1043.38 234.363C1044.46 234.064 1045.27 234.55 1045.72 236.18L1046.64 239.511L1043.17 240.473L1042.25 237.143ZM1048.83 234.869C1048.41 233.343 1048.91 232.456 1050.16 232.11C1051.4 231.763 1052.32 232.255 1052.75 233.781L1053.79 237.528L1049.87 238.615L1048.83 234.869ZM1052.13 217.151C1051.47 214.758 1050.04 212.986 1047.62 212.463L1050.25 211.732L1048.91 206.875L1036.97 210.187C1032.81 211.342 1032.23 215.427 1033.33 219.416C1034.45 223.44 1037.3 226.834 1041.84 225.573L1040.46 220.613C1038.76 221.085 1037.54 220.304 1037.05 218.535C1036.61 216.974 1037.02 215.592 1038.23 215.255C1041.63 214.312 1041.43 226.248 1048.75 224.217C1052.18 223.264 1052.93 220.03 1052.13 217.151ZM1046.94 219.302C1044.93 219.861 1044.22 216.097 1042.48 214.002L1043.38 213.751C1045.7 213.106 1047.42 214.573 1048 216.655C1048.33 217.869 1048.05 218.994 1046.94 219.302ZM1046.44 198.002L1039.82 199.84L1038.09 193.596L1044.71 191.758L1043.32 186.728L1025.97 191.541L1027.37 196.571L1033.96 194.742L1035.69 200.986L1029.1 202.815L1030.49 207.845L1047.84 203.032L1046.44 198.002ZM1037.49 165.746L1020.15 170.559L1021.86 176.734L1035.89 179.229L1023.51 182.666L1024.82 187.383L1042.16 182.57L1040.45 176.396L1026.45 173.891L1038.8 170.464L1037.49 165.746ZM1024.49 147.146C1024.03 147.236 1023.56 147.327 1023.08 147.462C1017.77 148.935 1015.08 153.642 1016.5 158.741C1017.91 163.84 1022.64 166.487 1027.95 165.014C1033.26 163.542 1035.95 158.835 1034.53 153.735C1033.35 149.468 1030.5 147.009 1026.39 146.992L1027.8 152.092C1029.08 152.26 1029.96 153.137 1030.4 154.732C1031.04 157.022 1030.18 158.791 1028 159.808L1024.49 147.146ZM1020.62 157.595C1020.04 155.479 1020.8 153.774 1022.87 152.751L1025.04 160.591C1022.74 160.781 1021.22 159.746 1020.62 157.595Z" fill="#FF6262"/>
</svg>
