<svg width="424" height="704" viewBox="0 0 424 704" fill="none" xmlns="http://www.w3.org/2000/svg">
<path d="M50.5501 702.566H1.74304V1.93774H50.5501M50.5501 702.566V668.41M50.5501 702.566H139.161M50.5501 1.93774H422.12V74.5185M50.5501 1.93774V74.5185M50.5501 74.5185H422.12M50.5501 74.5185V116.564M422.12 74.5185V116.564M50.5501 116.564H422.12M50.5501 116.564V154.717M422.12 116.564V154.717M50.5501 154.717H422.12M50.5501 154.717V167.521M422.12 154.717V167.521M50.5501 167.521V208.062M50.5501 167.521H139.161M422.12 167.521V208.062M422.12 167.521H139.161M50.5501 208.062H422.12M50.5501 208.062V248.602M422.12 208.062V248.602M50.5501 248.602H422.12M50.5501 248.602V288.076M422.12 248.602V288.076M50.5501 288.076H422.12M50.5501 288.076V328.083M422.12 288.076V328.083M50.5501 328.083H422.12M50.5501 328.083V369.69M422.12 328.083V369.69M50.5501 369.69H422.12M50.5501 369.69V410.231M422.12 369.69V410.231M50.5501 410.231H422.12M50.5501 410.231V450.771M422.12 410.231V450.771M50.5501 450.771H422.12M50.5501 450.771V490.245M422.12 450.771V490.245M50.5501 490.245H422.12M50.5501 490.245V529.719M422.12 490.245V529.719M50.5501 529.719H422.12M50.5501 529.719V572.393M422.12 529.719V572.393M50.5501 572.393H422.12M50.5501 572.393V612.4M422.12 572.393V612.4M50.5501 612.4H422.12M50.5501 612.4V657.483M422.12 612.4V657.483M50.5501 657.483H422.12M50.5501 657.483V668.41M422.12 657.483V668.41M50.5501 668.41H422.12M422.12 668.41V702.566H139.161M139.161 702.566V167.521" stroke="#FF6262" stroke-width="2"/>
</svg>
