<svg width="1012" height="576" viewBox="0 0 1012 576" fill="none" xmlns="http://www.w3.org/2000/svg">
<path d="M315.642 49.7703H53.2371V173.653H1.43188V327.941H259.332M315.642 49.7703V1.34186H405.739V49.7703H598.319V327.941M315.642 49.7703V327.941M598.319 327.941H315.642M598.319 327.941H1010.51V339.058M315.642 327.941H259.332M259.332 327.941V339.058M279.604 464.209H259.332V339.058M279.604 464.209H323.526M279.604 464.209V554.893M547.64 464.209V520.519H427.137V554.893M547.64 464.209H509.349M547.64 464.209H598.319M323.526 464.209V381.996H397.855M323.526 464.209H397.855M1010.51 381.996V464.209H892.259M1010.51 381.996H892.259M1010.51 381.996V339.058M397.855 381.996V464.209M397.855 381.996H446.282M397.855 464.209H446.282M446.282 381.996V464.209M446.282 381.996H509.349M446.282 464.209H509.349M509.349 381.996V464.209M509.349 381.996H598.319M598.319 381.996V464.209M598.319 381.996H689.542M598.319 464.209H689.542M689.542 381.996V464.209M689.542 381.996H770.629M689.542 464.209H770.629M770.629 381.996V464.209M770.629 381.996H843.832M770.629 464.209H843.832M843.832 381.996V464.209M843.832 381.996H892.259M843.832 464.209H892.259M892.259 381.996V464.209M259.332 339.058H1010.51M279.604 554.893V574.577H427.137V554.893M279.604 554.893H427.137" stroke="#48494B" stroke-width="2"/>
<path d="M427.11 117.275L432.883 123.049L438.657 117.275L432.883 111.502L427.11 117.275ZM669.62 116.275L432.883 116.275L432.883 118.275L669.62 118.275L669.62 116.275Z" fill="#FF6262"/>
<path d="M376.926 498.307L371.153 492.534L365.379 498.307L371.153 504.081L376.926 498.307ZM371.153 497.307L90.8558 497.307V499.307L371.153 499.307V497.307Z" fill="#FF6262"/>
<path d="M239.166 116.593L233.393 122.366L239.166 128.14L244.94 122.366L239.166 116.593ZM238.166 122.366L238.166 413.401L240.166 413.401L240.166 122.366L238.166 122.366Z" fill="#FF6262"/>
<path d="M240.176 412.838H159.756" stroke="#FF6262" stroke-width="2"/>
<path d="M644.801 407.627L650.574 401.853L644.801 396.08L639.027 401.853L644.801 407.627ZM644.801 205.916L644.801 204.916L643.801 204.916L643.801 205.916L644.801 205.916ZM669.62 204.916L644.801 204.916L644.801 206.916L669.62 206.916L669.62 204.916ZM643.801 205.916L643.801 401.853L645.801 401.853L645.801 205.916L643.801 205.916Z" fill="#FF6262"/>
<path d="M362.039 434.545L363.911 416.545H355.559L349.799 434.545H354.767L355.463 432.145H357.455L357.119 434.545H362.039ZM356.639 428.065L359.231 419.065L358.007 428.065H356.639Z" fill="#48494B"/>
<path d="M412.463 434.545H417.407C420.527 434.545 422.375 433.393 423.095 430.081L423.359 428.857C424.055 425.641 422.351 424.129 419.399 424.129H416.255L417.575 417.865H424.439L424.727 416.545H416.303L412.463 434.545ZM418.895 425.449C421.367 425.449 422.303 426.673 421.775 429.025L421.607 429.817C421.031 432.289 419.759 433.225 417.311 433.225H414.311L415.967 425.449H418.895Z" fill="#48494B"/>
<path d="M466.2 434.545H472.92C476.16 434.545 478.464 433.201 479.064 429.529L479.16 428.929C479.496 426.985 478.728 425.689 477.312 424.993C478.8 424.393 479.88 423.241 480.192 421.369L480.24 421.081C480.768 418.081 478.944 416.545 475.584 416.545H470.016L466.2 434.545ZM474.744 420.193C475.632 420.193 476.016 420.601 475.824 421.585L475.776 421.921C475.56 422.977 474.936 423.409 474.072 423.409H473.064L473.76 420.193H474.744ZM473.472 427.081C474.36 427.081 474.768 427.537 474.552 428.785L474.504 429.073C474.312 430.273 473.664 430.897 472.608 430.897H471.456L472.272 427.081H473.472Z" fill="#48494B"/>
<path d="M550.056 434.545L553.344 419.089H558.48L559.056 416.545H550.848L547.008 434.545H550.056Z" fill="#48494B"/>
<path d="M633.33 437.785H634.266L634.938 434.545H646.362L645.69 437.785H646.65L647.514 433.681H645.858L649.482 416.545H640.842C637.842 430.753 636.81 432.601 635.01 433.681H634.194L633.33 437.785ZM637.77 431.641C638.85 429.265 639.858 425.329 641.562 417.409H648.282L644.85 433.681H636.258C636.93 433.201 637.386 432.457 637.77 431.641Z" fill="#48494B"/>
<path d="M732.173 431.521H727.085L728.069 426.841H732.701L733.349 423.841H728.717L729.605 419.569H734.717L735.341 416.545H726.629L722.813 434.545H731.525L732.173 431.521Z" fill="#48494B"/>
<path d="M807.682 413.833C808.138 413.833 808.45 413.497 808.45 413.065C808.45 412.633 808.138 412.297 807.682 412.297C807.25 412.297 806.914 412.633 806.914 413.065C806.914 413.497 807.25 413.833 807.682 413.833ZM812.458 413.833C812.914 413.833 813.226 413.497 813.226 413.065C813.226 412.633 812.914 412.297 812.458 412.297C812.026 412.297 811.69 412.633 811.69 413.065C811.69 413.497 812.026 413.833 812.458 413.833ZM809.122 434.089H802.33L804.178 425.401H810.49L810.586 424.969H804.274L805.954 417.001H812.77L812.866 416.545H805.546L801.73 434.545H809.026L809.122 434.089Z" fill="#48494B"/>
<path d="M945.867 426.145C947.907 426.145 948.627 427.321 948.171 429.385L948.123 429.673C947.523 432.337 946.371 433.033 944.547 433.033C942.771 433.033 941.595 431.977 942.123 429.505L942.315 428.665H940.227L940.035 429.505C939.219 433.249 941.451 434.785 944.523 434.785C947.355 434.785 949.443 433.537 950.187 429.769L950.283 429.313C950.715 427.249 950.067 425.857 948.675 425.185C950.139 424.609 951.123 423.433 951.507 421.417L951.579 421.129C952.155 418.129 950.619 416.305 947.643 416.305C944.691 416.305 942.795 417.889 942.075 421.057L941.907 421.825H943.995L944.139 421.129C944.667 418.873 945.795 418.057 947.451 418.057C949.155 418.057 949.875 419.137 949.467 421.177L949.419 421.417C949.011 423.457 947.907 424.393 946.371 424.393H944.859L944.475 426.145H945.867Z" fill="#48494B"/>
<path d="M873.719 416.545H868.679L866.903 424.873L867.191 416.545H861.839L862.391 425.113L857.999 434.545H863.399L866.639 426.145L864.839 434.545H869.879L871.655 426.241L871.319 434.545H876.815L876.359 425.017L880.535 416.545H875.207L871.967 424.777L873.719 416.545Z" fill="#48494B"/>
</svg>
