<svg width="428" height="907" viewBox="0 0 428 907" fill="none" xmlns="http://www.w3.org/2000/svg">
<path fill-rule="evenodd" clip-rule="evenodd" d="M427.668 0.937012L427.668 551.524L167.138 551.524L167.138 906.453L41.6201 906.453L41.6202 499.476L11.8205 499.476L11.8205 506.45L0.0118798 506.45L0.0118897 279.39L8.67562 279.39L8.67562 281.738L2.35958 281.738L2.35957 504.102L9.47279 504.102L9.4728 279.39L41.6202 279.39L41.6202 237.325L164.79 237.325L164.79 0.937L427.668 0.937012ZM164.79 239.672L135.795 239.672L135.795 305.593C140.214 306.12 143.128 308.586 144.937 311.491C146.863 314.586 147.553 318.192 147.608 320.591L147.636 321.792L135.795 321.792L135.795 343.38C140.214 343.908 143.128 346.373 144.937 349.279C146.863 352.374 147.553 355.98 147.608 358.379L147.636 359.58L135.795 359.58L135.795 418.539C140.214 419.067 143.128 421.532 144.937 424.437C146.863 427.533 147.553 431.139 147.608 433.538L147.636 434.739L135.795 434.739L135.795 470.071C140.214 470.598 143.128 473.064 144.937 475.969C146.863 479.064 147.553 482.67 147.608 485.069L147.636 486.27L135.795 486.27L135.795 535.325C140.214 535.852 143.128 538.318 144.937 541.223C146.863 544.318 147.553 547.924 147.608 550.323L147.636 551.524L135.795 551.524L135.795 585.932C140.214 586.46 143.128 588.925 144.937 591.83C146.863 594.926 147.553 598.532 147.608 600.931L147.636 602.132L135.795 602.132L135.795 651.329C140.214 651.857 143.128 654.322 144.937 657.227C146.863 660.322 147.553 663.929 147.608 666.328L147.636 667.529L135.795 667.529L135.795 701.55C140.214 702.078 143.128 704.543 144.937 707.448C146.863 710.544 147.553 714.15 147.608 716.549L147.636 717.75L135.795 717.75L135.795 765.791C140.214 766.319 143.128 768.784 144.937 771.69C146.863 774.785 147.553 778.391 147.608 780.79L147.636 781.991L135.795 781.991L135.795 904.105L164.79 904.105L164.79 239.672ZM133.447 904.105L133.447 842.871L43.9679 842.871L43.9679 904.105L133.447 904.105ZM43.9679 840.523L133.447 840.523L133.447 790.184L43.9679 790.184L43.9679 840.523ZM43.9679 787.836L118.11 787.836L118.11 779.799L133.447 779.799L133.447 725.942L43.9679 725.942L43.9679 787.836ZM43.9679 723.595L118.11 723.595L118.11 715.557L133.447 715.557L133.447 675.566L43.9679 675.566L43.9679 723.595ZM43.9679 673.218L118.11 673.218L118.11 665.181L133.447 665.181L133.447 610.169L43.9679 610.169L43.9679 673.218ZM43.9679 607.822L118.11 607.822L118.11 599.784L133.447 599.784L133.447 559.562L43.9679 559.562L43.9679 607.822ZM43.9679 557.214L118.11 557.214L118.11 549.177L133.447 549.177L133.447 494.308L43.9679 494.308L43.9679 557.214ZM43.9679 491.96L118.11 491.96L118.11 483.923L133.447 483.923L133.447 442.776L43.9679 442.776L43.9679 491.96ZM43.9679 440.428L118.11 440.428L118.11 432.391L133.447 432.391L133.447 367.905L43.9679 367.905L43.9679 440.428ZM43.9679 365.557L118.11 365.557L118.11 357.52L133.447 357.52L133.447 329.83L43.9679 329.83L43.9679 365.557ZM43.9679 327.482L118.11 327.482L118.11 319.445L133.447 319.445L133.447 287.65L43.9679 287.65L43.9679 327.482ZM43.9679 285.303L133.447 285.303L133.447 239.672L43.9679 239.672L43.9679 285.303ZM135.795 319.445L145.18 319.445C144.963 317.453 144.305 314.919 142.943 312.732C141.486 310.39 139.24 308.458 135.795 307.961L135.795 319.445ZM133.447 321.792L120.458 321.792L120.458 327.482L133.447 327.482L133.447 321.792ZM133.447 359.867L120.458 359.867L120.458 365.557L133.447 365.557L133.447 359.867ZM135.795 432.391L145.18 432.391C144.963 430.399 144.305 427.865 142.943 425.678C141.486 423.337 139.24 421.405 135.795 420.907L135.795 432.391ZM133.447 434.739L120.458 434.739L120.458 440.428L133.447 440.428L133.447 434.739ZM135.795 483.923L145.18 483.923C144.963 481.931 144.305 479.397 142.943 477.21C141.486 474.868 139.24 472.936 135.795 472.439L135.795 483.923ZM133.447 486.27L120.458 486.27L120.458 491.96L133.447 491.96L133.447 486.27ZM135.795 549.177L145.18 549.177C144.963 547.185 144.305 544.651 142.943 542.464C141.486 540.122 139.24 538.191 135.795 537.693L135.795 549.177ZM133.447 551.524L120.458 551.524L120.458 557.214L133.447 557.214L133.447 551.524ZM135.795 599.784L145.18 599.784C144.962 597.793 144.305 595.258 142.943 593.071C141.486 590.73 139.24 588.798 135.795 588.3L135.795 599.784ZM133.447 602.132L120.458 602.132L120.458 607.822L133.447 607.822L133.447 602.132ZM135.795 665.181L145.18 665.181C144.962 663.189 144.305 660.655 142.943 658.468C141.486 656.127 139.24 654.195 135.795 653.697L135.795 665.181ZM133.447 667.529L120.458 667.529L120.458 673.218L133.447 673.218L133.447 667.529ZM133.447 717.905L120.458 717.905L120.458 723.595L133.447 723.595L133.447 717.905ZM133.447 782.146L120.458 782.146L120.458 787.836L133.447 787.836L133.447 782.146ZM135.795 768.159L135.795 779.643L145.18 779.643C144.962 777.652 144.305 775.117 142.943 772.93C141.486 770.589 139.24 768.657 135.795 768.159ZM135.795 703.918L135.795 715.402L145.18 715.402C144.962 713.41 144.305 710.876 142.943 708.689C141.486 706.348 139.24 704.416 135.795 703.918ZM135.795 345.748L135.795 357.232L145.18 357.232C144.963 355.241 144.305 352.706 142.943 350.519C141.486 348.178 139.24 346.246 135.795 345.748ZM41.6202 281.738L11.8205 281.738L11.8205 497.128L41.6202 497.128L41.6202 281.738ZM167.138 549.177L425.32 549.177L425.32 284.593L366.405 284.593L366.405 282.245L425.32 282.245L425.32 3.28471L167.138 3.2847L167.138 282.434L248.589 282.434L248.589 284.782L167.138 284.782L167.138 549.177ZM371.6 414.836L371.6 436.104L364.309 436.104L364.309 448.079L371.6 448.079L371.6 469.346L364.309 469.346L364.309 481.786L371.6 481.786L371.6 503.054L364.309 503.054L364.309 510.482L357.066 510.482L357.066 520.06L334.554 520.06L334.554 510.482L306.984 510.482L306.984 520.06L284.472 520.06L284.472 510.482L260.46 510.482L260.46 520.06L237.948 520.06L237.948 510.482L228.825 510.482L228.825 503.054L220.755 503.054L220.755 481.786L228.825 481.786L228.825 469.489L221.929 469.489L221.929 468.172L220.755 468.172L220.755 448.079L228.825 448.079L228.825 436.104L220.755 436.104L220.755 414.836L228.825 414.836L228.825 363.969L240.982 363.969L240.982 499.411L351.217 499.411L351.217 363.969L364.309 363.969L364.309 414.836L371.6 414.836ZM364.309 417.184L364.309 433.756L369.253 433.756L369.253 417.184L364.309 417.184ZM228.047 417.184L223.102 417.184L223.102 433.756L228.047 433.756L228.047 417.184ZM228.047 450.427L223.102 450.427L223.102 467.141L228.047 467.141L228.047 450.427ZM228.047 484.134L223.102 484.134L223.102 500.706L228.047 500.706L228.047 484.134ZM240.296 510.482L240.296 517.713L258.113 517.713L258.113 510.482L240.296 510.482ZM286.819 510.482L286.819 517.713L304.636 517.713L304.636 510.482L286.819 510.482ZM336.902 510.482L336.902 517.713L354.719 517.713L354.719 510.482L336.902 510.482ZM361.961 366.317L353.564 366.317L353.564 501.759L238.635 501.759L238.635 366.317L231.172 366.317L231.172 508.134L361.961 508.134L361.961 366.317ZM364.309 500.706L369.253 500.706L369.253 484.134L364.309 484.134L364.309 500.706ZM364.309 466.999L369.253 466.999L369.253 450.427L364.309 450.427L364.309 466.999ZM325.29 433.756L325.29 351.369L327.638 351.369L327.638 436.104L265.262 436.104L265.262 351.369L267.61 351.369L267.61 433.756L325.29 433.756ZM156.706 894.896L156.706 842.831L159.053 842.831L159.053 897.243L140.902 897.243L140.902 862.661L143.25 862.661L143.25 894.896L156.706 894.896Z" fill="#48494B"/>
</svg>
