<svg width="1012" height="577" viewBox="0 0 1012 577" fill="none" xmlns="http://www.w3.org/2000/svg">
<path d="M315.821 50.3621H53.4162V174.244H1.61096V328.532H259.511M315.821 50.3621V1.93365H405.918V50.3621H598.499V328.532M315.821 50.3621V328.532M598.499 328.532H315.821M598.499 328.532H1010.69V339.65M315.821 328.532H259.511M259.511 328.532V339.65M279.783 464.801H259.511V339.65M279.783 464.801H323.705M279.783 464.801V555.485M547.819 464.801V521.111H427.316V555.485M547.819 464.801H509.528M547.819 464.801H598.499M323.705 464.801V382.588H398.034M323.705 464.801H398.034M1010.69 382.588V464.801H892.438M1010.69 382.588H892.438M1010.69 382.588V339.65M398.034 382.588V464.801M398.034 382.588H446.461M398.034 464.801H446.461M446.461 382.588V464.801M446.461 382.588H509.528M446.461 464.801H509.528M509.528 382.588V464.801M509.528 382.588H598.499M598.499 382.588V464.801M598.499 382.588H689.721M598.499 464.801H689.721M689.721 382.588V464.801M689.721 382.588H770.808M689.721 464.801H770.808M770.808 382.588V464.801M770.808 382.588H844.011M770.808 464.801H844.011M844.011 382.588V464.801M844.011 382.588H892.438M844.011 464.801H892.438M892.438 382.588V464.801M259.511 339.65H1010.69M279.783 555.485V575.169H427.316V555.485M279.783 555.485H427.316" stroke="#48494B" stroke-width="2"/>
<path d="M421.243 186.896C421.243 166.016 405.979 156.08 386.251 156.08C366.667 156.08 352.267 167.888 352.267 191.072L352.267 196.832L381.067 196.832L381.067 191.072C381.067 184.16 383.227 181.856 386.827 181.856C389.995 181.856 392.299 184.016 392.299 188.912C392.299 203.024 352.843 221.888 352.843 255.008L352.843 266.96L421.243 266.96L421.243 241.04L386.971 241.04C395.755 225.92 421.243 212.24 421.243 186.896Z" fill="#48494B"/>
<path d="M474.122 260.258C474.482 257.234 476.642 256.046 479.27 256.046C481.934 256.046 484.022 257.666 484.526 260.69L476.786 260.69V263.426L484.526 263.426C484.058 266.486 481.97 268.142 479.27 268.142C476.606 268.142 474.41 266.81 474.014 263.534H470.306C470.558 268.286 474.338 271.454 479.27 271.454C484.382 271.454 488.234 267.602 488.234 262.094C488.234 256.586 484.382 252.734 479.27 252.734C474.482 252.734 470.81 255.758 470.342 260.258H474.122ZM498.988 271.094L498.988 256.406H504.82V253.094L489.556 253.094V256.406L495.388 256.406L495.388 271.094H498.988ZM513.139 271.454C515.731 271.454 518.035 270.446 519.223 268.07V271.094H522.751V258.494C522.751 254.318 519.151 252.734 515.263 252.734C511.303 252.734 507.559 254.498 507.559 259.142L511.303 259.142C511.303 256.802 512.923 255.614 515.263 255.614C517.459 255.614 519.151 256.586 519.151 258.35C519.151 262.454 507.019 258.566 507.019 266.342C507.019 269.906 509.935 271.454 513.139 271.454ZM510.691 266.126C510.691 263.102 516.163 263.858 519.223 262.382V263.678C519.223 266.81 516.631 268.43 513.859 268.43C512.023 268.43 510.691 267.674 510.691 266.126ZM541.463 253.094H537.863L537.863 261.014L530.951 253.094L526.163 253.094L533.903 261.302L525.515 271.094H530.051L537.863 261.698V271.094H541.463V261.626L549.275 271.094H553.703L545.459 261.302L553.019 253.094H548.411L541.463 261.05L541.463 253.094Z" fill="#48494B"/>
<path d="M427.289 117.867L433.062 123.641L438.836 117.867L433.062 112.094L427.289 117.867ZM669.799 116.867L433.062 116.867L433.062 118.867L669.799 118.867L669.799 116.867Z" fill="#FF6262"/>
<path d="M377.105 498.899L371.332 493.125L365.558 498.899L371.332 504.672L377.105 498.899ZM371.332 497.899L91.0349 497.899V499.899L371.332 499.899V497.899Z" fill="#FF6262"/>
<path d="M239.345 117.185L233.572 122.958L239.345 128.732L245.119 122.958L239.345 117.185ZM238.345 122.958L238.345 413.993L240.345 413.993L240.345 122.958L238.345 122.958Z" fill="#FF6262"/>
<path d="M240.355 413.43H159.935" stroke="#FF6262" stroke-width="2"/>
<path d="M644.98 408.218L650.753 402.445L644.98 396.671L639.206 402.445L644.98 408.218ZM644.98 206.508L644.98 205.508L643.98 205.508L643.98 206.508L644.98 206.508ZM669.799 205.508L644.98 205.508L644.98 207.508L669.799 207.508L669.799 205.508ZM643.98 206.508L643.98 402.445L645.98 402.445L645.98 206.508L643.98 206.508Z" fill="#FF6262"/>
</svg>
