<svg width="70" height="677" viewBox="0 0 70 677" fill="none" xmlns="http://www.w3.org/2000/svg">
<path d="M7.97368 675.436L7.97368 1.74561M7.97368 675.436H61.2888M7.97368 675.436H1.22656L1.22656 1.74561H7.97368M7.97368 1.74561L61.2888 1.74561M61.2888 1.74561V675.436M61.2888 1.74561H68.4188V675.436H61.2888" stroke="#48494B" stroke-width="2"/>
<path d="M43.3242 473.699H34.6122V461.531H43.3242V460.307H25.3242V461.531H33.4602V473.699H25.3242V474.959H43.3242V473.699ZM43.3242 439.246H25.3242V440.686L41.8842 452.782H25.3242V454.006H43.3242V452.566L26.8002 440.506H43.3242V439.246ZM25.3242 422.002V423.262H33.6402L25.3242 432.406V434.278L33.8202 424.774L43.3242 435.466V433.666L33.9642 423.262H43.3242V422.002H34.0002L43.3242 411.634V409.798L33.8202 420.49L25.3242 411.058V412.858L33.6402 422.002H25.3242ZM43.3242 404.757H34.6122V392.589H43.3242V391.365H25.3242V392.589H33.4602V404.757H25.3242V406.017H43.3242V404.757ZM43.3242 370.304H25.3242V371.744L41.8842 383.84H25.3242V385.064H43.3242V383.624L26.8002 371.564H43.3242V370.304ZM16.3242 352.989C19.4562 352.989 20.7882 354.609 20.7882 356.661C20.7882 358.569 19.4562 360.297 16.3242 360.297V361.341C19.7082 361.341 21.7242 359.469 21.7242 356.661C21.7242 353.817 19.7082 351.909 16.3242 351.909V352.989ZM43.3242 349.281H25.3242V350.721L41.8842 362.817H25.3242V364.041H43.3242V362.601L26.8002 350.541H43.3242V349.281ZM52.3242 333.461H38.6802C41.7402 332.129 43.6842 329.321 43.6842 325.901C43.6842 320.969 39.8322 317.261 34.3242 317.261C28.8162 317.261 24.9642 320.969 24.9642 325.901C24.9642 329.321 26.9082 332.129 29.9682 333.461H25.3242V334.721H52.3242V333.461ZM42.5322 326.009C42.5322 330.257 39.2562 333.461 34.3242 333.461C29.3922 333.461 26.1162 330.257 26.1162 326.009C26.1162 321.761 29.3922 318.557 34.3242 318.557C39.2562 318.557 42.5322 321.761 42.5322 326.009ZM34.8282 296.912H34.3242C28.8162 296.912 24.9642 300.548 24.9642 305.516C24.9642 310.484 28.8162 314.12 34.3242 314.12C39.8322 314.12 43.6842 310.484 43.6842 305.516C43.6842 301.664 41.4522 298.568 37.9242 297.38V298.748C40.7682 299.792 42.5682 302.348 42.5682 305.48C42.5682 309.656 39.5082 312.68 34.8282 312.896L34.8282 296.912ZM26.0802 305.516C26.0802 301.376 29.1402 298.352 33.8202 298.136V312.896C29.1402 312.68 26.0802 309.656 26.0802 305.516ZM43.3242 290.921H26.4762V281.165H25.3242V292.181H43.3242V290.921ZM43.3242 261.953H25.3242V263.393L41.8842 275.489H25.3242V276.713H43.3242V275.273L26.8002 263.213H43.3242V261.953ZM32.4882 241.217V239.921C27.9882 240.461 24.9642 244.061 24.9642 248.525C24.9642 253.529 28.8162 257.237 34.3242 257.237C39.8322 257.237 43.6842 253.529 43.6842 248.525C43.6842 243.953 40.4802 240.245 35.7642 239.849V241.181C39.9402 241.541 42.5322 244.709 42.5322 248.525C42.5322 252.773 39.2562 256.013 34.3242 256.013C29.3922 256.013 26.1162 252.773 26.1162 248.525C26.1162 244.817 28.5642 241.757 32.4882 241.217ZM43.3242 229.876H26.4762L26.4762 222.64H25.3242L25.3242 238.372H26.4762V231.136H43.3242V229.876ZM52.3242 217.269H38.6802C41.7402 215.937 43.6842 213.129 43.6842 209.709C43.6842 204.777 39.8322 201.069 34.3242 201.069C28.8162 201.069 24.9642 204.777 24.9642 209.709C24.9642 213.129 26.9082 215.937 29.9682 217.269H25.3242V218.529H52.3242V217.269ZM42.5322 209.817C42.5322 214.065 39.2562 217.269 34.3242 217.269C29.3922 217.269 26.1162 214.065 26.1162 209.817C26.1162 205.569 29.3922 202.365 34.3242 202.365C39.2562 202.365 42.5322 205.569 42.5322 209.817Z" fill="#FF6262"/>
</svg>
