<svg width="422" height="187" viewBox="0 0 422 187" fill="none" xmlns="http://www.w3.org/2000/svg">
<path d="M7.24195 18.8339V22.4756H10.1801C12.0423 22.4756 12.7458 23.0135 12.7458 24.0895C12.7458 25.1654 11.9596 25.8276 10.6353 25.8276C9.10417 25.8276 7.94546 25.0413 7.94546 23.5101H0.289673C0.289673 29.0554 4.84176 31.5798 10.8422 31.5798C16.7186 31.5798 20.7741 29.1382 20.7741 24.8344C20.7741 22.8894 19.7395 21.6065 17.96 20.7789C19.4498 19.8271 20.2775 18.2959 20.2775 16.3509C20.2775 12.3368 16.3875 10.0608 10.6767 10.0608C4.46932 10.0608 0.537969 13.2886 0.537969 17.9235H8.19375C8.19375 16.7234 9.14555 15.8544 10.4698 15.8544C11.6285 15.8544 12.3734 16.3509 12.3734 17.2614C12.3734 18.1304 11.794 18.8339 10.5112 18.8339H7.24195Z" fill="#48494B"/>
<path d="M33.816 31.5798C40.3545 31.5798 45.1963 27.3173 45.1963 20.8203C45.1963 14.3232 40.3545 10.0608 33.816 10.0608C27.2776 10.0608 22.4358 14.3232 22.4358 20.8203C22.4358 27.3173 27.2776 31.5798 33.816 31.5798ZM33.816 23.8826C32.078 23.8826 30.9193 22.6411 30.9193 20.8203C30.9193 18.9994 32.078 17.758 33.816 17.758C35.5955 17.758 36.7128 18.9994 36.7128 20.8203C36.7128 22.6411 35.5955 23.8826 33.816 23.8826Z" fill="#48494B"/>
<path d="M56.1659 31.1659V23.924H59.8903V31.1659H68.9945V10.4746H59.8903V17.7993H56.1659V10.4746H47.0617V31.1659H56.1659Z" fill="#48494B"/>
<path d="M76.8507 31.5798C79.8303 31.5798 82.2305 30.4624 83.4306 27.8139V31.1659H91.9554V17.5097C91.9554 12.1299 87.1964 10.0608 81.8994 10.0608C76.6024 10.0608 71.2641 12.2541 71.2641 17.8821H79.3337C79.3337 16.6406 79.7061 15.813 81.2373 15.813C82.2718 15.813 82.8926 16.3923 82.8926 17.4683C82.8926 21.1513 70.6433 17.4683 70.6433 25.7448C70.6433 29.6348 73.8712 31.5798 76.8507 31.5798ZM79.2923 24.7516C79.2923 23.0549 81.6097 23.386 83.0167 22.2273V23.7998C83.0167 25.4551 82.396 26.2828 80.989 26.2828C80.2027 26.2828 79.2923 25.7862 79.2923 24.7516Z" fill="#48494B"/>
<path d="M15.2288 70.8518H22.2638C21.7259 65.4307 17.5462 61.789 11.5044 61.789C5.29697 61.789 0.703499 66.217 0.703499 72.5485C0.703499 78.8801 5.29697 83.308 11.5044 83.308C17.7118 83.308 22.0155 79.4594 22.3052 73.79H15.3529C15.0633 76.066 13.4907 77.1834 11.5457 77.1834C9.06279 77.1834 7.49025 75.4039 7.49025 72.5485C7.49025 69.7759 9.14555 67.9137 11.5457 67.9137C13.408 67.9137 14.9805 68.8655 15.2288 70.8518Z" fill="#48494B"/>
<path d="M45.656 74.2038C45.6974 73.6659 45.7388 73.1279 45.7388 72.5485C45.7388 66.217 41.3108 61.789 35.0621 61.789C28.8133 61.789 24.3853 66.217 24.3853 72.5485C24.3853 78.8801 28.8133 83.308 35.0621 83.308C40.3176 83.308 43.9593 80.825 45.2836 76.066H38.4968C38.0002 77.3489 36.8415 77.8455 35.1862 77.8455C32.8274 77.8455 31.4204 76.6454 31.0066 74.2038H45.656ZM35.0621 67.2515C37.1726 67.2515 38.621 68.3275 39.0762 70.6863H31.0479C31.5032 68.4103 32.9102 67.2515 35.0621 67.2515Z" fill="#48494B"/>
<path d="M55.8943 62.2029H48.8593V82.8942H55.8943V72.0933L62.0189 82.8942H69.9644L62.7224 71.514L69.592 62.2029H61.481L55.8943 70.976V62.2029Z" fill="#48494B"/>
<path d="M79.2933 62.2029H72.2582V82.8942H88.7285V88.4808H94.8117V77.5558H92.1219V62.2029H85.0868V77.5558H79.2933V62.2029Z" fill="#48494B"/>
<path d="M118.495 82.8942V62.2029H110.177L104.135 76.066V62.2029H97.597V82.8942H105.956L111.998 68.9069V82.8942H118.495Z" fill="#48494B"/>
<path d="M122.616 69.1138C122.616 72.1761 124.313 74.1211 126.755 75.0315L121.292 82.8942H128.865L134.576 74.0383V82.8942H141.404V62.2029H130.52C126.01 62.2029 122.616 64.3548 122.616 69.1138ZM132.631 71.7209C130.603 71.7209 129.444 70.9346 129.444 69.1551C129.444 67.4998 130.562 66.5894 132.631 66.5894H134.576V71.7209H132.631Z" fill="#48494B"/>
<path d="M6.45568 113.931H2.89678V134.622H30.6231V113.931H27.3125V131.602H18.4153V113.931H15.1046V131.602H6.45568V113.931Z" fill="#48494B"/>
<path d="M40.3965 113.931H37.0859V134.622H40.3965V123.78L51.2802 134.622H55.5839L44.2037 123.449L54.5908 113.931H50.1628L40.3965 123.201V113.931Z" fill="#48494B"/>
<path d="M64.586 135.036C67.6897 135.036 70.5451 133.753 71.9521 130.815V134.622H75.2213V120.056C75.2213 115.338 71.1658 113.517 66.7792 113.517C62.3099 113.517 58.0889 115.545 58.0889 120.801H61.4823C61.4823 117.738 63.7169 116.166 66.7792 116.166C69.7174 116.166 71.9107 117.49 71.9107 119.932C71.9107 125.229 57.4681 120.221 57.4681 129.243C57.4681 133.215 60.7788 135.036 64.586 135.036ZM60.8615 129.036C60.8615 124.691 68.3518 126.139 71.9521 124.111V126.098C71.9521 130.112 68.6828 132.264 65.2067 132.264C62.641 132.264 60.8615 131.188 60.8615 129.036Z" fill="#48494B"/>
<path d="M90.9386 132.015C86.2624 131.808 83.0345 129.077 83.0345 124.277C83.0345 119.476 86.2624 116.745 90.9386 116.538V132.015ZM94.2492 116.538C98.9254 116.745 102.153 119.476 102.153 124.277C102.153 129.077 98.9254 131.808 94.2492 132.015V116.538ZM94.2492 144.968V135.036C100.87 134.829 105.464 130.774 105.464 124.277C105.464 117.78 100.87 113.724 94.2492 113.517V103.585H90.9386V113.517C84.3174 113.724 79.7239 117.78 79.7239 124.277C79.7239 130.774 84.3174 134.829 90.9386 135.036V144.968H94.2492Z" fill="#48494B"/>
<path d="M4.71761 186.351V166.984H18.2497V186.351H19.6981V165.659H3.26922V186.351H4.71761Z" fill="#48494B"/>
<path d="M35.473 186.765C41.3079 186.765 45.6531 182.337 45.6531 176.005C45.6531 169.674 41.3079 165.246 35.473 165.246C29.638 165.246 25.2928 169.674 25.2928 176.005C25.2928 182.337 29.638 186.765 35.473 186.765ZM35.473 185.44C30.5071 185.44 26.6999 181.674 26.6999 176.005C26.6999 170.336 30.5071 166.57 35.473 166.57C40.4389 166.57 44.2461 170.336 44.2461 176.005C44.2461 181.674 40.4389 185.44 35.473 185.44Z" fill="#48494B"/>
<path d="M67.0579 186.351V165.659H53.2361C53.1534 173.439 52.7809 178.033 52.1602 181.136C51.5808 184.24 50.2152 185.026 48.8496 185.026H48.2288V186.351H48.891C51.1256 186.351 52.8223 185.275 53.5672 181.095C54.0638 178.033 54.3948 173.563 54.519 166.984H65.6095V186.351H67.0579Z" fill="#48494B"/>
<path d="M75.7227 165.659H74.2743V186.351H75.7227V175.591L88.841 186.351H90.9515L77.5022 175.426L89.5031 165.659H87.3926L75.7227 175.26V165.659Z" fill="#48494B"/>
<path d="M100.646 186.765C103.956 186.765 107.432 185.151 108.881 181.633V186.351H110.329V171.618C110.329 166.984 106.439 165.246 102.26 165.246C97.9558 165.246 93.9417 167.191 93.9417 172.363H95.3487C95.3487 168.432 98.2869 166.487 102.26 166.487C106.067 166.487 108.881 168.142 108.881 171.577C108.881 178.157 93.321 172.032 93.321 181.136C93.321 184.944 96.5488 186.765 100.646 186.765ZM94.7694 181.095C94.7694 174.557 105.57 177.867 108.881 174.433V177.826C108.881 182.833 104.908 185.523 100.811 185.523C97.211 185.523 94.7694 184.075 94.7694 181.095Z" fill="#48494B"/>
<path d="M396.791 31.1666L400.019 0.129639H385.618L375.686 31.1666H384.252L385.452 27.0283H388.887L388.308 31.1666H396.791ZM387.48 19.9933L391.949 4.47481L389.839 19.9933H387.48Z" fill="#48494B"/>
<path d="M417.887 31.1666L421.114 0.129639H406.713L396.781 31.1666H405.348L406.548 27.0283H409.982L409.403 31.1666H417.887ZM408.575 19.9933L413.045 4.47481L410.934 19.9933H408.575Z" fill="#48494B"/>
<path d="M331.162 73.1699L330.872 74.6183C329.796 80.4119 333.479 83.5156 339.066 83.5156C344.363 83.5156 348.749 81.1982 349.908 74.8252L350.239 73.2527C350.777 70.1904 349.825 67.9557 347.797 66.5901C349.908 65.3486 351.563 63.3209 352.184 60.5482L352.432 59.3481C353.632 53.9684 349.991 51.2372 345.025 51.2372C339.976 51.2372 336.086 53.7615 335.051 59.0999L334.803 60.3827C334.307 62.9484 334.969 64.8934 336.417 66.2177C333.81 67.4591 331.782 69.7352 331.162 73.1699ZM341.259 60.093C341.714 58.1481 342.707 57.3618 344.032 57.3618C345.48 57.3618 346.308 58.1894 345.852 60.093L345.687 60.8793C345.19 63.114 344.156 63.9416 342.831 63.9416C341.383 63.9416 340.597 63.114 341.135 60.8793L341.259 60.093ZM337.948 72.963C338.486 70.4801 339.81 69.611 341.466 69.611C343.204 69.611 344.114 70.5215 343.576 72.963L343.369 73.9562C342.831 76.4392 341.507 77.391 339.769 77.391C338.114 77.391 337.203 76.3978 337.741 73.9562L337.948 72.963Z" fill="#48494B"/>
<path d="M363.722 69.8593C365.708 69.8593 366.784 70.7697 366.287 73.1286L366.122 74.039C365.542 76.6461 364.26 77.5979 362.728 77.5979C360.825 77.5979 359.956 76.6047 360.452 74.1631L360.783 72.5078H354.038L353.707 74.1631C352.548 80.2464 356.314 83.5156 362.356 83.5156C367.156 83.5156 371.253 81.2809 372.577 75.1149L372.991 73.2113C373.653 70.1904 372.66 67.9971 370.715 66.6729C372.991 65.39 374.688 63.3623 375.226 60.5482L375.391 59.6792C376.385 54.1753 372.784 51.2372 367.363 51.2372C362.604 51.2372 358.507 53.596 357.266 59.5964L356.935 61.3345H363.68L364.011 59.8861C364.425 57.8998 365.418 57.1135 366.742 57.1135C368.149 57.1135 368.936 58.1067 368.563 60.0517L368.356 61.0862C367.86 63.445 366.577 64.3141 364.922 64.3141H362.853L361.694 69.8593H363.722Z" fill="#48494B"/>
<path d="M374.763 82.8949H387.964C392.557 82.8949 395.413 80.7843 395.619 76.6047C395.744 74.5769 394.709 72.8803 393.012 72.0112C395.164 71.2663 396.737 69.7352 396.861 67.335C397.109 63.9416 394.626 62.2035 389.991 62.2035H379.149L374.763 82.8949ZM387.674 66.466C389.329 66.466 390.157 67.0453 390.033 68.3696C389.991 69.611 389.205 70.3973 387.508 70.3973H384.322L385.15 66.466H387.674ZM386.226 74.2045C387.881 74.2045 388.833 74.908 388.667 76.315C388.584 77.7634 387.757 78.6738 385.688 78.6738H382.584L383.536 74.2045H386.226Z" fill="#48494B"/>
<path d="M410.271 53.5132C409.567 56.6997 407.994 58.0239 404.932 58.0239H403.649L402.532 63.1967H407.788L403.608 82.8949H410.809L417.388 51.8579H410.602L410.271 53.5132Z" fill="#48494B"/>
<path d="M351.242 109.835C351.242 105.324 348.386 103.172 344.083 103.172C339.324 103.172 336.22 105.945 335.061 111.283L334.689 113.063H338.124L338.455 111.573C339.241 107.807 341.186 106.193 344.041 106.193C346.317 106.193 347.89 107.435 347.89 110C347.89 117.325 332.454 123.036 330.302 133.051L329.971 134.623H346.524L347.145 131.602H334.44C337.379 123.657 351.242 118.567 351.242 109.835Z" fill="#48494B"/>
<path d="M368.159 124.815C367.042 130.154 365.221 132.016 361.993 132.016C359.014 132.016 357.234 129.988 358.145 125.809L358.186 125.478H354.586L354.462 126.098C353.344 131.478 356.448 135.037 361.662 135.037C366.628 135.037 370.063 132.637 371.677 125.105L373.911 114.47C375.525 106.773 372.008 103.172 367.083 103.172C362.241 103.172 358.227 105.945 357.069 112.649L356.945 113.435C355.993 119.146 358.6 122.746 362.904 122.746C365.18 122.746 367.538 121.712 369.359 119.105L368.159 124.815ZM370.559 113.352C369.69 117.698 367.414 119.725 364.476 119.725C361.248 119.725 359.717 117.408 360.545 113.311L360.669 112.608C361.579 108.055 363.814 106.193 366.752 106.193C369.732 106.193 371.553 108.345 370.684 112.649L370.559 113.352Z" fill="#48494B"/>
<path d="M379.697 113.146L377.421 123.905C375.972 130.94 378.621 135.037 384.828 135.037C389.794 135.037 392.857 132.471 394.388 125.064L396.664 114.304C398.112 107.269 395.422 103.172 389.256 103.172C384.29 103.172 381.228 105.821 379.697 113.146ZM383.214 113.394C384.332 108.097 386.194 106.193 389.256 106.193C392.65 106.193 394.305 108.552 393.188 113.766L390.87 124.815C389.753 130.112 387.891 132.016 384.87 132.016C381.435 132.016 379.78 129.657 380.897 124.443L383.214 113.394Z" fill="#48494B"/>
<path d="M399.304 125.105L398.642 128.126H409.36L407.994 134.623H411.595L412.96 128.126H417.14L417.761 125.105H413.623L418.216 103.586H412.712L399.304 125.105ZM402.325 125.105L414.036 106.235L410.022 125.105H402.325Z" fill="#48494B"/>
<path d="M389.215 158.915C388.801 160.86 387.808 161.605 385.821 161.605H382.263L381.973 163.012H388.222L383.297 186.351H385.035L391.615 155.314H389.96L389.215 158.915Z" fill="#48494B"/>
<path d="M404.518 164.915C405.801 158.791 408.201 156.39 412.34 156.39C416.395 156.39 418.713 159.039 417.637 164.253L417.595 164.501H419.333L419.416 164.17C420.533 158.708 417.968 154.901 412.505 154.901C407.539 154.901 404.353 157.549 402.822 164.874L400.38 176.544C399.056 182.875 401.911 186.765 407.001 186.765C411.595 186.765 415.402 183.827 416.643 177.371L416.685 176.999C417.761 171.412 415.402 167.564 410.519 167.564C407.829 167.564 404.932 168.847 402.987 172.24L404.518 164.915ZM402.035 176.833C402.987 171.992 406.215 169.053 409.939 169.053C414.119 169.053 415.981 172.157 415.03 176.916L414.947 177.413C413.871 182.792 410.808 185.275 407.084 185.275C403.277 185.275 400.918 182.42 401.953 177.33L402.035 176.833Z" fill="#48494B"/>
</svg>
