<svg width="37" height="274" viewBox="0 0 37 274" fill="none" xmlns="http://www.w3.org/2000/svg">
<path d="M27.3242 272.699H18.6122V260.531H27.3242V259.307H9.32422V260.531H17.4602V272.699H9.32422V273.959H27.3242V272.699ZM27.3242 238.246H9.32422V239.686L25.8842 251.782H9.32422V253.006L27.3242 253.006V251.566L10.8002 239.506H27.3242V238.246ZM9.32422 221.002V222.262H17.6402L9.32422 231.406V233.278L17.8202 223.774L27.3242 234.466V232.666L17.9642 222.262H27.3242V221.002H18.0002L27.3242 210.634V208.798L17.8202 219.49L9.32422 210.058V211.858L17.6402 221.002H9.32422ZM27.3242 203.757H18.6122V191.589H27.3242V190.365H9.32422V191.589H17.4602V203.757H9.32422V205.017H27.3242V203.757ZM27.3242 169.304H9.32422V170.744L25.8842 182.84H9.32422V184.064H27.3242V182.624L10.8002 170.564H27.3242V169.304ZM0.324216 151.989C3.45622 151.989 4.78822 153.609 4.78822 155.661C4.78822 157.569 3.45622 159.297 0.324216 159.297V160.341C3.70822 160.341 5.72422 158.469 5.72422 155.661C5.72422 152.817 3.70822 150.909 0.324216 150.909V151.989ZM27.3242 148.281H9.32422V149.721L25.8842 161.817H9.32422V163.041H27.3242V161.601L10.8002 149.541H27.3242V148.281ZM36.3242 132.461H22.6802C25.7402 131.129 27.6842 128.321 27.6842 124.901C27.6842 119.969 23.8322 116.261 18.3242 116.261C12.8162 116.261 8.96422 119.969 8.96422 124.901C8.96422 128.321 10.9082 131.129 13.9682 132.461H9.32422V133.721H36.3242V132.461ZM26.5322 125.009C26.5322 129.257 23.2562 132.461 18.3242 132.461C13.3922 132.461 10.1162 129.257 10.1162 125.009C10.1162 120.761 13.3922 117.557 18.3242 117.557C23.2562 117.557 26.5322 120.761 26.5322 125.009ZM18.8282 95.9121H18.3242C12.8162 95.9121 8.96422 99.5481 8.96422 104.516C8.96422 109.484 12.8162 113.12 18.3242 113.12C23.8322 113.12 27.6842 109.484 27.6842 104.516C27.6842 100.664 25.4522 97.5681 21.9242 96.3801V97.7481C24.7682 98.7921 26.5682 101.348 26.5682 104.48C26.5682 108.656 23.5082 111.68 18.8282 111.896L18.8282 95.9121ZM10.0802 104.516C10.0802 100.376 13.1402 97.3521 17.8202 97.1361L17.8202 111.896C13.1402 111.68 10.0802 108.656 10.0802 104.516ZM27.3242 89.9215H10.4762V80.1655H9.32422V91.1815H27.3242V89.9215ZM27.3242 60.9527H9.32422V62.3927L25.8842 74.4887H9.32422V75.7127H27.3242V74.2727L10.8002 62.2127H27.3242V60.9527ZM16.4882 40.2173V38.9213C11.9882 39.4613 8.96422 43.0613 8.96422 47.5253C8.96422 52.5293 12.8162 56.2373 18.3242 56.2373C23.8322 56.2373 27.6842 52.5293 27.6842 47.5253C27.6842 42.9533 24.4802 39.2453 19.7642 38.8493V40.1813C23.9402 40.5413 26.5322 43.7093 26.5322 47.5253C26.5322 51.7733 23.2562 55.0133 18.3242 55.0133C13.3922 55.0133 10.1162 51.7733 10.1162 47.5253C10.1162 43.8173 12.5642 40.7573 16.4882 40.2173ZM27.3242 28.8759H10.4762L10.4762 21.6399H9.32422L9.32422 37.3719H10.4762V30.1359H27.3242V28.8759ZM36.3242 16.2691H22.6802C25.7402 14.9371 27.6842 12.1291 27.6842 8.70915C27.6842 3.77715 23.8322 0.0691484 18.3242 0.0691484C12.8162 0.0691484 8.96422 3.77715 8.96422 8.70915C8.96422 12.1291 10.9082 14.9371 13.9682 16.2691H9.32422V17.5291H36.3242V16.2691ZM26.5322 8.81715C26.5322 13.0651 23.2562 16.2691 18.3242 16.2691C13.3922 16.2691 10.1162 13.0651 10.1162 8.81715C10.1162 4.56915 13.3922 1.36515 18.3242 1.36515C23.2562 1.36515 26.5322 4.56915 26.5322 8.81715Z" fill="#FF6262"/>
</svg>
