<svg width="424" height="703" viewBox="0 0 424 703" fill="none" xmlns="http://www.w3.org/2000/svg">
<path d="M115.594 33.9551V34.5742C115.594 36.8032 114.572 37.8402 112.916 37.8402C111.229 37.8402 110.238 36.8032 110.238 34.5742V30.1783C110.238 27.9494 111.26 26.9123 112.916 26.9123C114.603 26.9123 115.594 27.9494 115.594 30.1783V30.6581H116.135V30.1783C116.135 27.6553 114.928 26.417 112.916 26.417C110.903 26.417 109.696 27.6553 109.696 30.1783V34.5742C109.696 37.0972 110.903 38.3355 112.916 38.3355C114.928 38.3355 116.135 37.0972 116.135 34.5742V33.9551H115.594Z" fill="#48494B"/>
<path d="M121.743 38.3355C123.756 38.3355 124.963 37.0972 124.963 34.5742V30.1783C124.963 27.6553 123.756 26.417 121.743 26.417C119.731 26.417 118.524 27.6553 118.524 30.1783V34.5742C118.524 37.0972 119.731 38.3355 121.743 38.3355ZM121.743 37.8402C120.056 37.8402 119.066 36.8032 119.066 34.5742V30.1783C119.066 27.9494 120.087 26.9123 121.743 26.9123C123.431 26.9123 124.421 27.9494 124.421 30.1783V34.5742C124.421 36.8032 123.4 37.8402 121.743 37.8402Z" fill="#48494B"/>
<path d="M127.506 38.1807H130.602C132.351 38.1807 133.62 37.2675 133.62 35.441V34.4504C133.62 32.5775 132.351 31.5869 130.602 31.5869H128.048V27.0671H132.754V26.5718H127.506V38.1807ZM130.432 32.0822C132.088 32.0822 133.063 32.8406 133.063 34.6052V35.2862C133.063 36.9889 132.088 37.6854 130.447 37.6854H128.048V32.0822H130.432Z" fill="#48494B"/>
<path d="M141.457 33.9551V34.5742C141.457 36.8032 140.435 37.8402 138.779 37.8402C137.092 37.8402 136.101 36.8032 136.101 34.5742V30.1783C136.101 27.9494 137.123 26.9123 138.779 26.9123C140.466 26.9123 141.457 27.9494 141.457 30.1783V30.6581H141.998V30.1783C141.998 27.6553 140.791 26.417 138.779 26.417C136.767 26.417 135.559 27.6553 135.559 30.1783V34.5742C135.559 37.0972 136.767 38.3355 138.779 38.3355C140.791 38.3355 141.998 37.0972 141.998 34.5742V33.9551H141.457Z" fill="#48494B"/>
<path d="M146.742 38.1807V27.0671H149.683V26.5718H143.274V27.0671H146.215V38.1807H146.742Z" fill="#48494B"/>
<path d="M151.178 38.1807H154.258C156.162 38.1807 157.462 37.1282 157.462 35.2089V34.8993C157.462 33.305 156.533 32.4072 155.171 32.1131C156.348 31.8036 157.152 30.9677 157.152 29.5282V29.3734C157.152 27.5469 155.852 26.5718 153.948 26.5718H151.178V38.1807ZM153.794 27.0671C155.589 27.0671 156.611 27.841 156.611 29.3889V29.5437C156.611 31.2463 155.496 31.9119 153.917 31.9119H151.719V27.0671H153.794ZM154.103 32.4072C155.759 32.4072 156.92 33.1192 156.92 34.9612V35.116C156.92 36.8341 155.899 37.6854 154.103 37.6854H151.719V32.4072H154.103Z" fill="#48494B"/>
<path d="M164.486 37.6854H160.23V32.4072H164.177V31.9119H160.23V27.0671H164.486V26.5718H159.688V38.1807H164.486V37.6854Z" fill="#48494B"/>
<path d="M167.259 38.1807V32.4072H172.614V38.1807H173.156V26.5718H172.614V31.9119H167.259V26.5718H166.717V38.1807H167.259Z" fill="#48494B"/>
<path d="M176.388 38.1807V32.4072H181.744V38.1807H182.286V26.5718H181.744V31.9119H176.388V26.5718H175.847V38.1807H176.388Z" fill="#48494B"/>
<path d="M188.041 38.3355C190.054 38.3355 191.261 37.0972 191.261 34.5742V30.1783C191.261 27.6553 190.054 26.417 188.041 26.417C186.029 26.417 184.822 27.6553 184.822 30.1783V34.5742C184.822 37.0972 186.029 38.3355 188.041 38.3355ZM188.041 37.8402C186.354 37.8402 185.364 36.8032 185.364 34.5742V30.1783C185.364 27.9494 186.385 26.9123 188.041 26.9123C189.729 26.9123 190.719 27.9494 190.719 30.1783V34.5742C190.719 36.8032 189.698 37.8402 188.041 37.8402Z" fill="#48494B"/>
<path d="M199.547 33.9551V34.5742C199.547 36.8032 198.525 37.8402 196.869 37.8402C195.182 37.8402 194.191 36.8032 194.191 34.5742V30.1783C194.191 27.9494 195.213 26.9123 196.869 26.9123C198.556 26.9123 199.547 27.9494 199.547 30.1783V30.6581H200.089V30.1783C200.089 27.6553 198.881 26.417 196.869 26.417C194.857 26.417 193.65 27.6553 193.65 30.1783V34.5742C193.65 37.0972 194.857 38.3355 196.869 38.3355C198.881 38.3355 200.089 37.0972 200.089 34.5742V33.9551H199.547Z" fill="#48494B"/>
<path d="M204.832 38.1807V27.0671H207.773V26.5718H201.365V27.0671H204.306V38.1807H204.832Z" fill="#48494B"/>
<path d="M209.81 26.5718H209.268V38.1807H212.348C214.159 38.1807 215.397 37.1282 215.397 35.2708V34.2801C215.397 32.3453 214.159 31.2463 212.348 31.2463H209.81V26.5718ZM212.178 31.7416C213.865 31.7416 214.856 32.5775 214.856 34.4349V35.116C214.856 36.927 213.865 37.6854 212.178 37.6854H209.81V31.7416H212.178Z" fill="#48494B"/>
<path d="M220.877 38.1807H223.973C225.722 38.1807 226.991 37.2675 226.991 35.441V34.4504C226.991 32.5775 225.722 31.5869 223.973 31.5869H221.419V27.0671H226.124V26.5718H220.877V38.1807ZM223.802 32.0822C225.459 32.0822 226.434 32.8406 226.434 34.6052V35.2862C226.434 36.9889 225.459 37.6854 223.818 37.6854H221.419V32.0822H223.802Z" fill="#48494B"/>
<path d="M234.982 26.5718L229.596 37.5152V26.5718H229.085V38.1807H229.766L235.137 27.2683V38.1807H235.663V26.5718H234.982Z" fill="#48494B"/>
<path d="M238.336 38.1807H241.431C243.18 38.1807 244.45 37.2675 244.45 35.441V34.4504C244.45 32.5775 243.18 31.5869 241.431 31.5869H238.877V27.0671H243.583V26.5718H238.336V38.1807ZM241.261 32.0822C242.917 32.0822 243.892 32.8406 243.892 34.6052V35.2862C243.892 36.9889 242.917 37.6854 241.277 37.6854H238.877V32.0822H241.261Z" fill="#48494B"/>
<path d="M252.828 38.1807V26.5718H247.317C247.317 32.175 247.178 35.1005 246.807 36.4317C246.544 37.3604 246.141 37.6545 245.553 37.6545H245.336V38.1807H245.584C246.482 38.1807 247.008 37.7783 247.302 36.5245C247.689 34.9457 247.813 32.1286 247.813 27.0671H252.286V38.1807H252.828Z" fill="#48494B"/>
<path d="M261.42 26.5718L256.033 37.5152V26.5718H255.522V38.1807H256.203L261.574 27.2683V38.1807H262.101V26.5718H261.42Z" fill="#48494B"/>
<path d="M267.838 38.3355C269.85 38.3355 271.058 37.0972 271.058 34.5742V30.1783C271.058 27.6553 269.85 26.417 267.838 26.417C265.826 26.417 264.618 27.6553 264.618 30.1783V34.5742C264.618 37.0972 265.826 38.3355 267.838 38.3355ZM267.838 37.8402C266.151 37.8402 265.16 36.8032 265.16 34.5742V30.1783C265.16 27.9494 266.182 26.9123 267.838 26.9123C269.525 26.9123 270.516 27.9494 270.516 30.1783V34.5742C270.516 36.8032 269.494 37.8402 267.838 37.8402Z" fill="#48494B"/>
<path d="M275.801 38.1807V27.0671H278.742V26.5718H272.333V27.0671H275.274V38.1807H275.801Z" fill="#48494B"/>
<path d="M285.035 37.6854H280.779V32.4072H284.726V31.9119H280.779V27.0671H285.035V26.5718H280.237V38.1807H285.035V37.6854Z" fill="#48494B"/>
<path d="M287.807 26.5718H287.266V38.1807H287.807V33.8777L289.185 32.0822L293.055 38.1807H293.705L289.572 31.6488L293.411 26.5718H292.792L287.807 33.0883V26.5718Z" fill="#48494B"/>
<path d="M301.19 26.5718L295.803 37.5152V26.5718H295.292V38.1807H295.973L301.344 27.2683V38.1807H301.871V26.5718H301.19Z" fill="#48494B"/>
<path d="M310.142 26.5718L306.891 38.1807H307.448L308.424 34.6207H312.696L313.671 38.1807H314.228L310.978 26.5718H310.142ZM308.563 34.1408L310.56 26.9123L312.556 34.1408H308.563Z" fill="#48494B"/>
<path d="M318.032 26.5718L314.782 38.1807H315.339L316.314 34.6207H320.586L321.561 38.1807H322.119L318.868 26.5718H318.032ZM316.453 34.1408L318.45 26.9123L320.447 34.1408H316.453Z" fill="#48494B"/>
<path d="M330.312 38.1807V26.5718H324.801C324.801 32.175 324.662 35.1005 324.291 36.4317C324.027 37.3604 323.625 37.6545 323.037 37.6545H322.82V38.1807H323.068C323.965 38.1807 324.492 37.7783 324.786 36.5245C325.173 34.9457 325.297 32.1286 325.297 27.0671H329.77V38.1807H330.312Z" fill="#48494B"/>
<path d="M335.282 38.1807V27.0671H338.222V26.5718H331.814V27.0671H334.755V38.1807H335.282Z" fill="#48494B"/>
<path d="M342.707 38.3355C344.719 38.3355 345.926 37.0972 345.926 34.5742V30.1783C345.926 27.6553 344.719 26.417 342.707 26.417C340.695 26.417 339.487 27.6553 339.487 30.1783V34.5742C339.487 37.0972 340.695 38.3355 342.707 38.3355ZM342.707 37.8402C341.02 37.8402 340.029 36.8032 340.029 34.5742V30.1783C340.029 27.9494 341.051 26.9123 342.707 26.9123C344.394 26.9123 345.385 27.9494 345.385 30.1783V34.5742C345.385 36.8032 344.363 37.8402 342.707 37.8402Z" fill="#48494B"/>
<path d="M90.3776 185.348C92.026 185.348 92.6529 183.979 92.6529 182.469C92.6529 181.007 92.026 179.59 90.3776 179.59C88.7059 179.59 88.0558 181.007 88.0558 182.469C88.0558 183.979 88.7059 185.348 90.3776 185.348ZM82.8782 179.799H81.6244V197.213H82.3209V180.473L85.8268 197.213H86.9645V179.799H86.2912V196.307L82.8782 179.799ZM90.3776 184.768C89.0541 184.768 88.6826 183.607 88.6826 182.469C88.6826 181.378 89.0541 180.148 90.3776 180.148C91.6545 180.148 92.026 181.378 92.026 182.469C92.026 183.607 91.6545 184.768 90.3776 184.768ZM88.2647 187.183H92.4207V186.602H88.2647V187.183Z" fill="#48494B"/>
<path d="M68.2087 87.7666L63.3329 105.18H64.1687L65.6315 99.8399H72.0396L73.5023 105.18H74.3382L69.4624 87.7666H68.2087ZM65.8404 99.1202L68.8355 88.2774L71.8307 99.1202H65.8404Z" fill="#48494B"/>
<path d="M76.7706 105.18H82.0875C84.3629 105.18 85.9185 104.135 85.9185 102.162C85.9185 100.49 84.8505 99.4684 83.2252 99.1434C84.479 98.7487 85.2684 97.8664 85.2684 96.4965C85.2684 94.5927 83.7128 93.5711 81.4839 93.5711H76.7706V105.18ZM81.2517 94.2444C83.2484 94.2444 84.4558 94.9409 84.4558 96.543C84.4558 98.1682 83.2484 98.9112 81.2517 98.9112H77.56V94.2444H81.2517ZM81.9018 99.5845C83.8753 99.5845 85.1059 100.374 85.1059 102.139C85.1059 103.787 83.8753 104.507 81.9018 104.507H77.56V99.5845H81.9018Z" fill="#48494B"/>
<path d="M92.5799 105.18V94.3141H97.2467V93.5711H87.1004V94.3141H91.7672V105.18H92.5799Z" fill="#48494B"/>
<path d="M103.908 105.412C107.182 105.412 109.62 102.928 109.62 99.3756C109.62 95.8232 107.182 93.3389 103.908 93.3389C100.635 93.3389 98.1966 95.8232 98.1966 99.3756C98.1966 102.928 100.635 105.412 103.908 105.412ZM103.908 104.669C101.122 104.669 98.986 102.556 98.986 99.3756C98.986 96.1947 101.122 94.0819 103.908 94.0819C106.694 94.0819 108.83 96.1947 108.83 99.3756C108.83 102.556 106.694 104.669 103.908 104.669Z" fill="#48494B"/>
<path d="M113.476 110.985V102.185C114.335 104.158 116.146 105.412 118.352 105.412C121.532 105.412 123.924 102.928 123.924 99.3756C123.924 95.8232 121.532 93.3389 118.352 93.3389C116.146 93.3389 114.335 94.5927 113.476 96.5662V93.5711H112.663V110.985H113.476ZM118.282 104.669C115.542 104.669 113.476 102.556 113.476 99.3756C113.476 96.1947 115.542 94.0819 118.282 94.0819C121.022 94.0819 123.088 96.1947 123.088 99.3756C123.088 102.556 121.022 104.669 118.282 104.669Z" fill="#48494B"/>
<path d="M126.739 95.1267C127.296 95.1267 127.667 94.732 127.667 94.2444C127.667 93.7336 127.296 93.3389 126.739 93.3389C126.251 93.3389 125.856 93.7336 125.856 94.2444C125.856 94.732 126.251 95.1267 126.739 95.1267ZM126.739 105.412C127.296 105.412 127.667 105.018 127.667 104.53C127.667 104.019 127.296 103.624 126.739 103.624C126.251 103.624 125.856 104.019 125.856 104.53C125.856 105.018 126.251 105.412 126.739 105.412Z" fill="#48494B"/>
<path d="M65.7471 139.457V130.797H73.7805V139.457H74.5931V122.043H73.7805V130.054H65.7471V122.043H64.9344V139.457H65.7471Z" fill="#48494B"/>
<path d="M82.0657 139.689C83.9231 139.689 85.8734 138.784 86.686 136.81V139.457H87.4987V131.191C87.4987 128.591 85.3162 127.616 82.9712 127.616C80.5565 127.616 78.3044 128.707 78.3044 131.609H79.0938C79.0938 129.404 80.7422 128.312 82.9712 128.312C85.1072 128.312 86.686 129.241 86.686 131.168C86.686 134.86 77.9561 131.424 77.9561 136.531C77.9561 138.668 79.7671 139.689 82.0657 139.689ZM78.7687 136.508C78.7687 132.84 84.8286 134.697 86.686 132.77V134.674C86.686 137.483 84.4571 138.993 82.1585 138.993C80.1386 138.993 78.7687 138.18 78.7687 136.508Z" fill="#48494B"/>
<path d="M93.554 133.188V133.815H95.3882C97.2921 133.815 99.1031 134.535 99.1031 136.392C99.1031 138.087 97.71 139.016 95.3186 139.016C92.9271 139.016 91.1858 137.971 91.1858 135.951H90.3964C90.3964 138.366 92.4163 139.689 95.3186 139.689C98.1279 139.689 99.8925 138.551 99.8925 136.415C99.8925 134.697 98.7548 133.838 97.1528 133.49C98.6155 133.165 99.5674 132.329 99.5674 130.681C99.5674 128.777 97.8261 127.616 95.2953 127.616C92.5556 127.616 90.675 129.078 90.675 131.052H91.4876C91.4876 129.45 93.0664 128.312 95.2953 128.312C97.4314 128.312 98.8013 129.195 98.8013 130.704C98.8013 132.492 97.3385 133.188 95.365 133.188H93.554Z" fill="#48494B"/>
<path d="M103.208 139.457H108.525C110.8 139.457 112.356 138.412 112.356 136.439C112.356 134.767 111.288 133.745 109.662 133.42C110.916 133.026 111.706 132.143 111.706 130.773C111.706 128.87 110.15 127.848 107.921 127.848H103.208V139.457ZM107.689 128.521C109.686 128.521 110.893 129.218 110.893 130.82C110.893 132.445 109.686 133.188 107.689 133.188H103.997V128.521H107.689ZM108.339 133.861C110.312 133.861 111.543 134.651 111.543 136.415C111.543 138.064 110.312 138.784 108.339 138.784H103.997V133.861H108.339Z" fill="#48494B"/>
<path d="M119.16 139.689C121.017 139.689 122.968 138.784 123.78 136.81V139.457H124.593V131.191C124.593 128.591 122.41 127.616 120.065 127.616C117.651 127.616 115.399 128.707 115.399 131.609H116.188C116.188 129.404 117.837 128.312 120.065 128.312C122.201 128.312 123.78 129.241 123.78 131.168C123.78 134.86 115.05 131.424 115.05 136.531C115.05 138.668 116.861 139.689 119.16 139.689ZM115.863 136.508C115.863 132.84 121.923 134.697 123.78 132.77V134.674C123.78 137.483 121.551 138.993 119.253 138.993C117.233 138.993 115.863 138.18 115.863 136.508Z" fill="#48494B"/>
<path d="M129.302 139.457V133.838H137.149V139.457H137.939V127.848H137.149V133.095H129.302V127.848H128.489V139.457H129.302Z" fill="#48494B"/>
<path d="M151.522 139.457V127.848H150.593L142.792 138.528V127.848H142.003V139.457H142.931L150.709 128.8V139.457H151.522Z" fill="#48494B"/>
<path d="M165.661 133.977V133.652C165.661 130.1 163.316 127.616 160.112 127.616C156.908 127.616 154.563 130.1 154.563 133.652C154.563 137.205 156.908 139.689 160.112 139.689C162.597 139.689 164.593 138.25 165.359 135.974H164.477C163.804 137.808 162.155 138.969 160.135 138.969C157.442 138.969 155.492 136.996 155.353 133.977H165.661ZM160.112 128.336C162.782 128.336 164.733 130.309 164.872 133.327H155.353C155.492 130.309 157.442 128.336 160.112 128.336Z" fill="#48494B"/>
<path d="M168.503 129.404C169.061 129.404 169.432 129.009 169.432 128.521C169.432 128.01 169.061 127.616 168.503 127.616C168.016 127.616 167.621 128.01 167.621 128.521C167.621 129.009 168.016 129.404 168.503 129.404ZM168.503 139.689C169.061 139.689 169.432 139.294 169.432 138.807C169.432 138.296 169.061 137.901 168.503 137.901C168.016 137.901 167.621 138.296 167.621 138.807C167.621 139.294 168.016 139.689 168.503 139.689Z" fill="#48494B"/>
<path d="M160.571 197.213V188.553H168.605V197.213H169.417V179.8H168.605V187.81H160.571V179.8H159.759V197.213H160.571Z" fill="#48494B"/>
<path d="M176.89 197.445C178.747 197.445 180.698 196.54 181.51 194.566V197.213H182.323V188.948C182.323 186.347 180.14 185.372 177.795 185.372C175.381 185.372 173.129 186.463 173.129 189.366H173.918C173.918 187.16 175.566 186.069 177.795 186.069C179.931 186.069 181.51 186.997 181.51 188.924C181.51 192.616 172.78 189.18 172.78 194.288C172.78 196.424 174.591 197.445 176.89 197.445ZM173.593 194.265C173.593 190.596 179.653 192.454 181.51 190.526V192.43C181.51 195.24 179.281 196.749 176.983 196.749C174.963 196.749 173.593 195.936 173.593 194.265Z" fill="#48494B"/>
<path d="M194.169 197.213V185.604H193.356V191.362C192.567 191.711 191.174 191.989 190.129 191.989C187.714 191.989 186.251 190.805 186.251 188.065V185.604H185.439V188.205C185.439 191.432 187.343 192.732 190.082 192.732C191.104 192.732 192.543 192.454 193.356 192.105V197.213H194.169Z" fill="#48494B"/>
<path d="M208.222 191.734V191.409C208.222 187.856 205.877 185.372 202.673 185.372C199.469 185.372 197.124 187.856 197.124 191.409C197.124 194.961 199.469 197.445 202.673 197.445C205.158 197.445 207.154 196.006 207.921 193.731H207.038C206.365 195.565 204.717 196.726 202.697 196.726C200.003 196.726 198.053 194.752 197.914 191.734H208.222ZM202.673 186.092C205.343 186.092 207.294 188.065 207.433 191.084H197.914C198.053 188.065 200.003 186.092 202.673 186.092Z" fill="#48494B"/>
<path d="M212.086 203.018V194.218C212.945 196.192 214.756 197.445 216.962 197.445C220.143 197.445 222.534 194.961 222.534 191.409C222.534 187.856 220.143 185.372 216.962 185.372C214.756 185.372 212.945 186.626 212.086 188.599V185.604H211.273V203.018H212.086ZM216.892 196.702C214.152 196.702 212.086 194.59 212.086 191.409C212.086 188.228 214.152 186.115 216.892 186.115C219.632 186.115 221.698 188.228 221.698 191.409C221.698 194.59 219.632 196.702 216.892 196.702Z" fill="#48494B"/>
<path d="M228.919 197.213V186.347H233.586V185.604H223.44V186.347H228.107V197.213H228.919Z" fill="#48494B"/>
<path d="M239.175 197.445C241.032 197.445 242.982 196.54 243.795 194.566V197.213H244.608V188.948C244.608 186.347 242.425 185.372 240.08 185.372C237.666 185.372 235.413 186.463 235.413 189.366H236.203C236.203 187.16 237.851 186.069 240.08 186.069C242.216 186.069 243.795 186.997 243.795 188.924C243.795 192.616 235.065 189.18 235.065 194.288C235.065 196.424 236.876 197.445 239.175 197.445ZM235.878 194.265C235.878 190.596 241.938 192.454 243.795 190.526V192.43C243.795 195.24 241.566 196.749 239.268 196.749C237.248 196.749 235.878 195.936 235.878 194.265Z" fill="#48494B"/>
<path d="M249.316 197.213V191.595H257.164V197.213H257.953V185.604H257.164V190.852H249.316V185.604H248.504V197.213H249.316Z" fill="#48494B"/>
<path d="M271.537 197.213V185.604H270.608L262.807 196.285V185.604H262.017V197.213H262.946L270.724 186.556V197.213H271.537Z" fill="#48494B"/>
<path d="M285.676 191.734V191.409C285.676 187.856 283.331 185.372 280.127 185.372C276.923 185.372 274.578 187.856 274.578 191.409C274.578 194.961 276.923 197.445 280.127 197.445C282.611 197.445 284.608 196.006 285.374 193.731H284.492C283.819 195.565 282.17 196.726 280.15 196.726C277.457 196.726 275.507 194.752 275.367 191.734H285.676ZM280.127 186.092C282.797 186.092 284.747 188.065 284.887 191.084H275.367C275.507 188.065 277.457 186.092 280.127 186.092Z" fill="#48494B"/>
<path d="M257.252 136.182C257.252 131.446 250.171 133.512 250.171 130.935C250.171 130.006 251.006 129.472 252.26 129.472C253.607 129.472 254.605 130.285 254.605 131.399H257.02C257.02 129.263 254.977 127.615 252.26 127.615C249.753 127.615 247.826 128.915 247.826 131.028C247.826 135.695 254.861 133.466 254.861 136.275C254.861 137.32 254.025 137.854 252.608 137.854C251.123 137.854 250.008 137.134 250.008 135.718H247.593C247.593 138.249 249.753 139.688 252.608 139.688C255.302 139.688 257.252 138.365 257.252 136.182Z" fill="#48494B"/>
<path d="M262.961 135.486V129.89H266.305V127.847H262.961V124.411H260.64V127.847H258.736V129.89H260.64V135.625C260.64 138.783 262.265 139.688 264.494 139.688C265.167 139.688 265.887 139.549 266.305 139.409V137.343C265.91 137.482 265.446 137.552 264.935 137.552C263.588 137.552 262.961 136.925 262.961 135.486Z" fill="#48494B"/>
<path d="M271.358 127.847H269.036V139.456H271.358V133.628C271.358 131.237 272.658 130.029 274.887 130.029C275.352 130.029 275.77 130.099 276.118 130.215V127.684C275.932 127.638 275.654 127.615 275.375 127.615C273.61 127.615 272.194 128.427 271.358 129.937V127.847Z" fill="#48494B"/>
<path d="M281.54 139.688C283.212 139.688 284.698 139.038 285.464 137.506V139.456H287.739V131.33C287.739 128.636 285.417 127.615 282.91 127.615C280.356 127.615 277.941 128.752 277.941 131.748H280.356C280.356 130.238 281.401 129.472 282.91 129.472C284.326 129.472 285.417 130.099 285.417 131.237C285.417 133.884 277.593 131.376 277.593 136.391C277.593 138.69 279.474 139.688 281.54 139.688ZM279.961 136.252C279.961 134.301 283.49 134.789 285.464 133.837V134.673C285.464 136.693 283.792 137.738 282.004 137.738C280.82 137.738 279.961 137.25 279.961 136.252Z" fill="#48494B"/>
<path d="M293.934 135.486V129.89H297.277V127.847H293.934V124.411H291.612V127.847H289.708V129.89H291.612V135.625C291.612 138.783 293.237 139.688 295.466 139.688C296.14 139.688 296.859 139.549 297.277 139.409V137.343C296.883 137.482 296.418 137.552 295.907 137.552C294.561 137.552 293.934 136.925 293.934 135.486Z" fill="#48494B"/>
<path d="M304.911 139.688C308.277 139.688 310.785 137.204 310.785 133.651C310.785 130.099 308.277 127.615 304.911 127.615C301.544 127.615 299.036 130.099 299.036 133.651C299.036 137.204 301.544 139.688 304.911 139.688ZM304.911 137.552C302.891 137.552 301.358 135.996 301.358 133.651C301.358 131.306 302.891 129.751 304.911 129.751C306.93 129.751 308.463 131.306 308.463 133.651C308.463 135.996 306.93 137.552 304.911 137.552Z" fill="#48494B"/>
<path d="M322.326 136.182C322.326 131.446 315.244 133.512 315.244 130.935C315.244 130.006 316.08 129.472 317.334 129.472C318.681 129.472 319.679 130.285 319.679 131.399H322.094C322.094 129.263 320.05 127.615 317.334 127.615C314.826 127.615 312.899 128.915 312.899 131.028C312.899 135.695 319.934 133.466 319.934 136.275C319.934 137.32 319.098 137.854 317.682 137.854C316.196 137.854 315.082 137.134 315.082 135.718H312.667C312.667 138.249 314.826 139.688 317.682 139.688C320.375 139.688 322.326 138.365 322.326 136.182Z" fill="#48494B"/>
<path d="M227.971 102.306V95.2942L232.36 84.8926H230.038L226.81 92.8795L223.583 84.8926H221.261L225.65 95.2942V102.306H227.971Z" fill="#48494B"/>
<path d="M237.97 102.538C241.337 102.538 243.845 100.054 243.845 96.5015C243.845 92.9492 241.337 90.4649 237.97 90.4649C234.604 90.4649 232.096 92.9492 232.096 96.5015C232.096 100.054 234.604 102.538 237.97 102.538ZM237.97 100.402C235.951 100.402 234.418 98.8466 234.418 96.5015C234.418 94.1565 235.951 92.6009 237.97 92.6009C239.99 92.6009 241.523 94.1565 241.523 96.5015C241.523 98.8466 239.99 100.402 237.97 100.402Z" fill="#48494B"/>
<path d="M249.767 102.538C251.439 102.538 252.925 101.888 253.691 100.356V102.306H255.966V94.1798C255.966 91.4865 253.644 90.4649 251.137 90.4649C248.583 90.4649 246.168 91.6026 246.168 94.5977H248.583C248.583 93.0885 249.628 92.3223 251.137 92.3223C252.553 92.3223 253.644 92.9492 253.644 94.0869C253.644 96.7337 245.82 94.2262 245.82 99.2413C245.82 101.54 247.701 102.538 249.767 102.538ZM248.188 99.102C248.188 97.1516 251.717 97.6392 253.691 96.6873V97.5231C253.691 99.5431 252.019 100.588 250.231 100.588C249.047 100.588 248.188 100.1 248.188 99.102Z" fill="#48494B"/>
<path d="M267.129 95.9675V102.306H269.451V95.5032C269.451 92.0901 267.571 90.4649 265.04 90.4649C263.507 90.4649 262.23 91.1846 261.511 92.5313V90.6971H259.189V102.306H261.511V95.9675C261.511 93.669 262.579 92.5081 264.32 92.5081C266.061 92.5081 267.129 93.669 267.129 95.9675Z" fill="#48494B"/>
<path d="M280.711 95.9675V102.306H283.033V95.5032C283.033 92.0901 281.152 90.4649 278.621 90.4649C277.089 90.4649 275.812 91.1846 275.092 92.5313V90.6971H272.771V102.306H275.092V95.9675C275.092 93.669 276.16 92.5081 277.902 92.5081C279.643 92.5081 280.711 93.669 280.711 95.9675Z" fill="#48494B"/>
<path d="M300.154 102.306L303.684 86.6339V102.306H306.005V84.8926H301.965L298.854 99.2413L295.673 84.8926H291.703V102.306H293.839V86.5643L297.345 102.306H300.154Z" fill="#48494B"/>
<path d="M310.595 88.1663C311.5 88.1663 312.127 87.493 312.127 86.6107C312.127 85.7284 311.5 85.0783 310.595 85.0783C309.713 85.0783 309.063 85.7284 309.063 86.6107C309.063 87.493 309.713 88.1663 310.595 88.1663ZM311.756 102.306V90.6971H309.434V102.306H311.756Z" fill="#48494B"/>
<path d="M323.134 95.9675V102.306H325.455V95.5032C325.455 92.0901 323.575 90.4649 321.044 90.4649C319.512 90.4649 318.235 91.1846 317.515 92.5313V90.6971H315.193V102.306H317.515V95.9675C317.515 93.669 318.583 92.5081 320.324 92.5081C322.066 92.5081 323.134 93.669 323.134 95.9675Z" fill="#48494B"/>
<path d="M339.292 97.291C339.316 97.0356 339.339 96.7802 339.339 96.5015C339.339 92.9492 336.924 90.4649 333.627 90.4649C330.33 90.4649 327.916 92.9492 327.916 96.5015C327.916 100.054 330.33 102.538 333.627 102.538C336.297 102.538 338.317 101.215 339.037 98.8233H336.53C336.065 99.8681 335.136 100.495 333.72 100.495C331.77 100.495 330.47 99.3109 330.191 97.291H339.292ZM333.627 92.5081C335.485 92.5081 336.762 93.669 337.04 95.6193H330.214C330.493 93.669 331.747 92.5081 333.627 92.5081Z" fill="#48494B"/>
<path d="M344.897 98.3358V92.7402H348.241V90.6971H344.897V87.2608H342.576V90.6971H340.672V92.7402H342.576V98.4751C342.576 101.633 344.201 102.538 346.43 102.538C347.103 102.538 347.823 102.399 348.241 102.26V100.193C347.846 100.333 347.382 100.402 346.871 100.402C345.524 100.402 344.897 99.7753 344.897 98.3358Z" fill="#48494B"/>
<path d="M158.209 243.319V226.323H162.783V225.905H153.171V226.323H157.745V243.319H158.209Z" fill="#48494B"/>
<path d="M174.151 237.212V243.319H174.615V237.073C174.615 233.056 172.618 231.478 169.855 231.478C167.835 231.478 166.233 232.36 165.56 234.496V225.905H165.096V243.319H165.56V237.212C165.56 233.521 167.232 231.896 169.855 231.896C172.479 231.896 174.151 233.521 174.151 237.212Z" fill="#48494B"/>
<path d="M178.909 228.32C179.351 228.32 179.652 227.995 179.652 227.577C179.652 227.159 179.351 226.834 178.909 226.834C178.491 226.834 178.166 227.159 178.166 227.577C178.166 227.995 178.491 228.32 178.909 228.32ZM179.142 243.319V231.71H178.677V243.319H179.142Z" fill="#48494B"/>
<path d="M183.79 231.71H183.325V243.319H183.79V237.212C183.79 233.521 185.461 231.896 188.085 231.896C190.709 231.896 192.38 233.521 192.38 237.212V243.319H192.845V237.073C192.845 233.056 190.848 231.478 188.085 231.478C186.065 231.478 184.463 232.36 183.79 234.496V231.71Z" fill="#48494B"/>
<path d="M294.067 243.319L297.689 226.346H302.239L302.332 225.905H292.72L292.627 226.346H297.201L293.602 243.319H294.067Z" fill="#48494B"/>
<path d="M300.953 243.319H301.44L302.741 237.212C303.53 233.521 305.596 231.872 308.081 231.872C310.495 231.872 312.051 233.637 311.308 237.096L309.985 243.319H310.472L311.796 237.073C312.562 233.451 310.844 231.478 308.081 231.478C306.177 231.478 304.436 232.36 303.321 234.496L305.132 225.905H304.645L300.953 243.319Z" fill="#48494B"/>
<path d="M318.087 228.32C318.551 228.32 318.853 227.995 318.853 227.577C318.853 227.159 318.551 226.834 318.087 226.834C317.669 226.834 317.344 227.159 317.344 227.577C317.344 227.995 317.669 228.32 318.087 228.32ZM315.022 243.319L317.483 231.71H316.996L314.534 243.319H315.022Z" fill="#48494B"/>
<path d="M319.205 243.319H319.693L320.993 237.212C321.782 233.544 323.849 231.919 326.333 231.919C328.748 231.919 330.303 233.683 329.56 237.096L328.237 243.319H328.725L330.048 237.073C330.814 233.451 329.096 231.478 326.333 231.478C324.429 231.478 322.688 232.36 321.573 234.496L322.154 231.71H321.666L319.205 243.319Z" fill="#48494B"/>
<path d="M162.155 282.686H155.771V274.769H161.691V274.026H155.771V266.759H162.155V266.016H154.958V283.429H162.155V282.686Z" fill="#48494B"/>
<path d="M164.874 283.429L169.448 277.996L174.185 283.429H175.16L170.029 277.439L174.904 271.82H173.906L169.518 276.905L165.106 271.82H164.131L168.984 277.462L163.876 283.429H164.874Z" fill="#48494B"/>
<path d="M178.887 279.459V272.54H183.275V271.82H178.887V268.523H178.051V271.82H176.008V272.54H178.051V279.482C178.051 282.733 179.514 283.661 181.557 283.661C182.184 283.661 182.881 283.522 183.275 283.406V282.663C182.904 282.779 182.486 282.918 181.65 282.918C179.816 282.918 178.887 281.827 178.887 279.459Z" fill="#48494B"/>
<path d="M187.423 271.82H186.61V283.429H187.423V277.95C187.423 274.095 189.048 272.377 191.765 272.377C192.252 272.377 192.694 272.447 193.088 272.61V271.774C192.717 271.658 192.276 271.588 191.858 271.588C189.815 271.588 188.166 272.563 187.423 274.769V271.82Z" fill="#48494B"/>
<path d="M198.889 283.661C200.747 283.661 202.697 282.756 203.51 280.782V283.429H204.322V275.163C204.322 272.563 202.14 271.588 199.795 271.588C197.38 271.588 195.128 272.679 195.128 275.581H195.918C195.918 273.376 197.566 272.284 199.795 272.284C201.931 272.284 203.51 273.213 203.51 275.14C203.51 278.832 194.78 275.396 194.78 280.504C194.78 282.64 196.591 283.661 198.889 283.661ZM195.593 280.48C195.593 276.812 201.652 278.669 203.51 276.742V278.646C203.51 281.456 201.281 282.965 198.982 282.965C196.962 282.965 195.593 282.152 195.593 280.48Z" fill="#48494B"/>
<path d="M220.79 282.686H214.382V266.016H213.57V283.429H220.79V282.686Z" fill="#48494B"/>
<path d="M224.031 268.593C224.565 268.593 224.937 268.198 224.937 267.687C224.937 267.2 224.565 266.805 224.031 266.805C223.544 266.805 223.149 267.2 223.149 267.687C223.149 268.198 223.544 268.593 224.031 268.593ZM224.449 283.429V271.82H223.637V283.429H224.449Z" fill="#48494B"/>
<path d="M233.04 283.661C235.245 283.661 237.056 282.407 237.915 280.434V283.824C237.915 286.68 236.22 288.676 233.318 288.676C230.857 288.676 229.162 287.144 228.744 284.753H227.908C228.28 287.562 230.439 289.466 233.318 289.466C236.406 289.466 238.728 287.306 238.728 283.824V271.82H237.915V274.815C237.056 272.842 235.245 271.588 233.04 271.588C229.859 271.588 227.491 274.072 227.491 277.625C227.491 281.177 229.859 283.661 233.04 283.661ZM233.109 282.918C230.37 282.918 228.28 280.805 228.28 277.625C228.28 274.444 230.37 272.331 233.109 272.331C235.849 272.331 237.915 274.444 237.915 277.625C237.915 280.805 235.849 282.918 233.109 282.918Z" fill="#48494B"/>
<path d="M251.619 277.276V283.429H252.432V277.067C252.432 273.167 250.459 271.588 247.742 271.588C245.815 271.588 244.283 272.447 243.586 274.397V266.016H242.773V283.429H243.586V277.276C243.586 273.84 245.142 272.308 247.603 272.308C250.064 272.308 251.619 273.84 251.619 277.276Z" fill="#48494B"/>
<path d="M257.678 279.459V272.54H262.067V271.82H257.678V268.523H256.843V271.82H254.799V272.54H256.843V279.482C256.843 282.733 258.305 283.661 260.348 283.661C260.975 283.661 261.672 283.522 262.067 283.406V282.663C261.695 282.779 261.277 282.918 260.441 282.918C258.607 282.918 257.678 281.827 257.678 279.459Z" fill="#48494B"/>
<path d="M298.223 282.593H291.954L293.602 274.815H299.407L299.593 273.979H293.765L295.274 266.851H301.566L301.752 266.016H294.485L290.793 283.429H298.037L298.223 282.593Z" fill="#48494B"/>
<path d="M299.711 283.429H300.942L306.514 278.089L309.997 283.429H311.041L307.211 277.485L313.201 271.82H311.993L306.7 276.789L303.472 271.82H302.404L306.026 277.416L299.711 283.429Z" fill="#48494B"/>
<path d="M315.721 279.436L317.183 272.633H321.455L321.641 271.82H317.346L318.042 268.57H317.067L316.371 271.82H314.328L314.165 272.633H316.208L314.792 279.25C314.072 282.616 315.465 283.661 317.462 283.661C318.066 283.661 318.762 283.522 319.18 283.406L319.343 282.57C318.948 282.686 318.46 282.825 317.671 282.825C315.93 282.825 315.233 281.757 315.721 279.436Z" fill="#48494B"/>
<path d="M323.421 283.429L324.651 277.601C325.394 274.119 327.205 272.563 329.713 272.563C330.293 272.563 330.851 272.633 331.245 272.772L331.454 271.75C331.06 271.634 330.549 271.588 330.038 271.588C328.111 271.588 326.416 272.517 325.278 274.606L325.882 271.82H324.907L322.446 283.429H323.421Z" fill="#48494B"/>
<path d="M336.832 283.661C338.852 283.661 340.407 282.616 341.382 281.038C341.127 282.291 340.895 283.429 340.895 283.429H341.823L344.284 271.82H343.309L342.52 275.628C342.148 273.19 340.337 271.588 337.783 271.588C334.045 271.588 331.816 274.838 331.816 278.414C331.816 281.548 333.79 283.661 336.832 283.661ZM342.079 276.835C342.079 279.923 340.198 282.825 336.948 282.825C334.44 282.825 332.745 281.084 332.745 278.391C332.745 275.326 334.649 272.424 337.876 272.424C340.384 272.424 342.079 274.165 342.079 276.835Z" fill="#48494B"/>
<path d="M359.33 282.593H353.014L356.52 266.016H355.545L351.854 283.429H359.167L359.33 282.593Z" fill="#48494B"/>
<path d="M365.728 268.662C366.286 268.662 366.68 268.245 366.68 267.711C366.68 267.153 366.286 266.735 365.728 266.735C365.171 266.735 364.753 267.153 364.753 267.711C364.753 268.245 365.171 268.662 365.728 268.662ZM362.896 283.429L365.357 271.82H364.382L361.921 283.429H362.896Z" fill="#48494B"/>
<path d="M366.98 284.567H366.074C366.051 287.515 368.141 289.466 371.205 289.466C374.665 289.466 376.406 287.005 377.056 283.917L379.61 271.82H378.635L377.846 275.628C377.474 273.19 375.663 271.588 373.109 271.588C369.371 271.588 367.142 274.838 367.142 278.414C367.142 281.548 369.116 283.661 372.157 283.661C374.154 283.661 375.71 282.616 376.708 281.061L376.081 283.94C375.524 286.656 373.991 288.607 371.252 288.607C368.744 288.607 367.003 287.098 366.98 284.567ZM377.405 276.835C377.405 279.923 375.524 282.825 372.273 282.825C369.766 282.825 368.071 281.084 368.071 278.391C368.071 275.326 369.975 272.424 373.202 272.424C375.71 272.424 377.405 274.165 377.405 276.835Z" fill="#48494B"/>
<path d="M381.148 283.429H382.123L383.423 277.23C384.143 273.887 386.001 272.354 388.276 272.354C390.528 272.354 391.898 274.003 391.225 277.16L389.878 283.429H390.853L392.2 277.114C392.966 273.561 391.271 271.588 388.578 271.588C386.79 271.588 385.142 272.424 384.05 274.304L385.815 266.016H384.84L381.148 283.429Z" fill="#48494B"/>
<path d="M396.711 279.436L398.174 272.633H402.446L402.632 271.82H398.337L399.033 268.57H398.058L397.361 271.82H395.318L395.156 272.633H397.199L395.783 279.25C395.063 282.616 396.456 283.661 398.453 283.661C399.056 283.661 399.753 283.522 400.171 283.406L400.333 282.57C399.939 282.686 399.451 282.825 398.662 282.825C396.92 282.825 396.224 281.757 396.711 279.436Z" fill="#48494B"/>
<path d="M162.365 322.26H156.235V306.124H154.842V323.537H162.365V322.26Z" fill="#48494B"/>
<path d="M165.606 308.956C166.279 308.956 166.743 308.469 166.743 307.818C166.743 307.168 166.279 306.681 165.606 306.681C164.956 306.681 164.468 307.168 164.468 307.818C164.468 308.469 164.956 308.956 165.606 308.956ZM166.302 323.537V311.928H164.909V323.537H166.302Z" fill="#48494B"/>
<path d="M174.699 323.769C176.626 323.769 178.251 322.748 179.18 321.076V323.816C179.18 326.439 177.647 328.273 175.047 328.273C172.841 328.273 171.309 326.88 170.937 324.744H169.521C169.916 327.623 172.121 329.574 175.047 329.574C178.158 329.574 180.573 327.322 180.573 323.816V311.928H179.18V314.389C178.251 312.717 176.626 311.696 174.699 311.696C171.541 311.696 169.149 314.18 169.149 317.733C169.149 321.285 171.541 323.769 174.699 323.769ZM174.861 322.492C172.4 322.492 170.543 320.588 170.543 317.733C170.543 314.877 172.4 312.973 174.861 312.973C177.322 312.973 179.18 314.877 179.18 317.733C179.18 320.588 177.322 322.492 174.861 322.492Z" fill="#48494B"/>
<path d="M192.884 317.315V323.537H194.277V317.013C194.277 313.298 192.326 311.696 189.703 311.696C187.938 311.696 186.499 312.508 185.779 314.203V306.124H184.386V323.537H185.779V317.315C185.779 314.319 187.149 312.926 189.331 312.926C191.514 312.926 192.884 314.319 192.884 317.315Z" fill="#48494B"/>
<path d="M199.918 319.567V313.159H203.911V311.928H199.918V308.585H198.525V311.928H196.528V313.159H198.525V319.636C198.525 322.84 200.057 323.769 202.17 323.769C202.797 323.769 203.517 323.63 203.911 323.514V322.237C203.54 322.376 203.075 322.492 202.379 322.492C200.73 322.492 199.918 321.587 199.918 319.567Z" fill="#48494B"/>
<path d="M298.524 322.26H292.464L295.877 306.124H294.368L290.676 323.537H298.245L298.524 322.26Z" fill="#48494B"/>
<path d="M304.83 309.026C305.526 309.026 306.014 308.492 306.014 307.818C306.014 307.145 305.526 306.634 304.83 306.634C304.133 306.634 303.622 307.145 303.622 307.818C303.622 308.492 304.133 309.026 304.83 309.026ZM302.252 323.537L304.714 311.928H303.204L300.743 323.537H302.252Z" fill="#48494B"/>
<path d="M306.654 324.605H305.237C305.168 327.577 307.211 329.574 310.369 329.574C313.991 329.574 315.755 327.136 316.498 323.676L318.982 311.928H317.473L316.777 315.202C316.312 313.066 314.617 311.696 312.319 311.696C308.627 311.696 306.329 314.946 306.329 318.568C306.329 321.68 308.256 323.769 311.274 323.769C313.039 323.769 314.478 322.887 315.453 321.517L314.966 323.723C314.432 326.37 313.015 328.25 310.438 328.25C308.14 328.25 306.654 326.927 306.654 324.605ZM316.266 316.92C316.266 319.776 314.501 322.492 311.529 322.492C309.277 322.492 307.768 320.937 307.768 318.545C307.768 315.689 309.556 312.973 312.505 312.973C314.757 312.973 316.266 314.528 316.266 316.92Z" fill="#48494B"/>
<path d="M320.288 323.537H321.797L323.121 317.268C323.771 314.273 325.35 312.903 327.416 312.903C329.482 312.903 330.667 314.366 330.063 317.198L328.716 323.537H330.225L331.572 317.152C332.315 313.646 330.667 311.696 328.043 311.696C326.371 311.696 324.839 312.485 323.794 314.134L325.489 306.124H323.98L320.288 323.537Z" fill="#48494B"/>
<path d="M336.455 319.52L337.825 313.159H341.726L341.981 311.928H338.08L338.777 308.678H337.268L336.571 311.928H334.574L334.319 313.159H336.316L334.969 319.358C334.273 322.655 335.758 323.769 337.755 323.769C338.382 323.769 339.079 323.63 339.52 323.514L339.798 322.237C339.357 322.376 338.87 322.492 338.196 322.492C336.641 322.492 336.014 321.563 336.455 319.52Z" fill="#48494B"/>
<path d="M154.331 350.158C154.331 352.503 155.701 353.85 157.349 354.964L159.044 356.125C160.321 356.984 161.343 357.982 161.343 359.584C161.343 361.21 160.298 362.185 158.626 362.185C157.001 362.185 155.91 361.001 155.91 359.074V358.029H154.052V359.236C154.052 362.231 156.096 363.88 158.626 363.88C161.157 363.88 163.2 362.371 163.2 359.352C163.2 357.1 161.854 355.777 160.275 354.685L158.533 353.501C157.256 352.642 156.188 351.737 156.188 350.158C156.188 348.579 157.164 347.697 158.603 347.697C160.112 347.697 161.064 348.649 161.064 350.715V351.621H162.922V350.646C162.922 347.511 161.041 346.002 158.603 346.002C156.258 346.002 154.331 347.186 154.331 350.158Z" fill="#48494B"/>
<path d="M176.646 358.493C176.646 358.261 176.669 358.075 176.669 357.843C176.669 354.291 174.278 351.806 171.004 351.806C167.73 351.806 165.339 354.291 165.339 357.843C165.339 361.395 167.73 363.88 171.004 363.88C173.628 363.88 175.625 362.51 176.368 360.165H174.348C173.837 361.465 172.676 362.255 171.074 362.255C168.915 362.255 167.405 360.815 167.15 358.493H176.646ZM171.004 353.432C173.117 353.432 174.58 354.825 174.835 357.123H167.173C167.429 354.825 168.891 353.432 171.004 353.432Z" fill="#48494B"/>
<path d="M186.871 356.961V363.648H188.729V356.961C188.729 354.593 189.797 353.432 191.585 353.432C193.303 353.432 194.348 354.593 194.348 356.961V363.648H196.205V356.566C196.205 353.292 194.464 351.806 192.119 351.806C190.401 351.806 189.008 352.642 188.357 354.291C187.731 352.596 186.314 351.806 184.596 351.806C183.133 351.806 181.926 352.48 181.253 353.803V352.039H179.395V363.648H181.253V356.961C181.253 354.593 182.321 353.432 184.062 353.432C185.803 353.432 186.871 354.593 186.871 356.961Z" fill="#48494B"/>
<path d="M200.64 349.299C201.429 349.299 201.986 348.695 201.986 347.952C201.986 347.186 201.429 346.606 200.64 346.606C199.874 346.606 199.293 347.186 199.293 347.952C199.293 348.695 199.874 349.299 200.64 349.299ZM201.568 363.648V352.039H199.711V363.648H201.568Z" fill="#48494B"/>
<path d="M212.953 361.953H207.055V346.234H205.198V363.648H212.953V361.953Z" fill="#48494B"/>
<path d="M216.194 349.299C216.983 349.299 217.541 348.695 217.541 347.952C217.541 347.186 216.983 346.606 216.194 346.606C215.428 346.606 214.847 347.186 214.847 347.952C214.847 348.695 215.428 349.299 216.194 349.299ZM217.123 363.648V352.039H215.265V363.648H217.123Z" fill="#48494B"/>
<path d="M225.419 363.88C227.16 363.88 228.623 362.997 229.552 361.558V363.833C229.552 366.248 228.159 367.966 225.791 367.966C223.794 367.966 222.378 366.712 222.052 364.762H220.172C220.567 367.688 222.795 369.684 225.791 369.684C228.948 369.684 231.409 367.362 231.409 363.833V352.039H229.552V354.128C228.623 352.689 227.16 351.806 225.419 351.806C222.238 351.806 219.847 354.291 219.847 357.843C219.847 361.395 222.238 363.88 225.419 363.88ZM225.628 362.185C223.399 362.185 221.704 360.444 221.704 357.843C221.704 355.243 223.399 353.501 225.628 353.501C227.857 353.501 229.552 355.243 229.552 357.843C229.552 360.444 227.857 362.185 225.628 362.185Z" fill="#48494B"/>
<path d="M243.256 357.379V363.648H245.113V356.984C245.113 353.408 243.209 351.806 240.609 351.806C238.961 351.806 237.614 352.573 236.894 354.082V346.234H235.037V363.648H236.894V357.379C236.894 354.732 238.125 353.432 240.075 353.432C242.025 353.432 243.256 354.732 243.256 357.379Z" fill="#48494B"/>
<path d="M251.079 359.677V353.664H254.748V352.039H251.079V348.649H249.222V352.039H247.272V353.664H249.222V359.793C249.222 362.951 250.801 363.88 252.96 363.88C253.61 363.88 254.33 363.74 254.748 363.601V361.953C254.353 362.069 253.912 362.185 253.308 362.185C251.799 362.185 251.079 361.395 251.079 359.677Z" fill="#48494B"/>
<path d="M293.044 350.367C293.044 354.477 297.85 355.753 297.85 359.422C297.85 361.117 296.782 362.185 295.134 362.185C293.578 362.185 292.301 361.14 292.766 358.981L292.951 358.006H290.955L290.769 359.12C290.258 361.813 291.907 363.88 294.925 363.88C297.618 363.88 299.824 362.44 299.824 359.143C299.824 354.778 294.995 353.478 294.995 350.228C294.995 348.649 296.016 347.697 297.456 347.697C298.802 347.697 300.033 348.533 299.568 350.715L299.359 351.644H301.356L301.565 350.669C302.192 347.581 300.056 346.002 297.641 346.002C295.064 346.002 293.044 347.372 293.044 350.367Z" fill="#48494B"/>
<path d="M313.618 358.447C313.711 357.982 313.757 357.472 313.757 356.984C313.757 353.873 311.83 351.806 308.626 351.806C304.795 351.806 302.427 355.08 302.427 358.702C302.427 361.813 304.377 363.88 307.581 363.88C310.205 363.88 312.248 362.347 313.084 360.165H310.925C310.298 361.419 309.067 362.185 307.581 362.185C305.608 362.185 304.331 360.815 304.331 358.679C304.331 358.609 304.331 358.516 304.331 358.447H313.618ZM308.626 353.501C310.553 353.501 311.83 354.802 311.83 357.007C311.83 357.054 311.83 357.1 311.83 357.147H304.493C304.981 355.057 306.49 353.501 308.626 353.501Z" fill="#48494B"/>
<path d="M326.095 356.914C326.606 354.546 327.79 353.408 329.439 353.408C331.111 353.408 331.993 354.569 331.505 356.891L330.066 363.648H332.086L333.548 356.822C334.222 353.617 332.713 351.806 330.135 351.806C328.487 351.806 327.094 352.642 326.142 354.198C325.77 352.642 324.563 351.806 322.915 351.806C321.522 351.806 320.245 352.48 319.339 353.78L319.711 352.039H317.691L315.229 363.648H317.249L318.666 356.914C319.177 354.546 320.361 353.408 322.009 353.408C323.681 353.408 324.563 354.569 324.076 356.891L322.659 363.648H324.656L326.095 356.914Z" fill="#48494B"/>
<path d="M339.864 349.369C340.7 349.369 341.28 348.742 341.28 347.952C341.28 347.14 340.7 346.536 339.864 346.536C339.051 346.536 338.447 347.14 338.447 347.952C338.447 348.742 339.051 349.369 339.864 349.369ZM337.565 363.648L340.026 352.039H338.006L335.545 363.648H337.565Z" fill="#48494B"/>
<path d="M349.319 361.953H343.491L346.835 346.234H344.815L341.123 363.648H348.947L349.319 361.953Z" fill="#48494B"/>
<path d="M355.509 349.369C356.344 349.369 356.925 348.742 356.925 347.952C356.925 347.14 356.344 346.536 355.509 346.536C354.696 346.536 354.092 347.14 354.092 347.952C354.092 348.742 354.696 349.369 355.509 349.369ZM353.21 363.648L355.671 352.039H353.651L351.19 363.648H353.21Z" fill="#48494B"/>
<path d="M357.906 364.669H356.025C355.886 367.664 357.906 369.684 361.133 369.684C364.894 369.684 366.705 367.27 367.518 363.439L369.932 352.039H367.912L367.332 354.848C366.775 352.967 365.219 351.806 363.153 351.806C359.461 351.806 357.116 355.08 357.116 358.702C357.116 361.813 358.997 363.88 362.015 363.88C363.594 363.88 364.894 363.114 365.846 361.906L365.475 363.531C364.941 366.109 363.664 367.92 361.226 367.92C359.113 367.92 357.859 366.759 357.906 364.669ZM366.728 356.984C366.728 359.654 365.08 362.185 362.363 362.185C360.367 362.185 359.066 360.815 359.066 358.679C359.066 356.032 360.715 353.501 363.408 353.501C365.428 353.501 366.728 354.871 366.728 356.984Z" fill="#48494B"/>
<path d="M371.052 363.648H373.072L374.419 357.286C374.976 354.662 376.323 353.408 378.18 353.408C380.061 353.408 381.059 354.709 380.525 357.263L379.155 363.648H381.175L382.545 357.193C383.288 353.757 381.663 351.806 379.086 351.806C377.553 351.806 376.137 352.526 375.139 353.966L376.764 346.234H374.744L371.052 363.648Z" fill="#48494B"/>
<path d="M387.776 359.608L389.053 353.664H392.606L392.931 352.039H389.379L390.075 348.788H388.055L387.359 352.039H385.431L385.083 353.664H387.034L385.78 359.492C385.106 362.719 386.685 363.88 388.659 363.88C389.309 363.88 390.029 363.74 390.47 363.601L390.841 361.953C390.4 362.092 389.889 362.185 389.309 362.185C387.939 362.185 387.405 361.372 387.776 359.608Z" fill="#48494B"/>
<path d="M156.978 403.756V395.235L162.365 403.756H165.151L159.996 395.885C162.574 395.746 164.617 394.329 164.617 391.45V390.754C164.617 387.875 162.574 386.342 159.764 386.342H154.656V403.756H156.978ZM159.532 388.478C161.227 388.478 162.295 389.152 162.295 390.986V391.218C162.295 393.168 161.227 393.958 159.532 393.958H156.978V388.478H159.532Z" fill="#48494B"/>
<path d="M177.713 398.741C177.736 398.485 177.759 398.23 177.759 397.951C177.759 394.399 175.344 391.915 172.048 391.915C168.751 391.915 166.336 394.399 166.336 397.951C166.336 401.504 168.751 403.988 172.048 403.988C174.718 403.988 176.738 402.664 177.457 400.273H174.95C174.485 401.318 173.557 401.945 172.14 401.945C170.19 401.945 168.89 400.761 168.611 398.741H177.713ZM172.048 393.958C173.905 393.958 175.182 395.119 175.461 397.069H168.634C168.913 395.119 170.167 393.958 172.048 393.958Z" fill="#48494B"/>
<path d="M185.059 403.988C186.615 403.988 187.961 403.245 188.867 402.014V403.849C188.867 406.078 187.613 407.656 185.477 407.656C183.666 407.656 182.412 406.519 182.11 404.777H179.765C180.183 407.772 182.435 409.792 185.477 409.792C188.658 409.792 191.189 407.378 191.189 403.849V392.147H188.867V393.888C187.961 392.658 186.615 391.915 185.059 391.915C181.878 391.915 179.487 394.399 179.487 397.951C179.487 401.504 181.878 403.988 185.059 403.988ZM185.338 401.852C183.318 401.852 181.808 400.296 181.808 397.951C181.808 395.606 183.318 394.051 185.338 394.051C187.358 394.051 188.867 395.606 188.867 397.951C188.867 400.296 187.358 401.852 185.338 401.852Z" fill="#48494B"/>
<path d="M196.836 398.439V392.147H194.514V398.903C194.514 402.363 196.395 403.988 198.879 403.988C200.388 403.988 201.619 403.268 202.339 401.898V403.756H204.66V392.147H202.339V398.439C202.339 400.761 201.294 401.945 199.599 401.945C197.881 401.945 196.836 400.761 196.836 398.439Z" fill="#48494B"/>
<path d="M210.42 403.756V386.342H208.098V403.756H210.42Z" fill="#48494B"/>
<path d="M217.201 403.988C218.873 403.988 220.359 403.338 221.125 401.805V403.756H223.4V395.629C223.4 392.936 221.078 391.915 218.571 391.915C216.017 391.915 213.602 393.052 213.602 396.047H216.017C216.017 394.538 217.062 393.772 218.571 393.772C219.987 393.772 221.078 394.399 221.078 395.537C221.078 398.183 213.254 395.676 213.254 400.691C213.254 402.99 215.135 403.988 217.201 403.988ZM215.622 400.552C215.622 398.601 219.151 399.089 221.125 398.137V398.973C221.125 400.993 219.453 402.038 217.665 402.038C216.481 402.038 215.622 401.55 215.622 400.552Z" fill="#48494B"/>
<path d="M228.945 392.147H226.623V403.756H228.945V397.928C228.945 395.537 230.245 394.329 232.474 394.329C232.938 394.329 233.356 394.399 233.704 394.515V391.984C233.519 391.938 233.24 391.915 232.961 391.915C231.197 391.915 229.781 392.727 228.945 394.236V392.147Z" fill="#48494B"/>
<path d="M293.022 403.756L294.833 395.235L298.176 403.756H301.032L297.781 396.21C300.266 396.14 302.448 394.91 303.098 391.543L303.238 390.847C303.818 387.921 302.1 386.342 299.314 386.342H294.159L290.468 403.756H293.022ZM298.733 388.478C300.266 388.478 301.009 389.198 300.66 391.056L300.591 391.334C300.196 393.354 299.105 394.074 297.572 394.074H295.065L296.249 388.478H298.733Z" fill="#48494B"/>
<path d="M314.685 398.694C314.801 398.16 314.871 397.626 314.871 397.069C314.871 393.958 312.944 391.915 309.693 391.915C305.839 391.915 303.401 395.188 303.401 398.834C303.401 401.945 305.305 403.988 308.579 403.988C311.225 403.988 313.338 402.456 314.174 400.273H311.434C310.831 401.295 309.786 401.852 308.579 401.852C306.884 401.852 305.792 400.691 305.792 398.834V398.694H314.685ZM309.693 394.051C311.365 394.051 312.41 395.142 312.41 397.069V397.092H306.025C306.535 395.304 307.859 394.051 309.693 394.051Z" fill="#48494B"/>
<path d="M317.806 404.708H315.437C315.252 407.749 317.202 409.792 320.545 409.792C324.469 409.792 326.303 407.401 327.209 403.199L329.554 392.147H327L326.489 394.515C325.885 392.89 324.446 391.915 322.612 391.915C318.966 391.915 316.552 395.188 316.552 398.834C316.552 401.945 318.386 403.988 321.381 403.988C322.774 403.988 323.958 403.338 324.864 402.293L324.632 403.338C324.121 405.822 322.937 407.563 320.638 407.563C318.757 407.563 317.736 406.588 317.806 404.708ZM325.839 397.069C325.839 399.507 324.283 401.852 321.845 401.852C320.104 401.852 319.013 400.691 319.013 398.834C319.013 396.396 320.545 394.051 322.96 394.051C324.724 394.051 325.839 395.212 325.839 397.069Z" fill="#48494B"/>
<path d="M332.787 392.147L331.393 398.694C330.697 402.061 332.253 403.988 334.714 403.988C336.153 403.988 337.453 403.291 338.382 401.991L338.011 403.756H340.565L343.026 392.147H340.472L339.102 398.625C338.637 400.853 337.546 401.968 335.944 401.968C334.296 401.968 333.506 400.83 333.971 398.601L335.34 392.147H332.787Z" fill="#48494B"/>
<path d="M346.464 403.756L350.155 386.342H347.601L343.91 403.756H346.464Z" fill="#48494B"/>
<path d="M355.029 403.988C356.468 403.988 357.699 403.268 358.628 402.13C358.465 402.92 358.279 403.756 358.279 403.756H360.741L363.202 392.147H360.648L360.16 394.515C359.533 392.89 358.094 391.915 356.259 391.915C352.614 391.915 350.2 395.188 350.2 398.834C350.2 401.945 352.034 403.988 355.029 403.988ZM359.487 397.069C359.487 399.507 357.931 401.852 355.493 401.852C353.752 401.852 352.661 400.691 352.661 398.834C352.661 396.396 354.193 394.051 356.608 394.051C358.372 394.051 359.487 395.212 359.487 397.069Z" fill="#48494B"/>
<path d="M366.643 403.756L367.851 398.044C368.361 395.722 369.755 394.561 371.96 394.561C372.448 394.561 372.866 394.631 373.168 394.747L373.771 391.984C373.586 391.915 373.33 391.915 373.075 391.915C371.241 391.915 369.662 392.913 368.547 394.747L369.104 392.147H366.55L364.089 403.756H366.643Z" fill="#48494B"/>
<path d="M163.573 443.866L166.637 428.751V443.866H169.424V426.453H164.594L161.994 439.826L159.301 426.453H154.564V443.866H157.118V428.635L160.206 443.866H163.573Z" fill="#48494B"/>
<path d="M183.337 438.99C183.361 438.688 183.384 438.387 183.384 438.062C183.384 434.509 180.946 432.025 177.626 432.025C174.306 432.025 171.868 434.509 171.868 438.062C171.868 441.614 174.306 444.098 177.626 444.098C180.366 444.098 182.386 442.798 183.082 440.383H180.064C179.692 441.196 178.972 441.66 177.742 441.66C176.024 441.66 174.909 440.685 174.608 438.99H183.337ZM177.626 434.463C179.251 434.463 180.319 435.392 180.621 437.017H174.631C174.933 435.392 176.001 434.463 177.626 434.463Z" fill="#48494B"/>
<path d="M190.591 432.025C187.41 432.025 185.019 434.509 185.019 438.062C185.019 441.614 187.41 444.098 190.591 444.098C191.984 444.098 193.215 443.471 194.074 442.403V443.866H196.86V426.453H194.074V433.72C193.215 432.652 191.984 432.025 190.591 432.025ZM190.939 434.579C192.727 434.579 194.074 435.972 194.074 438.062C194.074 440.151 192.727 441.544 190.939 441.544C189.151 441.544 187.805 440.151 187.805 438.062C187.805 435.972 189.151 434.579 190.939 434.579Z" fill="#48494B"/>
<path d="M201.509 429.935C202.53 429.935 203.25 429.169 203.25 428.194C203.25 427.196 202.53 426.453 201.509 426.453C200.51 426.453 199.767 427.196 199.767 428.194C199.767 429.169 200.51 429.935 201.509 429.935ZM202.902 443.866V432.257H200.116V443.866H202.902Z" fill="#48494B"/>
<path d="M208.817 438.642V432.257H206.031V439.199C206.031 442.473 207.865 444.098 210.303 444.098C211.696 444.098 212.88 443.425 213.577 442.218V443.866H216.363V432.257H213.577V438.642C213.577 440.592 212.671 441.66 211.208 441.66C209.722 441.66 208.817 440.592 208.817 438.642Z" fill="#48494B"/>
<path d="M226.813 437.249V443.866H229.599V437.249C229.599 435.438 230.435 434.463 231.805 434.463C233.174 434.463 234.01 435.438 234.01 437.249V443.866H236.796V436.692C236.796 433.581 235.055 432.025 232.71 432.025C231.108 432.025 229.785 432.791 229.088 434.161C228.415 432.745 227.091 432.025 225.512 432.025C224.189 432.025 223.075 432.652 222.401 433.766V432.257H219.615V443.866H222.401V437.249C222.401 435.438 223.237 434.463 224.607 434.463C225.977 434.463 226.813 435.438 226.813 437.249Z" fill="#48494B"/>
<path d="M296.156 443.866H299.615L305.606 429.007L302.448 443.866H305.35L309.042 426.453H303.841L298.803 439.339L298.965 426.453H294.043L290.351 443.866H293.022L296.249 428.612L296.156 443.866Z" fill="#48494B"/>
<path d="M320.332 438.875C320.448 438.317 320.518 437.76 320.518 437.18C320.518 434.068 318.591 432.025 315.271 432.025C311.416 432.025 308.909 435.276 308.909 438.944C308.909 442.055 310.813 444.099 314.133 444.099C316.826 444.099 318.986 442.566 319.845 440.337H316.71C316.153 441.22 315.224 441.684 314.179 441.684C312.624 441.684 311.695 440.639 311.695 438.944V438.875H320.332ZM315.247 434.44C316.733 434.44 317.662 435.392 317.685 437.133H311.95C312.461 435.531 313.645 434.44 315.247 434.44Z" fill="#48494B"/>
<path d="M333.506 426.453L331.834 434.393C331.208 432.907 329.838 432.025 328.12 432.025C324.498 432.025 322.06 435.299 322.06 438.967C322.06 442.055 323.871 444.099 326.819 444.099C328.236 444.099 329.443 443.402 330.349 442.288L330 443.866H332.786L336.478 426.453H333.506ZM331.115 437.203C331.115 439.455 329.698 441.614 327.469 441.614C325.891 441.614 324.916 440.569 324.916 438.921C324.916 436.669 326.355 434.51 328.538 434.51C330.14 434.51 331.115 435.554 331.115 437.203Z" fill="#48494B"/>
<path d="M340.709 430.028C341.777 430.028 342.52 429.239 342.52 428.217C342.52 427.196 341.777 426.43 340.709 426.43C339.641 426.43 338.875 427.196 338.875 428.217C338.875 429.239 339.641 430.028 340.709 430.028ZM338.875 443.866L341.336 432.257H338.364L335.903 443.866H338.875Z" fill="#48494B"/>
<path d="M344.325 432.257L342.908 438.898C342.212 442.195 343.744 444.099 346.182 444.099C347.552 444.099 348.829 443.425 349.758 442.195L349.386 443.866H352.335L354.796 432.257H351.824L350.454 438.782C350.036 440.755 349.108 441.754 347.668 441.754C346.182 441.754 345.509 440.732 345.927 438.735L347.297 432.257H344.325Z" fill="#48494B"/>
<path d="M367.01 437.18C367.405 435.299 368.241 434.37 369.588 434.37C370.981 434.37 371.608 435.299 371.213 437.18L369.797 443.866H372.768L374.231 437.017C374.881 433.859 373.395 432.025 370.725 432.025C369.193 432.025 367.893 432.791 366.964 434.115C366.523 432.768 365.385 432.025 363.899 432.025C362.599 432.025 361.415 432.652 360.533 433.767L360.858 432.257H357.909L355.448 443.866H358.42L359.836 437.18C360.231 435.299 361.067 434.37 362.39 434.37C363.806 434.37 364.433 435.299 364.038 437.18L362.622 443.866H365.594L367.01 437.18Z" fill="#48494B"/>
<path d="M153.89 470.809C153.89 473.131 155.004 474.501 156.513 475.615L158.44 477.055C159.555 477.867 160.298 478.587 160.298 479.818C160.298 480.816 159.648 481.42 158.626 481.42C157.628 481.42 156.931 480.677 156.931 479.47V478.169H153.681V479.609C153.681 482.627 155.91 484.252 158.626 484.252C161.343 484.252 163.572 482.65 163.572 479.423C163.572 477.171 162.388 475.778 160.878 474.663L158.905 473.201C157.837 472.411 157.14 471.808 157.14 470.647C157.14 469.672 157.744 469.114 158.603 469.114C159.532 469.114 160.112 469.695 160.112 470.972V472.133H163.339V470.925C163.339 467.768 161.227 466.282 158.603 466.282C156.003 466.282 153.89 467.559 153.89 470.809Z" fill="#48494B"/>
<path d="M176.832 479.098C176.855 478.796 176.878 478.494 176.878 478.169C176.878 474.617 174.417 472.133 171.004 472.133C167.591 472.133 165.13 474.617 165.13 478.169C165.13 481.722 167.591 484.206 171.004 484.206C173.86 484.206 175.88 482.859 176.6 480.305H173.187C172.862 481.072 172.165 481.466 171.097 481.466C169.565 481.466 168.613 480.63 168.357 479.098H176.832ZM171.004 474.896C172.42 474.896 173.349 475.662 173.628 477.125H168.38C168.659 475.662 169.565 474.896 171.004 474.896Z" fill="#48494B"/>
<path d="M186.128 477.38V483.974H189.472V477.38C189.472 475.755 190.168 474.919 191.376 474.919C192.56 474.919 193.256 475.755 193.256 477.38V483.974H196.623V476.637C196.623 473.619 194.905 472.133 192.583 472.133C190.981 472.133 189.681 472.899 189.007 474.269C188.357 472.829 187.057 472.133 185.455 472.133C184.085 472.133 182.948 472.76 182.274 473.92V472.365H178.977V483.974H182.344V477.38C182.344 475.755 183.04 474.919 184.225 474.919C185.432 474.919 186.128 475.755 186.128 477.38Z" fill="#48494B"/>
<path d="M200.965 470.345C202.149 470.345 202.985 469.486 202.985 468.395C202.985 467.303 202.149 466.467 200.965 466.467C199.827 466.467 198.968 467.303 198.968 468.395C198.968 469.486 199.827 470.345 200.965 470.345ZM202.66 483.974V472.365H199.293V483.974H202.66Z" fill="#48494B"/>
<path d="M205.438 483.974H211.149C214.075 483.974 216.071 482.209 216.071 479.005V478.541C216.071 476.544 215.027 475.174 213.471 474.524C214.748 473.897 215.561 472.806 215.561 471.111V470.879C215.561 468.046 213.564 466.56 210.638 466.56H205.438V483.974ZM210.36 469.463C211.614 469.463 212.31 469.95 212.31 471.204V471.436C212.31 472.852 211.614 473.41 210.36 473.41H208.735V469.463H210.36ZM210.731 476.312C211.985 476.312 212.682 476.892 212.682 478.471V478.703C212.682 480.375 211.985 481.072 210.731 481.072H208.735V476.312H210.731Z" fill="#48494B"/>
<path d="M223.543 484.206C227.002 484.206 229.58 481.745 229.58 478.169C229.58 474.594 227.002 472.133 223.543 472.133C220.084 472.133 217.506 474.594 217.506 478.169C217.506 481.745 220.084 484.206 223.543 484.206ZM223.543 481.211C221.964 481.211 220.78 479.98 220.78 478.169C220.78 476.358 221.964 475.128 223.543 475.128C225.122 475.128 226.306 476.358 226.306 478.169C226.306 479.98 225.122 481.211 223.543 481.211Z" fill="#48494B"/>
<path d="M235.038 483.974V466.56H231.671V483.974H235.038Z" fill="#48494B"/>
<path d="M242.506 472.133C239.371 472.133 237.119 474.547 237.119 478.169C237.119 481.791 239.371 484.206 242.506 484.206C243.922 484.206 245.129 483.579 245.988 482.511V483.974H249.309V466.56H245.942V473.758C245.083 472.736 243.899 472.133 242.506 472.133ZM243.179 475.128C244.781 475.128 245.942 476.335 245.942 478.169C245.942 480.004 244.781 481.211 243.179 481.211C241.6 481.211 240.416 480.004 240.416 478.169C240.416 476.335 241.6 475.128 243.179 475.128Z" fill="#48494B"/>
<path d="M292.65 470.973C292.626 475.012 296.875 476.8 296.875 479.679C296.875 480.794 296.179 481.513 295.204 481.513C294.275 481.537 293.509 480.91 293.787 479.424L294.02 478.17H290.723L290.514 479.447C290.049 482.28 291.791 484.276 294.925 484.276C297.897 484.276 300.312 482.721 300.312 479.192C300.312 474.92 296.039 473.178 296.039 470.601C296.039 469.626 296.666 469.022 297.525 469.022C298.292 469.022 299.011 469.51 298.71 470.973L298.477 472.133H301.751L301.983 470.903C302.541 467.815 300.288 466.259 297.688 466.259C294.879 466.259 292.65 467.722 292.65 470.973Z" fill="#48494B"/>
<path d="M313.804 479.029C313.92 478.472 313.99 477.891 313.99 477.334C313.99 474.177 312.016 472.133 308.673 472.133C304.772 472.133 302.172 475.314 302.172 479.006C302.172 482.164 304.168 484.207 307.512 484.207C310.391 484.207 312.55 482.651 313.409 480.26H309.857C309.393 481.072 308.58 481.49 307.651 481.49C306.281 481.49 305.492 480.608 305.469 479.029H313.804ZM308.557 474.873C309.927 474.873 310.646 475.709 310.693 477.195H305.724C306.188 475.779 307.21 474.873 308.557 474.873Z" fill="#48494B"/>
<path d="M326.815 477.334C327.187 475.663 327.883 474.85 329.044 474.85C330.228 474.85 330.762 475.732 330.414 477.334L329.021 483.975H332.55L334.013 477.009C334.663 473.921 333.154 472.133 330.507 472.133C329.021 472.133 327.698 472.876 326.769 474.13C326.351 472.853 325.237 472.133 323.774 472.133C322.45 472.133 321.22 472.784 320.361 473.921L320.686 472.366H317.226L314.765 483.975H318.294L319.711 477.334C320.059 475.663 320.756 474.85 321.916 474.85C323.124 474.85 323.635 475.732 323.31 477.334L321.893 483.975H325.422L326.815 477.334Z" fill="#48494B"/>
<path d="M340.143 470.439C341.35 470.439 342.232 469.556 342.232 468.419C342.232 467.281 341.35 466.422 340.143 466.422C338.958 466.422 338.076 467.281 338.076 468.419C338.076 469.556 338.958 470.439 340.143 470.439ZM338.61 483.975L341.071 472.366H337.542L335.081 483.975H338.61Z" fill="#48494B"/>
<path d="M341.248 483.975H347.285C350.048 483.975 352.323 482.86 353.043 479.052L353.136 478.542C353.484 476.638 352.788 475.337 351.464 474.641C352.741 473.991 353.716 472.9 354.065 471.158L354.111 470.903C354.668 468.024 352.741 466.561 349.63 466.561H344.94L341.248 483.975ZM349.212 469.394C350.35 469.394 350.93 469.928 350.675 471.228L350.628 471.507C350.35 472.9 349.491 473.457 348.376 473.457H346.937L347.796 469.394H349.212ZM348.074 476.289C349.212 476.289 349.932 476.893 349.63 478.472L349.584 478.727C349.282 480.283 348.539 481.142 346.89 481.142H345.311L346.333 476.289H348.074Z" fill="#48494B"/>
<path d="M354.571 479.006C354.571 482.164 356.637 484.207 360.073 484.207C364.09 484.207 366.76 481.026 366.76 477.334C366.76 474.177 364.694 472.133 361.258 472.133C357.241 472.133 354.571 475.314 354.571 479.006ZM357.914 478.867C357.914 476.94 359.168 475.105 361.142 475.105C362.535 475.105 363.417 476.011 363.417 477.474C363.417 479.401 362.163 481.235 360.213 481.235C358.797 481.235 357.914 480.329 357.914 478.867Z" fill="#48494B"/>
<path d="M371.011 483.975L374.726 466.561H371.197L367.482 483.975H371.011Z" fill="#48494B"/>
<path d="M385.444 466.561L383.795 474.316C383.145 472.923 381.845 472.133 380.22 472.133C376.598 472.133 374.23 475.384 374.23 479.122C374.23 482.164 376.041 484.207 378.873 484.207C380.313 484.207 381.52 483.51 382.425 482.396L382.1 483.975H385.281L388.973 466.561H385.444ZM383.029 477.45C383.029 479.401 381.775 481.235 379.848 481.235C378.478 481.235 377.619 480.329 377.619 478.89C377.619 476.94 378.85 475.105 380.777 475.105C382.17 475.105 383.029 476.011 383.029 477.45Z" fill="#48494B"/>
<path d="M154.099 524.085H160.09C163.085 524.085 165.128 522.343 165.128 519.163V518.698C165.128 516.702 164.06 515.332 162.435 514.682C163.758 514.078 164.594 512.963 164.594 511.269V511.036C164.594 508.181 162.551 506.671 159.579 506.671H154.099V524.085ZM159.207 509.922C160.299 509.922 160.879 510.34 160.879 511.431V511.663C160.879 512.894 160.299 513.405 159.207 513.405H157.93V509.922H159.207ZM159.509 516.655C160.577 516.655 161.181 517.166 161.181 518.559V518.791C161.181 520.231 160.577 520.834 159.509 520.834H157.93V516.655H159.509Z" fill="#48494B"/>
<path d="M172.437 524.317C175.966 524.317 178.59 521.879 178.59 518.28C178.59 514.682 175.966 512.244 172.437 512.244C168.908 512.244 166.284 514.682 166.284 518.28C166.284 521.879 168.908 524.317 172.437 524.317ZM172.437 520.881C171.044 520.881 170.069 519.836 170.069 518.28C170.069 516.725 171.044 515.68 172.437 515.68C173.83 515.68 174.805 516.725 174.805 518.28C174.805 519.836 173.83 520.881 172.437 520.881Z" fill="#48494B"/>
<path d="M184.28 524.085V506.671H180.333V524.085H184.28Z" fill="#48494B"/>
<path d="M191.235 512.244C188.123 512.244 186.011 514.612 186.011 518.28C186.011 521.949 188.123 524.317 191.235 524.317C192.674 524.317 193.881 523.69 194.717 522.599V524.085H198.548V506.671H194.601V513.823C193.765 512.824 192.604 512.244 191.235 512.244ZM192.21 515.68C193.603 515.68 194.601 516.725 194.601 518.28C194.601 519.836 193.603 520.881 192.21 520.881C190.817 520.881 189.842 519.836 189.842 518.28C189.842 516.725 190.817 515.68 192.21 515.68Z" fill="#48494B"/>
<path d="M289.911 524.085H296.203C299.152 524.085 301.404 522.878 302.054 519.186L302.147 518.652C302.495 516.748 301.775 515.471 300.428 514.798C301.775 514.171 302.797 513.056 303.099 511.292L303.145 511.036C303.679 508.157 301.845 506.671 298.664 506.671H293.626L289.911 524.085ZM298.037 509.875C299.012 509.875 299.523 510.317 299.291 511.454L299.221 511.733C298.989 512.963 298.269 513.451 297.294 513.451H296.087L296.853 509.875H298.037ZM296.853 516.632C297.851 516.632 298.409 517.143 298.153 518.536L298.107 518.814C297.851 520.161 297.178 520.881 295.855 520.881H294.508L295.413 516.632H296.853Z" fill="#48494B"/>
<path d="M303.349 519.093C303.349 522.274 305.462 524.317 308.945 524.317C312.985 524.317 315.725 521.183 315.725 517.468C315.725 514.287 313.612 512.244 310.129 512.244C306.112 512.244 303.349 515.378 303.349 519.093ZM307.134 518.838C307.134 517.189 308.248 515.634 309.92 515.634C311.174 515.634 311.94 516.446 311.94 517.723C311.94 519.372 310.826 520.927 309.154 520.927C307.9 520.927 307.134 520.115 307.134 518.838Z" fill="#48494B"/>
<path d="M320.184 524.085L323.899 506.671H319.859L316.144 524.085H320.184Z" fill="#48494B"/>
<path d="M334.149 506.671L332.547 514.264C331.874 512.963 330.62 512.244 329.065 512.244C325.443 512.244 323.121 515.471 323.121 519.256C323.121 522.297 324.932 524.317 327.718 524.317C329.181 524.317 330.388 523.62 331.294 522.506L330.945 524.085H334.498L338.189 506.671H334.149ZM331.712 517.7C331.712 519.372 330.644 520.881 328.972 520.881C327.765 520.881 327.022 520.091 327.022 518.861C327.022 517.189 328.09 515.68 329.738 515.68C330.969 515.68 331.712 516.469 331.712 517.7Z" fill="#48494B"/>
<path d="M162.899 560.432H158.302V557.228H162.434V553.467H158.302V550.541H162.899V546.78H153.867V564.193H162.899V560.432Z" fill="#48494B"/>
<path d="M168.218 564.193L169.495 560.107L170.819 564.193H175.555L172.746 558.249L175.416 552.584H170.726L169.542 556.438L168.311 552.584H163.621L166.291 558.203L163.482 564.193H168.218Z" fill="#48494B"/>
<path d="M181.697 559.689V555.881H184.181V552.584H181.697V549.287H177.169V552.584H175.823V555.881H177.169V559.875C177.169 563.404 179.213 564.425 181.999 564.425C182.811 564.425 183.694 564.309 184.181 564.147V560.803C183.81 560.943 183.299 560.989 182.927 560.989C182.068 560.989 181.697 560.594 181.697 559.689Z" fill="#48494B"/>
<path d="M189.699 552.584H185.52V564.193H190.047V558.435C190.047 557.181 190.929 556.485 192.439 556.485C192.903 556.485 193.321 556.531 193.646 556.671V552.399C193.507 552.352 193.274 552.352 193.089 552.352C191.51 552.352 190.326 553.304 189.699 554.976V552.584Z" fill="#48494B"/>
<path d="M197.859 564.425C199.507 564.425 200.854 563.822 201.55 562.359V564.193H205.822V556.438C205.822 553.49 203.222 552.352 200.366 552.352C197.487 552.352 194.631 553.559 194.631 556.694H198.741C198.741 555.835 199.136 555.324 200.087 555.324C200.83 555.324 201.318 555.695 201.318 556.392C201.318 558.528 194.283 556.392 194.283 561.128C194.283 563.357 196.117 564.425 197.859 564.425ZM198.625 560.664C198.625 559.573 200.343 559.782 201.388 559.109V559.898C201.388 561.036 200.738 561.616 199.739 561.616C199.182 561.616 198.625 561.314 198.625 560.664Z" fill="#48494B"/>
<path d="M207.536 564.193H213.805C216.869 564.193 218.959 562.452 218.959 559.294V558.83C218.959 556.833 217.868 555.487 216.196 554.836C217.566 554.233 218.425 553.118 218.425 551.4V551.168C218.425 548.289 216.335 546.78 213.271 546.78H207.536V564.193ZM212.853 550.379C213.758 550.379 214.246 550.727 214.246 551.656V551.888C214.246 552.956 213.758 553.397 212.853 553.397H211.901V550.379H212.853ZM213.062 556.996C213.944 556.996 214.455 557.414 214.455 558.621V558.853C214.455 560.06 213.944 560.594 213.062 560.594H211.901V556.996H213.062Z" fill="#48494B"/>
<path d="M226.106 564.425C229.704 564.425 232.375 562.011 232.375 558.389C232.375 554.767 229.704 552.352 226.106 552.352C222.507 552.352 219.837 554.767 219.837 558.389C219.837 562.011 222.507 564.425 226.106 564.425ZM226.106 560.548C224.922 560.548 224.109 559.689 224.109 558.389C224.109 557.089 224.922 556.229 226.106 556.229C227.313 556.229 228.102 557.089 228.102 558.389C228.102 559.689 227.313 560.548 226.106 560.548Z" fill="#48494B"/>
<path d="M238.297 564.193V546.78H233.769V564.193H238.297Z" fill="#48494B"/>
<path d="M244.761 552.352C241.696 552.352 239.699 554.674 239.699 558.389C239.699 562.104 241.696 564.425 244.761 564.425C246.223 564.425 247.431 563.775 248.243 562.661V564.193H252.585V546.78H248.058V553.884C247.245 552.909 246.13 552.352 244.761 552.352ZM246.061 556.229C247.222 556.229 248.058 557.089 248.058 558.389C248.058 559.689 247.222 560.548 246.061 560.548C244.853 560.548 244.064 559.689 244.064 558.389C244.064 557.089 244.853 556.229 246.061 556.229Z" fill="#48494B"/>
<path d="M299.546 560.478H294.949L295.645 557.205H299.778L300.567 553.49H296.434L297.085 550.495H301.659L302.448 546.78H293.416L289.724 564.193H298.756L299.546 560.478Z" fill="#48494B"/>
<path d="M299.362 564.193H304.099L306.235 560.107L306.746 564.193H311.412L309.834 558.226L313.618 552.584H308.951L306.955 556.369L306.49 552.584H301.893L303.402 558.18L299.362 564.193Z" fill="#48494B"/>
<path d="M318.506 559.666L319.319 555.835H321.826L322.523 552.584H320.015L320.712 549.334H316.184L315.488 552.584H314.164L313.468 555.835H314.791L313.955 559.805C313.213 563.311 315.116 564.425 317.81 564.425C318.622 564.425 319.528 564.309 320.062 564.147L320.758 560.85C320.317 560.989 319.806 561.059 319.412 561.059C318.599 561.059 318.297 560.618 318.506 559.666Z" fill="#48494B"/>
<path d="M325.905 564.193L327.112 558.505C327.391 557.112 328.412 556.485 329.805 556.485C330.409 556.485 330.804 556.555 331.105 556.671L332.034 552.399C331.895 552.352 331.663 552.352 331.43 552.352C329.852 552.352 328.459 553.374 327.46 555.208L328.017 552.584H323.838L321.377 564.193H325.905Z" fill="#48494B"/>
<path d="M335.672 564.425C337.158 564.425 338.411 563.706 339.317 562.591L338.945 564.193H342.823L345.284 552.584H340.756L340.408 554.21C339.735 553.002 338.551 552.352 337.065 552.352C333.443 552.352 331.167 555.579 331.167 559.387C331.167 562.405 332.978 564.425 335.672 564.425ZM339.549 557.924C339.549 559.341 338.644 560.571 337.204 560.571C336.182 560.571 335.532 559.898 335.532 558.853C335.532 557.437 336.461 556.206 337.854 556.206C338.899 556.206 339.549 556.88 339.549 557.924Z" fill="#48494B"/>
<path d="M344.686 564.193H351.187C354.321 564.193 356.55 562.893 357.131 559.341L357.223 558.76C357.548 556.88 356.805 555.626 355.436 554.952C356.875 554.372 357.92 553.258 358.222 551.447L358.268 551.168C358.779 548.266 357.014 546.78 353.764 546.78H348.377L344.686 564.193ZM352.951 550.309C353.81 550.309 354.182 550.704 353.996 551.656L353.95 551.981C353.741 553.002 353.137 553.42 352.301 553.42H351.326L351.999 550.309H352.951ZM351.721 556.972C352.58 556.972 352.975 557.414 352.766 558.621L352.719 558.9C352.533 560.06 351.906 560.664 350.885 560.664H349.77L350.56 556.972H351.721Z" fill="#48494B"/>
<path d="M358.217 559.155C358.217 562.382 360.4 564.425 363.882 564.425C367.946 564.425 370.755 561.361 370.755 557.623C370.755 554.395 368.596 552.352 365.09 552.352C361.05 552.352 358.217 555.417 358.217 559.155ZM362.443 558.83C362.443 557.414 363.395 556.16 364.811 556.16C365.879 556.16 366.552 556.856 366.552 557.948C366.552 559.364 365.601 560.618 364.184 560.618C363.116 560.618 362.443 559.921 362.443 558.83Z" fill="#48494B"/>
<path d="M375.447 564.193L379.138 546.78H374.611L370.919 564.193H375.447Z" fill="#48494B"/>
<path d="M388.899 546.78L387.32 554.21C386.647 553.002 385.463 552.352 383.977 552.352C380.355 552.352 378.079 555.579 378.079 559.387C378.079 562.405 379.89 564.425 382.584 564.425C384.07 564.425 385.323 563.706 386.229 562.591L385.857 564.193H389.735L393.427 546.78H388.899ZM386.461 557.924C386.461 559.341 385.556 560.571 384.116 560.571C383.095 560.571 382.444 559.898 382.444 558.853C382.444 557.437 383.373 556.206 384.766 556.206C385.811 556.206 386.461 556.88 386.461 557.924Z" fill="#48494B"/>
<path d="M153.635 604.302H160.206C163.34 604.302 165.476 602.584 165.476 599.426V598.962C165.476 596.988 164.362 595.641 162.643 594.991C164.013 594.388 164.896 593.25 164.896 591.532V591.3C164.896 588.421 162.76 586.888 159.625 586.888H153.635V604.302ZM159.161 590.835C159.857 590.835 160.252 591.114 160.252 591.88V592.112C160.252 593.018 159.857 593.389 159.161 593.389H158.511V590.835H159.161ZM159.277 597.336C159.973 597.336 160.368 597.685 160.368 598.683V598.915C160.368 599.913 159.973 600.355 159.277 600.355H158.511V597.336H159.277Z" fill="#48494B"/>
<path d="M171.508 604.302V586.888H166.4V604.302H171.508Z" fill="#48494B"/>
<path d="M175.926 604.534C177.598 604.534 178.944 603.907 179.618 602.421V604.302H184.4V596.64C184.4 593.621 181.73 592.46 178.759 592.46C175.787 592.46 172.792 593.691 172.792 596.849H177.319C177.319 596.152 177.528 595.688 178.387 595.688C178.967 595.688 179.316 596.013 179.316 596.616C179.316 598.683 172.443 596.616 172.443 601.26C172.443 603.443 174.254 604.534 175.926 604.534ZM177.296 600.703C177.296 599.751 178.596 599.937 179.385 599.287V600.169C179.385 601.098 179.037 601.562 178.248 601.562C177.807 601.562 177.296 601.283 177.296 600.703Z" fill="#48494B"/>
<path d="M192.94 597.777H197.862C197.537 594.597 195.285 592.46 191.617 592.46C187.995 592.46 185.325 594.945 185.325 598.497C185.325 602.049 187.995 604.534 191.617 604.534C195.378 604.534 197.7 602.282 197.909 598.962H192.987C192.894 599.821 192.383 600.192 191.663 600.192C190.618 600.192 190.154 599.612 190.154 598.497C190.154 597.476 190.688 596.802 191.663 596.802C192.313 596.802 192.824 597.104 192.94 597.777Z" fill="#48494B"/>
<path d="M204.068 586.888H198.96V604.302H204.068V598.52L205.948 604.302H211.381L208.665 597.893L211.265 592.693H205.832L204.068 597.313V586.888Z" fill="#48494B"/>
<path d="M289.492 604.302H296.272C299.615 604.302 301.798 602.909 302.332 599.496L302.424 598.892C302.726 597.011 301.983 595.781 300.544 595.131C302.123 594.55 303.167 593.436 303.446 591.601L303.492 591.3C303.957 588.374 302.285 586.888 298.965 586.888H293.184L289.492 604.302ZM297.943 590.835C298.617 590.835 298.895 591.137 298.756 591.88L298.686 592.228C298.524 593.064 298.059 593.389 297.409 593.389H296.69L297.224 590.835H297.943ZM296.666 597.336C297.34 597.336 297.572 597.685 297.409 598.683L297.363 598.985C297.224 599.937 296.69 600.355 296.016 600.355H295.204L295.854 597.336H296.666Z" fill="#48494B"/>
<path d="M307.365 604.302L311.057 586.888H305.949L302.257 604.302H307.365Z" fill="#48494B"/>
<path d="M314.058 604.534C315.591 604.534 316.821 603.814 317.727 602.676L317.379 604.302H321.651L324.112 592.693H319.004L318.702 594.155C318.006 593.041 316.891 592.46 315.498 592.46C311.876 592.46 309.647 595.665 309.647 599.519C309.647 602.514 311.458 604.534 314.058 604.534ZM317.773 598.195C317.773 599.287 317.054 600.169 315.939 600.169C315.103 600.169 314.592 599.635 314.592 598.799C314.592 597.708 315.312 596.825 316.403 596.825C317.263 596.825 317.773 597.359 317.773 598.195Z" fill="#48494B"/>
<path d="M336.539 597.777C336.539 594.504 334.333 592.46 330.85 592.46C326.811 592.46 323.932 595.456 323.932 599.217C323.932 602.491 326.137 604.534 329.62 604.534C333.428 604.534 335.912 602.258 336.446 598.962H331.686C331.477 599.681 330.827 600.215 330.015 600.215C329.179 600.215 328.668 599.658 328.668 598.776C328.668 597.685 329.388 596.779 330.479 596.779C331.152 596.779 331.663 597.151 331.756 597.777H336.539Z" fill="#48494B"/>
<path d="M345.136 586.888H340.028L336.336 604.302H341.444L342.675 598.497L343.325 604.302H348.758L347.411 598.195L351.103 592.693H345.53L342.93 597.29L345.136 586.888Z" fill="#48494B"/>
<path d="M50.608 701.901H1.8009V1.27295H50.608M50.608 701.901V667.745M50.608 701.901H139.219M50.608 1.27295H422.178V73.8537M50.608 1.27295V73.8537M50.608 73.8537H422.178M50.608 73.8537V115.899M422.178 73.8537V115.899M50.608 115.899H422.178M50.608 115.899V154.052M422.178 115.899V154.052M50.608 154.052H422.178M50.608 154.052V166.856M422.178 154.052V166.856M50.608 166.856V207.397M50.608 166.856H139.219M422.178 166.856V207.397M422.178 166.856H139.219M50.608 207.397H422.178M50.608 207.397V247.937M422.178 207.397V247.937M50.608 247.937H422.178M50.608 247.937V287.411M422.178 247.937V287.411M50.608 287.411H422.178M50.608 287.411V327.418M422.178 287.411V327.418M50.608 327.418H422.178M50.608 327.418V369.025M422.178 327.418V369.025M50.608 369.025H422.178M50.608 369.025V409.566M422.178 369.025V409.566M50.608 409.566H422.178M50.608 409.566V450.106M422.178 409.566V450.106M50.608 450.106H422.178M50.608 450.106V489.58M422.178 450.106V489.58M50.608 489.58H422.178M50.608 489.58V529.054M422.178 489.58V529.054M50.608 529.054H422.178M50.608 529.054V571.728M422.178 529.054V571.728M50.608 571.728H422.178M50.608 571.728V611.735M422.178 571.728V611.735M50.608 611.735H422.178M50.608 611.735V656.818M422.178 611.735V656.818M50.608 656.818H422.178M50.608 656.818V667.745M422.178 656.818V667.745M50.608 667.745H422.178M422.178 667.745V701.901H139.219M139.219 701.901V166.856" stroke="#FF6262" stroke-width="2"/>
</svg>
