<svg width="10" height="107" viewBox="0 0 10 107" fill="none" xmlns="http://www.w3.org/2000/svg">
<path d="M6.65231 106.167L0.867313 106.167L0.867313 102.423L6.65231 102.423L6.65231 101.643L0.152313 101.643L0.152313 106.947L6.65231 106.947L6.65231 106.167ZM9.90231 98.6896L5.27431 98.6896C6.21031 98.1696 6.78231 97.2596 6.78231 96.1806C6.78231 94.4126 5.39131 93.0736 3.40231 93.0736C1.41331 93.0736 0.022312 94.4126 0.0223121 96.1806C0.0223121 97.2596 0.594313 98.1696 1.53031 98.6896L0.152313 98.6896L0.152313 99.4696L9.90231 99.4696L9.90231 98.6896ZM6.06731 96.2716C6.06731 97.6496 5.00131 98.6896 3.40231 98.6896C1.80331 98.6896 0.737313 97.6496 0.737313 96.2716C0.737312 94.8936 1.80331 93.8536 3.40231 93.8536C5.00131 93.8536 6.06731 94.8936 6.06731 96.2716ZM6.78231 88.7676C6.78231 86.9216 5.39131 85.5306 3.40231 85.5306C1.41331 85.5306 0.0223117 86.9216 0.0223117 88.7676C0.0223118 90.6136 1.41331 92.0046 3.40231 92.0046C5.39131 92.0046 6.78231 90.6136 6.78231 88.7676ZM6.06731 88.7676C6.06731 90.1716 5.00131 91.2246 3.40231 91.2246C1.80331 91.2246 0.737312 90.1716 0.737312 88.7676C0.737312 87.3636 1.80331 86.3106 3.40231 86.3106C5.00131 86.3106 6.06731 87.3636 6.06731 88.7676ZM6.65231 83.1506L0.867312 83.1506L0.867312 79.4066L6.65231 79.4066L6.65231 78.6266L0.152312 78.6266L0.152312 83.9306L6.65231 83.9306L6.65231 83.1506ZM6.65231 70.915L0.152312 70.915L0.152312 71.877L5.87231 75.699L0.152312 75.699L0.152312 76.453L6.65231 76.453L6.65231 75.491L0.932311 71.669L6.65231 71.669L6.65231 70.915ZM2.73931 63.7931L2.73931 62.9871C1.11431 63.1691 0.0223107 64.4821 0.0223108 66.1331C0.0223108 67.9531 1.41331 69.3181 3.40231 69.3181C5.39131 69.3181 6.78231 67.9531 6.78231 66.1331C6.78231 64.4301 5.62531 63.0911 3.92231 62.9611L3.92231 63.7671C5.26131 63.9101 6.06731 64.9111 6.06731 66.1331C6.06731 67.5111 5.00131 68.5381 3.40231 68.5381C1.80331 68.5381 0.737311 67.5111 0.737311 66.1331C0.737311 64.9501 1.49131 63.9621 2.73931 63.7931ZM6.65231 60.5656L3.68831 60.5656L3.68831 56.6656L6.65231 56.6656L6.65231 55.8856L0.152311 55.8856L0.152311 56.6656L2.97331 56.6656L2.97331 60.5656L0.152311 60.5656L0.152311 61.3456L6.65231 61.3456L6.65231 60.5656ZM4.59831 48.7748C3.29831 48.7748 2.50531 49.6848 2.50531 51.0888L2.50531 52.9738L0.152311 52.9738L0.152311 53.7538L6.65231 53.7538L6.65231 51.0888C6.65231 49.6458 5.87231 48.7748 4.59831 48.7748ZM6.65231 46.7468L0.152311 46.7468L0.152311 47.5268L6.65231 47.5268L6.65231 46.7468ZM3.16831 51.1798C3.16831 50.1398 3.62331 49.5548 4.59831 49.5548C5.53431 49.5548 5.98931 50.1398 5.98931 51.1798L5.98931 52.9738L3.16831 52.9738L3.16831 51.1798ZM3.67531 38.8672C3.58431 38.8542 3.49331 38.8542 3.40231 38.8542C1.41331 38.8542 0.0223096 40.1932 0.0223097 42.0002C0.0223098 43.8072 1.41331 45.1462 3.40231 45.1462C5.39131 45.1462 6.78231 43.8072 6.78231 42.0002C6.78231 40.5702 6.00231 39.4392 4.70231 39.0362L4.70231 39.8682C5.56031 40.2062 6.09331 40.9732 6.09331 41.9742C6.09331 43.3262 5.15731 44.2752 3.67531 44.3792L3.67531 38.8672ZM0.71131 42.0002C0.71131 40.6742 1.63431 39.7252 3.10331 39.6212L3.10331 44.3792C1.63431 44.2622 0.71131 43.3262 0.71131 42.0002ZM3.02531 32.8888L3.62331 32.8888L3.62331 31.8618C3.62331 30.9128 4.00031 30.1198 4.87131 30.1198C5.67731 30.1198 6.15831 30.7568 6.15831 31.9788C6.15831 33.2008 5.58631 34.0068 4.55931 34.0068L4.55931 34.7868C5.98931 34.7868 6.78231 33.6688 6.78231 31.9788C6.78231 30.3278 6.10631 29.3528 4.89731 29.3528C4.03931 29.3528 3.54531 29.8858 3.32431 30.7178C3.11631 29.9768 2.59631 29.5218 1.79031 29.5218C0.750309 29.5218 0.0223092 30.4448 0.0223093 31.9918C0.0223093 33.6298 0.94531 34.6438 2.10231 34.6438L2.10231 33.8638C1.23131 33.8638 0.65931 33.1098 0.65931 31.9918C0.65931 30.9128 1.11431 30.2758 1.84231 30.2758C2.67431 30.2758 3.02531 30.9128 3.02531 31.8618L3.02531 32.8888ZM6.65231 26.8596L3.68831 26.8596L3.68831 22.9596L6.65231 22.9596L6.65231 22.1796L0.152309 22.1796L0.15231 22.9596L2.97331 22.9596L2.97331 26.8596L0.15231 26.8596L0.15231 27.6396L6.65231 27.6396L6.65231 26.8596ZM6.78231 18.1368C6.78231 17.1358 6.34031 16.1608 5.32631 15.7058L6.65231 15.7058L6.65231 14.9388L2.05031 14.9388C0.581309 14.9388 0.0223086 16.1868 0.0223086 17.5388C0.0223087 18.9168 0.646309 20.2168 2.28431 20.2168L2.28431 19.4238C1.20531 19.4238 0.659309 18.6308 0.659309 17.5388C0.659309 16.4988 1.11431 15.7188 2.02431 15.7188C3.87031 15.7188 2.14131 20.4118 4.98831 20.4118C6.21031 20.4118 6.78231 19.3848 6.78231 18.1368ZM4.94931 19.6188C3.28531 19.6188 3.97431 16.8368 3.16831 15.7058L3.97431 15.7058C5.37831 15.7058 6.11931 16.8368 6.11931 18.0068C6.11931 18.9558 5.74231 19.6188 4.94931 19.6188ZM0.152309 12.1203L0.152309 12.9003L6.65231 12.9003L6.65231 12.1203L3.25931 12.1203L6.65231 8.38931L6.65231 7.34931L3.18131 11.1973L0.152309 7.71331L0.152309 8.79231L3.12931 12.1203L0.152309 12.1203ZM6.65231 0.53223L0.152309 0.53223L0.152309 1.49423L5.87231 5.31623L0.152309 5.31623L0.152309 6.07023L6.65231 6.07023L6.65231 5.10823L0.932308 1.28623L6.65231 1.28623L6.65231 0.53223Z" fill="#FF6262"/>
</svg>
