<svg width="1301" height="906" viewBox="0 0 1301 906" fill="none" xmlns="http://www.w3.org/2000/svg">
<path fill-rule="evenodd" clip-rule="evenodd" d="M1300.67 0.0917969L1300.67 550.679L1040.14 550.679L1040.14 905.607L914.62 905.607L914.62 498.631L884.821 498.631L884.821 505.605L873.012 505.605L873.012 278.545L881.676 278.545L881.676 280.892L875.36 280.892L875.36 503.257L882.473 503.257L882.473 278.545L914.62 278.545L914.62 236.479L1037.79 236.479L1037.79 0.0917854L1300.67 0.0917969ZM1037.79 238.827L1008.79 238.827L1008.79 304.748C1013.21 305.275 1016.13 307.74 1017.94 310.646C1019.86 313.741 1020.55 317.347 1020.61 319.746L1020.64 320.947L1008.79 320.947L1008.79 342.535C1013.21 343.063 1016.13 345.528 1017.94 348.433C1019.86 351.529 1020.55 355.135 1020.61 357.534L1020.64 358.735L1008.79 358.735L1008.79 417.694C1013.21 418.221 1016.13 420.687 1017.94 423.592C1019.86 426.687 1020.55 430.293 1020.61 432.692L1020.64 433.893L1008.79 433.893L1008.79 469.226C1013.21 469.753 1016.13 472.218 1017.94 475.124C1019.86 478.219 1020.55 481.825 1020.61 484.224L1020.64 485.425L1008.79 485.425L1008.79 534.48C1013.21 535.007 1016.13 537.472 1017.94 540.378C1019.86 543.473 1020.55 547.079 1020.61 549.478L1020.64 550.679L1008.79 550.679L1008.79 585.087C1013.21 585.615 1016.13 588.08 1017.94 590.985C1019.86 594.08 1020.55 597.687 1020.61 600.086L1020.64 601.287L1008.79 601.287L1008.79 650.484C1013.21 651.011 1016.13 653.477 1017.94 656.382C1019.86 659.477 1020.55 663.083 1020.61 665.482L1020.64 666.683L1008.79 666.683L1008.79 700.705C1013.21 701.232 1016.13 703.698 1017.94 706.603C1019.86 709.698 1020.55 713.304 1020.61 715.703L1020.64 716.904L1008.79 716.904L1008.79 764.946C1013.21 765.474 1016.13 767.939 1017.94 770.844C1019.86 773.94 1020.55 777.546 1020.61 779.945L1020.64 781.146L1008.79 781.146L1008.79 903.26L1037.79 903.26L1037.79 238.827ZM1006.45 903.26L1006.45 842.026L916.968 842.026L916.968 903.26L1006.45 903.26ZM916.968 839.678L1006.45 839.678L1006.45 789.338L916.968 789.338L916.968 839.678ZM916.968 786.991L991.11 786.991L991.11 778.953L1006.45 778.953L1006.45 725.097L916.968 725.097L916.968 786.991ZM916.968 722.749L991.11 722.749L991.11 714.712L1006.45 714.712L1006.45 674.721L916.968 674.721L916.968 722.749ZM916.968 672.373L991.11 672.373L991.11 664.336L1006.45 664.336L1006.45 609.324L916.968 609.324L916.968 672.373ZM916.968 606.976L991.11 606.976L991.11 598.939L1006.45 598.939L1006.45 558.717L916.968 558.717L916.968 606.976ZM916.968 556.369L991.11 556.369L991.11 548.331L1006.45 548.331L1006.45 493.463L916.968 493.463L916.968 556.369ZM916.968 491.115L991.11 491.115L991.11 483.077L1006.45 483.077L1006.45 441.931L916.968 441.931L916.968 491.115ZM916.968 439.583L991.11 439.583L991.11 431.546L1006.45 431.546L1006.45 367.06L916.968 367.06L916.968 439.583ZM916.968 364.712L991.11 364.712L991.11 356.674L1006.45 356.674L1006.45 328.985L916.968 328.985L916.968 364.712ZM916.968 326.637L991.11 326.637L991.11 318.599L1006.45 318.599L1006.45 286.805L916.968 286.805L916.968 326.637ZM916.968 284.457L1006.45 284.457L1006.45 238.827L916.968 238.827L916.968 284.457ZM1008.79 318.599L1018.18 318.599C1017.96 316.608 1017.3 314.073 1015.94 311.886C1014.49 309.545 1012.24 307.613 1008.79 307.116L1008.79 318.599ZM1006.45 320.947L993.458 320.947L993.458 326.637L1006.45 326.637L1006.45 320.947ZM1006.45 359.022L993.458 359.022L993.458 364.712L1006.45 364.712L1006.45 359.022ZM1008.79 431.546L1018.18 431.546C1017.96 429.554 1017.3 427.02 1015.94 424.833C1014.49 422.491 1012.24 420.56 1008.79 420.062L1008.79 431.546ZM1006.45 433.893L993.458 433.893L993.458 439.583L1006.45 439.583L1006.45 433.893ZM1008.79 483.077L1018.18 483.077C1017.96 481.086 1017.3 478.551 1015.94 476.364C1014.49 474.023 1012.24 472.091 1008.79 471.594L1008.79 483.077ZM1006.45 485.425L993.458 485.425L993.458 491.115L1006.45 491.115L1006.45 485.425ZM1008.79 548.331L1018.18 548.331C1017.96 546.34 1017.3 543.805 1015.94 541.618C1014.49 539.277 1012.24 537.345 1008.79 536.848L1008.79 548.331ZM1006.45 550.679L993.458 550.679L993.458 556.369L1006.45 556.369L1006.45 550.679ZM1008.79 598.939L1018.18 598.939C1017.96 596.947 1017.3 594.413 1015.94 592.226C1014.49 589.885 1012.24 587.953 1008.79 587.455L1008.79 598.939ZM1006.45 601.287L993.458 601.287L993.458 606.976L1006.45 606.976L1006.45 601.287ZM1008.79 664.336L1018.18 664.336C1017.96 662.344 1017.3 659.81 1015.94 657.622C1014.49 655.281 1012.24 653.349 1008.79 652.852L1008.79 664.336ZM1006.45 666.683L993.458 666.683L993.458 672.373L1006.45 672.373L1006.45 666.683ZM1006.45 717.06L993.458 717.06L993.458 722.749L1006.45 722.749L1006.45 717.06ZM1006.45 781.301L993.458 781.301L993.458 786.991L1006.45 786.991L1006.45 781.301ZM1008.79 767.314L1008.79 778.798L1018.18 778.798C1017.96 776.806 1017.3 774.272 1015.94 772.085C1014.49 769.744 1012.24 767.812 1008.79 767.314ZM1008.79 703.073L1008.79 714.557L1018.18 714.557C1017.96 712.565 1017.3 710.031 1015.94 707.843C1014.49 705.502 1012.24 703.57 1008.79 703.073ZM1008.79 344.903L1008.79 356.387L1018.18 356.387C1017.96 354.395 1017.3 351.861 1015.94 349.674C1014.49 347.333 1012.24 345.401 1008.79 344.903ZM914.62 280.892L884.821 280.892L884.821 496.283L914.62 496.283L914.62 280.892ZM1040.14 548.331L1298.32 548.331L1298.32 283.748L1239.4 283.748L1239.4 281.4L1298.32 281.4L1298.32 2.4395L1040.14 2.43949L1040.14 281.589L1121.59 281.589L1121.59 283.936L1040.14 283.936L1040.14 548.331ZM1244.6 413.991L1244.6 435.259L1237.31 435.259L1237.31 447.234L1244.6 447.234L1244.6 468.501L1237.31 468.501L1237.31 480.941L1244.6 480.941L1244.6 502.208L1237.31 502.208L1237.31 509.637L1230.07 509.637L1230.07 519.215L1207.55 519.215L1207.55 509.637L1179.98 509.637L1179.98 519.215L1157.47 519.215L1157.47 509.637L1133.46 509.637L1133.46 519.215L1110.95 519.215L1110.95 509.637L1101.82 509.637L1101.82 502.208L1093.75 502.208L1093.75 480.941L1101.82 480.941L1101.82 468.643L1094.93 468.643L1094.93 467.327L1093.75 467.327L1093.75 447.234L1101.82 447.234L1101.82 435.259L1093.75 435.259L1093.75 413.991L1101.82 413.991L1101.82 363.124L1113.98 363.124L1113.98 498.566L1224.22 498.566L1224.22 363.124L1237.31 363.124L1237.31 413.991L1244.6 413.991ZM1237.31 416.339L1237.31 432.911L1242.25 432.911L1242.25 416.339L1237.31 416.339ZM1101.05 416.339L1096.1 416.339L1096.1 432.911L1101.05 432.911L1101.05 416.339ZM1101.05 449.581L1096.1 449.581L1096.1 466.296L1101.05 466.296L1101.05 449.581ZM1101.05 483.289L1096.1 483.289L1096.1 499.861L1101.05 499.861L1101.05 483.289ZM1113.3 509.637L1113.3 516.867L1131.11 516.867L1131.11 509.637L1113.3 509.637ZM1159.82 509.637L1159.82 516.867L1177.64 516.867L1177.64 509.637L1159.82 509.637ZM1209.9 509.637L1209.9 516.867L1227.72 516.867L1227.72 509.637L1209.9 509.637ZM1234.96 365.472L1226.56 365.472L1226.56 500.913L1111.63 500.913L1111.63 365.472L1104.17 365.472L1104.17 507.289L1234.96 507.289L1234.96 365.472ZM1237.31 499.861L1242.25 499.861L1242.25 483.289L1237.31 483.289L1237.31 499.861ZM1237.31 466.153L1242.25 466.153L1242.25 449.581L1237.31 449.581L1237.31 466.153ZM1198.29 432.911L1198.29 350.524L1200.64 350.524L1200.64 435.259L1138.26 435.259L1138.26 350.524L1140.61 350.524L1140.61 432.911L1198.29 432.911ZM1029.71 894.05L1029.71 841.985L1032.05 841.985L1032.05 896.398L1013.9 896.398L1013.9 861.816L1016.25 861.816L1016.25 894.05L1029.71 894.05Z" fill="#48494B"/>
<path d="M1103.44 82.393C1103.44 94.3944 1098.87 99.2964 1087.89 99.2964H1082.31V125.497H1101.75V202.408H1138.94V75.6316H1103.44V82.393Z" fill="#48494B"/>
<path d="M1186.57 188.6C1186.99 185.051 1189.53 183.656 1192.61 183.656C1195.74 183.656 1198.19 185.558 1198.78 189.107H1189.7V192.319H1198.78C1198.24 195.911 1195.78 197.855 1192.61 197.855C1189.49 197.855 1186.91 196.291 1186.45 192.446H1182.09C1182.39 198.024 1186.83 201.743 1192.61 201.743C1198.62 201.743 1203.14 197.221 1203.14 190.756C1203.14 184.29 1198.62 179.768 1192.61 179.768C1186.99 179.768 1182.68 183.318 1182.13 188.6H1186.57Z" fill="#48494B"/>
<path d="M1215.76 201.32V184.079H1222.61V180.191H1204.69V184.079H1211.53V201.32H1215.76Z" fill="#48494B"/>
<path d="M1232.37 201.743C1235.41 201.743 1238.12 200.56 1239.51 197.77V201.32H1243.65V186.53C1243.65 181.628 1239.43 179.768 1234.86 179.768C1230.22 179.768 1225.82 181.839 1225.82 187.29H1230.22C1230.22 184.544 1232.12 183.149 1234.86 183.149C1237.44 183.149 1239.43 184.29 1239.43 186.361C1239.43 191.178 1225.19 186.614 1225.19 195.742C1225.19 199.926 1228.61 201.743 1232.37 201.743ZM1229.5 195.489C1229.5 191.939 1235.92 192.826 1239.51 191.094V192.615C1239.51 196.291 1236.47 198.193 1233.22 198.193C1231.06 198.193 1229.5 197.306 1229.5 195.489Z" fill="#48494B"/>
<path d="M1265.62 180.191H1261.39V189.488L1253.28 180.191H1247.66L1256.75 189.826L1246.9 201.32H1252.22L1261.39 190.291V201.32H1265.62V190.206L1274.79 201.32H1279.99L1270.31 189.826L1279.19 180.191H1273.78L1265.62 189.53V180.191Z" fill="#48494B"/>
<path fill-rule="evenodd" clip-rule="evenodd" d="M641.235 2.39034H3.11349V887.362H641.235V2.39034ZM0.814453 0.0913086V889.661H643.534V0.0913086H0.814453Z" fill="#FF6262"/>
<path fill-rule="evenodd" clip-rule="evenodd" d="M586 85.9101H58.3509V515.657H586V85.9101ZM56.0519 83.6111V517.956H588.299V83.6111H56.0519Z" fill="#FF6262"/>
<path d="M79.9136 591.516H103.955V727.37H79.9136V591.516Z" fill="#FF6262"/>
<path d="M164.457 591.516H223.232V727.369H164.457V591.516Z" fill="#FF6262"/>
<path d="M236.764 591.516H247.278V727.369H236.764V591.516Z" fill="#FF6262"/>
<path d="M275.017 591.516H321.833V727.369H275.017V591.516Z" fill="#FF6262"/>
<path d="M449.869 591.516H528.112V727.369H449.869V591.516Z" fill="#FF6262"/>
<path d="M381.35 591.516H390.354V727.369H381.35V591.516Z" fill="#FF6262"/>
<path d="M557.958 591.516H563.303V727.369H557.958V591.516Z" fill="#FF6262"/>
<path d="M363.861 591.516H368.406V727.369H363.861V591.516Z" fill="#FF6262"/>
<path d="M355.655 591.517H360.2V727.37H355.655V591.517Z" fill="#FF6262"/>
<path d="M439.261 591.516H443.806V727.369H439.261V591.516Z" fill="#FF6262"/>
<path d="M332.052 591.516H341.056V727.369H332.052V591.516Z" fill="#FF6262"/>
<path d="M145.55 591.516H150.933V727.369H145.55V591.516Z" fill="#FF6262"/>
<path d="M114.456 591.517H125.145V727.37H114.456V591.517Z" fill="#FF6262"/>
<path d="M107.87 803.276C124.055 803.276 135.826 790.401 135.826 774.952C135.826 759.282 124.055 746.628 107.87 746.628C91.6846 746.628 79.9136 759.282 79.9136 774.952C79.9136 790.401 91.6846 803.276 107.87 803.276ZM107.87 747.805C123.319 747.805 134.502 760.091 134.502 774.952C134.502 789.886 123.319 802.099 107.87 802.099C92.4203 802.099 81.2378 789.886 81.2378 774.952C81.2378 760.091 92.4203 747.805 107.87 747.805ZM98.5266 774.878C98.5266 765.609 102.352 761.562 107.87 761.562C112.652 761.562 115.668 764.579 115.668 768.919H117.066C117.066 763.696 113.24 760.238 107.87 760.238C101.911 760.238 97.0552 764.505 97.0552 774.878C97.0552 785.914 101.911 789.739 107.87 789.739C113.167 789.739 117.507 785.84 117.507 780.396C117.507 774.805 113.24 770.979 108.091 770.979C103.824 770.979 99.5565 773.701 98.8208 778.998C98.6001 777.895 98.5266 776.497 98.5266 774.878ZM107.87 788.415C103.309 788.415 99.7037 785.031 99.7037 780.396C99.7037 775.614 103.309 772.303 107.87 772.303C112.431 772.303 116.036 775.614 116.036 780.396C116.036 785.031 112.431 788.415 107.87 788.415Z" fill="#FF6262"/>
<path d="M168.938 803.276C185.123 803.276 196.894 790.401 196.894 774.952C196.894 759.282 185.123 746.628 168.938 746.628C152.753 746.628 140.982 759.282 140.982 774.952C140.982 790.401 152.753 803.276 168.938 803.276ZM168.938 747.805C184.387 747.805 195.57 760.091 195.57 774.952C195.57 789.886 184.387 802.099 168.938 802.099C153.488 802.099 142.306 789.886 142.306 774.952C142.306 760.091 153.488 747.805 168.938 747.805ZM168.717 770.832C174.014 770.832 177.398 774.51 177.398 779.66C177.398 784.736 174.014 788.415 168.717 788.415C163.567 788.415 160.33 785.178 160.33 780.543H158.859C158.859 785.987 162.832 789.739 168.717 789.739C174.75 789.739 178.796 785.619 178.796 779.66C178.796 773.701 174.75 769.581 168.864 769.581C165.259 769.581 162.17 771.273 160.772 773.775V762.004H177.398V760.679H159.3V776.129H160.772C161.287 773.407 164.156 770.832 168.717 770.832Z" fill="#FF6262"/>
<path d="M230.006 803.276C246.191 803.276 257.962 790.401 257.962 774.952C257.962 759.282 246.191 746.628 230.006 746.628C213.821 746.628 202.05 759.282 202.05 774.952C202.05 790.401 213.821 803.276 230.006 803.276ZM230.006 747.805C245.455 747.805 256.638 760.091 256.638 774.952C256.638 789.886 245.455 802.099 230.006 802.099C214.556 802.099 203.374 789.886 203.374 774.952C203.374 760.091 214.556 747.805 230.006 747.805ZM220.663 774.878C220.663 765.609 224.488 761.562 230.006 761.562C234.788 761.562 237.804 764.579 237.804 768.919H239.202C239.202 763.696 235.377 760.238 230.006 760.238C224.047 760.238 219.191 764.505 219.191 774.878C219.191 785.914 224.047 789.739 230.006 789.739C235.303 789.739 239.644 785.84 239.644 780.396C239.644 774.805 235.377 770.979 230.227 770.979C225.96 770.979 221.693 773.701 220.957 778.998C220.736 777.895 220.663 776.497 220.663 774.878ZM230.006 788.415C225.445 788.415 221.84 785.031 221.84 780.396C221.84 775.614 225.445 772.303 230.006 772.303C234.567 772.303 238.172 775.614 238.172 780.396C238.172 785.031 234.567 788.415 230.006 788.415Z" fill="#FF6262"/>
<path d="M291.074 803.276C307.259 803.276 319.03 790.401 319.03 774.952C319.03 759.282 307.259 746.628 291.074 746.628C274.889 746.628 263.118 759.282 263.118 774.952C263.118 790.401 274.889 803.276 291.074 803.276ZM291.074 747.805C306.524 747.805 317.706 760.091 317.706 774.952C317.706 789.886 306.524 802.099 291.074 802.099C275.625 802.099 264.442 789.886 264.442 774.952C264.442 760.091 275.625 747.805 291.074 747.805ZM290.338 788.121C290.338 776.865 295.341 768.257 301.3 762.224V760.679H281.951V762.004H299.902C294.09 768.11 288.941 776.717 288.941 788.047V789.298H290.338V788.121Z" fill="#FF6262"/>
<path d="M352.142 803.276C368.327 803.276 380.098 790.401 380.098 774.952C380.098 759.282 368.327 746.628 352.142 746.628C335.957 746.628 324.186 759.282 324.186 774.952C324.186 790.401 335.957 803.276 352.142 803.276ZM352.142 747.805C367.592 747.805 378.774 760.091 378.774 774.952C378.774 789.886 367.592 802.099 352.142 802.099C336.693 802.099 325.51 789.886 325.51 774.952C325.51 760.091 336.693 747.805 352.142 747.805ZM351.701 762.813C351.701 764.726 350.965 765.461 349.052 765.461H346.845V766.712H351.701V789.298H353.172V760.679H351.701V762.813Z" fill="#FF6262"/>
<path d="M413.21 803.276C429.395 803.276 441.167 790.401 441.167 774.952C441.167 759.282 429.395 746.628 413.21 746.628C397.025 746.628 385.254 759.282 385.254 774.952C385.254 790.401 397.025 803.276 413.21 803.276ZM413.21 747.805C428.66 747.805 439.842 760.091 439.842 774.952C439.842 789.886 428.66 802.099 413.21 802.099C397.761 802.099 386.578 789.886 386.578 774.952C386.578 760.091 397.761 747.805 413.21 747.805ZM404.235 781.499H402.763C402.763 786.355 406.883 789.739 412.916 789.739C418.949 789.739 422.995 786.429 422.995 781.499C422.995 777.895 420.42 775.172 416.374 774.143C419.831 773.186 421.891 770.685 421.891 767.595C421.891 763.254 418.139 760.238 412.622 760.238C407.178 760.238 403.499 763.401 403.499 768.036H404.897C404.897 764.284 407.84 761.562 412.622 761.562C417.404 761.562 420.42 764.064 420.42 767.595C420.42 771.053 417.551 773.48 412.842 773.48H411.15V774.805H412.842C418.286 774.805 421.597 777.527 421.597 781.499C421.597 785.546 418.213 788.415 412.916 788.415C407.619 788.415 404.235 785.546 404.235 781.499Z" fill="#FF6262"/>
<path d="M474.278 803.276C490.464 803.276 502.235 790.401 502.235 774.952C502.235 759.282 490.464 746.628 474.278 746.628C458.093 746.628 446.322 759.282 446.322 774.952C446.322 790.401 458.093 803.276 474.278 803.276ZM474.278 747.805C489.728 747.805 500.91 760.091 500.91 774.952C500.91 789.886 489.728 802.099 474.278 802.099C458.829 802.099 447.646 789.886 447.646 774.952C447.646 760.091 458.829 747.805 474.278 747.805ZM483.033 768.551C483.033 763.254 478.987 760.238 473.984 760.238C468.908 760.238 464.714 763.475 464.714 769.14V769.876H466.186V769.287C466.186 763.99 469.791 761.562 473.984 761.562C478.177 761.562 481.562 764.137 481.562 768.551C481.562 777.159 464.494 776.57 464.494 788.268V789.298H483.548V787.974H466.112C466.259 777.306 483.033 778.115 483.033 768.551Z" fill="#FF6262"/>
<path d="M535.346 803.276C551.532 803.276 563.303 790.401 563.303 774.952C563.303 759.282 551.532 746.628 535.346 746.628C519.161 746.628 507.39 759.282 507.39 774.952C507.39 790.401 519.161 803.276 535.346 803.276ZM535.346 747.805C550.796 747.805 561.978 760.091 561.978 774.952C561.978 789.886 550.796 802.099 535.346 802.099C519.897 802.099 508.714 789.886 508.714 774.952C508.714 760.091 519.897 747.805 535.346 747.805ZM544.69 775.099C544.69 784.369 540.864 788.415 535.346 788.415C530.638 788.415 527.622 785.399 527.622 781.058H526.15C526.15 786.281 529.976 789.739 535.346 789.739C541.305 789.739 546.161 785.472 546.161 775.099C546.161 764.064 541.305 760.238 535.346 760.238C530.049 760.238 525.709 764.064 525.709 769.581C525.709 775.099 529.902 778.998 535.126 778.998C539.393 778.998 543.66 776.276 544.395 770.979C544.616 772.083 544.69 773.48 544.69 775.099ZM535.346 761.562C539.908 761.562 543.513 764.946 543.513 769.581C543.513 774.363 539.908 777.674 535.346 777.674C530.785 777.674 527.18 774.363 527.18 769.581C527.18 764.946 530.785 761.562 535.346 761.562Z" fill="#FF6262"/>
</svg>
