<svg width="1362" height="1267" viewBox="0 0 1362 1267" fill="none" xmlns="http://www.w3.org/2000/svg">
<path d="M622.792 784.004H433.989V1060.41H463.719L474.916 1049.21H622.792V784.004Z" fill="#EFE3CF" stroke="#48494B" stroke-width="2"/>
<path d="M447.87 916.341H608.911V1032.55H447.87V916.341Z" fill="#EFE3CF" stroke="#48494B" stroke-width="2"/>
<path d="M506.081 1000.72C515.525 1000.72 523.525 996.273 528.414 989.05C533.192 996.273 541.303 1000.72 550.858 1000.72C563.636 1000.72 573.303 994.384 576.747 982.939H564.747C562.525 987.939 558.081 990.939 551.303 990.939C541.969 990.939 535.747 985.272 534.414 975.606H577.97C578.081 974.384 578.192 973.161 578.192 971.828C578.192 954.828 566.636 942.939 550.858 942.939C541.303 942.939 533.192 947.383 528.414 954.606C523.525 947.383 515.525 942.939 506.081 942.939C489.969 942.939 477.969 954.828 477.969 971.828C477.969 988.828 489.969 1000.72 506.081 1000.72ZM550.858 952.717C559.747 952.717 565.859 958.272 567.192 967.606H534.525C535.858 958.272 541.858 952.717 550.858 952.717ZM506.081 990.495C496.414 990.495 489.08 983.05 489.08 971.828C489.08 960.606 496.414 953.161 506.081 953.161C515.747 953.161 523.081 960.606 523.081 971.828C523.081 983.05 515.747 990.495 506.081 990.495Z" fill="#48494B"/>
<path d="M324.013 142.126H135.209V418.528H164.939L176.136 407.331H324.013V142.126Z" fill="#EFE3CF" stroke="#48494B" stroke-width="2"/>
<path d="M149.09 274.463H310.132V390.667H149.09V274.463Z" fill="#EFE3CF" stroke="#48494B" stroke-width="2"/>
<path d="M233.834 306.329L244.056 289.662H231.723L224.612 306.329H233.834ZM212.612 372.996L214.834 370.218C219.056 372.774 224.167 374.107 229.612 374.107C245.723 374.107 257.723 362.218 257.723 345.218C257.723 337.44 255.167 330.773 250.945 325.773L257.723 317.44H246.612L244.389 320.218C240.167 317.662 235.056 316.329 229.612 316.329C213.5 316.329 201.5 328.218 201.5 345.218C201.5 352.996 204.056 359.662 208.278 364.662L201.5 372.996H212.612ZM212.612 345.218C212.612 333.996 219.945 326.551 229.612 326.551C232.501 326.551 235.278 327.218 237.612 328.551L215.389 355.885C213.612 352.996 212.612 349.329 212.612 345.218ZM229.612 363.885C226.723 363.885 223.945 363.218 221.612 361.885L243.834 334.551C245.612 337.44 246.612 341.107 246.612 345.218C246.612 356.44 239.278 363.885 229.612 363.885Z" fill="#48494B"/>
<path d="M190.487 285.327H1.68408V561.728H31.414L42.6109 550.531H190.487V285.327Z" fill="#EFE3CF" stroke="#48494B" stroke-width="2"/>
<path d="M15.5649 417.664H176.607V533.867H15.5649V417.664Z" fill="#EFE3CF" stroke="#48494B" stroke-width="2"/>
<path d="M86.4577 449.525L93.7911 432.858H82.3466L79.0132 449.525H86.4577ZM106.124 449.525L113.458 432.858H102.013L98.68 449.525H106.124ZM92.1244 517.303C108.236 517.303 120.236 505.414 120.236 488.414C120.236 471.414 108.236 459.525 92.1244 459.525C76.0132 459.525 64.0132 471.414 64.0132 488.414C64.0132 505.414 76.0132 517.303 92.1244 517.303ZM92.1244 507.08C82.4577 507.08 75.1244 499.636 75.1244 488.414C75.1244 477.191 82.4577 469.747 92.1244 469.747C101.791 469.747 109.124 477.191 109.124 488.414C109.124 499.636 101.791 507.08 92.1244 507.08Z" fill="#48494B"/>
<path d="M195.288 763.472H6.48486V1039.87H36.2148L47.4117 1028.68H195.288V763.472Z" fill="#EFE3CF" stroke="#48494B" stroke-width="2"/>
<path d="M20.3657 895.809H181.407V1012.01H20.3657V895.809Z" fill="#EFE3CF" stroke="#48494B" stroke-width="2"/>
<path d="M89.7759 923.902C93.4426 923.902 96.2204 921.013 96.2204 917.458C96.2204 913.902 93.4426 911.013 89.7759 911.013C86.2204 911.013 83.3315 913.902 83.3315 917.458C83.3315 921.013 86.2204 923.902 89.7759 923.902ZM111.998 923.902C115.665 923.902 118.443 921.013 118.443 917.458C118.443 913.902 115.665 911.013 111.998 911.013C108.443 911.013 105.554 913.902 105.554 917.458C105.554 921.013 108.443 923.902 111.998 923.902ZM100.887 993.569C116.998 993.569 128.998 981.68 128.998 964.68C128.998 947.68 116.998 935.791 100.887 935.791C84.7759 935.791 72.7759 947.68 72.7759 964.68C72.7759 981.68 84.7759 993.569 100.887 993.569ZM100.887 983.347C91.2204 983.347 83.887 975.902 83.887 964.68C83.887 953.458 91.2204 946.013 100.887 946.013C110.554 946.013 117.887 953.458 117.887 964.68C117.887 975.902 110.554 983.347 100.887 983.347Z" fill="#48494B"/>
<path d="M466.104 379.102H277.301V655.504H307.03L318.227 644.307H466.104V379.102Z" fill="#EFE3CF" stroke="#48494B" stroke-width="2"/>
<path d="M291.181 511.439H452.223V627.643H291.181V511.439Z" fill="#EFE3CF" stroke="#48494B" stroke-width="2"/>
<path d="M353.481 543.651H361.036V540.651C361.036 537.429 362.369 536.318 364.592 536.318C369.258 536.318 373.592 543.874 380.814 543.874C386.703 543.874 389.925 540.54 389.925 533.207V527.651H382.37V530.651C382.37 533.874 381.036 534.985 378.814 534.985C374.147 534.985 369.814 527.429 362.592 527.429C356.703 527.429 353.481 530.763 353.481 538.096V543.651ZM371.703 611.652C387.814 611.652 399.814 599.763 399.814 582.763C399.814 565.763 387.814 553.874 371.703 553.874C355.592 553.874 343.592 565.763 343.592 582.763C343.592 599.763 355.592 611.652 371.703 611.652ZM371.703 601.43C362.036 601.43 354.703 593.985 354.703 582.763C354.703 571.54 362.036 564.096 371.703 564.096C381.37 564.096 388.703 571.54 388.703 582.763C388.703 593.985 381.37 601.43 371.703 601.43Z" fill="#48494B"/>
<path d="M1089.64 681.518H1278.45V957.92H1248.72L1237.52 946.723H1089.64V681.518Z" fill="#EFE3CF" stroke="#48494B" stroke-width="2"/>
<path d="M1264.57 813.855H1103.52V930.059H1264.57V813.855Z" fill="#EFE3CF" stroke="#48494B" stroke-width="2"/>
<path d="M1202.75 884.033V916.356H1214.59V881.665C1214.59 864.261 1205 855.973 1192.1 855.973C1184.28 855.973 1177.77 859.643 1174.1 866.51V845.317H1191.27V838.213H1174.1V827.557H1162.26V838.213H1153.5V845.317H1162.26V916.356H1174.1V884.033C1174.1 872.312 1179.55 866.392 1188.43 866.392C1197.31 866.392 1202.75 872.312 1202.75 884.033Z" fill="#48494B"/>
<path d="M319.035 695.426H507.838V971.828H478.108L466.912 960.631H319.035V695.426Z" fill="#EFE3CF" stroke="#48494B" stroke-width="2"/>
<path d="M493.958 827.763H332.916V943.967H493.958V827.763Z" fill="#EFE3CF" stroke="#48494B" stroke-width="2"/>
<path d="M389.737 856.265C389.618 882.905 388.79 893.087 387.369 898.178C386.185 902.677 383.58 904.572 380.383 904.572H379.436V915.464H381.567C391.039 915.464 396.485 911.676 398.735 896.876C399.682 890.482 400.274 881.129 400.511 867.158H419.1V915.464H443.371C458.289 915.464 466.104 907.295 466.104 895.573C466.104 883.852 457.579 875.801 443.371 875.801H430.939V856.265H389.737ZM442.306 885.746C450.357 885.746 454.264 888.943 454.264 895.455C454.264 901.849 450.357 905.519 442.306 905.519H430.939V885.746H442.306Z" fill="#48494B"/>
<path d="M489.407 1.5327H678.21V277.934H648.48L637.283 266.737H489.407V1.5327Z" fill="#EFE3CF" stroke="#48494B" stroke-width="2"/>
<path d="M664.329 133.87H503.287V250.073H664.329V133.87Z" fill="#EFE3CF" stroke="#48494B" stroke-width="2"/>
<path d="M562.598 216.879V189.766H586.752V216.879H612.681C626.889 216.879 634.23 208.946 634.23 197.817C634.23 186.569 626.771 178.873 612.563 178.873H598.592V157.68H586.752V178.873H562.598V157.68H550.759V216.879H562.598ZM611.497 188.819C618.838 188.819 622.39 191.897 622.39 197.698C622.39 203.5 618.838 206.934 611.497 206.934H598.592V188.819H611.497Z" fill="#FF6262"/>
<path d="M743.805 989.486H932.608V1265.89H902.878L891.681 1254.69H743.805V989.486Z" fill="#EFE3CF" stroke="#48494B" stroke-width="2"/>
<path d="M918.727 1121.82H757.685V1238.03H918.727V1121.82Z" fill="#EFE3CF" stroke="#48494B" stroke-width="2"/>
<path d="M875.747 1207.4H851.198V1181.61H873.667V1172.04H851.198V1148.53H875.747V1138.96H833.93L799.395 1216.97H810.317L818.535 1197.83H840.796V1216.97H875.747V1207.4ZM822.696 1188.26L840.796 1146.45V1188.26H822.696Z" fill="#48494B"/>
<path d="M970.805 917.836H1159.61V1194.24H1129.88L1118.68 1183.04H970.805V917.836Z" fill="#EFE3CF" stroke="#48494B" stroke-width="2"/>
<path d="M1145.73 1050.17H984.685V1166.38H1145.73V1050.17Z" fill="#EFE3CF" stroke="#48494B" stroke-width="2"/>
<path d="M1052.09 1148.73H1100.19V1138.75H1074.57V1111.82H1098.02V1101.83H1074.57V1077.3H1100.19V1067.31H1052.09C1038.2 1067.31 1027.66 1076.75 1027.66 1095.32V1120.72C1027.66 1139.29 1038.2 1148.73 1052.09 1148.73ZM1052.09 1077.3H1063.71V1138.75H1052.09C1043.73 1138.75 1038.52 1133.53 1038.52 1119.86V1096.19C1038.52 1082.51 1043.73 1077.3 1052.09 1077.3Z" fill="#48494B"/>
<path d="M1452.2 39.992V1.53271H851.277H678.21V746.681H716.669M1452.2 39.992V157.774M1452.2 39.992H1115.68M716.669 746.681V559.192M716.669 746.681H791.184M716.669 157.774V39.992H892.14M716.669 157.774V181.811M716.669 157.774H798.395M1452.2 157.774V181.811M1452.2 157.774H1115.68M716.669 326.033H1452.2M716.669 326.033V350.07M716.669 326.033V181.811M1452.2 326.033V350.07M1452.2 326.033V181.811M716.669 536.357V559.192M716.669 536.357V350.07M716.669 536.357H1017.13M1452.2 536.357V559.192M1452.2 536.357V350.07M1452.2 536.357H1163.76M716.669 559.192H791.184M1452.2 559.192V746.681H1278.66V680.972H1089.71V746.681H1053.19M1452.2 559.192H892.14M716.669 350.07H1017.13M1452.2 350.07H1163.76M716.669 181.811H1452.2M798.395 157.774V78.4513H832.047V157.774M798.395 157.774H832.047M832.047 157.774H892.14M892.14 157.774V39.992M892.14 157.774H923.388M892.14 39.992H923.388M923.388 39.992V78.4513M923.388 39.992H983.48M923.388 157.774H959.443M923.388 157.774V78.4513M959.443 157.774V78.4513H923.388M959.443 157.774H983.48M983.48 39.992V157.774M983.48 39.992H1031.55M983.48 157.774H1031.55M1031.55 157.774V39.992M1031.55 157.774H1096.45M1031.55 39.992H1096.45M1096.45 39.992V157.774M1096.45 39.992H1115.68M1096.45 157.774H1115.68M1115.68 157.774V39.992M1017.13 350.07V536.357M1017.13 350.07H1053.19M1017.13 536.357H1053.19M1053.19 536.357V386.126M1053.19 536.357H1096.45M1053.19 350.07V386.126M1053.19 350.07H1130.11M1053.19 386.126H1096.45V536.357M1096.45 536.357H1130.11M1130.11 350.07V536.357M1130.11 350.07H1163.76M1130.11 536.357H1163.76M1163.76 536.357V350.07M791.184 559.192V746.681M791.184 559.192H841.662M791.184 746.681H841.662M892.14 746.681H841.662M892.14 746.681V614.477M892.14 746.681H923.388M892.14 559.192H841.662M892.14 559.192V614.477M841.662 559.192V746.681M892.14 614.477H923.388V746.681M923.388 746.681H1031.55M1031.55 746.681V592.844H1053.19V746.681M1031.55 746.681H1053.19" stroke="#3D3D3E" stroke-width="2"/>
</svg>
